G04 #@! TF.GenerationSoftware,KiCad,Pcbnew,5.1.10*
G04 #@! TF.CreationDate,2021-10-31T11:36:16+01:00*
G04 #@! TF.ProjectId,mega-wifi,6d656761-2d77-4696-9669-2e6b69636164,A1*
G04 #@! TF.SameCoordinates,Original*
G04 #@! TF.FileFunction,Legend,Top*
G04 #@! TF.FilePolarity,Positive*
%FSLAX46Y46*%
G04 Gerber Fmt 4.6, Leading zero omitted, Abs format (unit mm)*
G04 Created by KiCad (PCBNEW 5.1.10) date 2021-10-31 11:36:16*
%MOMM*%
%LPD*%
G01*
G04 APERTURE LIST*
%ADD10C,0.203200*%
%ADD11C,0.254000*%
%ADD12C,0.120000*%
%ADD13C,0.150000*%
%ADD14C,0.152400*%
%ADD15C,0.010000*%
%ADD16O,1.700000X1.700000*%
%ADD17C,1.700000*%
%ADD18O,1.100000X2.400000*%
%ADD19R,2.400000X1.100000*%
%ADD20O,2.400000X1.100000*%
%ADD21R,1.300000X0.700000*%
%ADD22R,1.250000X1.000000*%
%ADD23R,1.270000X0.279400*%
%ADD24R,1.000000X1.250000*%
%ADD25R,0.285000X1.000000*%
%ADD26R,0.400000X1.000000*%
%ADD27C,6.223000*%
%ADD28R,0.797560X0.797560*%
%ADD29R,1.000760X0.599440*%
%ADD30R,2.032000X3.657600*%
%ADD31R,2.032000X1.016000*%
%ADD32R,1.300000X0.250000*%
%ADD33R,0.250000X1.300000*%
%ADD34R,2.100580X5.600700*%
%ADD35R,2.600960X1.600200*%
%ADD36R,1.778000X6.985000*%
%ADD37R,1.060000X0.650000*%
%ADD38R,1.250000X1.380000*%
%ADD39C,0.100000*%
G04 APERTURE END LIST*
D10*
X183889952Y-120577428D02*
X184035095Y-120625809D01*
X184083476Y-120674190D01*
X184131857Y-120770952D01*
X184131857Y-120916095D01*
X184083476Y-121012857D01*
X184035095Y-121061238D01*
X183938333Y-121109619D01*
X183551285Y-121109619D01*
X183551285Y-120093619D01*
X183889952Y-120093619D01*
X183986714Y-120142000D01*
X184035095Y-120190380D01*
X184083476Y-120287142D01*
X184083476Y-120383904D01*
X184035095Y-120480666D01*
X183986714Y-120529047D01*
X183889952Y-120577428D01*
X183551285Y-120577428D01*
X184470523Y-120093619D02*
X185099476Y-120093619D01*
X184760809Y-120480666D01*
X184905952Y-120480666D01*
X185002714Y-120529047D01*
X185051095Y-120577428D01*
X185099476Y-120674190D01*
X185099476Y-120916095D01*
X185051095Y-121012857D01*
X185002714Y-121061238D01*
X184905952Y-121109619D01*
X184615666Y-121109619D01*
X184518904Y-121061238D01*
X184470523Y-121012857D01*
X185486523Y-120190380D02*
X185534904Y-120142000D01*
X185631666Y-120093619D01*
X185873571Y-120093619D01*
X185970333Y-120142000D01*
X186018714Y-120190380D01*
X186067095Y-120287142D01*
X186067095Y-120383904D01*
X186018714Y-120529047D01*
X185438142Y-121109619D01*
X186067095Y-121109619D01*
X106268761Y-120450428D02*
X106413904Y-120498809D01*
X106462285Y-120547190D01*
X106510666Y-120643952D01*
X106510666Y-120789095D01*
X106462285Y-120885857D01*
X106413904Y-120934238D01*
X106317142Y-120982619D01*
X105930095Y-120982619D01*
X105930095Y-119966619D01*
X106268761Y-119966619D01*
X106365523Y-120015000D01*
X106413904Y-120063380D01*
X106462285Y-120160142D01*
X106462285Y-120256904D01*
X106413904Y-120353666D01*
X106365523Y-120402047D01*
X106268761Y-120450428D01*
X105930095Y-120450428D01*
X107478285Y-120982619D02*
X106897714Y-120982619D01*
X107188000Y-120982619D02*
X107188000Y-119966619D01*
X107091238Y-120111761D01*
X106994476Y-120208523D01*
X106897714Y-120256904D01*
D11*
X117729000Y-87376000D02*
G75*
G03*
X117729000Y-87376000I-127000J0D01*
G01*
X156591000Y-90805000D02*
G75*
G03*
X156591000Y-90805000I-127000J0D01*
G01*
X143256000Y-96393000D02*
G75*
G03*
X143256000Y-96393000I-127000J0D01*
G01*
X177571400Y-111150400D02*
G75*
G03*
X177571400Y-111150400I-127000J0D01*
G01*
X148336000Y-112395000D02*
G75*
G03*
X148336000Y-112395000I-127000J0D01*
G01*
X119253000Y-118745000D02*
G75*
G03*
X119253000Y-118745000I-127000J0D01*
G01*
D12*
X138756700Y-94631200D02*
X136096700Y-94631200D01*
X138756700Y-97231200D02*
X138756700Y-94631200D01*
X136096700Y-97231200D02*
X136096700Y-94631200D01*
X138756700Y-97231200D02*
X136096700Y-97231200D01*
X138756700Y-98501200D02*
X138756700Y-99831200D01*
X138756700Y-99831200D02*
X137426700Y-99831200D01*
D13*
X111901000Y-91405000D02*
X111901000Y-90205000D01*
X113651000Y-90205000D02*
X113651000Y-91405000D01*
X114060000Y-91405000D02*
X114060000Y-90205000D01*
X115810000Y-90205000D02*
X115810000Y-91405000D01*
X137428000Y-93068700D02*
X137428000Y-91868700D01*
X139178000Y-91868700D02*
X139178000Y-93068700D01*
X161710000Y-114181000D02*
X161710000Y-115181000D01*
X163410000Y-115181000D02*
X163410000Y-114181000D01*
X145391041Y-96686897D02*
G75*
G03*
X145391041Y-96686897I-508000J0D01*
G01*
X161647041Y-95738897D02*
X161647041Y-109738897D01*
X161647041Y-109738897D02*
X143994041Y-109738897D01*
X143994041Y-95738897D02*
X143994041Y-109738897D01*
X143994041Y-95738897D02*
X161647041Y-95738897D01*
X167225600Y-102096200D02*
X166225600Y-102096200D01*
X166225600Y-103796200D02*
X167225600Y-103796200D01*
X119355000Y-118110000D02*
X119612500Y-118110000D01*
X119355000Y-111760000D02*
X119612500Y-111760000D01*
X132105000Y-111760000D02*
X131847500Y-111760000D01*
X132105000Y-118110000D02*
X131847500Y-118110000D01*
X119355000Y-118110000D02*
X119355000Y-111760000D01*
X132105000Y-118110000D02*
X132105000Y-111760000D01*
X119612500Y-118110000D02*
X119612500Y-119185000D01*
X147762166Y-112947334D02*
X147737166Y-112947334D01*
X147762166Y-117597334D02*
X147737166Y-117597334D01*
X141012166Y-117597334D02*
X141037166Y-117597334D01*
X141012166Y-112947334D02*
X141037166Y-112947334D01*
X147762166Y-112947334D02*
X147762166Y-117597334D01*
X141012166Y-112947334D02*
X141012166Y-117597334D01*
X147737166Y-112947334D02*
X147737166Y-111872334D01*
X108085000Y-114515000D02*
X109085000Y-114515000D01*
X109085000Y-112815000D02*
X108085000Y-112815000D01*
X133109600Y-114993800D02*
X133109600Y-115993800D01*
X134809600Y-115993800D02*
X134809600Y-114993800D01*
X116625000Y-112435000D02*
X116625000Y-113435000D01*
X118325000Y-113435000D02*
X118325000Y-112435000D01*
X148590900Y-115124100D02*
X148590900Y-116124100D01*
X150290900Y-116124100D02*
X150290900Y-115124100D01*
X178220000Y-114435000D02*
X178220000Y-115435000D01*
X179920000Y-115435000D02*
X179920000Y-114435000D01*
X150147400Y-95287200D02*
X151147400Y-95287200D01*
X151147400Y-93587200D02*
X150147400Y-93587200D01*
X172342956Y-92908816D02*
X172342956Y-91908816D01*
X170642956Y-91908816D02*
X170642956Y-92908816D01*
X170642956Y-86828816D02*
X170642956Y-87828816D01*
X172342956Y-87828816D02*
X172342956Y-86828816D01*
X120753000Y-105957000D02*
X119753000Y-105957000D01*
X119753000Y-107657000D02*
X120753000Y-107657000D01*
X136075420Y-92069920D02*
X136974580Y-92069920D01*
X136974580Y-92069920D02*
X136974580Y-91671140D01*
X136075420Y-91671140D02*
X136974580Y-91671140D01*
X136075420Y-92069920D02*
X136075420Y-91671140D01*
X136075420Y-93367860D02*
X136974580Y-93367860D01*
X136974580Y-93367860D02*
X136974580Y-92969080D01*
X136075420Y-92969080D02*
X136974580Y-92969080D01*
X136075420Y-93367860D02*
X136075420Y-92969080D01*
X136075420Y-92519500D02*
X136225280Y-92519500D01*
X136225280Y-92519500D02*
X136225280Y-92219780D01*
X136075420Y-92219780D02*
X136225280Y-92219780D01*
X136075420Y-92519500D02*
X136075420Y-92219780D01*
X136824720Y-92519500D02*
X136974580Y-92519500D01*
X136974580Y-92519500D02*
X136974580Y-92219780D01*
X136824720Y-92219780D02*
X136974580Y-92219780D01*
X136824720Y-92519500D02*
X136824720Y-92219780D01*
X136375140Y-92519500D02*
X136674860Y-92519500D01*
X136674860Y-92519500D02*
X136674860Y-92219780D01*
X136375140Y-92219780D02*
X136674860Y-92219780D01*
X136375140Y-92519500D02*
X136375140Y-92219780D01*
X136126220Y-92069920D02*
X136126220Y-92969080D01*
X136923780Y-92069920D02*
X136923780Y-92969080D01*
X144086942Y-87289548D02*
X144986942Y-87289548D01*
X144986942Y-87289548D02*
X144986942Y-88089548D01*
X144086942Y-90289548D02*
X144986942Y-90289548D01*
X144986942Y-90289548D02*
X144986942Y-89489548D01*
X143586942Y-89089548D02*
X143586942Y-88489548D01*
X185288345Y-114462813D02*
X185288345Y-115662813D01*
X183538345Y-115662813D02*
X183538345Y-114462813D01*
X139714000Y-93056000D02*
X139714000Y-91856000D01*
X141464000Y-91856000D02*
X141464000Y-93056000D01*
X181099945Y-115662813D02*
X181099945Y-114462813D01*
X182849945Y-114462813D02*
X182849945Y-115662813D01*
X140349000Y-84547000D02*
X140349000Y-83347000D01*
X142099000Y-83347000D02*
X142099000Y-84547000D01*
X142523448Y-84519734D02*
X142523448Y-83319734D01*
X144273448Y-83319734D02*
X144273448Y-84519734D01*
X146213800Y-92821200D02*
X146213800Y-94021200D01*
X144463800Y-94021200D02*
X144463800Y-92821200D01*
X137400000Y-101254000D02*
X137400000Y-102454000D01*
X135650000Y-102454000D02*
X135650000Y-101254000D01*
X109728000Y-105029000D02*
X106680000Y-105029000D01*
X106680000Y-105029000D02*
X106680000Y-112141000D01*
X106680000Y-112141000D02*
X109728000Y-112141000D01*
X112776000Y-105029000D02*
X113538000Y-105029000D01*
X113538000Y-105029000D02*
X115824000Y-106553000D01*
X115824000Y-106553000D02*
X115824000Y-110617000D01*
X115824000Y-110617000D02*
X113538000Y-112141000D01*
X113538000Y-112141000D02*
X112776000Y-112141000D01*
X177225000Y-111700000D02*
X176967500Y-111700000D01*
X177225000Y-118050000D02*
X176967500Y-118050000D01*
X164475000Y-118050000D02*
X164732500Y-118050000D01*
X164475000Y-111700000D02*
X164732500Y-111700000D01*
X177225000Y-111700000D02*
X177225000Y-118050000D01*
X164475000Y-111700000D02*
X164475000Y-118050000D01*
X176967500Y-111700000D02*
X176967500Y-110625000D01*
X155771000Y-90874000D02*
X155771000Y-90349000D01*
X148521000Y-90874000D02*
X148521000Y-90349000D01*
X148521000Y-83624000D02*
X148521000Y-84149000D01*
X155771000Y-83624000D02*
X155771000Y-84149000D01*
X155771000Y-90874000D02*
X155246000Y-90874000D01*
X155771000Y-83624000D02*
X155246000Y-83624000D01*
X148521000Y-83624000D02*
X149046000Y-83624000D01*
X148521000Y-90874000D02*
X149046000Y-90874000D01*
X155771000Y-90349000D02*
X157146000Y-90349000D01*
X168912316Y-95718436D02*
X168912316Y-84019196D01*
X163913596Y-84019196D02*
X163913596Y-95718436D01*
X168912316Y-84019196D02*
X168063956Y-84019196D01*
X163913596Y-84019196D02*
X164761956Y-84019196D01*
X168912316Y-95718436D02*
X168063956Y-95718436D01*
X163913596Y-95718436D02*
X164761956Y-95718436D01*
X111506000Y-117475000D02*
X110744000Y-117475000D01*
X111125000Y-117094000D02*
X111125000Y-117856000D01*
X111379000Y-119761000D02*
X107569000Y-119761000D01*
X112141000Y-115951000D02*
X112141000Y-118999000D01*
X111379000Y-119761000D02*
X112141000Y-118999000D01*
X111379000Y-115189000D02*
X107569000Y-115189000D01*
X111379000Y-115189000D02*
X112141000Y-115951000D01*
X107823000Y-117602000D02*
X107823000Y-117348000D01*
X107950000Y-116840000D02*
X107950000Y-118110000D01*
X108077000Y-118364000D02*
X108077000Y-116586000D01*
X108204000Y-118618000D02*
X108204000Y-116332000D01*
X108331000Y-116205000D02*
X108331000Y-118745000D01*
X108458000Y-118872000D02*
X108458000Y-116078000D01*
X108585000Y-115951000D02*
X108585000Y-118999000D01*
X108712000Y-115824000D02*
X108712000Y-119126000D01*
X111887000Y-117475000D02*
G75*
G03*
X111887000Y-117475000I-2032000J0D01*
G01*
X107569000Y-115189000D02*
X107569000Y-119761000D01*
X111506000Y-102235000D02*
X110744000Y-102235000D01*
X111125000Y-101854000D02*
X111125000Y-102616000D01*
X111379000Y-104521000D02*
X107569000Y-104521000D01*
X112141000Y-100711000D02*
X112141000Y-103759000D01*
X111379000Y-104521000D02*
X112141000Y-103759000D01*
X111379000Y-99949000D02*
X107569000Y-99949000D01*
X111379000Y-99949000D02*
X112141000Y-100711000D01*
X107823000Y-102362000D02*
X107823000Y-102108000D01*
X107950000Y-101600000D02*
X107950000Y-102870000D01*
X108077000Y-103124000D02*
X108077000Y-101346000D01*
X108204000Y-103378000D02*
X108204000Y-101092000D01*
X108331000Y-100965000D02*
X108331000Y-103505000D01*
X108458000Y-103632000D02*
X108458000Y-100838000D01*
X108585000Y-100711000D02*
X108585000Y-103759000D01*
X108712000Y-100584000D02*
X108712000Y-103886000D01*
X111887000Y-102235000D02*
G75*
G03*
X111887000Y-102235000I-2032000J0D01*
G01*
X107569000Y-99949000D02*
X107569000Y-104521000D01*
X156729000Y-114911400D02*
G75*
G03*
X156729000Y-114911400I-100000J0D01*
G01*
X157179000Y-115161400D02*
X156679000Y-115161400D01*
X157179000Y-118061400D02*
X157179000Y-115161400D01*
X156679000Y-118061400D02*
X157179000Y-118061400D01*
X156679000Y-115161400D02*
X156679000Y-118061400D01*
X156599000Y-114413400D02*
X157599000Y-114413400D01*
X157599000Y-112713400D02*
X156599000Y-112713400D01*
X106895000Y-95750000D02*
X106895000Y-94750000D01*
X105195000Y-94750000D02*
X105195000Y-95750000D01*
X137628600Y-117230600D02*
X137628600Y-118430600D01*
X135878600Y-118430600D02*
X135878600Y-117230600D01*
X138164600Y-118430600D02*
X138164600Y-117230600D01*
X139914600Y-117230600D02*
X139914600Y-118430600D01*
X106920000Y-91155000D02*
X106920000Y-92355000D01*
X105170000Y-92355000D02*
X105170000Y-91155000D01*
D14*
X140159619Y-98031904D02*
X139143619Y-98031904D01*
X139143619Y-97644857D01*
X139192000Y-97548095D01*
X139240380Y-97499714D01*
X139337142Y-97451333D01*
X139482285Y-97451333D01*
X139579047Y-97499714D01*
X139627428Y-97548095D01*
X139675809Y-97644857D01*
X139675809Y-98031904D01*
X140159619Y-96483714D02*
X140159619Y-97064285D01*
X140159619Y-96774000D02*
X139143619Y-96774000D01*
X139288761Y-96870761D01*
X139385523Y-96967523D01*
X139433904Y-97064285D01*
D10*
X125032104Y-105895019D02*
X125032104Y-106717495D01*
X125080485Y-106814257D01*
X125128866Y-106862638D01*
X125225628Y-106911019D01*
X125419152Y-106911019D01*
X125515914Y-106862638D01*
X125564295Y-106814257D01*
X125612676Y-106717495D01*
X125612676Y-105895019D01*
X125999723Y-105895019D02*
X126628676Y-105895019D01*
X126290009Y-106282066D01*
X126435152Y-106282066D01*
X126531914Y-106330447D01*
X126580295Y-106378828D01*
X126628676Y-106475590D01*
X126628676Y-106717495D01*
X126580295Y-106814257D01*
X126531914Y-106862638D01*
X126435152Y-106911019D01*
X126144866Y-106911019D01*
X126048104Y-106862638D01*
X125999723Y-106814257D01*
X111584619Y-91458142D02*
X111100809Y-91796809D01*
X111584619Y-92038714D02*
X110568619Y-92038714D01*
X110568619Y-91651666D01*
X110617000Y-91554904D01*
X110665380Y-91506523D01*
X110762142Y-91458142D01*
X110907285Y-91458142D01*
X111004047Y-91506523D01*
X111052428Y-91554904D01*
X111100809Y-91651666D01*
X111100809Y-92038714D01*
X111584619Y-90490523D02*
X111584619Y-91071095D01*
X111584619Y-90780809D02*
X110568619Y-90780809D01*
X110713761Y-90877571D01*
X110810523Y-90974333D01*
X110858904Y-91071095D01*
X110665380Y-90103476D02*
X110617000Y-90055095D01*
X110568619Y-89958333D01*
X110568619Y-89716428D01*
X110617000Y-89619666D01*
X110665380Y-89571285D01*
X110762142Y-89522904D01*
X110858904Y-89522904D01*
X111004047Y-89571285D01*
X111584619Y-90151857D01*
X111584619Y-89522904D01*
X114765666Y-93550619D02*
X114427000Y-93066809D01*
X114185095Y-93550619D02*
X114185095Y-92534619D01*
X114572142Y-92534619D01*
X114668904Y-92583000D01*
X114717285Y-92631380D01*
X114765666Y-92728142D01*
X114765666Y-92873285D01*
X114717285Y-92970047D01*
X114668904Y-93018428D01*
X114572142Y-93066809D01*
X114185095Y-93066809D01*
X115249476Y-93550619D02*
X115443000Y-93550619D01*
X115539761Y-93502238D01*
X115588142Y-93453857D01*
X115684904Y-93308714D01*
X115733285Y-93115190D01*
X115733285Y-92728142D01*
X115684904Y-92631380D01*
X115636523Y-92583000D01*
X115539761Y-92534619D01*
X115346238Y-92534619D01*
X115249476Y-92583000D01*
X115201095Y-92631380D01*
X115152714Y-92728142D01*
X115152714Y-92970047D01*
X115201095Y-93066809D01*
X115249476Y-93115190D01*
X115346238Y-93163571D01*
X115539761Y-93163571D01*
X115636523Y-93115190D01*
X115684904Y-93066809D01*
X115733285Y-92970047D01*
X138762619Y-90085333D02*
X138278809Y-90424000D01*
X138762619Y-90665904D02*
X137746619Y-90665904D01*
X137746619Y-90278857D01*
X137795000Y-90182095D01*
X137843380Y-90133714D01*
X137940142Y-90085333D01*
X138085285Y-90085333D01*
X138182047Y-90133714D01*
X138230428Y-90182095D01*
X138278809Y-90278857D01*
X138278809Y-90665904D01*
X138182047Y-89504761D02*
X138133666Y-89601523D01*
X138085285Y-89649904D01*
X137988523Y-89698285D01*
X137940142Y-89698285D01*
X137843380Y-89649904D01*
X137795000Y-89601523D01*
X137746619Y-89504761D01*
X137746619Y-89311238D01*
X137795000Y-89214476D01*
X137843380Y-89166095D01*
X137940142Y-89117714D01*
X137988523Y-89117714D01*
X138085285Y-89166095D01*
X138133666Y-89214476D01*
X138182047Y-89311238D01*
X138182047Y-89504761D01*
X138230428Y-89601523D01*
X138278809Y-89649904D01*
X138375571Y-89698285D01*
X138569095Y-89698285D01*
X138665857Y-89649904D01*
X138714238Y-89601523D01*
X138762619Y-89504761D01*
X138762619Y-89311238D01*
X138714238Y-89214476D01*
X138665857Y-89166095D01*
X138569095Y-89117714D01*
X138375571Y-89117714D01*
X138278809Y-89166095D01*
X138230428Y-89214476D01*
X138182047Y-89311238D01*
X161906857Y-112630857D02*
X161858476Y-112679238D01*
X161713333Y-112727619D01*
X161616571Y-112727619D01*
X161471428Y-112679238D01*
X161374666Y-112582476D01*
X161326285Y-112485714D01*
X161277904Y-112292190D01*
X161277904Y-112147047D01*
X161326285Y-111953523D01*
X161374666Y-111856761D01*
X161471428Y-111760000D01*
X161616571Y-111711619D01*
X161713333Y-111711619D01*
X161858476Y-111760000D01*
X161906857Y-111808380D01*
X162874476Y-112727619D02*
X162293904Y-112727619D01*
X162584190Y-112727619D02*
X162584190Y-111711619D01*
X162487428Y-111856761D01*
X162390666Y-111953523D01*
X162293904Y-112001904D01*
X163261523Y-111808380D02*
X163309904Y-111760000D01*
X163406666Y-111711619D01*
X163648571Y-111711619D01*
X163745333Y-111760000D01*
X163793714Y-111808380D01*
X163842095Y-111905142D01*
X163842095Y-112001904D01*
X163793714Y-112147047D01*
X163213142Y-112727619D01*
X163842095Y-112727619D01*
X151956104Y-110213019D02*
X151956104Y-111035495D01*
X152004485Y-111132257D01*
X152052866Y-111180638D01*
X152149628Y-111229019D01*
X152343152Y-111229019D01*
X152439914Y-111180638D01*
X152488295Y-111132257D01*
X152536676Y-111035495D01*
X152536676Y-110213019D01*
X152972104Y-110309780D02*
X153020485Y-110261400D01*
X153117247Y-110213019D01*
X153359152Y-110213019D01*
X153455914Y-110261400D01*
X153504295Y-110309780D01*
X153552676Y-110406542D01*
X153552676Y-110503304D01*
X153504295Y-110648447D01*
X152923723Y-111229019D01*
X153552676Y-111229019D01*
X166581666Y-101581857D02*
X166533285Y-101630238D01*
X166388142Y-101678619D01*
X166291380Y-101678619D01*
X166146238Y-101630238D01*
X166049476Y-101533476D01*
X166001095Y-101436714D01*
X165952714Y-101243190D01*
X165952714Y-101098047D01*
X166001095Y-100904523D01*
X166049476Y-100807761D01*
X166146238Y-100711000D01*
X166291380Y-100662619D01*
X166388142Y-100662619D01*
X166533285Y-100711000D01*
X166581666Y-100759380D01*
X166968714Y-100759380D02*
X167017095Y-100711000D01*
X167113857Y-100662619D01*
X167355761Y-100662619D01*
X167452523Y-100711000D01*
X167500904Y-100759380D01*
X167549285Y-100856142D01*
X167549285Y-100952904D01*
X167500904Y-101098047D01*
X166920333Y-101678619D01*
X167549285Y-101678619D01*
X125032104Y-109197019D02*
X125032104Y-110019495D01*
X125080485Y-110116257D01*
X125128866Y-110164638D01*
X125225628Y-110213019D01*
X125419152Y-110213019D01*
X125515914Y-110164638D01*
X125564295Y-110116257D01*
X125612676Y-110019495D01*
X125612676Y-109197019D01*
X126531914Y-109197019D02*
X126338390Y-109197019D01*
X126241628Y-109245400D01*
X126193247Y-109293780D01*
X126096485Y-109438923D01*
X126048104Y-109632447D01*
X126048104Y-110019495D01*
X126096485Y-110116257D01*
X126144866Y-110164638D01*
X126241628Y-110213019D01*
X126435152Y-110213019D01*
X126531914Y-110164638D01*
X126580295Y-110116257D01*
X126628676Y-110019495D01*
X126628676Y-109777590D01*
X126580295Y-109680828D01*
X126531914Y-109632447D01*
X126435152Y-109584066D01*
X126241628Y-109584066D01*
X126144866Y-109632447D01*
X126096485Y-109680828D01*
X126048104Y-109777590D01*
X143701104Y-110467019D02*
X143701104Y-111289495D01*
X143749485Y-111386257D01*
X143797866Y-111434638D01*
X143894628Y-111483019D01*
X144088152Y-111483019D01*
X144184914Y-111434638D01*
X144233295Y-111386257D01*
X144281676Y-111289495D01*
X144281676Y-110467019D01*
X144668723Y-110467019D02*
X145346057Y-110467019D01*
X144910628Y-111483019D01*
X111209666Y-114027857D02*
X111161285Y-114076238D01*
X111016142Y-114124619D01*
X110919380Y-114124619D01*
X110774238Y-114076238D01*
X110677476Y-113979476D01*
X110629095Y-113882714D01*
X110580714Y-113689190D01*
X110580714Y-113544047D01*
X110629095Y-113350523D01*
X110677476Y-113253761D01*
X110774238Y-113157000D01*
X110919380Y-113108619D01*
X111016142Y-113108619D01*
X111161285Y-113157000D01*
X111209666Y-113205380D01*
X111790238Y-113544047D02*
X111693476Y-113495666D01*
X111645095Y-113447285D01*
X111596714Y-113350523D01*
X111596714Y-113302142D01*
X111645095Y-113205380D01*
X111693476Y-113157000D01*
X111790238Y-113108619D01*
X111983761Y-113108619D01*
X112080523Y-113157000D01*
X112128904Y-113205380D01*
X112177285Y-113302142D01*
X112177285Y-113350523D01*
X112128904Y-113447285D01*
X112080523Y-113495666D01*
X111983761Y-113544047D01*
X111790238Y-113544047D01*
X111693476Y-113592428D01*
X111645095Y-113640809D01*
X111596714Y-113737571D01*
X111596714Y-113931095D01*
X111645095Y-114027857D01*
X111693476Y-114076238D01*
X111790238Y-114124619D01*
X111983761Y-114124619D01*
X112080523Y-114076238D01*
X112128904Y-114027857D01*
X112177285Y-113931095D01*
X112177285Y-113737571D01*
X112128904Y-113640809D01*
X112080523Y-113592428D01*
X111983761Y-113544047D01*
X133764866Y-113418257D02*
X133716485Y-113466638D01*
X133571342Y-113515019D01*
X133474580Y-113515019D01*
X133329438Y-113466638D01*
X133232676Y-113369876D01*
X133184295Y-113273114D01*
X133135914Y-113079590D01*
X133135914Y-112934447D01*
X133184295Y-112740923D01*
X133232676Y-112644161D01*
X133329438Y-112547400D01*
X133474580Y-112499019D01*
X133571342Y-112499019D01*
X133716485Y-112547400D01*
X133764866Y-112595780D01*
X134248676Y-113515019D02*
X134442200Y-113515019D01*
X134538961Y-113466638D01*
X134587342Y-113418257D01*
X134684104Y-113273114D01*
X134732485Y-113079590D01*
X134732485Y-112692542D01*
X134684104Y-112595780D01*
X134635723Y-112547400D01*
X134538961Y-112499019D01*
X134345438Y-112499019D01*
X134248676Y-112547400D01*
X134200295Y-112595780D01*
X134151914Y-112692542D01*
X134151914Y-112934447D01*
X134200295Y-113031209D01*
X134248676Y-113079590D01*
X134345438Y-113127971D01*
X134538961Y-113127971D01*
X134635723Y-113079590D01*
X134684104Y-113031209D01*
X134732485Y-112934447D01*
X116313857Y-113556142D02*
X116362238Y-113604523D01*
X116410619Y-113749666D01*
X116410619Y-113846428D01*
X116362238Y-113991571D01*
X116265476Y-114088333D01*
X116168714Y-114136714D01*
X115975190Y-114185095D01*
X115830047Y-114185095D01*
X115636523Y-114136714D01*
X115539761Y-114088333D01*
X115443000Y-113991571D01*
X115394619Y-113846428D01*
X115394619Y-113749666D01*
X115443000Y-113604523D01*
X115491380Y-113556142D01*
X116410619Y-112588523D02*
X116410619Y-113169095D01*
X116410619Y-112878809D02*
X115394619Y-112878809D01*
X115539761Y-112975571D01*
X115636523Y-113072333D01*
X115684904Y-113169095D01*
X115394619Y-111959571D02*
X115394619Y-111862809D01*
X115443000Y-111766047D01*
X115491380Y-111717666D01*
X115588142Y-111669285D01*
X115781666Y-111620904D01*
X116023571Y-111620904D01*
X116217095Y-111669285D01*
X116313857Y-111717666D01*
X116362238Y-111766047D01*
X116410619Y-111862809D01*
X116410619Y-111959571D01*
X116362238Y-112056333D01*
X116313857Y-112104714D01*
X116217095Y-112153095D01*
X116023571Y-112201476D01*
X115781666Y-112201476D01*
X115588142Y-112153095D01*
X115491380Y-112104714D01*
X115443000Y-112056333D01*
X115394619Y-111959571D01*
X148783829Y-118621859D02*
X148735448Y-118670240D01*
X148590305Y-118718621D01*
X148493543Y-118718621D01*
X148348400Y-118670240D01*
X148251638Y-118573478D01*
X148203257Y-118476716D01*
X148154876Y-118283192D01*
X148154876Y-118138049D01*
X148203257Y-117944525D01*
X148251638Y-117847763D01*
X148348400Y-117751002D01*
X148493543Y-117702621D01*
X148590305Y-117702621D01*
X148735448Y-117751002D01*
X148783829Y-117799382D01*
X149751448Y-118718621D02*
X149170876Y-118718621D01*
X149461162Y-118718621D02*
X149461162Y-117702621D01*
X149364400Y-117847763D01*
X149267638Y-117944525D01*
X149170876Y-117992906D01*
X150719067Y-118718621D02*
X150138495Y-118718621D01*
X150428781Y-118718621D02*
X150428781Y-117702621D01*
X150332019Y-117847763D01*
X150235257Y-117944525D01*
X150138495Y-117992906D01*
X178493057Y-117837857D02*
X178444676Y-117886238D01*
X178299533Y-117934619D01*
X178202771Y-117934619D01*
X178057628Y-117886238D01*
X177960866Y-117789476D01*
X177912485Y-117692714D01*
X177864104Y-117499190D01*
X177864104Y-117354047D01*
X177912485Y-117160523D01*
X177960866Y-117063761D01*
X178057628Y-116967000D01*
X178202771Y-116918619D01*
X178299533Y-116918619D01*
X178444676Y-116967000D01*
X178493057Y-117015380D01*
X179460676Y-117934619D02*
X178880104Y-117934619D01*
X179170390Y-117934619D02*
X179170390Y-116918619D01*
X179073628Y-117063761D01*
X178976866Y-117160523D01*
X178880104Y-117208904D01*
X179799342Y-116918619D02*
X180428295Y-116918619D01*
X180089628Y-117305666D01*
X180234771Y-117305666D01*
X180331533Y-117354047D01*
X180379914Y-117402428D01*
X180428295Y-117499190D01*
X180428295Y-117741095D01*
X180379914Y-117837857D01*
X180331533Y-117886238D01*
X180234771Y-117934619D01*
X179944485Y-117934619D01*
X179847723Y-117886238D01*
X179799342Y-117837857D01*
X153246666Y-94749257D02*
X153198285Y-94797638D01*
X153053142Y-94846019D01*
X152956380Y-94846019D01*
X152811238Y-94797638D01*
X152714476Y-94700876D01*
X152666095Y-94604114D01*
X152617714Y-94410590D01*
X152617714Y-94265447D01*
X152666095Y-94071923D01*
X152714476Y-93975161D01*
X152811238Y-93878400D01*
X152956380Y-93830019D01*
X153053142Y-93830019D01*
X153198285Y-93878400D01*
X153246666Y-93926780D01*
X154214285Y-94846019D02*
X153633714Y-94846019D01*
X153924000Y-94846019D02*
X153924000Y-93830019D01*
X153827238Y-93975161D01*
X153730476Y-94071923D01*
X153633714Y-94120304D01*
X173590857Y-92625333D02*
X173639238Y-92673714D01*
X173687619Y-92818857D01*
X173687619Y-92915619D01*
X173639238Y-93060761D01*
X173542476Y-93157523D01*
X173445714Y-93205904D01*
X173252190Y-93254285D01*
X173107047Y-93254285D01*
X172913523Y-93205904D01*
X172816761Y-93157523D01*
X172720000Y-93060761D01*
X172671619Y-92915619D01*
X172671619Y-92818857D01*
X172720000Y-92673714D01*
X172768380Y-92625333D01*
X172671619Y-92286666D02*
X172671619Y-91657714D01*
X173058666Y-91996380D01*
X173058666Y-91851238D01*
X173107047Y-91754476D01*
X173155428Y-91706095D01*
X173252190Y-91657714D01*
X173494095Y-91657714D01*
X173590857Y-91706095D01*
X173639238Y-91754476D01*
X173687619Y-91851238D01*
X173687619Y-92141523D01*
X173639238Y-92238285D01*
X173590857Y-92286666D01*
X173590857Y-87498149D02*
X173639238Y-87546530D01*
X173687619Y-87691673D01*
X173687619Y-87788435D01*
X173639238Y-87933577D01*
X173542476Y-88030339D01*
X173445714Y-88078720D01*
X173252190Y-88127101D01*
X173107047Y-88127101D01*
X172913523Y-88078720D01*
X172816761Y-88030339D01*
X172720000Y-87933577D01*
X172671619Y-87788435D01*
X172671619Y-87691673D01*
X172720000Y-87546530D01*
X172768380Y-87498149D01*
X173010285Y-86627292D02*
X173687619Y-86627292D01*
X172623238Y-86869196D02*
X173348952Y-87111101D01*
X173348952Y-86482149D01*
X120058266Y-108947857D02*
X120009885Y-108996238D01*
X119864742Y-109044619D01*
X119767980Y-109044619D01*
X119622838Y-108996238D01*
X119526076Y-108899476D01*
X119477695Y-108802714D01*
X119429314Y-108609190D01*
X119429314Y-108464047D01*
X119477695Y-108270523D01*
X119526076Y-108173761D01*
X119622838Y-108077000D01*
X119767980Y-108028619D01*
X119864742Y-108028619D01*
X120009885Y-108077000D01*
X120058266Y-108125380D01*
X120929123Y-108028619D02*
X120735600Y-108028619D01*
X120638838Y-108077000D01*
X120590457Y-108125380D01*
X120493695Y-108270523D01*
X120445314Y-108464047D01*
X120445314Y-108851095D01*
X120493695Y-108947857D01*
X120542076Y-108996238D01*
X120638838Y-109044619D01*
X120832361Y-109044619D01*
X120929123Y-108996238D01*
X120977504Y-108947857D01*
X121025885Y-108851095D01*
X121025885Y-108609190D01*
X120977504Y-108512428D01*
X120929123Y-108464047D01*
X120832361Y-108415666D01*
X120638838Y-108415666D01*
X120542076Y-108464047D01*
X120493695Y-108512428D01*
X120445314Y-108609190D01*
X137035419Y-90729404D02*
X136019419Y-90729404D01*
X136019419Y-90487500D01*
X136067800Y-90342357D01*
X136164561Y-90245595D01*
X136261323Y-90197214D01*
X136454847Y-90148833D01*
X136599990Y-90148833D01*
X136793514Y-90197214D01*
X136890276Y-90245595D01*
X136987038Y-90342357D01*
X137035419Y-90487500D01*
X137035419Y-90729404D01*
X137035419Y-89181214D02*
X137035419Y-89761785D01*
X137035419Y-89471500D02*
X136019419Y-89471500D01*
X136164561Y-89568261D01*
X136261323Y-89665023D01*
X136309704Y-89761785D01*
X144365738Y-91640780D02*
X144268976Y-91592400D01*
X144172214Y-91495638D01*
X144027071Y-91350495D01*
X143930309Y-91302114D01*
X143833547Y-91302114D01*
X143881928Y-91544019D02*
X143785166Y-91495638D01*
X143688404Y-91398876D01*
X143640023Y-91205352D01*
X143640023Y-90866685D01*
X143688404Y-90673161D01*
X143785166Y-90576400D01*
X143881928Y-90528019D01*
X144075452Y-90528019D01*
X144172214Y-90576400D01*
X144268976Y-90673161D01*
X144317357Y-90866685D01*
X144317357Y-91205352D01*
X144268976Y-91398876D01*
X144172214Y-91495638D01*
X144075452Y-91544019D01*
X143881928Y-91544019D01*
X145284976Y-91544019D02*
X144704404Y-91544019D01*
X144994690Y-91544019D02*
X144994690Y-90528019D01*
X144897928Y-90673161D01*
X144801166Y-90769923D01*
X144704404Y-90818304D01*
X184863619Y-112794142D02*
X184379809Y-113132809D01*
X184863619Y-113374714D02*
X183847619Y-113374714D01*
X183847619Y-112987666D01*
X183896000Y-112890904D01*
X183944380Y-112842523D01*
X184041142Y-112794142D01*
X184186285Y-112794142D01*
X184283047Y-112842523D01*
X184331428Y-112890904D01*
X184379809Y-112987666D01*
X184379809Y-113374714D01*
X184863619Y-111826523D02*
X184863619Y-112407095D01*
X184863619Y-112116809D02*
X183847619Y-112116809D01*
X183992761Y-112213571D01*
X184089523Y-112310333D01*
X184137904Y-112407095D01*
X184863619Y-110858904D02*
X184863619Y-111439476D01*
X184863619Y-111149190D02*
X183847619Y-111149190D01*
X183992761Y-111245952D01*
X184089523Y-111342714D01*
X184137904Y-111439476D01*
X141048619Y-90085333D02*
X140564809Y-90424000D01*
X141048619Y-90665904D02*
X140032619Y-90665904D01*
X140032619Y-90278857D01*
X140081000Y-90182095D01*
X140129380Y-90133714D01*
X140226142Y-90085333D01*
X140371285Y-90085333D01*
X140468047Y-90133714D01*
X140516428Y-90182095D01*
X140564809Y-90278857D01*
X140564809Y-90665904D01*
X140032619Y-89166095D02*
X140032619Y-89649904D01*
X140516428Y-89698285D01*
X140468047Y-89649904D01*
X140419666Y-89553142D01*
X140419666Y-89311238D01*
X140468047Y-89214476D01*
X140516428Y-89166095D01*
X140613190Y-89117714D01*
X140855095Y-89117714D01*
X140951857Y-89166095D01*
X141000238Y-89214476D01*
X141048619Y-89311238D01*
X141048619Y-89553142D01*
X141000238Y-89649904D01*
X140951857Y-89698285D01*
X182450619Y-112794142D02*
X181966809Y-113132809D01*
X182450619Y-113374714D02*
X181434619Y-113374714D01*
X181434619Y-112987666D01*
X181483000Y-112890904D01*
X181531380Y-112842523D01*
X181628142Y-112794142D01*
X181773285Y-112794142D01*
X181870047Y-112842523D01*
X181918428Y-112890904D01*
X181966809Y-112987666D01*
X181966809Y-113374714D01*
X182450619Y-111826523D02*
X182450619Y-112407095D01*
X182450619Y-112116809D02*
X181434619Y-112116809D01*
X181579761Y-112213571D01*
X181676523Y-112310333D01*
X181724904Y-112407095D01*
X181434619Y-110907285D02*
X181434619Y-111391095D01*
X181918428Y-111439476D01*
X181870047Y-111391095D01*
X181821666Y-111294333D01*
X181821666Y-111052428D01*
X181870047Y-110955666D01*
X181918428Y-110907285D01*
X182015190Y-110858904D01*
X182257095Y-110858904D01*
X182353857Y-110907285D01*
X182402238Y-110955666D01*
X182450619Y-111052428D01*
X182450619Y-111294333D01*
X182402238Y-111391095D01*
X182353857Y-111439476D01*
X141054666Y-86692619D02*
X140716000Y-86208809D01*
X140474095Y-86692619D02*
X140474095Y-85676619D01*
X140861142Y-85676619D01*
X140957904Y-85725000D01*
X141006285Y-85773380D01*
X141054666Y-85870142D01*
X141054666Y-86015285D01*
X141006285Y-86112047D01*
X140957904Y-86160428D01*
X140861142Y-86208809D01*
X140474095Y-86208809D01*
X141925523Y-85676619D02*
X141732000Y-85676619D01*
X141635238Y-85725000D01*
X141586857Y-85773380D01*
X141490095Y-85918523D01*
X141441714Y-86112047D01*
X141441714Y-86499095D01*
X141490095Y-86595857D01*
X141538476Y-86644238D01*
X141635238Y-86692619D01*
X141828761Y-86692619D01*
X141925523Y-86644238D01*
X141973904Y-86595857D01*
X142022285Y-86499095D01*
X142022285Y-86257190D01*
X141973904Y-86160428D01*
X141925523Y-86112047D01*
X141828761Y-86063666D01*
X141635238Y-86063666D01*
X141538476Y-86112047D01*
X141490095Y-86160428D01*
X141441714Y-86257190D01*
X143213666Y-82120619D02*
X142875000Y-81636809D01*
X142633095Y-82120619D02*
X142633095Y-81104619D01*
X143020142Y-81104619D01*
X143116904Y-81153000D01*
X143165285Y-81201380D01*
X143213666Y-81298142D01*
X143213666Y-81443285D01*
X143165285Y-81540047D01*
X143116904Y-81588428D01*
X143020142Y-81636809D01*
X142633095Y-81636809D01*
X143600714Y-81201380D02*
X143649095Y-81153000D01*
X143745857Y-81104619D01*
X143987761Y-81104619D01*
X144084523Y-81153000D01*
X144132904Y-81201380D01*
X144181285Y-81298142D01*
X144181285Y-81394904D01*
X144132904Y-81540047D01*
X143552333Y-82120619D01*
X144181285Y-82120619D01*
X144223619Y-93514333D02*
X143739809Y-93853000D01*
X144223619Y-94094904D02*
X143207619Y-94094904D01*
X143207619Y-93707857D01*
X143256000Y-93611095D01*
X143304380Y-93562714D01*
X143401142Y-93514333D01*
X143546285Y-93514333D01*
X143643047Y-93562714D01*
X143691428Y-93611095D01*
X143739809Y-93707857D01*
X143739809Y-94094904D01*
X143207619Y-93175666D02*
X143207619Y-92546714D01*
X143594666Y-92885380D01*
X143594666Y-92740238D01*
X143643047Y-92643476D01*
X143691428Y-92595095D01*
X143788190Y-92546714D01*
X144030095Y-92546714D01*
X144126857Y-92595095D01*
X144175238Y-92643476D01*
X144223619Y-92740238D01*
X144223619Y-93030523D01*
X144175238Y-93127285D01*
X144126857Y-93175666D01*
X138838819Y-102084333D02*
X138355009Y-102423000D01*
X138838819Y-102664904D02*
X137822819Y-102664904D01*
X137822819Y-102277857D01*
X137871200Y-102181095D01*
X137919580Y-102132714D01*
X138016342Y-102084333D01*
X138161485Y-102084333D01*
X138258247Y-102132714D01*
X138306628Y-102181095D01*
X138355009Y-102277857D01*
X138355009Y-102664904D01*
X137822819Y-101745666D02*
X137822819Y-101068333D01*
X138838819Y-101503761D01*
X114491104Y-104371019D02*
X114491104Y-105193495D01*
X114539485Y-105290257D01*
X114587866Y-105338638D01*
X114684628Y-105387019D01*
X114878152Y-105387019D01*
X114974914Y-105338638D01*
X115023295Y-105290257D01*
X115071676Y-105193495D01*
X115071676Y-104371019D01*
X115990914Y-104709685D02*
X115990914Y-105387019D01*
X115749009Y-104322638D02*
X115507104Y-105048352D01*
X116136057Y-105048352D01*
X170104404Y-109171619D02*
X170104404Y-109994095D01*
X170152785Y-110090857D01*
X170201166Y-110139238D01*
X170297928Y-110187619D01*
X170491452Y-110187619D01*
X170588214Y-110139238D01*
X170636595Y-110090857D01*
X170684976Y-109994095D01*
X170684976Y-109171619D01*
X171313928Y-109607047D02*
X171217166Y-109558666D01*
X171168785Y-109510285D01*
X171120404Y-109413523D01*
X171120404Y-109365142D01*
X171168785Y-109268380D01*
X171217166Y-109220000D01*
X171313928Y-109171619D01*
X171507452Y-109171619D01*
X171604214Y-109220000D01*
X171652595Y-109268380D01*
X171700976Y-109365142D01*
X171700976Y-109413523D01*
X171652595Y-109510285D01*
X171604214Y-109558666D01*
X171507452Y-109607047D01*
X171313928Y-109607047D01*
X171217166Y-109655428D01*
X171168785Y-109703809D01*
X171120404Y-109800571D01*
X171120404Y-109994095D01*
X171168785Y-110090857D01*
X171217166Y-110139238D01*
X171313928Y-110187619D01*
X171507452Y-110187619D01*
X171604214Y-110139238D01*
X171652595Y-110090857D01*
X171700976Y-109994095D01*
X171700976Y-109800571D01*
X171652595Y-109703809D01*
X171604214Y-109655428D01*
X171507452Y-109607047D01*
X157685619Y-88023095D02*
X158508095Y-88023095D01*
X158604857Y-87974714D01*
X158653238Y-87926333D01*
X158701619Y-87829571D01*
X158701619Y-87636047D01*
X158653238Y-87539285D01*
X158604857Y-87490904D01*
X158508095Y-87442523D01*
X157685619Y-87442523D01*
X158701619Y-86426523D02*
X158701619Y-87007095D01*
X158701619Y-86716809D02*
X157685619Y-86716809D01*
X157830761Y-86813571D01*
X157927523Y-86910333D01*
X157975904Y-87007095D01*
X162154809Y-90399809D02*
X162638619Y-90399809D01*
X161622619Y-90738476D02*
X162154809Y-90399809D01*
X161622619Y-90061142D01*
X162638619Y-89190285D02*
X162638619Y-89770857D01*
X162638619Y-89480571D02*
X161622619Y-89480571D01*
X161767761Y-89577333D01*
X161864523Y-89674095D01*
X161912904Y-89770857D01*
X112606666Y-115551857D02*
X112558285Y-115600238D01*
X112413142Y-115648619D01*
X112316380Y-115648619D01*
X112171238Y-115600238D01*
X112074476Y-115503476D01*
X112026095Y-115406714D01*
X111977714Y-115213190D01*
X111977714Y-115068047D01*
X112026095Y-114874523D01*
X112074476Y-114777761D01*
X112171238Y-114681000D01*
X112316380Y-114632619D01*
X112413142Y-114632619D01*
X112558285Y-114681000D01*
X112606666Y-114729380D01*
X112945333Y-114632619D02*
X113622666Y-114632619D01*
X113187238Y-115648619D01*
X114154857Y-102597857D02*
X114106476Y-102646238D01*
X113961333Y-102694619D01*
X113864571Y-102694619D01*
X113719428Y-102646238D01*
X113622666Y-102549476D01*
X113574285Y-102452714D01*
X113525904Y-102259190D01*
X113525904Y-102114047D01*
X113574285Y-101920523D01*
X113622666Y-101823761D01*
X113719428Y-101727000D01*
X113864571Y-101678619D01*
X113961333Y-101678619D01*
X114106476Y-101727000D01*
X114154857Y-101775380D01*
X115122476Y-102694619D02*
X114541904Y-102694619D01*
X114832190Y-102694619D02*
X114832190Y-101678619D01*
X114735428Y-101823761D01*
X114638666Y-101920523D01*
X114541904Y-101968904D01*
X115993333Y-102017285D02*
X115993333Y-102694619D01*
X115751428Y-101630238D02*
X115509523Y-102355952D01*
X116138476Y-102355952D01*
D14*
X183142166Y-108675500D02*
X183142166Y-108252166D01*
X183396166Y-108760166D02*
X182507166Y-108463833D01*
X183396166Y-108167500D01*
X183396166Y-107447833D02*
X183396166Y-107871166D01*
X182507166Y-107871166D01*
X182507166Y-107278500D02*
X182507166Y-106770500D01*
X183396166Y-107024500D02*
X182507166Y-107024500D01*
X182930500Y-106474166D02*
X182930500Y-106177833D01*
X183396166Y-106050833D02*
X183396166Y-106474166D01*
X182507166Y-106474166D01*
X182507166Y-106050833D01*
X183396166Y-105161833D02*
X182972833Y-105458166D01*
X183396166Y-105669833D02*
X182507166Y-105669833D01*
X182507166Y-105331166D01*
X182549500Y-105246500D01*
X182591833Y-105204166D01*
X182676500Y-105161833D01*
X182803500Y-105161833D01*
X182888166Y-105204166D01*
X182930500Y-105246500D01*
X182972833Y-105331166D01*
X182972833Y-105669833D01*
X183396166Y-104780833D02*
X182507166Y-104780833D01*
X183396166Y-104272833D01*
X182507166Y-104272833D01*
X183142166Y-103891833D02*
X183142166Y-103468500D01*
X183396166Y-103976500D02*
X182507166Y-103680166D01*
X183396166Y-103383833D01*
X182507166Y-103214500D02*
X182507166Y-102706500D01*
X183396166Y-102960500D02*
X182507166Y-102960500D01*
X183396166Y-102410166D02*
X182507166Y-102410166D01*
X182507166Y-102113833D02*
X183396166Y-101817500D01*
X182507166Y-101521166D01*
X182507166Y-101055500D02*
X182507166Y-100886166D01*
X182549500Y-100801500D01*
X182634166Y-100716833D01*
X182803500Y-100674500D01*
X183099833Y-100674500D01*
X183269166Y-100716833D01*
X183353833Y-100801500D01*
X183396166Y-100886166D01*
X183396166Y-101055500D01*
X183353833Y-101140166D01*
X183269166Y-101224833D01*
X183099833Y-101267166D01*
X182803500Y-101267166D01*
X182634166Y-101224833D01*
X182549500Y-101140166D01*
X182507166Y-101055500D01*
D10*
X156832904Y-118468019D02*
X156832904Y-119290495D01*
X156881285Y-119387257D01*
X156929666Y-119435638D01*
X157026428Y-119484019D01*
X157219952Y-119484019D01*
X157316714Y-119435638D01*
X157365095Y-119387257D01*
X157413476Y-119290495D01*
X157413476Y-118468019D01*
X158381095Y-118468019D02*
X157897285Y-118468019D01*
X157848904Y-118951828D01*
X157897285Y-118903447D01*
X157994047Y-118855066D01*
X158235952Y-118855066D01*
X158332714Y-118903447D01*
X158381095Y-118951828D01*
X158429476Y-119048590D01*
X158429476Y-119290495D01*
X158381095Y-119387257D01*
X158332714Y-119435638D01*
X158235952Y-119484019D01*
X157994047Y-119484019D01*
X157897285Y-119435638D01*
X157848904Y-119387257D01*
X152254857Y-114934619D02*
X151916190Y-114450809D01*
X151674285Y-114934619D02*
X151674285Y-113918619D01*
X152061333Y-113918619D01*
X152158095Y-113967000D01*
X152206476Y-114015380D01*
X152254857Y-114112142D01*
X152254857Y-114257285D01*
X152206476Y-114354047D01*
X152158095Y-114402428D01*
X152061333Y-114450809D01*
X151674285Y-114450809D01*
X153222476Y-114934619D02*
X152641904Y-114934619D01*
X152932190Y-114934619D02*
X152932190Y-113918619D01*
X152835428Y-114063761D01*
X152738666Y-114160523D01*
X152641904Y-114208904D01*
X154093333Y-114257285D02*
X154093333Y-114934619D01*
X153851428Y-113870238D02*
X153609523Y-114595952D01*
X154238476Y-114595952D01*
X145372666Y-86692619D02*
X145034000Y-86208809D01*
X144792095Y-86692619D02*
X144792095Y-85676619D01*
X145179142Y-85676619D01*
X145275904Y-85725000D01*
X145324285Y-85773380D01*
X145372666Y-85870142D01*
X145372666Y-86015285D01*
X145324285Y-86112047D01*
X145275904Y-86160428D01*
X145179142Y-86208809D01*
X144792095Y-86208809D01*
X146340285Y-86692619D02*
X145759714Y-86692619D01*
X146050000Y-86692619D02*
X146050000Y-85676619D01*
X145953238Y-85821761D01*
X145856476Y-85918523D01*
X145759714Y-85966904D01*
X155556857Y-112275257D02*
X155508476Y-112323638D01*
X155363333Y-112372019D01*
X155266571Y-112372019D01*
X155121428Y-112323638D01*
X155024666Y-112226876D01*
X154976285Y-112130114D01*
X154927904Y-111936590D01*
X154927904Y-111791447D01*
X154976285Y-111597923D01*
X155024666Y-111501161D01*
X155121428Y-111404400D01*
X155266571Y-111356019D01*
X155363333Y-111356019D01*
X155508476Y-111404400D01*
X155556857Y-111452780D01*
X156524476Y-112372019D02*
X155943904Y-112372019D01*
X156234190Y-112372019D02*
X156234190Y-111356019D01*
X156137428Y-111501161D01*
X156040666Y-111597923D01*
X155943904Y-111646304D01*
X157443714Y-111356019D02*
X156959904Y-111356019D01*
X156911523Y-111839828D01*
X156959904Y-111791447D01*
X157056666Y-111743066D01*
X157298571Y-111743066D01*
X157395333Y-111791447D01*
X157443714Y-111839828D01*
X157492095Y-111936590D01*
X157492095Y-112178495D01*
X157443714Y-112275257D01*
X157395333Y-112323638D01*
X157298571Y-112372019D01*
X157056666Y-112372019D01*
X156959904Y-112323638D01*
X156911523Y-112275257D01*
X160479619Y-114216542D02*
X159995809Y-114555209D01*
X160479619Y-114797114D02*
X159463619Y-114797114D01*
X159463619Y-114410066D01*
X159512000Y-114313304D01*
X159560380Y-114264923D01*
X159657142Y-114216542D01*
X159802285Y-114216542D01*
X159899047Y-114264923D01*
X159947428Y-114313304D01*
X159995809Y-114410066D01*
X159995809Y-114797114D01*
X160479619Y-113248923D02*
X160479619Y-113829495D01*
X160479619Y-113539209D02*
X159463619Y-113539209D01*
X159608761Y-113635971D01*
X159705523Y-113732733D01*
X159753904Y-113829495D01*
X159463619Y-112910257D02*
X159463619Y-112232923D01*
X160479619Y-112668352D01*
X106407857Y-98086333D02*
X106456238Y-98134714D01*
X106504619Y-98279857D01*
X106504619Y-98376619D01*
X106456238Y-98521761D01*
X106359476Y-98618523D01*
X106262714Y-98666904D01*
X106069190Y-98715285D01*
X105924047Y-98715285D01*
X105730523Y-98666904D01*
X105633761Y-98618523D01*
X105537000Y-98521761D01*
X105488619Y-98376619D01*
X105488619Y-98279857D01*
X105537000Y-98134714D01*
X105585380Y-98086333D01*
X105488619Y-97167095D02*
X105488619Y-97650904D01*
X105972428Y-97699285D01*
X105924047Y-97650904D01*
X105875666Y-97554142D01*
X105875666Y-97312238D01*
X105924047Y-97215476D01*
X105972428Y-97167095D01*
X106069190Y-97118714D01*
X106311095Y-97118714D01*
X106407857Y-97167095D01*
X106456238Y-97215476D01*
X106504619Y-97312238D01*
X106504619Y-97554142D01*
X106456238Y-97650904D01*
X106407857Y-97699285D01*
X137238619Y-115461142D02*
X136754809Y-115799809D01*
X137238619Y-116041714D02*
X136222619Y-116041714D01*
X136222619Y-115654666D01*
X136271000Y-115557904D01*
X136319380Y-115509523D01*
X136416142Y-115461142D01*
X136561285Y-115461142D01*
X136658047Y-115509523D01*
X136706428Y-115557904D01*
X136754809Y-115654666D01*
X136754809Y-116041714D01*
X137238619Y-114493523D02*
X137238619Y-115074095D01*
X137238619Y-114783809D02*
X136222619Y-114783809D01*
X136367761Y-114880571D01*
X136464523Y-114977333D01*
X136512904Y-115074095D01*
X136222619Y-113864571D02*
X136222619Y-113767809D01*
X136271000Y-113671047D01*
X136319380Y-113622666D01*
X136416142Y-113574285D01*
X136609666Y-113525904D01*
X136851571Y-113525904D01*
X137045095Y-113574285D01*
X137141857Y-113622666D01*
X137190238Y-113671047D01*
X137238619Y-113767809D01*
X137238619Y-113864571D01*
X137190238Y-113961333D01*
X137141857Y-114009714D01*
X137045095Y-114058095D01*
X136851571Y-114106476D01*
X136609666Y-114106476D01*
X136416142Y-114058095D01*
X136319380Y-114009714D01*
X136271000Y-113961333D01*
X136222619Y-113864571D01*
X139524619Y-115461142D02*
X139040809Y-115799809D01*
X139524619Y-116041714D02*
X138508619Y-116041714D01*
X138508619Y-115654666D01*
X138557000Y-115557904D01*
X138605380Y-115509523D01*
X138702142Y-115461142D01*
X138847285Y-115461142D01*
X138944047Y-115509523D01*
X138992428Y-115557904D01*
X139040809Y-115654666D01*
X139040809Y-116041714D01*
X139524619Y-114493523D02*
X139524619Y-115074095D01*
X139524619Y-114783809D02*
X138508619Y-114783809D01*
X138653761Y-114880571D01*
X138750523Y-114977333D01*
X138798904Y-115074095D01*
X138508619Y-114154857D02*
X138508619Y-113525904D01*
X138895666Y-113864571D01*
X138895666Y-113719428D01*
X138944047Y-113622666D01*
X138992428Y-113574285D01*
X139089190Y-113525904D01*
X139331095Y-113525904D01*
X139427857Y-113574285D01*
X139476238Y-113622666D01*
X139524619Y-113719428D01*
X139524619Y-114009714D01*
X139476238Y-114106476D01*
X139427857Y-114154857D01*
X106504619Y-89323333D02*
X106020809Y-89662000D01*
X106504619Y-89903904D02*
X105488619Y-89903904D01*
X105488619Y-89516857D01*
X105537000Y-89420095D01*
X105585380Y-89371714D01*
X105682142Y-89323333D01*
X105827285Y-89323333D01*
X105924047Y-89371714D01*
X105972428Y-89420095D01*
X106020809Y-89516857D01*
X106020809Y-89903904D01*
X105827285Y-88452476D02*
X106504619Y-88452476D01*
X105440238Y-88694380D02*
X106165952Y-88936285D01*
X106165952Y-88307333D01*
X115013619Y-114953142D02*
X114529809Y-115291809D01*
X115013619Y-115533714D02*
X113997619Y-115533714D01*
X113997619Y-115146666D01*
X114046000Y-115049904D01*
X114094380Y-115001523D01*
X114191142Y-114953142D01*
X114336285Y-114953142D01*
X114433047Y-115001523D01*
X114481428Y-115049904D01*
X114529809Y-115146666D01*
X114529809Y-115533714D01*
X115013619Y-113985523D02*
X115013619Y-114566095D01*
X115013619Y-114275809D02*
X113997619Y-114275809D01*
X114142761Y-114372571D01*
X114239523Y-114469333D01*
X114287904Y-114566095D01*
X113997619Y-113114666D02*
X113997619Y-113308190D01*
X114046000Y-113404952D01*
X114094380Y-113453333D01*
X114239523Y-113550095D01*
X114433047Y-113598476D01*
X114820095Y-113598476D01*
X114916857Y-113550095D01*
X114965238Y-113501714D01*
X115013619Y-113404952D01*
X115013619Y-113211428D01*
X114965238Y-113114666D01*
X114916857Y-113066285D01*
X114820095Y-113017904D01*
X114578190Y-113017904D01*
X114481428Y-113066285D01*
X114433047Y-113114666D01*
X114384666Y-113211428D01*
X114384666Y-113404952D01*
X114433047Y-113501714D01*
X114481428Y-113550095D01*
X114578190Y-113598476D01*
X118823619Y-117747142D02*
X118339809Y-118085809D01*
X118823619Y-118327714D02*
X117807619Y-118327714D01*
X117807619Y-117940666D01*
X117856000Y-117843904D01*
X117904380Y-117795523D01*
X118001142Y-117747142D01*
X118146285Y-117747142D01*
X118243047Y-117795523D01*
X118291428Y-117843904D01*
X118339809Y-117940666D01*
X118339809Y-118327714D01*
X118823619Y-116779523D02*
X118823619Y-117360095D01*
X118823619Y-117069809D02*
X117807619Y-117069809D01*
X117952761Y-117166571D01*
X118049523Y-117263333D01*
X118097904Y-117360095D01*
X118243047Y-116198952D02*
X118194666Y-116295714D01*
X118146285Y-116344095D01*
X118049523Y-116392476D01*
X118001142Y-116392476D01*
X117904380Y-116344095D01*
X117856000Y-116295714D01*
X117807619Y-116198952D01*
X117807619Y-116005428D01*
X117856000Y-115908666D01*
X117904380Y-115860285D01*
X118001142Y-115811904D01*
X118049523Y-115811904D01*
X118146285Y-115860285D01*
X118194666Y-115908666D01*
X118243047Y-116005428D01*
X118243047Y-116198952D01*
X118291428Y-116295714D01*
X118339809Y-116344095D01*
X118436571Y-116392476D01*
X118630095Y-116392476D01*
X118726857Y-116344095D01*
X118775238Y-116295714D01*
X118823619Y-116198952D01*
X118823619Y-116005428D01*
X118775238Y-115908666D01*
X118726857Y-115860285D01*
X118630095Y-115811904D01*
X118436571Y-115811904D01*
X118339809Y-115860285D01*
X118291428Y-115908666D01*
X118243047Y-116005428D01*
%LPC*%
X186959723Y-108416876D02*
X185689723Y-108416876D01*
X186899247Y-108416876D02*
X186959723Y-108537828D01*
X186959723Y-108779733D01*
X186899247Y-108900685D01*
X186838771Y-108961161D01*
X186717819Y-109021638D01*
X186354961Y-109021638D01*
X186234009Y-108961161D01*
X186173533Y-108900685D01*
X186113057Y-108779733D01*
X186113057Y-108537828D01*
X186173533Y-108416876D01*
X186959723Y-107630685D02*
X186899247Y-107751638D01*
X186838771Y-107812114D01*
X186717819Y-107872590D01*
X186354961Y-107872590D01*
X186234009Y-107812114D01*
X186173533Y-107751638D01*
X186113057Y-107630685D01*
X186113057Y-107449257D01*
X186173533Y-107328304D01*
X186234009Y-107267828D01*
X186354961Y-107207352D01*
X186717819Y-107207352D01*
X186838771Y-107267828D01*
X186899247Y-107328304D01*
X186959723Y-107449257D01*
X186959723Y-107630685D01*
X186959723Y-106663066D02*
X186113057Y-106663066D01*
X186354961Y-106663066D02*
X186234009Y-106602590D01*
X186173533Y-106542114D01*
X186113057Y-106421161D01*
X186113057Y-106300209D01*
X186959723Y-105332590D02*
X186294485Y-105332590D01*
X186173533Y-105393066D01*
X186113057Y-105514019D01*
X186113057Y-105755923D01*
X186173533Y-105876876D01*
X186899247Y-105332590D02*
X186959723Y-105453542D01*
X186959723Y-105755923D01*
X186899247Y-105876876D01*
X186778295Y-105937352D01*
X186657342Y-105937352D01*
X186536390Y-105876876D01*
X186475914Y-105755923D01*
X186475914Y-105453542D01*
X186415438Y-105332590D01*
X186113057Y-104183542D02*
X187141152Y-104183542D01*
X187262104Y-104244019D01*
X187322580Y-104304495D01*
X187383057Y-104425447D01*
X187383057Y-104606876D01*
X187322580Y-104727828D01*
X186899247Y-104183542D02*
X186959723Y-104304495D01*
X186959723Y-104546400D01*
X186899247Y-104667352D01*
X186838771Y-104727828D01*
X186717819Y-104788304D01*
X186354961Y-104788304D01*
X186234009Y-104727828D01*
X186173533Y-104667352D01*
X186113057Y-104546400D01*
X186113057Y-104304495D01*
X186173533Y-104183542D01*
X186959723Y-103034495D02*
X186294485Y-103034495D01*
X186173533Y-103094971D01*
X186113057Y-103215923D01*
X186113057Y-103457828D01*
X186173533Y-103578780D01*
X186899247Y-103034495D02*
X186959723Y-103155447D01*
X186959723Y-103457828D01*
X186899247Y-103578780D01*
X186778295Y-103639257D01*
X186657342Y-103639257D01*
X186536390Y-103578780D01*
X186475914Y-103457828D01*
X186475914Y-103155447D01*
X186415438Y-103034495D01*
X186899247Y-102490209D02*
X186959723Y-102369257D01*
X186959723Y-102127352D01*
X186899247Y-102006400D01*
X186778295Y-101945923D01*
X186717819Y-101945923D01*
X186596866Y-102006400D01*
X186536390Y-102127352D01*
X186536390Y-102308780D01*
X186475914Y-102429733D01*
X186354961Y-102490209D01*
X186294485Y-102490209D01*
X186173533Y-102429733D01*
X186113057Y-102308780D01*
X186113057Y-102127352D01*
X186173533Y-102006400D01*
X186113057Y-100857352D02*
X186959723Y-100857352D01*
X186113057Y-101401638D02*
X186778295Y-101401638D01*
X186899247Y-101341161D01*
X186959723Y-101220209D01*
X186959723Y-101038780D01*
X186899247Y-100917828D01*
X186838771Y-100857352D01*
X186959723Y-98256876D02*
X186959723Y-98317352D01*
X186899247Y-98438304D01*
X186717819Y-98619733D01*
X186354961Y-98922114D01*
X186173533Y-99043066D01*
X185992104Y-99103542D01*
X185871152Y-99103542D01*
X185750200Y-99043066D01*
X185689723Y-98922114D01*
X185689723Y-98861638D01*
X185750200Y-98740685D01*
X185871152Y-98680209D01*
X185931628Y-98680209D01*
X186052580Y-98740685D01*
X186113057Y-98801161D01*
X186354961Y-99164019D01*
X186415438Y-99224495D01*
X186536390Y-99284971D01*
X186717819Y-99284971D01*
X186838771Y-99224495D01*
X186899247Y-99164019D01*
X186959723Y-99043066D01*
X186959723Y-98861638D01*
X186899247Y-98740685D01*
X186838771Y-98680209D01*
X186596866Y-98498780D01*
X186415438Y-98438304D01*
X186294485Y-98438304D01*
X186959723Y-96079733D02*
X186959723Y-96805447D01*
X186959723Y-96442590D02*
X185689723Y-96442590D01*
X185871152Y-96563542D01*
X185992104Y-96684495D01*
X186052580Y-96805447D01*
X186959723Y-95474971D02*
X186959723Y-95233066D01*
X186899247Y-95112114D01*
X186838771Y-95051638D01*
X186657342Y-94930685D01*
X186415438Y-94870209D01*
X185931628Y-94870209D01*
X185810676Y-94930685D01*
X185750200Y-94991161D01*
X185689723Y-95112114D01*
X185689723Y-95354019D01*
X185750200Y-95474971D01*
X185810676Y-95535447D01*
X185931628Y-95595923D01*
X186234009Y-95595923D01*
X186354961Y-95535447D01*
X186415438Y-95474971D01*
X186475914Y-95354019D01*
X186475914Y-95112114D01*
X186415438Y-94991161D01*
X186354961Y-94930685D01*
X186234009Y-94870209D01*
X186234009Y-94144495D02*
X186173533Y-94265447D01*
X186113057Y-94325923D01*
X185992104Y-94386400D01*
X185931628Y-94386400D01*
X185810676Y-94325923D01*
X185750200Y-94265447D01*
X185689723Y-94144495D01*
X185689723Y-93902590D01*
X185750200Y-93781638D01*
X185810676Y-93721161D01*
X185931628Y-93660685D01*
X185992104Y-93660685D01*
X186113057Y-93721161D01*
X186173533Y-93781638D01*
X186234009Y-93902590D01*
X186234009Y-94144495D01*
X186294485Y-94265447D01*
X186354961Y-94325923D01*
X186475914Y-94386400D01*
X186717819Y-94386400D01*
X186838771Y-94325923D01*
X186899247Y-94265447D01*
X186959723Y-94144495D01*
X186959723Y-93902590D01*
X186899247Y-93781638D01*
X186838771Y-93721161D01*
X186717819Y-93660685D01*
X186475914Y-93660685D01*
X186354961Y-93721161D01*
X186294485Y-93781638D01*
X186234009Y-93902590D01*
X185689723Y-92511638D02*
X185689723Y-93116400D01*
X186294485Y-93176876D01*
X186234009Y-93116400D01*
X186173533Y-92995447D01*
X186173533Y-92693066D01*
X186234009Y-92572114D01*
X186294485Y-92511638D01*
X186415438Y-92451161D01*
X186717819Y-92451161D01*
X186838771Y-92511638D01*
X186899247Y-92572114D01*
X186959723Y-92693066D01*
X186959723Y-92995447D01*
X186899247Y-93116400D01*
X186838771Y-93176876D01*
X186959723Y-91362590D02*
X186294485Y-91362590D01*
X186173533Y-91423066D01*
X186113057Y-91544019D01*
X186113057Y-91785923D01*
X186173533Y-91906876D01*
X186899247Y-91362590D02*
X186959723Y-91483542D01*
X186959723Y-91785923D01*
X186899247Y-91906876D01*
X186778295Y-91967352D01*
X186657342Y-91967352D01*
X186536390Y-91906876D01*
X186475914Y-91785923D01*
X186475914Y-91483542D01*
X186415438Y-91362590D01*
X186959723Y-90576400D02*
X186899247Y-90697352D01*
X186778295Y-90757828D01*
X185689723Y-90757828D01*
X186113057Y-90274019D02*
X186113057Y-89790209D01*
X185689723Y-90092590D02*
X186778295Y-90092590D01*
X186899247Y-90032114D01*
X186959723Y-89911161D01*
X186959723Y-89790209D01*
X186899247Y-88883066D02*
X186959723Y-89004019D01*
X186959723Y-89245923D01*
X186899247Y-89366876D01*
X186778295Y-89427352D01*
X186294485Y-89427352D01*
X186173533Y-89366876D01*
X186113057Y-89245923D01*
X186113057Y-89004019D01*
X186173533Y-88883066D01*
X186294485Y-88822590D01*
X186415438Y-88822590D01*
X186536390Y-89427352D01*
X186959723Y-88278304D02*
X186113057Y-88278304D01*
X186354961Y-88278304D02*
X186234009Y-88217828D01*
X186173533Y-88157352D01*
X186113057Y-88036400D01*
X186113057Y-87915447D01*
X186113057Y-87492114D02*
X186959723Y-87492114D01*
X186234009Y-87492114D02*
X186173533Y-87431638D01*
X186113057Y-87310685D01*
X186113057Y-87129257D01*
X186173533Y-87008304D01*
X186294485Y-86947828D01*
X186959723Y-86947828D01*
X186959723Y-85798780D02*
X186294485Y-85798780D01*
X186173533Y-85859257D01*
X186113057Y-85980209D01*
X186113057Y-86222114D01*
X186173533Y-86343066D01*
X186899247Y-85798780D02*
X186959723Y-85919733D01*
X186959723Y-86222114D01*
X186899247Y-86343066D01*
X186778295Y-86403542D01*
X186657342Y-86403542D01*
X186536390Y-86343066D01*
X186475914Y-86222114D01*
X186475914Y-85919733D01*
X186415438Y-85798780D01*
X186113057Y-85375447D02*
X186113057Y-84891638D01*
X185689723Y-85194019D02*
X186778295Y-85194019D01*
X186899247Y-85133542D01*
X186959723Y-85012590D01*
X186959723Y-84891638D01*
X186959723Y-84468304D02*
X186113057Y-84468304D01*
X185689723Y-84468304D02*
X185750200Y-84528780D01*
X185810676Y-84468304D01*
X185750200Y-84407828D01*
X185689723Y-84468304D01*
X185810676Y-84468304D01*
X186113057Y-83984495D02*
X186959723Y-83682114D01*
X186113057Y-83379733D01*
X186959723Y-82714495D02*
X186899247Y-82835447D01*
X186838771Y-82895923D01*
X186717819Y-82956400D01*
X186354961Y-82956400D01*
X186234009Y-82895923D01*
X186173533Y-82835447D01*
X186113057Y-82714495D01*
X186113057Y-82533066D01*
X186173533Y-82412114D01*
X186234009Y-82351638D01*
X186354961Y-82291161D01*
X186717819Y-82291161D01*
X186838771Y-82351638D01*
X186899247Y-82412114D01*
X186959723Y-82533066D01*
X186959723Y-82714495D01*
X176088523Y-105532161D02*
X174818523Y-105532161D01*
X175725666Y-105108828D01*
X174818523Y-104685495D01*
X176088523Y-104685495D01*
X176028047Y-103596923D02*
X176088523Y-103717876D01*
X176088523Y-103959780D01*
X176028047Y-104080733D01*
X175907095Y-104141209D01*
X175423285Y-104141209D01*
X175302333Y-104080733D01*
X175241857Y-103959780D01*
X175241857Y-103717876D01*
X175302333Y-103596923D01*
X175423285Y-103536447D01*
X175544238Y-103536447D01*
X175665190Y-104141209D01*
X174879000Y-102326923D02*
X174818523Y-102447876D01*
X174818523Y-102629304D01*
X174879000Y-102810733D01*
X174999952Y-102931685D01*
X175120904Y-102992161D01*
X175362809Y-103052638D01*
X175544238Y-103052638D01*
X175786142Y-102992161D01*
X175907095Y-102931685D01*
X176028047Y-102810733D01*
X176088523Y-102629304D01*
X176088523Y-102508352D01*
X176028047Y-102326923D01*
X175967571Y-102266447D01*
X175544238Y-102266447D01*
X175544238Y-102508352D01*
X176088523Y-101177876D02*
X175423285Y-101177876D01*
X175302333Y-101238352D01*
X175241857Y-101359304D01*
X175241857Y-101601209D01*
X175302333Y-101722161D01*
X176028047Y-101177876D02*
X176088523Y-101298828D01*
X176088523Y-101601209D01*
X176028047Y-101722161D01*
X175907095Y-101782638D01*
X175786142Y-101782638D01*
X175665190Y-101722161D01*
X175604714Y-101601209D01*
X175604714Y-101298828D01*
X175544238Y-101177876D01*
X174818523Y-100694066D02*
X176088523Y-100391685D01*
X175181380Y-100149780D01*
X176088523Y-99907876D01*
X174818523Y-99605495D01*
X176088523Y-99121685D02*
X175241857Y-99121685D01*
X174818523Y-99121685D02*
X174879000Y-99182161D01*
X174939476Y-99121685D01*
X174879000Y-99061209D01*
X174818523Y-99121685D01*
X174939476Y-99121685D01*
X175423285Y-98093590D02*
X175423285Y-98516923D01*
X176088523Y-98516923D02*
X174818523Y-98516923D01*
X174818523Y-97912161D01*
X176088523Y-97428352D02*
X175241857Y-97428352D01*
X174818523Y-97428352D02*
X174879000Y-97488828D01*
X174939476Y-97428352D01*
X174879000Y-97367876D01*
X174818523Y-97428352D01*
X174939476Y-97428352D01*
X176088523Y-95130257D02*
X175483761Y-95553590D01*
X176088523Y-95855971D02*
X174818523Y-95855971D01*
X174818523Y-95372161D01*
X174879000Y-95251209D01*
X174939476Y-95190733D01*
X175060428Y-95130257D01*
X175241857Y-95130257D01*
X175362809Y-95190733D01*
X175423285Y-95251209D01*
X175483761Y-95372161D01*
X175483761Y-95855971D01*
X176028047Y-94102161D02*
X176088523Y-94223114D01*
X176088523Y-94465019D01*
X176028047Y-94585971D01*
X175907095Y-94646447D01*
X175423285Y-94646447D01*
X175302333Y-94585971D01*
X175241857Y-94465019D01*
X175241857Y-94223114D01*
X175302333Y-94102161D01*
X175423285Y-94041685D01*
X175544238Y-94041685D01*
X175665190Y-94646447D01*
X175241857Y-93618352D02*
X176088523Y-93315971D01*
X175241857Y-93013590D01*
X175967571Y-92529780D02*
X176028047Y-92469304D01*
X176088523Y-92529780D01*
X176028047Y-92590257D01*
X175967571Y-92529780D01*
X176088523Y-92529780D01*
X175725666Y-91985495D02*
X175725666Y-91380733D01*
X176088523Y-92106447D02*
X174818523Y-91683114D01*
X176088523Y-91259780D01*
X174939476Y-90896923D02*
X174879000Y-90836447D01*
X174818523Y-90715495D01*
X174818523Y-90413114D01*
X174879000Y-90292161D01*
X174939476Y-90231685D01*
X175060428Y-90171209D01*
X175181380Y-90171209D01*
X175362809Y-90231685D01*
X176088523Y-90957400D01*
X176088523Y-90171209D01*
X176572333Y-88296447D02*
X176511857Y-88356923D01*
X176330428Y-88477876D01*
X176209476Y-88538352D01*
X176028047Y-88598828D01*
X175725666Y-88659304D01*
X175483761Y-88659304D01*
X175181380Y-88598828D01*
X174999952Y-88538352D01*
X174879000Y-88477876D01*
X174697571Y-88356923D01*
X174637095Y-88296447D01*
X174939476Y-87873114D02*
X174879000Y-87812638D01*
X174818523Y-87691685D01*
X174818523Y-87389304D01*
X174879000Y-87268352D01*
X174939476Y-87207876D01*
X175060428Y-87147400D01*
X175181380Y-87147400D01*
X175362809Y-87207876D01*
X176088523Y-87933590D01*
X176088523Y-87147400D01*
X174818523Y-86361209D02*
X174818523Y-86240257D01*
X174879000Y-86119304D01*
X174939476Y-86058828D01*
X175060428Y-85998352D01*
X175302333Y-85937876D01*
X175604714Y-85937876D01*
X175846619Y-85998352D01*
X175967571Y-86058828D01*
X176028047Y-86119304D01*
X176088523Y-86240257D01*
X176088523Y-86361209D01*
X176028047Y-86482161D01*
X175967571Y-86542638D01*
X175846619Y-86603114D01*
X175604714Y-86663590D01*
X175302333Y-86663590D01*
X175060428Y-86603114D01*
X174939476Y-86542638D01*
X174879000Y-86482161D01*
X174818523Y-86361209D01*
X174939476Y-85454066D02*
X174879000Y-85393590D01*
X174818523Y-85272638D01*
X174818523Y-84970257D01*
X174879000Y-84849304D01*
X174939476Y-84788828D01*
X175060428Y-84728352D01*
X175181380Y-84728352D01*
X175362809Y-84788828D01*
X176088523Y-85514542D01*
X176088523Y-84728352D01*
X176088523Y-83518828D02*
X176088523Y-84244542D01*
X176088523Y-83881685D02*
X174818523Y-83881685D01*
X174999952Y-84002638D01*
X175120904Y-84123590D01*
X175181380Y-84244542D01*
X176572333Y-83095495D02*
X176511857Y-83035019D01*
X176330428Y-82914066D01*
X176209476Y-82853590D01*
X176028047Y-82793114D01*
X175725666Y-82732638D01*
X175483761Y-82732638D01*
X175181380Y-82793114D01*
X174999952Y-82853590D01*
X174879000Y-82914066D01*
X174697571Y-83035019D01*
X174637095Y-83095495D01*
D15*
G36*
X179569340Y-105214020D02*
G01*
X179259930Y-104869230D01*
X180472550Y-104979850D01*
X180587990Y-105104260D01*
X180393990Y-105288670D01*
X179569340Y-105214020D01*
G37*
X179569340Y-105214020D02*
X179259930Y-104869230D01*
X180472550Y-104979850D01*
X180587990Y-105104260D01*
X180393990Y-105288670D01*
X179569340Y-105214020D01*
G36*
X180385370Y-107517340D02*
G01*
X179537010Y-107442850D01*
X179217660Y-107094660D01*
X180466200Y-107204950D01*
X180584970Y-107333310D01*
X180385370Y-107517340D01*
G37*
X180385370Y-107517340D02*
X179537010Y-107442850D01*
X179217660Y-107094660D01*
X180466200Y-107204950D01*
X180584970Y-107333310D01*
X180385370Y-107517340D01*
G36*
X180826660Y-107236590D02*
G01*
X182070964Y-107345850D01*
X181751846Y-107632960D01*
X180903050Y-107562750D01*
X180703670Y-107346660D01*
X180826660Y-107236590D01*
G37*
X180826660Y-107236590D02*
X182070964Y-107345850D01*
X181751846Y-107632960D01*
X180903050Y-107562750D01*
X180703670Y-107346660D01*
X180826660Y-107236590D01*
G36*
X180805670Y-100548550D02*
G01*
X181997722Y-100658840D01*
X181692710Y-100941600D01*
X180878960Y-100870590D01*
X180687660Y-100654600D01*
X180805670Y-100548550D01*
G37*
X180805670Y-100548550D02*
X181997722Y-100658840D01*
X181692710Y-100941600D01*
X180878960Y-100870590D01*
X180687660Y-100654600D01*
X180805670Y-100548550D01*
G36*
X179211650Y-100415620D02*
G01*
X179517860Y-100755090D01*
X179517860Y-101786060D01*
X179211650Y-102074590D01*
X179211650Y-100415620D01*
G37*
X179211650Y-100415620D02*
X179517860Y-100755090D01*
X179517860Y-101786060D01*
X179211650Y-102074590D01*
X179211650Y-100415620D01*
G36*
X180471300Y-100844270D02*
G01*
X180630370Y-100700230D01*
X180789500Y-100873090D01*
X180789500Y-101947250D01*
X180630370Y-102083100D01*
X180471300Y-101918440D01*
X180471300Y-100844270D01*
G37*
X180471300Y-100844270D02*
X180630370Y-100700230D01*
X180789500Y-100873090D01*
X180789500Y-101947250D01*
X180630370Y-102083100D01*
X180471300Y-101918440D01*
X180471300Y-100844270D01*
G36*
X180468260Y-102248460D02*
G01*
X179250760Y-102138230D01*
X179561260Y-101851170D01*
X180389590Y-101922020D01*
X180584260Y-102138230D01*
X180468260Y-102248460D01*
G37*
X180468260Y-102248460D02*
X179250760Y-102138230D01*
X179561260Y-101851170D01*
X180389590Y-101922020D01*
X180584260Y-102138230D01*
X180468260Y-102248460D01*
G36*
X182065159Y-100706530D02*
G01*
X182065159Y-102299350D01*
X181746908Y-101969320D01*
X181746908Y-100979480D01*
X182065159Y-100706530D01*
G37*
X182065159Y-100706530D02*
X182065159Y-102299350D01*
X181746908Y-101969320D01*
X181746908Y-100979480D01*
X182065159Y-100706530D01*
G36*
X180811960Y-105006820D02*
G01*
X182031468Y-105115980D01*
X181719456Y-105398800D01*
X180886940Y-105328550D01*
X180691410Y-105112670D01*
X180811960Y-105006820D01*
G37*
X180811960Y-105006820D02*
X182031468Y-105115980D01*
X181719456Y-105398800D01*
X180886940Y-105328550D01*
X180691410Y-105112670D01*
X180811960Y-105006820D01*
G36*
X179206330Y-104923490D02*
G01*
X179515620Y-105252310D01*
X179515620Y-106251230D01*
X179206330Y-106530740D01*
X179206330Y-104923490D01*
G37*
X179206330Y-104923490D02*
X179515620Y-105252310D01*
X179515620Y-106251230D01*
X179206330Y-106530740D01*
X179206330Y-104923490D01*
G36*
X180477050Y-105299840D02*
G01*
X180631730Y-105155960D01*
X180786410Y-105328700D01*
X180786410Y-106403140D01*
X180631730Y-106538990D01*
X180477050Y-106374280D01*
X180477050Y-105299840D01*
G37*
X180477050Y-105299840D02*
X180631730Y-105155960D01*
X180786410Y-105328700D01*
X180786410Y-106403140D01*
X180631730Y-106538990D01*
X180477050Y-106374280D01*
X180477050Y-105299840D01*
G36*
X180472490Y-106699200D02*
G01*
X179259810Y-106589820D01*
X179569120Y-106304940D01*
X180394090Y-106375200D01*
X180587990Y-106589820D01*
X180472490Y-106699200D01*
G37*
X180472490Y-106699200D02*
X179259810Y-106589820D01*
X179569120Y-106304940D01*
X180394090Y-106375200D01*
X180587990Y-106589820D01*
X180472490Y-106699200D01*
G36*
X182075847Y-105174240D02*
G01*
X182075847Y-106821600D01*
X181779894Y-106480340D01*
X181779894Y-105456530D01*
X182075847Y-105174240D01*
G37*
X182075847Y-105174240D02*
X182075847Y-106821600D01*
X181779894Y-106480340D01*
X181779894Y-105456530D01*
X182075847Y-105174240D01*
G36*
X180406740Y-103089020D02*
G01*
X179571400Y-103014520D01*
X179258040Y-102671420D01*
X180486330Y-102780910D01*
X180603300Y-102905030D01*
X180406740Y-103089020D01*
G37*
X180406740Y-103089020D02*
X179571400Y-103014520D01*
X179258040Y-102671420D01*
X180486330Y-102780910D01*
X180603300Y-102905030D01*
X180406740Y-103089020D01*
G36*
X180811850Y-102809940D02*
G01*
X182036079Y-102919140D01*
X181722874Y-103202070D01*
X180887100Y-103131820D01*
X180690810Y-102915840D01*
X180811850Y-102809940D01*
G37*
X180811850Y-102809940D02*
X182036079Y-102919140D01*
X181722874Y-103202070D01*
X180887100Y-103131820D01*
X180690810Y-102915840D01*
X180811850Y-102809940D01*
G36*
X179208980Y-102718570D02*
G01*
X179522360Y-103057980D01*
X179522360Y-104089020D01*
X179208980Y-104377530D01*
X179208980Y-102718570D01*
G37*
X179208980Y-102718570D02*
X179522360Y-103057980D01*
X179522360Y-104089020D01*
X179208980Y-104377530D01*
X179208980Y-102718570D01*
G36*
X180477760Y-103091020D02*
G01*
X180634380Y-102942480D01*
X180791070Y-103120810D01*
X180791070Y-104232190D01*
X180634380Y-104369990D01*
X180477760Y-104200070D01*
X180477760Y-103091020D01*
G37*
X180477760Y-103091020D02*
X180634380Y-102942480D01*
X180791070Y-103120810D01*
X180791070Y-104232190D01*
X180634380Y-104369990D01*
X180477760Y-104200070D01*
X180477760Y-103091020D01*
G36*
X180488980Y-104502590D02*
G01*
X179260520Y-104393050D01*
X179573840Y-104105780D01*
X180409230Y-104180320D01*
X180605950Y-104393810D01*
X180488980Y-104502590D01*
G37*
X180488980Y-104502590D02*
X179260520Y-104393050D01*
X179573840Y-104105780D01*
X180409230Y-104180320D01*
X180605950Y-104393810D01*
X180488980Y-104502590D01*
G36*
X182075847Y-102953320D02*
G01*
X182075847Y-104619170D01*
X181762533Y-104271250D01*
X181762533Y-103238160D01*
X182075847Y-102953320D01*
G37*
X182075847Y-102953320D02*
X182075847Y-104619170D01*
X181762533Y-104271250D01*
X181762533Y-103238160D01*
X182075847Y-102953320D01*
G36*
X181725315Y-104295990D02*
G01*
X182038738Y-104643440D01*
X180814510Y-104534210D01*
X180693470Y-104407480D01*
X180889650Y-104225780D01*
X181725315Y-104295990D01*
G37*
X181725315Y-104295990D02*
X182038738Y-104643440D01*
X180814510Y-104534210D01*
X180693470Y-104407480D01*
X180889650Y-104225780D01*
X181725315Y-104295990D01*
D16*
X137426700Y-95961200D03*
D17*
X137426700Y-98501200D03*
D18*
X121150800Y-104256800D03*
X123150800Y-104256800D03*
X125150800Y-104256800D03*
X127150800Y-104256800D03*
X129150800Y-104256800D03*
X131150800Y-104256800D03*
D19*
X118160800Y-88506800D03*
D20*
X118160800Y-90506800D03*
X118160800Y-92506800D03*
X118160800Y-94506800D03*
X118160800Y-96506800D03*
X118160800Y-98506800D03*
X118160800Y-100506800D03*
X118160800Y-102506800D03*
X134160800Y-102506800D03*
X134160800Y-100506800D03*
X134160800Y-98506800D03*
X134160800Y-96506800D03*
X134160800Y-94506800D03*
X134160800Y-92506800D03*
X134160800Y-90506800D03*
X134160800Y-88506800D03*
D21*
X112776000Y-89855000D03*
X112776000Y-91755000D03*
X114935000Y-89855000D03*
X114935000Y-91755000D03*
X138303000Y-91518700D03*
X138303000Y-93418700D03*
D22*
X162560000Y-115681000D03*
X162560000Y-113681000D03*
D23*
X143105041Y-96988897D03*
X143105041Y-97488897D03*
X143105041Y-97988897D03*
X143105041Y-98488897D03*
X143105041Y-98988897D03*
X143105041Y-99488897D03*
X143105041Y-99988897D03*
X143105041Y-100488897D03*
X143105041Y-100988897D03*
X143105041Y-101488897D03*
X143105041Y-101988897D03*
X143105041Y-102488897D03*
X143105041Y-102988897D03*
X143105041Y-103488897D03*
X143105041Y-103988897D03*
X143105041Y-104488897D03*
X162536041Y-104488897D03*
X162536041Y-103988897D03*
X162536041Y-103488897D03*
X162536041Y-102988897D03*
X162536041Y-102488897D03*
X162536041Y-101988897D03*
X162536041Y-101488897D03*
X162536041Y-100988897D03*
X162536041Y-100488897D03*
X162536041Y-99988897D03*
X162536041Y-99488897D03*
X162536041Y-98988897D03*
X162536041Y-98488897D03*
X162536041Y-97988897D03*
X162536041Y-97488897D03*
X162536041Y-96988897D03*
X143105041Y-104988897D03*
X143105041Y-105488897D03*
X143105041Y-105988897D03*
X143105041Y-106488897D03*
X143105041Y-106988897D03*
X143105041Y-107488897D03*
X143105041Y-107988897D03*
X143105041Y-108488897D03*
X162536041Y-108488897D03*
X162536041Y-107988897D03*
X162536041Y-107488897D03*
X162536041Y-106988897D03*
X162536041Y-106488897D03*
X162536041Y-105988897D03*
X162536041Y-105488897D03*
X162536041Y-104988897D03*
D24*
X165725600Y-102946200D03*
X167725600Y-102946200D03*
D25*
X119980000Y-118685000D03*
X120480000Y-118685000D03*
X120980000Y-118685000D03*
X121480000Y-118685000D03*
X121980000Y-118685000D03*
X122480000Y-118685000D03*
X122980000Y-118685000D03*
X123480000Y-118685000D03*
X123980000Y-118685000D03*
X124480000Y-118685000D03*
X124980000Y-118685000D03*
X125480000Y-118685000D03*
X125980000Y-118685000D03*
X126480000Y-118685000D03*
X126980000Y-118685000D03*
X127480000Y-118685000D03*
X127980000Y-118685000D03*
X128480000Y-118685000D03*
X128980000Y-118685000D03*
X129480000Y-118685000D03*
X129980000Y-118685000D03*
X130480000Y-118685000D03*
X130980000Y-118685000D03*
X131480000Y-118685000D03*
X131480000Y-111185000D03*
X130980000Y-111185000D03*
X130480000Y-111185000D03*
X129980000Y-111185000D03*
X129480000Y-111185000D03*
X128980000Y-111185000D03*
X128480000Y-111185000D03*
X127980000Y-111185000D03*
X127480000Y-111185000D03*
X126980000Y-111185000D03*
X126480000Y-111185000D03*
X125980000Y-111185000D03*
X125480000Y-111185000D03*
X124980000Y-111185000D03*
X124480000Y-111185000D03*
X123980000Y-111185000D03*
X123480000Y-111185000D03*
X122980000Y-111185000D03*
X122480000Y-111185000D03*
X121980000Y-111185000D03*
X121480000Y-111185000D03*
X120980000Y-111185000D03*
X120480000Y-111185000D03*
X119980000Y-111185000D03*
D26*
X147312166Y-112372334D03*
X146662166Y-112372334D03*
X146012166Y-112372334D03*
X145362166Y-112372334D03*
X144712166Y-112372334D03*
X144062166Y-112372334D03*
X143412166Y-112372334D03*
X142762166Y-112372334D03*
X142112166Y-112372334D03*
X141462166Y-112372334D03*
X141462166Y-118172334D03*
X142112166Y-118172334D03*
X142762166Y-118172334D03*
X143412166Y-118172334D03*
X144062166Y-118172334D03*
X144712166Y-118172334D03*
X145362166Y-118172334D03*
X146012166Y-118172334D03*
X146662166Y-118172334D03*
X147312166Y-118172334D03*
D27*
X111760000Y-96139000D03*
D24*
X109585000Y-113665000D03*
X107585000Y-113665000D03*
D22*
X133959600Y-116493800D03*
X133959600Y-114493800D03*
X117475000Y-113935000D03*
X117475000Y-111935000D03*
X149440900Y-116624100D03*
X149440900Y-114624100D03*
X179070000Y-115935000D03*
X179070000Y-113935000D03*
D24*
X151647400Y-94437200D03*
X149647400Y-94437200D03*
D22*
X171492956Y-91408816D03*
X171492956Y-93408816D03*
X171492956Y-88328816D03*
X171492956Y-86328816D03*
D24*
X119253000Y-106807000D03*
X121253000Y-106807000D03*
D28*
X136525000Y-93268800D03*
X136525000Y-91770200D03*
D29*
X143230302Y-87837048D03*
X145343582Y-88789548D03*
X143230302Y-89742048D03*
D21*
X184413345Y-116012813D03*
X184413345Y-114112813D03*
X140589000Y-91506000D03*
X140589000Y-93406000D03*
X181974945Y-114112813D03*
X181974945Y-116012813D03*
X141224000Y-82997000D03*
X141224000Y-84897000D03*
X143398448Y-82969734D03*
X143398448Y-84869734D03*
X145338800Y-94371200D03*
X145338800Y-92471200D03*
X136525000Y-102804000D03*
X136525000Y-100904000D03*
D30*
X114554000Y-108585000D03*
D31*
X107950000Y-108585000D03*
X107950000Y-110871000D03*
X107950000Y-106299000D03*
D25*
X176600000Y-111125000D03*
X176100000Y-111125000D03*
X175600000Y-111125000D03*
X175100000Y-111125000D03*
X174600000Y-111125000D03*
X174100000Y-111125000D03*
X173600000Y-111125000D03*
X173100000Y-111125000D03*
X172600000Y-111125000D03*
X172100000Y-111125000D03*
X171600000Y-111125000D03*
X171100000Y-111125000D03*
X170600000Y-111125000D03*
X170100000Y-111125000D03*
X169600000Y-111125000D03*
X169100000Y-111125000D03*
X168600000Y-111125000D03*
X168100000Y-111125000D03*
X167600000Y-111125000D03*
X167100000Y-111125000D03*
X166600000Y-111125000D03*
X166100000Y-111125000D03*
X165600000Y-111125000D03*
X165100000Y-111125000D03*
X165100000Y-118625000D03*
X165600000Y-118625000D03*
X166100000Y-118625000D03*
X166600000Y-118625000D03*
X167100000Y-118625000D03*
X167600000Y-118625000D03*
X168100000Y-118625000D03*
X168600000Y-118625000D03*
X169100000Y-118625000D03*
X169600000Y-118625000D03*
X170100000Y-118625000D03*
X170600000Y-118625000D03*
X171100000Y-118625000D03*
X171600000Y-118625000D03*
X172100000Y-118625000D03*
X172600000Y-118625000D03*
X173100000Y-118625000D03*
X173600000Y-118625000D03*
X174100000Y-118625000D03*
X174600000Y-118625000D03*
X175100000Y-118625000D03*
X175600000Y-118625000D03*
X176100000Y-118625000D03*
X176600000Y-118625000D03*
D32*
X156496000Y-89999000D03*
X156496000Y-89499000D03*
X156496000Y-88999000D03*
X156496000Y-88499000D03*
X156496000Y-87999000D03*
X156496000Y-87499000D03*
X156496000Y-86999000D03*
X156496000Y-86499000D03*
X156496000Y-85999000D03*
X156496000Y-85499000D03*
X156496000Y-84999000D03*
X156496000Y-84499000D03*
D33*
X154896000Y-82899000D03*
X154396000Y-82899000D03*
X153896000Y-82899000D03*
X153396000Y-82899000D03*
X152896000Y-82899000D03*
X152396000Y-82899000D03*
X151896000Y-82899000D03*
X151396000Y-82899000D03*
X150896000Y-82899000D03*
X150396000Y-82899000D03*
X149896000Y-82899000D03*
X149396000Y-82899000D03*
D32*
X147796000Y-84499000D03*
X147796000Y-84999000D03*
X147796000Y-85499000D03*
X147796000Y-85999000D03*
X147796000Y-86499000D03*
X147796000Y-86999000D03*
X147796000Y-87499000D03*
X147796000Y-87999000D03*
X147796000Y-88499000D03*
X147796000Y-88999000D03*
X147796000Y-89499000D03*
X147796000Y-89999000D03*
D33*
X149396000Y-91599000D03*
X149896000Y-91599000D03*
X150396000Y-91599000D03*
X150896000Y-91599000D03*
X151396000Y-91599000D03*
X151896000Y-91599000D03*
X152396000Y-91599000D03*
X152896000Y-91599000D03*
X153396000Y-91599000D03*
X153896000Y-91599000D03*
X154396000Y-91599000D03*
X154896000Y-91599000D03*
D34*
X166412956Y-94717676D03*
X166412956Y-85019956D03*
D27*
X181610000Y-96139000D03*
D35*
X111655860Y-117475000D03*
X108054140Y-117475000D03*
X111655860Y-102235000D03*
X108054140Y-102235000D03*
D36*
X106680000Y-126238000D03*
X109220000Y-126238000D03*
X111760000Y-126238000D03*
X114300000Y-126238000D03*
X116840000Y-126238000D03*
X119380000Y-126238000D03*
X121920000Y-126238000D03*
X124460000Y-126238000D03*
X127000000Y-126238000D03*
X129540000Y-126238000D03*
X132080000Y-126238000D03*
X134620000Y-126238000D03*
X137160000Y-126238000D03*
X139700000Y-126238000D03*
X142240000Y-126238000D03*
X144780000Y-126238000D03*
X147320000Y-126238000D03*
X149860000Y-126238000D03*
X152400000Y-126238000D03*
X154940000Y-126238000D03*
X157480000Y-126238000D03*
X160020000Y-126238000D03*
X162560000Y-126238000D03*
X165100000Y-126238000D03*
X167640000Y-126238000D03*
X170180000Y-126238000D03*
X172720000Y-126238000D03*
X175260000Y-126238000D03*
X177800000Y-126238000D03*
X180340000Y-126238000D03*
X182880000Y-126238000D03*
X185420000Y-126238000D03*
D37*
X155829000Y-115661400D03*
X155829000Y-116611400D03*
X155829000Y-117561400D03*
X158029000Y-117561400D03*
X158029000Y-115661400D03*
D38*
X153162000Y-117523000D03*
X153162000Y-115903000D03*
X145557448Y-82982734D03*
X145557448Y-84602734D03*
D24*
X158099000Y-113563400D03*
X156099000Y-113563400D03*
D38*
X160020000Y-115928400D03*
X160020000Y-117548400D03*
D22*
X106045000Y-94250000D03*
X106045000Y-96250000D03*
D21*
X136753600Y-118780600D03*
X136753600Y-116880600D03*
X139039600Y-116880600D03*
X139039600Y-118780600D03*
X106045000Y-92705000D03*
X106045000Y-90805000D03*
D38*
X114681000Y-116665000D03*
X114681000Y-118285000D03*
X116713000Y-116665000D03*
X116713000Y-118285000D03*
D11*
X187845505Y-122796281D02*
X187834624Y-129901359D01*
X187274200Y-130835400D01*
X104825800Y-130835400D01*
X104267000Y-129904067D01*
X104267000Y-122783619D01*
X187845505Y-122796281D01*
D39*
G36*
X187845505Y-122796281D02*
G01*
X187834624Y-129901359D01*
X187274200Y-130835400D01*
X104825800Y-130835400D01*
X104267000Y-129904067D01*
X104267000Y-122783619D01*
X187845505Y-122796281D01*
G37*
M02*
