G04 #@! TF.GenerationSoftware,KiCad,Pcbnew,(2017-02-04 revision 9a6e5734b)-master*
G04 #@! TF.CreationDate,2017-03-24T17:30:25+01:00*
G04 #@! TF.ProjectId,mega-wifi,6D6567612D776966692E6B696361645F,A1*
G04 #@! TF.FileFunction,Copper,L2,Bot,Signal*
G04 #@! TF.FilePolarity,Positive*
%FSLAX46Y46*%
G04 Gerber Fmt 4.6, Leading zero omitted, Abs format (unit mm)*
G04 Created by KiCad (PCBNEW (2017-02-04 revision 9a6e5734b)-master) date Fri Mar 24 17:30:25 2017*
%MOMM*%
%LPD*%
G01*
G04 APERTURE LIST*
%ADD10C,0.100000*%
%ADD11R,1.778000X6.985000*%
%ADD12C,1.778000*%
%ADD13C,0.711200*%
%ADD14C,0.762000*%
%ADD15C,0.254000*%
%ADD16C,0.381000*%
%ADD17C,0.203200*%
G04 APERTURE END LIST*
D10*
D11*
X106680000Y-126238000D03*
X111760000Y-126238000D03*
X114300000Y-126238000D03*
X109220000Y-126238000D03*
X116840000Y-126238000D03*
X180340000Y-126238000D03*
X177800000Y-126238000D03*
X182880000Y-126238000D03*
X175260000Y-126238000D03*
X185420000Y-126238000D03*
X119380000Y-126238000D03*
X121920000Y-126238000D03*
X124460000Y-126238000D03*
X127000000Y-126238000D03*
X129540000Y-126238000D03*
X132080000Y-126238000D03*
X134620000Y-126238000D03*
X137160000Y-126238000D03*
X139700000Y-126238000D03*
X142240000Y-126238000D03*
X144780000Y-126238000D03*
X147320000Y-126238000D03*
X149860000Y-126238000D03*
X152400000Y-126238000D03*
X154940000Y-126238000D03*
X157480000Y-126238000D03*
X160020000Y-126238000D03*
X162560000Y-126238000D03*
X165100000Y-126238000D03*
X167640000Y-126238000D03*
X170180000Y-126238000D03*
X172720000Y-126238000D03*
D12*
X137414000Y-98501200D03*
X137414000Y-95961200D03*
D13*
X109220000Y-119380000D03*
X110490000Y-119380000D03*
X111760000Y-119380000D03*
X113030000Y-119380000D03*
X113030000Y-120650000D03*
X111760000Y-120650000D03*
X110490000Y-120650000D03*
X109220000Y-120650000D03*
X149420294Y-113424832D03*
X117475000Y-110769400D03*
X154559000Y-113792000D03*
X154559000Y-115062000D03*
X154559000Y-116332000D03*
X154559000Y-117602000D03*
X153924000Y-120523000D03*
X155194000Y-120523000D03*
X156464000Y-120523000D03*
X131495800Y-117322600D03*
X129997200Y-117551200D03*
X127914400Y-117551200D03*
X123317000Y-116713000D03*
X137490200Y-117805200D03*
X114935000Y-88773000D03*
X122428000Y-106807000D03*
X168148000Y-81661002D03*
X168148000Y-82931000D03*
X168148000Y-84201000D03*
X169418000Y-84201000D03*
X170688000Y-84201000D03*
X168402000Y-96774000D03*
X168402000Y-95504000D03*
X169672000Y-95504000D03*
X170942000Y-95504000D03*
X172085000Y-94615000D03*
X166751000Y-81407000D03*
X165354000Y-81026000D03*
X171831000Y-84836000D03*
X168275000Y-93980000D03*
X169545000Y-93980000D03*
X168275000Y-86360000D03*
X169545000Y-86360000D03*
X161416994Y-113665000D03*
X184531000Y-118872000D03*
X172248018Y-117551145D03*
X163982919Y-97919330D03*
X151409400Y-81534000D03*
X164338000Y-92202000D03*
X163449000Y-91313000D03*
X164592000Y-93472000D03*
X162560000Y-84074000D03*
X161798000Y-83312000D03*
X160782000Y-82677000D03*
X159512000Y-82677000D03*
X158242000Y-82677000D03*
X143230600Y-90500200D03*
X121476485Y-112117381D03*
X121488200Y-117652769D03*
X119989512Y-117652769D03*
X119973484Y-112108971D03*
X124474249Y-112119203D03*
X126975324Y-112118329D03*
X130140401Y-112481560D03*
X132054600Y-111201200D03*
X141224000Y-82042000D03*
X143398448Y-83945134D03*
X167157400Y-117566188D03*
X152400000Y-81534000D03*
X153289004Y-81534000D03*
X156972000Y-82677000D03*
X155829000Y-82677000D03*
X166116000Y-91186000D03*
X163068000Y-82169000D03*
X163957000Y-83058000D03*
X164719000Y-84455000D03*
X164719000Y-85979000D03*
X164719000Y-87503000D03*
X164719000Y-89027000D03*
X165100000Y-90170000D03*
X163195000Y-85090000D03*
X163195000Y-86360000D03*
X163195000Y-87630000D03*
X163195000Y-88900000D03*
X163195000Y-90170000D03*
X169545000Y-92710000D03*
X169545000Y-91440000D03*
X169545000Y-87630000D03*
X169545000Y-88900000D03*
X169545000Y-90170000D03*
X157480000Y-105410000D03*
X156210000Y-105410000D03*
X156210000Y-104140000D03*
X152400000Y-104140000D03*
X152400000Y-105410000D03*
X151130000Y-105410000D03*
X151130000Y-104140000D03*
X151130000Y-98425000D03*
X149860000Y-97155000D03*
X151130000Y-97155000D03*
X151130000Y-95885000D03*
X149860000Y-95885000D03*
X163819840Y-107883696D03*
X135509000Y-103403400D03*
X167716200Y-104063800D03*
X169595800Y-117551253D03*
X175260420Y-117434659D03*
X146619782Y-117290059D03*
X105410000Y-99060000D03*
X105410000Y-100330000D03*
X105410000Y-101600000D03*
X105410000Y-102870000D03*
X105410000Y-104140000D03*
X105410000Y-105410000D03*
X105410000Y-106680000D03*
X105410000Y-107950000D03*
X105410000Y-109220000D03*
X105410000Y-110490000D03*
X105410000Y-111760000D03*
X105410000Y-113030000D03*
X105410000Y-114300000D03*
X105410000Y-115570000D03*
X105410000Y-116840000D03*
X105410000Y-118110000D03*
X105410000Y-119380000D03*
X105410000Y-120650000D03*
X184404000Y-116763800D03*
X179070000Y-113055400D03*
X175099459Y-112054930D03*
X172097234Y-112056768D03*
X169598249Y-112055932D03*
X166598600Y-112064800D03*
X171492956Y-89970763D03*
X135305800Y-114503200D03*
X147324392Y-113186351D03*
X141453604Y-113191678D03*
X185547000Y-118872000D03*
X186563000Y-118872000D03*
X186563000Y-120904000D03*
X186562997Y-119887997D03*
X142824200Y-95631000D03*
X140325220Y-94351220D03*
X155041600Y-109347000D03*
X158580521Y-101264165D03*
X146761200Y-94691200D03*
X163783871Y-97026846D03*
X151663400Y-93395796D03*
X168097200Y-117551219D03*
X168097200Y-114985800D03*
X173604613Y-115193385D03*
X168097200Y-113385611D03*
X168107647Y-112060731D03*
X173600000Y-113385611D03*
X173597346Y-112056676D03*
X173609000Y-117551200D03*
X122197046Y-120802392D03*
X126390048Y-119811790D03*
X122199398Y-121742200D03*
X125476000Y-119786400D03*
X158064200Y-112379586D03*
X150993220Y-117744620D03*
X144701260Y-117243860D03*
X165092485Y-112048112D03*
X125150727Y-116943221D03*
X177444400Y-118414800D03*
X125751133Y-117632903D03*
X121140410Y-119811800D03*
X127314985Y-119709604D03*
X170445879Y-120548420D03*
X170646448Y-121440565D03*
X171729277Y-121780279D03*
X120150476Y-120937878D03*
X127863600Y-120472200D03*
X141383538Y-119090030D03*
X130987800Y-120142000D03*
X141547795Y-119989568D03*
X132105400Y-120954780D03*
X142773398Y-119278401D03*
X136855200Y-121615220D03*
X143002000Y-120269000D03*
X138245318Y-121615220D03*
X144119590Y-119405400D03*
X146040129Y-120142020D03*
X175590200Y-119735600D03*
X165353670Y-119715337D03*
X164846020Y-120573781D03*
X174091600Y-119710220D03*
X166801816Y-120142020D03*
X166979580Y-121285000D03*
X172545387Y-120141854D03*
X168579800Y-120827800D03*
X169558284Y-121546797D03*
X141020800Y-88315800D03*
X151460220Y-87785579D03*
X139979400Y-88315800D03*
X152313640Y-87302340D03*
X146545856Y-92865472D03*
X149580631Y-92807812D03*
X144695911Y-89916000D03*
X141684648Y-90131736D03*
X141706600Y-89179400D03*
X146402774Y-88953968D03*
X146798835Y-93751072D03*
X150359201Y-93287371D03*
X160020000Y-120142000D03*
X165685824Y-117566188D03*
X176758580Y-117504637D03*
X110744000Y-107619800D03*
X110744000Y-109550200D03*
X135407400Y-118287800D03*
X121285000Y-99390200D03*
X119481600Y-99491800D03*
X132511800Y-118237000D03*
X176326800Y-120700796D03*
X178079420Y-120700800D03*
X155287198Y-87659410D03*
X155287198Y-85838590D03*
X153517600Y-113284010D03*
X163169600Y-94767400D03*
X152425400Y-113309400D03*
X157848834Y-99943343D03*
X159461200Y-84988400D03*
X158089600Y-84988400D03*
X159180591Y-97901216D03*
X148412169Y-102404186D03*
X147420856Y-90682812D03*
X144259825Y-102644025D03*
X143230600Y-88569800D03*
X157618078Y-97162963D03*
X145575263Y-100712494D03*
X158419796Y-96723200D03*
X144545713Y-100440187D03*
X158270770Y-97809700D03*
X144916405Y-101975658D03*
X150804862Y-88691738D03*
X148712188Y-91878169D03*
X155078024Y-97155000D03*
X145872117Y-103559162D03*
X149352000Y-104394000D03*
X145719800Y-104495600D03*
X149936200Y-108737400D03*
X149180994Y-106991594D03*
X159748566Y-98617843D03*
X148412169Y-103327169D03*
D14*
X111760000Y-119380000D02*
X110490000Y-119380000D01*
X113030000Y-120650000D02*
X113030000Y-119380000D01*
X110490000Y-120650000D02*
X111760000Y-120650000D01*
X109220000Y-120878600D02*
X109220000Y-120650000D01*
X109220000Y-126238000D02*
X109220000Y-120878600D01*
D15*
X154559000Y-115062000D02*
X154559000Y-113792000D01*
X154559000Y-117602000D02*
X154559000Y-116332000D01*
X155448000Y-120523000D02*
X155194000Y-120523000D01*
X156464000Y-120523000D02*
X155448000Y-120523000D01*
D14*
X168148000Y-82931000D02*
X168148000Y-81661002D01*
X168650894Y-84201000D02*
X168148000Y-84201000D01*
X168910000Y-84201000D02*
X168650894Y-84201000D01*
X169164000Y-83947000D02*
X168910000Y-84201000D01*
X169418000Y-84201000D02*
X168148000Y-84201000D01*
X171043599Y-84556599D02*
X170688000Y-84201000D01*
X171323000Y-84836000D02*
X171043599Y-84556599D01*
X171831000Y-84836000D02*
X171323000Y-84836000D01*
X169672000Y-95504000D02*
X168402000Y-95504000D01*
X172085000Y-94615000D02*
X171831000Y-94615000D01*
X171831000Y-94615000D02*
X170942000Y-95504000D01*
X166248106Y-81407000D02*
X166751000Y-81407000D01*
X165735000Y-81407000D02*
X166248106Y-81407000D01*
X165354000Y-81026000D02*
X165735000Y-81407000D01*
X169545000Y-93980000D02*
X168275000Y-93980000D01*
X169545000Y-86360000D02*
X168275000Y-86360000D01*
X184531000Y-118872000D02*
X185547000Y-118872000D01*
X184531000Y-118872000D02*
X185420000Y-119761000D01*
X185420000Y-119761000D02*
X185420000Y-126238000D01*
X163449000Y-91313000D02*
X163449000Y-92329000D01*
X163449000Y-92329000D02*
X164592000Y-93472000D01*
X163449000Y-91313000D02*
X163195000Y-91059000D01*
X163195000Y-91059000D02*
X163195000Y-90170000D01*
X159512000Y-82677000D02*
X160782000Y-82677000D01*
X158242000Y-82677000D02*
X159512000Y-82677000D01*
X163068000Y-82169000D02*
X162560000Y-81661000D01*
X162560000Y-81661000D02*
X155829000Y-81661000D01*
X163957000Y-83058000D02*
X163068000Y-82169000D01*
X164719000Y-85979000D02*
X164719000Y-84455000D01*
X164719000Y-89027000D02*
X164719000Y-87503000D01*
X163195000Y-86360000D02*
X163195000Y-85090000D01*
X163195000Y-88900000D02*
X163195000Y-87630000D01*
X169545000Y-90170000D02*
X163195000Y-90170000D01*
X169545000Y-90170000D02*
X169545000Y-91440000D01*
X169545000Y-90170000D02*
X169545000Y-88900000D01*
X156210000Y-104140000D02*
X156210000Y-105410000D01*
X152400000Y-105410000D02*
X152400000Y-104140000D01*
X151130000Y-104140000D02*
X151130000Y-105410000D01*
X149860000Y-97155000D02*
X151130000Y-98425000D01*
X151130000Y-95885000D02*
X151130000Y-97155000D01*
X149860000Y-120573800D02*
X151053800Y-120573800D01*
X151053800Y-120573800D02*
X151130000Y-120650000D01*
X105410000Y-100330000D02*
X105410000Y-99060000D01*
X105410000Y-102870000D02*
X105410000Y-101600000D01*
X105410000Y-105410000D02*
X105410000Y-104140000D01*
X105410000Y-107950000D02*
X105410000Y-106680000D01*
X105410000Y-110490000D02*
X105410000Y-109220000D01*
X105410000Y-113030000D02*
X105410000Y-111760000D01*
X105410000Y-115570000D02*
X105410000Y-114300000D01*
X105410000Y-118110000D02*
X105410000Y-116840000D01*
X105410000Y-119380000D02*
X105410000Y-118110000D01*
X106680000Y-120904000D02*
X105664000Y-120904000D01*
X105664000Y-120904000D02*
X105410000Y-120650000D01*
X106680000Y-121983500D02*
X106680000Y-120904000D01*
X106680000Y-126238000D02*
X106680000Y-121983500D01*
X149860000Y-126238000D02*
X149860000Y-120573800D01*
X149860000Y-120573800D02*
X149910800Y-120523000D01*
X186562997Y-118872003D02*
X186563000Y-118872000D01*
X186562997Y-119887997D02*
X186562997Y-118872003D01*
X186563000Y-119887994D02*
X186563000Y-118872000D01*
D16*
X140325220Y-94351220D02*
X141544420Y-94351220D01*
X141544420Y-94351220D02*
X142824200Y-95631000D01*
D15*
X155041600Y-109169200D02*
X155041600Y-108153200D01*
X155041600Y-108153200D02*
X155041600Y-103403400D01*
X155041600Y-109347000D02*
X155041600Y-108153200D01*
X155041600Y-103403400D02*
X157175200Y-101269800D01*
X157175200Y-101269800D02*
X158580521Y-101269800D01*
X158580521Y-101269800D02*
X158580521Y-101264165D01*
X163783871Y-97026846D02*
X160683917Y-100126800D01*
X160683917Y-100126800D02*
X159689800Y-100126800D01*
X159689800Y-100126800D02*
X158580521Y-101236079D01*
X158580521Y-101236079D02*
X158580521Y-101264165D01*
D14*
X150367996Y-94691200D02*
X147264094Y-94691200D01*
X147264094Y-94691200D02*
X146761200Y-94691200D01*
X151663400Y-93395796D02*
X150367996Y-94691200D01*
D15*
X168097200Y-114985800D02*
X168097200Y-117551219D01*
X173609000Y-115197772D02*
X173604613Y-115193385D01*
X173609000Y-117551200D02*
X173609000Y-115197772D01*
X168107647Y-112060731D02*
X168107647Y-113375164D01*
X168107647Y-113375164D02*
X168097200Y-113385611D01*
X173597346Y-112056676D02*
X173597346Y-113382957D01*
X173597346Y-113382957D02*
X173600000Y-113385611D01*
D17*
X122552645Y-120446793D02*
X122197046Y-120802392D01*
X126390048Y-119811790D02*
X126238000Y-119405398D01*
X126238000Y-119405398D02*
X125958601Y-119125999D01*
X123873439Y-119125999D02*
X122552645Y-120446793D01*
X125958601Y-119125999D02*
X123873439Y-119125999D01*
X126238000Y-119837200D02*
X126364638Y-119837200D01*
X126364638Y-119837200D02*
X126390048Y-119811790D01*
X125476000Y-119786400D02*
X124155198Y-119786400D01*
X124155198Y-119786400D02*
X122554997Y-121386601D01*
X122554997Y-121386601D02*
X122199398Y-121742200D01*
X158395674Y-112048112D02*
X158064200Y-112379586D01*
X165092485Y-112048112D02*
X158395674Y-112048112D01*
X149783800Y-119057420D02*
X146514820Y-119057420D01*
X150993220Y-117744620D02*
X150993220Y-118247514D01*
X150993220Y-118247514D02*
X150183314Y-119057420D01*
X150183314Y-119057420D02*
X149783800Y-119057420D01*
X146514820Y-119057420D02*
X145056859Y-117599459D01*
X145056859Y-117599459D02*
X144701260Y-117243860D01*
X165100000Y-112039400D02*
X165100000Y-112040597D01*
X165100000Y-112040597D02*
X165092485Y-112048112D01*
X126036907Y-116943221D02*
X125653621Y-116943221D01*
X125653621Y-116943221D02*
X125150727Y-116943221D01*
X145328502Y-118445852D02*
X141716754Y-118445852D01*
X137135397Y-119049203D02*
X127229334Y-119049203D01*
X141716754Y-118445852D02*
X141700531Y-118429629D01*
X141700531Y-118429629D02*
X137754971Y-118429629D01*
X137754971Y-118429629D02*
X137135397Y-119049203D01*
X127229334Y-119049203D02*
X126416286Y-118236155D01*
X126416286Y-118236155D02*
X126416286Y-117322600D01*
X126416286Y-117322600D02*
X126036907Y-116943221D01*
X177075573Y-116844236D02*
X176441587Y-116844236D01*
X177444400Y-118414800D02*
X177444400Y-117213063D01*
X177444400Y-117213063D02*
X177075573Y-116844236D01*
X164592000Y-116890800D02*
X162018970Y-119463830D01*
X176441587Y-116844236D02*
X176098179Y-117187644D01*
X162018970Y-119463830D02*
X146346480Y-119463830D01*
X146346480Y-119463830D02*
X145328502Y-118445852D01*
X176098179Y-117574294D02*
X175436411Y-118236062D01*
X176098179Y-117187644D02*
X176098179Y-117574294D01*
X175436411Y-118236062D02*
X166849880Y-118236062D01*
X166849880Y-118236062D02*
X166420800Y-117806982D01*
X166420800Y-117806982D02*
X166420800Y-117339732D01*
X166420800Y-117339732D02*
X165971868Y-116890800D01*
X165971868Y-116890800D02*
X164592000Y-116890800D01*
X125751133Y-117632903D02*
X125070857Y-118313179D01*
X125070857Y-118313179D02*
X123063021Y-118313179D01*
X111760000Y-122542300D02*
X111760000Y-126238000D01*
X123063021Y-118313179D02*
X122250200Y-119126000D01*
X122250200Y-119126000D02*
X116268500Y-119126000D01*
X116268500Y-119126000D02*
X113347500Y-122047000D01*
X113347500Y-122047000D02*
X112255300Y-122047000D01*
X112255300Y-122047000D02*
X111760000Y-122542300D01*
X114300000Y-126238000D02*
X114300000Y-122402600D01*
X114300000Y-122402600D02*
X116890800Y-119811800D01*
X116890800Y-119811800D02*
X118821200Y-119811800D01*
X118821200Y-119811800D02*
X121140410Y-119811800D01*
X126959386Y-119354005D02*
X127314985Y-119709604D01*
X120665104Y-120475112D02*
X121547219Y-120475112D01*
X126324970Y-118719589D02*
X126959386Y-119354005D01*
X121547219Y-120475112D02*
X123302742Y-118719589D01*
X116840000Y-126238000D02*
X116840000Y-122542300D01*
X116840000Y-122542300D02*
X119104823Y-120277477D01*
X119104823Y-120277477D02*
X120467469Y-120277477D01*
X120467469Y-120277477D02*
X120665104Y-120475112D01*
X123302742Y-118719589D02*
X126324970Y-118719589D01*
X127279400Y-119634000D02*
X127279400Y-119674019D01*
X127279400Y-119674019D02*
X127314985Y-119709604D01*
X180340000Y-126238000D02*
X180340000Y-122605800D01*
X180340000Y-122605800D02*
X179705000Y-121970800D01*
X172303553Y-120802410D02*
X172214610Y-120713467D01*
X179705000Y-121970800D02*
X175844200Y-121970800D01*
X175844200Y-121970800D02*
X174675810Y-120802410D01*
X174675810Y-120802410D02*
X172303553Y-120802410D01*
X172214610Y-120713467D02*
X171113820Y-120713467D01*
X171113820Y-120713467D02*
X170948773Y-120548420D01*
X170948773Y-120548420D02*
X170445879Y-120548420D01*
X177800000Y-122605800D02*
X177596800Y-122402600D01*
X177800000Y-126238000D02*
X177800000Y-122605800D01*
X177596800Y-122402600D02*
X175606151Y-122402600D01*
X175606151Y-122402600D02*
X174412372Y-121208821D01*
X174412372Y-121208821D02*
X172135213Y-121208821D01*
X172135213Y-121208821D02*
X172046270Y-121119878D01*
X172046270Y-121119878D02*
X170967135Y-121119878D01*
X170967135Y-121119878D02*
X170646448Y-121440565D01*
X171729277Y-121780279D02*
X173405779Y-121780279D01*
X173405779Y-121780279D02*
X174053500Y-122428000D01*
X174053500Y-122428000D02*
X174980600Y-122428000D01*
X174980600Y-122428000D02*
X175260000Y-122707400D01*
X175260000Y-122707400D02*
X175260000Y-126238000D01*
X119380000Y-126238000D02*
X119380000Y-121708354D01*
X119380000Y-121708354D02*
X119794877Y-121293477D01*
X119794877Y-121293477D02*
X120150476Y-120937878D01*
X127863600Y-120472200D02*
X125018800Y-120472200D01*
X125018800Y-120472200D02*
X123088399Y-122402601D01*
X123088399Y-122402601D02*
X122059699Y-122402601D01*
X122059699Y-122402601D02*
X121920000Y-122542300D01*
X121920000Y-122542300D02*
X121920000Y-126238000D01*
X124460000Y-126238000D02*
X124460000Y-122555000D01*
X137669321Y-119090030D02*
X140880644Y-119090030D01*
X124460000Y-122555000D02*
X125882399Y-121132601D01*
X140880644Y-119090030D02*
X141383538Y-119090030D01*
X125882399Y-121132601D02*
X128152449Y-121132601D01*
X128152449Y-121132601D02*
X129828850Y-119456200D01*
X129828850Y-119456200D02*
X137303151Y-119456200D01*
X137303151Y-119456200D02*
X137669321Y-119090030D01*
X127000000Y-126238000D02*
X127000000Y-122402600D01*
X127000000Y-122402600D02*
X127330200Y-122072400D01*
X127330200Y-122072400D02*
X129082800Y-122072400D01*
X129082800Y-122072400D02*
X130987800Y-120167400D01*
X130987800Y-120167400D02*
X130987800Y-120142000D01*
X141044901Y-119989568D02*
X141547795Y-119989568D01*
X140790909Y-119735576D02*
X141044901Y-119989568D01*
X137344534Y-119989568D02*
X137598526Y-119735576D01*
X137598526Y-119735576D02*
X140790909Y-119735576D01*
X132092732Y-119989568D02*
X137344534Y-119989568D01*
X129540000Y-126238000D02*
X129540000Y-122542300D01*
X129540000Y-122542300D02*
X132092732Y-119989568D01*
X132080000Y-120980180D02*
X132105400Y-120954780D01*
X132080000Y-126238000D02*
X132080000Y-120980180D01*
X142341598Y-119710201D02*
X142417799Y-119634000D01*
X136766302Y-120395998D02*
X137512855Y-120395998D01*
X142341598Y-120147075D02*
X142341598Y-119710201D01*
X134620000Y-122542300D02*
X136766302Y-120395998D01*
X140538187Y-120141987D02*
X141046188Y-120649988D01*
X141046188Y-120649988D02*
X141838685Y-120649988D01*
X134620000Y-126238000D02*
X134620000Y-122542300D01*
X137512855Y-120395998D02*
X137766866Y-120141987D01*
X142417799Y-119634000D02*
X142773398Y-119278401D01*
X141838685Y-120649988D02*
X142341598Y-120147075D01*
X137766866Y-120141987D02*
X140538187Y-120141987D01*
X137160000Y-126238000D02*
X137160000Y-121920020D01*
X137160000Y-121920020D02*
X136855200Y-121615220D01*
X143002000Y-120269000D02*
X142201394Y-121069606D01*
X139090402Y-121069606D02*
X138873996Y-120853200D01*
X142201394Y-121069606D02*
X139090402Y-121069606D01*
X137584916Y-121932214D02*
X137928324Y-122275622D01*
X138873996Y-120853200D02*
X138029942Y-120853200D01*
X138029942Y-120853200D02*
X137584916Y-121298226D01*
X137584916Y-121298226D02*
X137584916Y-121932214D01*
X137928324Y-122275622D02*
X139420622Y-122275622D01*
X139420622Y-122275622D02*
X139700000Y-122555000D01*
X139700000Y-122555000D02*
X139700000Y-126238000D01*
X142240000Y-126238000D02*
X142240000Y-122555000D01*
X142240000Y-122555000D02*
X141300220Y-121615220D01*
X141300220Y-121615220D02*
X138748212Y-121615220D01*
X138748212Y-121615220D02*
X138245318Y-121615220D01*
X144780000Y-126238000D02*
X144780000Y-120065810D01*
X144780000Y-120065810D02*
X144475189Y-119760999D01*
X144475189Y-119760999D02*
X144119590Y-119405400D01*
X146395728Y-120497619D02*
X146040129Y-120142020D01*
X147320000Y-126238000D02*
X147320000Y-121421891D01*
X147320000Y-121421891D02*
X146395728Y-120497619D01*
X152400000Y-126238000D02*
X152400000Y-122555000D01*
X152400000Y-122555000D02*
X153263600Y-121691400D01*
X153263600Y-121691400D02*
X157022800Y-121691400D01*
X157022800Y-121691400D02*
X157835596Y-120878604D01*
X157835596Y-120878604D02*
X161823396Y-120878604D01*
X161823396Y-120878604D02*
X163652200Y-119049800D01*
X163652200Y-119049800D02*
X166341853Y-119049800D01*
X166341853Y-119049800D02*
X166342769Y-119048884D01*
X166342769Y-119048884D02*
X174903484Y-119048884D01*
X174903484Y-119048884D02*
X175234601Y-119380001D01*
X175234601Y-119380001D02*
X175590200Y-119735600D01*
X154940000Y-126238000D02*
X154940000Y-122555000D01*
X154940000Y-122555000D02*
X155397189Y-122097811D01*
X155397189Y-122097811D02*
X157191140Y-122097811D01*
X157191140Y-122097811D02*
X158003936Y-121285015D01*
X158003936Y-121285015D02*
X162077385Y-121285015D01*
X162077385Y-121285015D02*
X163647063Y-119715337D01*
X163647063Y-119715337D02*
X164850776Y-119715337D01*
X164850776Y-119715337D02*
X165353670Y-119715337D01*
X157480000Y-126238000D02*
X157480000Y-122402600D01*
X157480000Y-122402600D02*
X158165800Y-121716800D01*
X163372819Y-120573781D02*
X164343126Y-120573781D01*
X158165800Y-121716800D02*
X162229800Y-121716800D01*
X162229800Y-121716800D02*
X163372819Y-120573781D01*
X164343126Y-120573781D02*
X164846020Y-120573781D01*
X166141396Y-120227651D02*
X166141396Y-119825006D01*
X172862380Y-119481453D02*
X172862516Y-119481589D01*
X160020000Y-126238000D02*
X160020000Y-122605800D01*
X160020000Y-122605800D02*
X160502589Y-122123211D01*
X173588706Y-119710220D02*
X174091600Y-119710220D01*
X160502589Y-122123211D02*
X162398140Y-122123211D01*
X168373855Y-119481600D02*
X168373866Y-119481589D01*
X173138616Y-119710220D02*
X173588706Y-119710220D01*
X162398140Y-122123211D02*
X163287148Y-121234202D01*
X163287148Y-121234202D02*
X165134845Y-121234202D01*
X166484802Y-119481600D02*
X168373855Y-119481600D01*
X165134845Y-121234202D02*
X166141396Y-120227651D01*
X166141396Y-119825006D02*
X166484802Y-119481600D01*
X168373866Y-119481589D02*
X172228258Y-119481589D01*
X172228258Y-119481589D02*
X172228394Y-119481453D01*
X172862516Y-119481589D02*
X172909985Y-119481589D01*
X172228394Y-119481453D02*
X172862380Y-119481453D01*
X172909985Y-119481589D02*
X173138616Y-119710220D01*
X162560000Y-126238000D02*
X162560000Y-122580400D01*
X162560000Y-122580400D02*
X163474387Y-121666013D01*
X163474387Y-121666013D02*
X165277823Y-121666013D01*
X165277823Y-121666013D02*
X166446217Y-120497619D01*
X166446217Y-120497619D02*
X166801816Y-120142020D01*
X165100000Y-126238000D02*
X165100000Y-122631200D01*
X165100000Y-122631200D02*
X166446200Y-121285000D01*
X166446200Y-121285000D02*
X166979580Y-121285000D01*
X172042493Y-120141854D02*
X172545387Y-120141854D01*
X167640000Y-126238000D02*
X167640000Y-120790206D01*
X167640000Y-120790206D02*
X168542206Y-119888000D01*
X171788639Y-119888000D02*
X172042493Y-120141854D01*
X168542206Y-119888000D02*
X171788639Y-119888000D01*
X168579800Y-120827800D02*
X168579800Y-121564400D01*
X168579800Y-121564400D02*
X169240200Y-122224800D01*
X169240200Y-122224800D02*
X169773600Y-122224800D01*
X169773600Y-122224800D02*
X170180000Y-122631200D01*
X170180000Y-122631200D02*
X170180000Y-126238000D01*
X172720000Y-126238000D02*
X172720000Y-122605800D01*
X171002960Y-122123200D02*
X170246750Y-122123200D01*
X172720000Y-122605800D02*
X172567600Y-122453400D01*
X172567600Y-122453400D02*
X171333160Y-122453400D01*
X171333160Y-122453400D02*
X171002960Y-122123200D01*
X170246750Y-122123200D02*
X169670347Y-121546797D01*
X169670347Y-121546797D02*
X169558284Y-121546797D01*
X141020800Y-88315800D02*
X141551021Y-87785579D01*
X141551021Y-87785579D02*
X151460220Y-87785579D01*
X139979400Y-88315800D02*
X140972540Y-87322660D01*
X140972540Y-87322660D02*
X141681200Y-87322660D01*
X141495780Y-87322660D02*
X141681200Y-87322660D01*
X141681200Y-87322660D02*
X150939920Y-87322660D01*
X151958041Y-86946741D02*
X152313640Y-87302340D01*
X151315839Y-86946741D02*
X151958041Y-86946741D01*
X150939920Y-87322660D02*
X151315839Y-86946741D01*
X146603516Y-92807812D02*
X146545856Y-92865472D01*
X149580631Y-92807812D02*
X146603516Y-92807812D01*
X144556048Y-89776137D02*
X144695911Y-89916000D01*
X142040247Y-89776137D02*
X144556048Y-89776137D01*
X141684648Y-90131736D02*
X142040247Y-89776137D01*
X142285692Y-89255598D02*
X145598250Y-89255598D01*
X142209494Y-89179400D02*
X142285692Y-89255598D01*
X145598250Y-89255598D02*
X145899880Y-88953968D01*
X145899880Y-88953968D02*
X146402774Y-88953968D01*
X141706600Y-89179400D02*
X142209494Y-89179400D01*
X149895500Y-93751072D02*
X147301729Y-93751072D01*
X150359201Y-93287371D02*
X149895500Y-93751072D01*
X147301729Y-93751072D02*
X146798835Y-93751072D01*
X160522894Y-120142000D02*
X160020000Y-120142000D01*
X165685824Y-117566188D02*
X164491362Y-117566188D01*
X164491362Y-117566188D02*
X161915550Y-120142000D01*
X161915550Y-120142000D02*
X160522894Y-120142000D01*
X176758580Y-117504637D02*
X175620744Y-118642473D01*
X175620744Y-118642473D02*
X166259215Y-118642473D01*
X166259215Y-118642473D02*
X165685824Y-118069082D01*
X165685824Y-118069082D02*
X165685824Y-117566188D01*
X110744000Y-109550200D02*
X110744000Y-107619800D01*
X134137400Y-118237000D02*
X133476999Y-117576599D01*
X117728980Y-118313180D02*
X116535210Y-117119410D01*
X120015000Y-106908600D02*
X120015000Y-100609400D01*
X133476999Y-117576599D02*
X132194807Y-117576599D01*
X132194807Y-117576599D02*
X131535023Y-118236383D01*
X120015000Y-100609400D02*
X121234200Y-99390200D01*
X131535023Y-118236383D02*
X127608983Y-118236383D01*
X127608983Y-118236383D02*
X127229106Y-117856506D01*
X121894620Y-118313180D02*
X117728980Y-118313180D01*
X116535210Y-117119410D02*
X116535210Y-110388390D01*
X127229106Y-117856506D02*
X127229106Y-116967506D01*
X127229106Y-116967506D02*
X126898400Y-116636800D01*
X126898400Y-116636800D02*
X126879986Y-116636800D01*
X126879986Y-116636800D02*
X126119596Y-115876410D01*
X124660259Y-115876411D02*
X124002800Y-116533870D01*
X126119596Y-115876410D02*
X124660259Y-115876411D01*
X124002800Y-116533870D02*
X124002800Y-117170200D01*
X124002800Y-117170200D02*
X123774210Y-117398790D01*
X123774210Y-117398790D02*
X122809010Y-117398790D01*
X122809010Y-117398790D02*
X121894620Y-118313180D01*
X116535210Y-110388390D02*
X120015000Y-106908600D01*
X121234200Y-99390200D02*
X121285000Y-99390200D01*
X134137400Y-118237000D02*
X134213600Y-118313200D01*
X135407400Y-118287800D02*
X134188200Y-118287800D01*
X134188200Y-118287800D02*
X134137400Y-118237000D01*
X134213600Y-118313200D02*
X135305800Y-118313200D01*
X119481600Y-99491800D02*
X119481600Y-106857800D01*
X119481600Y-106857800D02*
X116078000Y-110261400D01*
X124434600Y-117373400D02*
X124434600Y-116676820D01*
X116078000Y-110261400D02*
X116078000Y-117246400D01*
X116078000Y-117246400D02*
X117551190Y-118719590D01*
X117551190Y-118719590D02*
X122081860Y-118719590D01*
X122081860Y-118719590D02*
X122996249Y-117805201D01*
X124434600Y-116676820D02*
X124828600Y-116282820D01*
X122996249Y-117805201D02*
X124002800Y-117805200D01*
X124002800Y-117805200D02*
X124434600Y-117373400D01*
X132511800Y-118237000D02*
X132106008Y-118642792D01*
X132106008Y-118642792D02*
X127405792Y-118642792D01*
X126822696Y-118059696D02*
X126822696Y-117154260D01*
X127405792Y-118642792D02*
X126822696Y-118059696D01*
X126822696Y-117154260D02*
X125951256Y-116282820D01*
X125951256Y-116282820D02*
X124828600Y-116282820D01*
X124828600Y-116282820D02*
X124815700Y-116295720D01*
X176326804Y-120700800D02*
X176326800Y-120700796D01*
X178079420Y-120700800D02*
X176326804Y-120700800D01*
X155287198Y-85838590D02*
X155287198Y-87659410D01*
X153517600Y-113284010D02*
X153517600Y-112903000D01*
X163169600Y-94767400D02*
X163169600Y-96748956D01*
X154355799Y-112064801D02*
X153517600Y-112903000D01*
X163169600Y-96748956D02*
X160233900Y-99684656D01*
X160233900Y-99684656D02*
X159064389Y-99684656D01*
X159064389Y-99684656D02*
X158013400Y-100735645D01*
X158013400Y-100735645D02*
X157074355Y-100735645D01*
X157074355Y-100735645D02*
X154355799Y-103454201D01*
X154355799Y-103454201D02*
X154355799Y-112064801D01*
X152780999Y-112953801D02*
X152425400Y-113309400D01*
X153924000Y-111810800D02*
X152780999Y-112953801D01*
X157282457Y-99943343D02*
X153924000Y-103301800D01*
X153924000Y-103301800D02*
X153924000Y-111810800D01*
X157848834Y-99943343D02*
X157282457Y-99943343D01*
X159461200Y-84988400D02*
X158089600Y-84988400D01*
X158824020Y-98256815D02*
X158824992Y-98256815D01*
X157000151Y-98470101D02*
X158610734Y-98470101D01*
X158824992Y-98256815D02*
X159180591Y-97901216D01*
X148987766Y-101828589D02*
X153641663Y-101828589D01*
X148412169Y-102404186D02*
X148987766Y-101828589D01*
X153641663Y-101828589D02*
X157000151Y-98470101D01*
X158610734Y-98470101D02*
X158824020Y-98256815D01*
X143230600Y-88569800D02*
X145745200Y-88569800D01*
X145745200Y-88569800D02*
X146024600Y-88290400D01*
X146024600Y-88290400D02*
X146788895Y-88290400D01*
X146788895Y-88290400D02*
X147420856Y-88922361D01*
X147420856Y-88922361D02*
X147420856Y-90179918D01*
X147420856Y-90179918D02*
X147420856Y-90682812D01*
X144259825Y-102644025D02*
X148172330Y-102644025D01*
X148172330Y-102644025D02*
X148412169Y-102404186D01*
X147447000Y-90678000D02*
X147425668Y-90678000D01*
X147425668Y-90678000D02*
X147420856Y-90682812D01*
X157262479Y-97518562D02*
X157618078Y-97162963D01*
X145575263Y-100712494D02*
X153608256Y-100712494D01*
X153608256Y-100712494D02*
X156802188Y-97518562D01*
X156802188Y-97518562D02*
X157262479Y-97518562D01*
X157237354Y-96367601D02*
X158064197Y-96367601D01*
X144545713Y-100440187D02*
X144933807Y-100052093D01*
X153552862Y-100052093D02*
X157237354Y-96367601D01*
X158064197Y-96367601D02*
X158419796Y-96723200D01*
X144933807Y-100052093D02*
X153552862Y-100052093D01*
X145469885Y-101422178D02*
X153473324Y-101422178D01*
X157767876Y-97809700D02*
X158270770Y-97809700D01*
X144916405Y-101975658D02*
X145469885Y-101422178D01*
X153473324Y-101422178D02*
X156876972Y-98018530D01*
X156876972Y-98018530D02*
X157559046Y-98018530D01*
X157559046Y-98018530D02*
X157767876Y-97809700D01*
X150804862Y-89194632D02*
X150804862Y-88691738D01*
X148712188Y-91878169D02*
X150804862Y-89785495D01*
X150804862Y-89785495D02*
X150804862Y-89194632D01*
X155078024Y-97155000D02*
X156271824Y-95961200D01*
X150025606Y-102743000D02*
X148704807Y-104063799D01*
X156271824Y-95961200D02*
X158597600Y-95961200D01*
X160065560Y-99278245D02*
X158929121Y-99278245D01*
X158597600Y-95961200D02*
X159080200Y-96443800D01*
X159080200Y-96443800D02*
X159080200Y-96823431D01*
X158924443Y-99282923D02*
X157336831Y-99282923D01*
X157336831Y-99282923D02*
X153876754Y-102743000D01*
X159080200Y-96823431D02*
X160426400Y-98169631D01*
X160426400Y-98169631D02*
X160426400Y-98917405D01*
X160426400Y-98917405D02*
X160065560Y-99278245D01*
X153876754Y-102743000D02*
X150025606Y-102743000D01*
X158929121Y-99278245D02*
X158924443Y-99282923D01*
X148704807Y-104063799D02*
X146376754Y-104063799D01*
X146376754Y-104063799D02*
X145872117Y-103559162D01*
X149352000Y-104394000D02*
X149250400Y-104495600D01*
X149250400Y-104495600D02*
X145719800Y-104495600D01*
X149580601Y-108381801D02*
X149936200Y-108737400D01*
X149180994Y-107982194D02*
X149580601Y-108381801D01*
X149180994Y-106991594D02*
X149180994Y-107982194D01*
X148412169Y-103327169D02*
X148767768Y-102971570D01*
X148767768Y-102971570D02*
X148920230Y-102971570D01*
X148920230Y-102971570D02*
X149656800Y-102235000D01*
X149656800Y-102235000D02*
X153810004Y-102235000D01*
X159245672Y-98617843D02*
X159748566Y-98617843D01*
X153810004Y-102235000D02*
X157168492Y-98876512D01*
X157168492Y-98876512D02*
X158779074Y-98876512D01*
X158779074Y-98876512D02*
X159037743Y-98617843D01*
X159037743Y-98617843D02*
X159245672Y-98617843D01*
D15*
G36*
X185425029Y-80774590D02*
X186118775Y-80890214D01*
X186141728Y-80895826D01*
X186163613Y-80904797D01*
X186591764Y-81118873D01*
X186613558Y-81132058D01*
X186632951Y-81148557D01*
X186821443Y-81337049D01*
X186837942Y-81356442D01*
X186851127Y-81378236D01*
X187065203Y-81806387D01*
X187074174Y-81828272D01*
X187079786Y-81851225D01*
X187195410Y-82544971D01*
X187198000Y-82576265D01*
X187198000Y-121024764D01*
X187194958Y-121055652D01*
X187187763Y-121079369D01*
X187176086Y-121101216D01*
X187160368Y-121120368D01*
X187141216Y-121136086D01*
X187119369Y-121147763D01*
X187095652Y-121154958D01*
X187064764Y-121158000D01*
X178658370Y-121158000D01*
X178722989Y-121066398D01*
X178781744Y-120934432D01*
X178813748Y-120793567D01*
X178816051Y-120628573D01*
X178787993Y-120486869D01*
X178732946Y-120353314D01*
X178653006Y-120232995D01*
X178551218Y-120130494D01*
X178431460Y-120049716D01*
X178298292Y-119993737D01*
X178156788Y-119964691D01*
X178012337Y-119963682D01*
X177870441Y-119990750D01*
X177736505Y-120044864D01*
X177615630Y-120123962D01*
X177519398Y-120218200D01*
X176885698Y-120218200D01*
X176798598Y-120130490D01*
X176678840Y-120049712D01*
X176545672Y-119993733D01*
X176404168Y-119964687D01*
X176293732Y-119963916D01*
X176324528Y-119828367D01*
X176326831Y-119663373D01*
X176298773Y-119521669D01*
X176243726Y-119388114D01*
X176163786Y-119267795D01*
X176061998Y-119165294D01*
X175942240Y-119084516D01*
X175870116Y-119054198D01*
X175883587Y-119047215D01*
X175885568Y-119045634D01*
X175887811Y-119044441D01*
X175922369Y-119016256D01*
X175957196Y-118988454D01*
X175960732Y-118984968D01*
X175960800Y-118984912D01*
X175960852Y-118984849D01*
X175961994Y-118983723D01*
X176705401Y-118240316D01*
X176728298Y-118240796D01*
X176708849Y-118332295D01*
X176706832Y-118476735D01*
X176732909Y-118618817D01*
X176786086Y-118753127D01*
X176864338Y-118874551D01*
X176964685Y-118978463D01*
X177083304Y-119060905D01*
X177215677Y-119118738D01*
X177356762Y-119149757D01*
X177501185Y-119152783D01*
X177643445Y-119127698D01*
X177778123Y-119075460D01*
X177900090Y-118998057D01*
X178004700Y-118898438D01*
X178087969Y-118780398D01*
X178146724Y-118648432D01*
X178178728Y-118507567D01*
X178181031Y-118342573D01*
X178152973Y-118200869D01*
X178097926Y-118067314D01*
X178017986Y-117946995D01*
X177927000Y-117855372D01*
X177927000Y-117213063D01*
X177922654Y-117168737D01*
X177918765Y-117124288D01*
X177918056Y-117121849D01*
X177917809Y-117119326D01*
X177904928Y-117076663D01*
X177892487Y-117033840D01*
X177891320Y-117031588D01*
X177890586Y-117029158D01*
X177869642Y-116989768D01*
X177849142Y-116950220D01*
X177847561Y-116948239D01*
X177846368Y-116945996D01*
X177818183Y-116911438D01*
X177790381Y-116876611D01*
X177786895Y-116873075D01*
X177786839Y-116873007D01*
X177786776Y-116872955D01*
X177785650Y-116871813D01*
X177416823Y-116502986D01*
X177382376Y-116474691D01*
X177348226Y-116446036D01*
X177346003Y-116444814D01*
X177344042Y-116443203D01*
X177304725Y-116422121D01*
X177265689Y-116400661D01*
X177263273Y-116399895D01*
X177261034Y-116398694D01*
X177218371Y-116385651D01*
X177175911Y-116372182D01*
X177173390Y-116371899D01*
X177170962Y-116371157D01*
X177126607Y-116366652D01*
X177082311Y-116361683D01*
X177077351Y-116361648D01*
X177077258Y-116361639D01*
X177077172Y-116361647D01*
X177075573Y-116361636D01*
X176441587Y-116361636D01*
X176397261Y-116365982D01*
X176352812Y-116369871D01*
X176350373Y-116370580D01*
X176347850Y-116370827D01*
X176305187Y-116383708D01*
X176262364Y-116396149D01*
X176260112Y-116397316D01*
X176257682Y-116398050D01*
X176218292Y-116418994D01*
X176178744Y-116439494D01*
X176176763Y-116441075D01*
X176174520Y-116442268D01*
X176139962Y-116470453D01*
X176105135Y-116498255D01*
X176101599Y-116501741D01*
X176101531Y-116501797D01*
X176101479Y-116501860D01*
X176100337Y-116502986D01*
X175756929Y-116846394D01*
X175728634Y-116880841D01*
X175699979Y-116914991D01*
X175698757Y-116917214D01*
X175697146Y-116919175D01*
X175676064Y-116958492D01*
X175654604Y-116997528D01*
X175653838Y-116999944D01*
X175652637Y-117002183D01*
X175639594Y-117044846D01*
X175626125Y-117087306D01*
X175625842Y-117089827D01*
X175625100Y-117092255D01*
X175620595Y-117136610D01*
X175615626Y-117180906D01*
X175615591Y-117185866D01*
X175615582Y-117185959D01*
X175615590Y-117186045D01*
X175615579Y-117187644D01*
X175615579Y-117374394D01*
X175236511Y-117753462D01*
X174318451Y-117753462D01*
X174343328Y-117643967D01*
X174345631Y-117478973D01*
X174317573Y-117337269D01*
X174262526Y-117203714D01*
X174182586Y-117083395D01*
X174117000Y-117017350D01*
X174117000Y-115722650D01*
X174164913Y-115677023D01*
X174248182Y-115558983D01*
X174306937Y-115427017D01*
X174338941Y-115286152D01*
X174341244Y-115121158D01*
X174313186Y-114979454D01*
X174258139Y-114845899D01*
X174178199Y-114725580D01*
X174076411Y-114623079D01*
X173956653Y-114542301D01*
X173823485Y-114486322D01*
X173681981Y-114457276D01*
X173537530Y-114456267D01*
X173395634Y-114483335D01*
X173261698Y-114537449D01*
X173140823Y-114616547D01*
X173037614Y-114717617D01*
X172956002Y-114836808D01*
X172899096Y-114969582D01*
X172869062Y-115110880D01*
X172867045Y-115255320D01*
X172893122Y-115397402D01*
X172946299Y-115531712D01*
X173024551Y-115653136D01*
X173101000Y-115732301D01*
X173101000Y-117017656D01*
X173042001Y-117075432D01*
X172960389Y-117194623D01*
X172903483Y-117327397D01*
X172873449Y-117468695D01*
X172871432Y-117613135D01*
X172897187Y-117753462D01*
X168806655Y-117753462D01*
X168831528Y-117643986D01*
X168833831Y-117478992D01*
X168805773Y-117337288D01*
X168750726Y-117203733D01*
X168670786Y-117083414D01*
X168605200Y-117017369D01*
X168605200Y-115519243D01*
X168657500Y-115469438D01*
X168740769Y-115351398D01*
X168799524Y-115219432D01*
X168831528Y-115078567D01*
X168833831Y-114913573D01*
X168805773Y-114771869D01*
X168750726Y-114638314D01*
X168670786Y-114517995D01*
X168568998Y-114415494D01*
X168449240Y-114334716D01*
X168316072Y-114278737D01*
X168174568Y-114249691D01*
X168030117Y-114248682D01*
X167888221Y-114275750D01*
X167754285Y-114329864D01*
X167633410Y-114408962D01*
X167530201Y-114510032D01*
X167448589Y-114629223D01*
X167391683Y-114761997D01*
X167361649Y-114903295D01*
X167359632Y-115047735D01*
X167385709Y-115189817D01*
X167438886Y-115324127D01*
X167517138Y-115445551D01*
X167589200Y-115520173D01*
X167589200Y-117017675D01*
X167530201Y-117075451D01*
X167448589Y-117194642D01*
X167391683Y-117327416D01*
X167361649Y-117468714D01*
X167359632Y-117613154D01*
X167385383Y-117753462D01*
X167049780Y-117753462D01*
X166903400Y-117607082D01*
X166903400Y-117339732D01*
X166899054Y-117295406D01*
X166895165Y-117250957D01*
X166894456Y-117248518D01*
X166894209Y-117245995D01*
X166881324Y-117203319D01*
X166868887Y-117160510D01*
X166867720Y-117158259D01*
X166866986Y-117155827D01*
X166846032Y-117116419D01*
X166825542Y-117076889D01*
X166823961Y-117074908D01*
X166822768Y-117072665D01*
X166794583Y-117038107D01*
X166766781Y-117003280D01*
X166763295Y-116999744D01*
X166763239Y-116999676D01*
X166763176Y-116999624D01*
X166762050Y-116998482D01*
X166313118Y-116549550D01*
X166278671Y-116521255D01*
X166244521Y-116492600D01*
X166242298Y-116491378D01*
X166240337Y-116489767D01*
X166201020Y-116468685D01*
X166161984Y-116447225D01*
X166159568Y-116446459D01*
X166157329Y-116445258D01*
X166114666Y-116432215D01*
X166072206Y-116418746D01*
X166069685Y-116418463D01*
X166067257Y-116417721D01*
X166022902Y-116413216D01*
X165978606Y-116408247D01*
X165973646Y-116408212D01*
X165973553Y-116408203D01*
X165973467Y-116408211D01*
X165971868Y-116408200D01*
X164592000Y-116408200D01*
X164547674Y-116412546D01*
X164503225Y-116416435D01*
X164500786Y-116417144D01*
X164498263Y-116417391D01*
X164455600Y-116430272D01*
X164412777Y-116442713D01*
X164410525Y-116443880D01*
X164408095Y-116444614D01*
X164368705Y-116465558D01*
X164329157Y-116486058D01*
X164327176Y-116487639D01*
X164324933Y-116488832D01*
X164290375Y-116517017D01*
X164255548Y-116544819D01*
X164252012Y-116548305D01*
X164251944Y-116548361D01*
X164251892Y-116548424D01*
X164250750Y-116549550D01*
X161819070Y-118981230D01*
X150942004Y-118981230D01*
X151334470Y-118588764D01*
X151362765Y-118554317D01*
X151391420Y-118520167D01*
X151392642Y-118517944D01*
X151394253Y-118515983D01*
X151415335Y-118476666D01*
X151436795Y-118437630D01*
X151437561Y-118435214D01*
X151438762Y-118432975D01*
X151451805Y-118390312D01*
X151465274Y-118347852D01*
X151465557Y-118345331D01*
X151466299Y-118342903D01*
X151469851Y-118307935D01*
X151553520Y-118228258D01*
X151636789Y-118110218D01*
X151695544Y-117978252D01*
X151727548Y-117837387D01*
X151729851Y-117672393D01*
X151701793Y-117530689D01*
X151646746Y-117397134D01*
X151566806Y-117276815D01*
X151465018Y-117174314D01*
X151345260Y-117093536D01*
X151212092Y-117037557D01*
X151070588Y-117008511D01*
X150926137Y-117007502D01*
X150784241Y-117034570D01*
X150650305Y-117088684D01*
X150529430Y-117167782D01*
X150426221Y-117268852D01*
X150344609Y-117388043D01*
X150287703Y-117520817D01*
X150257669Y-117662115D01*
X150255652Y-117806555D01*
X150281729Y-117948637D01*
X150334906Y-118082947D01*
X150389921Y-118168313D01*
X149983414Y-118574820D01*
X146714720Y-118574820D01*
X145436152Y-117296252D01*
X145437891Y-117171633D01*
X145409833Y-117029929D01*
X145354786Y-116896374D01*
X145274846Y-116776055D01*
X145173058Y-116673554D01*
X145053300Y-116592776D01*
X144920132Y-116536797D01*
X144778628Y-116507751D01*
X144634177Y-116506742D01*
X144492281Y-116533810D01*
X144358345Y-116587924D01*
X144237470Y-116667022D01*
X144134261Y-116768092D01*
X144052649Y-116887283D01*
X143995743Y-117020057D01*
X143965709Y-117161355D01*
X143963692Y-117305795D01*
X143989769Y-117447877D01*
X144042946Y-117582187D01*
X144121198Y-117703611D01*
X144221545Y-117807523D01*
X144340164Y-117889965D01*
X144472537Y-117947798D01*
X144542827Y-117963252D01*
X141818765Y-117963252D01*
X141800869Y-117957575D01*
X141798348Y-117957292D01*
X141795920Y-117956550D01*
X141751565Y-117952045D01*
X141707269Y-117947076D01*
X141702309Y-117947041D01*
X141702216Y-117947032D01*
X141702130Y-117947040D01*
X141700531Y-117947029D01*
X137754971Y-117947029D01*
X137710645Y-117951375D01*
X137666196Y-117955264D01*
X137663757Y-117955973D01*
X137661234Y-117956220D01*
X137618571Y-117969101D01*
X137575748Y-117981542D01*
X137573496Y-117982709D01*
X137571066Y-117983443D01*
X137531676Y-118004387D01*
X137492128Y-118024887D01*
X137490147Y-118026468D01*
X137487904Y-118027661D01*
X137453346Y-118055846D01*
X137418519Y-118083648D01*
X137414983Y-118087134D01*
X137414915Y-118087190D01*
X137414863Y-118087253D01*
X137413721Y-118088379D01*
X136935497Y-118566603D01*
X136089613Y-118566603D01*
X136109724Y-118521432D01*
X136141728Y-118380567D01*
X136144031Y-118215573D01*
X136115973Y-118073869D01*
X136060926Y-117940314D01*
X135980986Y-117819995D01*
X135879198Y-117717494D01*
X135759440Y-117636716D01*
X135626272Y-117580737D01*
X135484768Y-117551691D01*
X135340317Y-117550682D01*
X135198421Y-117577750D01*
X135064485Y-117631864D01*
X134943610Y-117710962D01*
X134847378Y-117805200D01*
X134388100Y-117805200D01*
X133818249Y-117235349D01*
X133783802Y-117207054D01*
X133749652Y-117178399D01*
X133747429Y-117177177D01*
X133745468Y-117175566D01*
X133706151Y-117154484D01*
X133667115Y-117133024D01*
X133664699Y-117132258D01*
X133662460Y-117131057D01*
X133619797Y-117118014D01*
X133577337Y-117104545D01*
X133574816Y-117104262D01*
X133572388Y-117103520D01*
X133528033Y-117099015D01*
X133483737Y-117094046D01*
X133478777Y-117094011D01*
X133478684Y-117094002D01*
X133478598Y-117094010D01*
X133476999Y-117093999D01*
X132194807Y-117093999D01*
X132150435Y-117098350D01*
X132106032Y-117102235D01*
X132103598Y-117102942D01*
X132101070Y-117103190D01*
X132058365Y-117116083D01*
X132015584Y-117128512D01*
X132013332Y-117129679D01*
X132010902Y-117130413D01*
X131971512Y-117151357D01*
X131931964Y-117171857D01*
X131929983Y-117173438D01*
X131927740Y-117174631D01*
X131893182Y-117202816D01*
X131858355Y-117230618D01*
X131854824Y-117234101D01*
X131854751Y-117234160D01*
X131854695Y-117234227D01*
X131853557Y-117235350D01*
X131335123Y-117753783D01*
X127808883Y-117753783D01*
X127711706Y-117656606D01*
X127711706Y-116967506D01*
X127707360Y-116923180D01*
X127703471Y-116878731D01*
X127702762Y-116876292D01*
X127702515Y-116873769D01*
X127689634Y-116831106D01*
X127677193Y-116788283D01*
X127676026Y-116786031D01*
X127675292Y-116783601D01*
X127654348Y-116744211D01*
X127633848Y-116704663D01*
X127632267Y-116702682D01*
X127631074Y-116700439D01*
X127602889Y-116665881D01*
X127575087Y-116631054D01*
X127571601Y-116627518D01*
X127571545Y-116627450D01*
X127571482Y-116627398D01*
X127570356Y-116626256D01*
X127239650Y-116295550D01*
X127205203Y-116267255D01*
X127171053Y-116238600D01*
X127168830Y-116237378D01*
X127166869Y-116235767D01*
X127155192Y-116229506D01*
X126460846Y-115535160D01*
X126426399Y-115506865D01*
X126392249Y-115478210D01*
X126390026Y-115476988D01*
X126388065Y-115475377D01*
X126348748Y-115454295D01*
X126309712Y-115432835D01*
X126307296Y-115432069D01*
X126305057Y-115430868D01*
X126262394Y-115417825D01*
X126219934Y-115404356D01*
X126217413Y-115404073D01*
X126214985Y-115403331D01*
X126170630Y-115398826D01*
X126126334Y-115393857D01*
X126121374Y-115393822D01*
X126121281Y-115393813D01*
X126121195Y-115393821D01*
X126119596Y-115393810D01*
X124660259Y-115393811D01*
X124615887Y-115398162D01*
X124571484Y-115402047D01*
X124569050Y-115402754D01*
X124566522Y-115403002D01*
X124523817Y-115415895D01*
X124481036Y-115428324D01*
X124478784Y-115429491D01*
X124476354Y-115430225D01*
X124436964Y-115451169D01*
X124397416Y-115471669D01*
X124395435Y-115473250D01*
X124393192Y-115474443D01*
X124358634Y-115502628D01*
X124323807Y-115530430D01*
X124320276Y-115533913D01*
X124320203Y-115533972D01*
X124320147Y-115534039D01*
X124319009Y-115535162D01*
X123661550Y-116192620D01*
X123633255Y-116227067D01*
X123604600Y-116261217D01*
X123603378Y-116263440D01*
X123601767Y-116265401D01*
X123580685Y-116304718D01*
X123559225Y-116343754D01*
X123558459Y-116346170D01*
X123557258Y-116348409D01*
X123544215Y-116391072D01*
X123530746Y-116433532D01*
X123530463Y-116436053D01*
X123529721Y-116438481D01*
X123525216Y-116482836D01*
X123520247Y-116527132D01*
X123520212Y-116532092D01*
X123520203Y-116532185D01*
X123520211Y-116532271D01*
X123520200Y-116533870D01*
X123520200Y-116916190D01*
X122809010Y-116916190D01*
X122764684Y-116920536D01*
X122720235Y-116924425D01*
X122717796Y-116925134D01*
X122715273Y-116925381D01*
X122672597Y-116938266D01*
X122629788Y-116950703D01*
X122627537Y-116951870D01*
X122625105Y-116952604D01*
X122585697Y-116973558D01*
X122546167Y-116994048D01*
X122544186Y-116995629D01*
X122541943Y-116996822D01*
X122507385Y-117025007D01*
X122472558Y-117052809D01*
X122469022Y-117056295D01*
X122468954Y-117056351D01*
X122468902Y-117056414D01*
X122467760Y-117057540D01*
X121694720Y-117830580D01*
X117928880Y-117830580D01*
X117017810Y-116919510D01*
X117017810Y-110588290D01*
X120356250Y-107249850D01*
X120384545Y-107215403D01*
X120413200Y-107181253D01*
X120414422Y-107179030D01*
X120416033Y-107177069D01*
X120437096Y-107137787D01*
X120458575Y-107098716D01*
X120459343Y-107096296D01*
X120460541Y-107094061D01*
X120472933Y-107053529D01*
X148443426Y-107053529D01*
X148469503Y-107195611D01*
X148522680Y-107329921D01*
X148600932Y-107451345D01*
X148698394Y-107552270D01*
X148698394Y-107982194D01*
X148702740Y-108026520D01*
X148706629Y-108070969D01*
X148707338Y-108073408D01*
X148707585Y-108075931D01*
X148720466Y-108118594D01*
X148732907Y-108161417D01*
X148734074Y-108163669D01*
X148734808Y-108166099D01*
X148755752Y-108205489D01*
X148776252Y-108245037D01*
X148777833Y-108247018D01*
X148779026Y-108249261D01*
X148807211Y-108283819D01*
X148835013Y-108318646D01*
X148838499Y-108322182D01*
X148838555Y-108322250D01*
X148838618Y-108322302D01*
X148839744Y-108323444D01*
X149200243Y-108683942D01*
X149198632Y-108799335D01*
X149224709Y-108941417D01*
X149277886Y-109075727D01*
X149356138Y-109197151D01*
X149456485Y-109301063D01*
X149575104Y-109383505D01*
X149707477Y-109441338D01*
X149848562Y-109472357D01*
X149992985Y-109475383D01*
X150135245Y-109450298D01*
X150269923Y-109398060D01*
X150391890Y-109320657D01*
X150496500Y-109221038D01*
X150579769Y-109102998D01*
X150638524Y-108971032D01*
X150670528Y-108830167D01*
X150672831Y-108665173D01*
X150644773Y-108523469D01*
X150589726Y-108389914D01*
X150509786Y-108269595D01*
X150407998Y-108167094D01*
X150288240Y-108086316D01*
X150155072Y-108030337D01*
X150013568Y-108001291D01*
X149881669Y-108000370D01*
X149663594Y-107782294D01*
X149663594Y-107549225D01*
X149741294Y-107475232D01*
X149824563Y-107357192D01*
X149883318Y-107225226D01*
X149915322Y-107084361D01*
X149917625Y-106919367D01*
X149889567Y-106777663D01*
X149834520Y-106644108D01*
X149754580Y-106523789D01*
X149652792Y-106421288D01*
X149533034Y-106340510D01*
X149399866Y-106284531D01*
X149258362Y-106255485D01*
X149113911Y-106254476D01*
X148972015Y-106281544D01*
X148838079Y-106335658D01*
X148717204Y-106414756D01*
X148613995Y-106515826D01*
X148532383Y-106635017D01*
X148475477Y-106767791D01*
X148445443Y-106909089D01*
X148443426Y-107053529D01*
X120472933Y-107053529D01*
X120473575Y-107051431D01*
X120487054Y-107008938D01*
X120487337Y-107006418D01*
X120488079Y-107003990D01*
X120492585Y-106959629D01*
X120497553Y-106915338D01*
X120497588Y-106910378D01*
X120497597Y-106910285D01*
X120497589Y-106910199D01*
X120497600Y-106908600D01*
X120497600Y-102705960D01*
X143522257Y-102705960D01*
X143548334Y-102848042D01*
X143601511Y-102982352D01*
X143679763Y-103103776D01*
X143780110Y-103207688D01*
X143898729Y-103290130D01*
X144031102Y-103347963D01*
X144172187Y-103378982D01*
X144316610Y-103382008D01*
X144458870Y-103356923D01*
X144593548Y-103304685D01*
X144715515Y-103227282D01*
X144820125Y-103127663D01*
X144820857Y-103126625D01*
X145275517Y-103126625D01*
X145223506Y-103202585D01*
X145166600Y-103335359D01*
X145136566Y-103476657D01*
X145134549Y-103621097D01*
X145160626Y-103763179D01*
X145213803Y-103897489D01*
X145238539Y-103935871D01*
X145152801Y-104019832D01*
X145071189Y-104139023D01*
X145014283Y-104271797D01*
X144984249Y-104413095D01*
X144982232Y-104557535D01*
X145008309Y-104699617D01*
X145061486Y-104833927D01*
X145139738Y-104955351D01*
X145240085Y-105059263D01*
X145358704Y-105141705D01*
X145491077Y-105199538D01*
X145632162Y-105230557D01*
X145776585Y-105233583D01*
X145918845Y-105208498D01*
X146053523Y-105156260D01*
X146175490Y-105078857D01*
X146280100Y-104979238D01*
X146280832Y-104978200D01*
X148901834Y-104978200D01*
X148990904Y-105040105D01*
X149123277Y-105097938D01*
X149264362Y-105128957D01*
X149408785Y-105131983D01*
X149551045Y-105106898D01*
X149685723Y-105054660D01*
X149807690Y-104977257D01*
X149912300Y-104877638D01*
X149995569Y-104759598D01*
X150054324Y-104627632D01*
X150086328Y-104486767D01*
X150088631Y-104321773D01*
X150060573Y-104180069D01*
X150005526Y-104046514D01*
X149925586Y-103926195D01*
X149823798Y-103823694D01*
X149706518Y-103744588D01*
X150225506Y-103225600D01*
X153448972Y-103225600D01*
X153446416Y-103250766D01*
X153441447Y-103295062D01*
X153441412Y-103300022D01*
X153441403Y-103300115D01*
X153441411Y-103300201D01*
X153441400Y-103301800D01*
X153441400Y-111610901D01*
X152479174Y-112573126D01*
X152358317Y-112572282D01*
X152216421Y-112599350D01*
X152082485Y-112653464D01*
X151961610Y-112732562D01*
X151858401Y-112833632D01*
X151776789Y-112952823D01*
X151719883Y-113085597D01*
X151689849Y-113226895D01*
X151687832Y-113371335D01*
X151713909Y-113513417D01*
X151767086Y-113647727D01*
X151845338Y-113769151D01*
X151945685Y-113873063D01*
X152064304Y-113955505D01*
X152196677Y-114013338D01*
X152337762Y-114044357D01*
X152482185Y-114047383D01*
X152624445Y-114022298D01*
X152759123Y-113970060D01*
X152881090Y-113892657D01*
X152985400Y-113793324D01*
X153037885Y-113847673D01*
X153156504Y-113930115D01*
X153288877Y-113987948D01*
X153429962Y-114018967D01*
X153574385Y-114021993D01*
X153716645Y-113996908D01*
X153851323Y-113944670D01*
X153973290Y-113867267D01*
X154077900Y-113767648D01*
X154161169Y-113649608D01*
X154219924Y-113517642D01*
X154235849Y-113447546D01*
X167359632Y-113447546D01*
X167385709Y-113589628D01*
X167438886Y-113723938D01*
X167517138Y-113845362D01*
X167617485Y-113949274D01*
X167736104Y-114031716D01*
X167868477Y-114089549D01*
X168009562Y-114120568D01*
X168153985Y-114123594D01*
X168296245Y-114098509D01*
X168430923Y-114046271D01*
X168552890Y-113968868D01*
X168657500Y-113869249D01*
X168740769Y-113751209D01*
X168799524Y-113619243D01*
X168831528Y-113478378D01*
X168833831Y-113313384D01*
X168805773Y-113171680D01*
X168750726Y-113038125D01*
X168670786Y-112917806D01*
X168615647Y-112862281D01*
X168615647Y-112594174D01*
X168667947Y-112544369D01*
X168751216Y-112426329D01*
X168809971Y-112294363D01*
X168841975Y-112153498D01*
X168842461Y-112118611D01*
X172859778Y-112118611D01*
X172885855Y-112260693D01*
X172939032Y-112395003D01*
X173017284Y-112516427D01*
X173089346Y-112591049D01*
X173089346Y-112854666D01*
X173033001Y-112909843D01*
X172951389Y-113029034D01*
X172894483Y-113161808D01*
X172864449Y-113303106D01*
X172862432Y-113447546D01*
X172888509Y-113589628D01*
X172941686Y-113723938D01*
X173019938Y-113845362D01*
X173120285Y-113949274D01*
X173238904Y-114031716D01*
X173371277Y-114089549D01*
X173512362Y-114120568D01*
X173656785Y-114123594D01*
X173799045Y-114098509D01*
X173933723Y-114046271D01*
X174055690Y-113968868D01*
X174160300Y-113869249D01*
X174243569Y-113751209D01*
X174302324Y-113619243D01*
X174334328Y-113478378D01*
X174336631Y-113313384D01*
X174308573Y-113171680D01*
X174253526Y-113038125D01*
X174173586Y-112917806D01*
X174105346Y-112849088D01*
X174105346Y-112590119D01*
X174157646Y-112540314D01*
X174240915Y-112422274D01*
X174299670Y-112290308D01*
X174331674Y-112149443D01*
X174333977Y-111984449D01*
X174305919Y-111842745D01*
X174250872Y-111709190D01*
X174170932Y-111588871D01*
X174069144Y-111486370D01*
X173949386Y-111405592D01*
X173816218Y-111349613D01*
X173674714Y-111320567D01*
X173530263Y-111319558D01*
X173388367Y-111346626D01*
X173254431Y-111400740D01*
X173133556Y-111479838D01*
X173030347Y-111580908D01*
X172948735Y-111700099D01*
X172891829Y-111832873D01*
X172861795Y-111974171D01*
X172859778Y-112118611D01*
X168842461Y-112118611D01*
X168844278Y-111988504D01*
X168816220Y-111846800D01*
X168761173Y-111713245D01*
X168681233Y-111592926D01*
X168579445Y-111490425D01*
X168459687Y-111409647D01*
X168326519Y-111353668D01*
X168185015Y-111324622D01*
X168040564Y-111323613D01*
X167898668Y-111350681D01*
X167764732Y-111404795D01*
X167643857Y-111483893D01*
X167540648Y-111584963D01*
X167459036Y-111704154D01*
X167402130Y-111836928D01*
X167372096Y-111978226D01*
X167370079Y-112122666D01*
X167396156Y-112264748D01*
X167449333Y-112399058D01*
X167527585Y-112520482D01*
X167599647Y-112595104D01*
X167599647Y-112841836D01*
X167530201Y-112909843D01*
X167448589Y-113029034D01*
X167391683Y-113161808D01*
X167361649Y-113303106D01*
X167359632Y-113447546D01*
X154235849Y-113447546D01*
X154251928Y-113376777D01*
X154254231Y-113211783D01*
X154226173Y-113070079D01*
X154171126Y-112936524D01*
X154169310Y-112933790D01*
X154661578Y-112441521D01*
X157326632Y-112441521D01*
X157352709Y-112583603D01*
X157405886Y-112717913D01*
X157484138Y-112839337D01*
X157584485Y-112943249D01*
X157703104Y-113025691D01*
X157835477Y-113083524D01*
X157976562Y-113114543D01*
X158120985Y-113117569D01*
X158263245Y-113092484D01*
X158397923Y-113040246D01*
X158519890Y-112962843D01*
X158624500Y-112863224D01*
X158707769Y-112745184D01*
X158766524Y-112613218D01*
X158785269Y-112530712D01*
X164534488Y-112530712D01*
X164612770Y-112611775D01*
X164731389Y-112694217D01*
X164863762Y-112752050D01*
X165004847Y-112783069D01*
X165149270Y-112786095D01*
X165291530Y-112761010D01*
X165426208Y-112708772D01*
X165548175Y-112631369D01*
X165652785Y-112531750D01*
X165736054Y-112413710D01*
X165794809Y-112281744D01*
X165826813Y-112140879D01*
X165829116Y-111975885D01*
X165801058Y-111834181D01*
X165746011Y-111700626D01*
X165666071Y-111580307D01*
X165564283Y-111477806D01*
X165444525Y-111397028D01*
X165311357Y-111341049D01*
X165169853Y-111312003D01*
X165025402Y-111310994D01*
X164883506Y-111338062D01*
X164749570Y-111392176D01*
X164628695Y-111471274D01*
X164532463Y-111565512D01*
X158395674Y-111565512D01*
X158351348Y-111569858D01*
X158306899Y-111573747D01*
X158304460Y-111574456D01*
X158301937Y-111574703D01*
X158259274Y-111587584D01*
X158216451Y-111600025D01*
X158214199Y-111601192D01*
X158211769Y-111601926D01*
X158172379Y-111622870D01*
X158132831Y-111643370D01*
X158132774Y-111643416D01*
X157997117Y-111642468D01*
X157855221Y-111669536D01*
X157721285Y-111723650D01*
X157600410Y-111802748D01*
X157497201Y-111903818D01*
X157415589Y-112023009D01*
X157358683Y-112155783D01*
X157328649Y-112297081D01*
X157326632Y-112441521D01*
X154661578Y-112441521D01*
X154697048Y-112406051D01*
X154725319Y-112371634D01*
X154753999Y-112337454D01*
X154755221Y-112335231D01*
X154756832Y-112333270D01*
X154777895Y-112293988D01*
X154799374Y-112254917D01*
X154800142Y-112252497D01*
X154801340Y-112250262D01*
X154814374Y-112207632D01*
X154827853Y-112165139D01*
X154828136Y-112162619D01*
X154828878Y-112160191D01*
X154833384Y-112115830D01*
X154838352Y-112071539D01*
X154838387Y-112066579D01*
X154838396Y-112066486D01*
X154838388Y-112066400D01*
X154838399Y-112064801D01*
X154838399Y-110056549D01*
X154953962Y-110081957D01*
X155098385Y-110084983D01*
X155240645Y-110059898D01*
X155375323Y-110007660D01*
X155497290Y-109930257D01*
X155601900Y-109830638D01*
X155685169Y-109712598D01*
X155743924Y-109580632D01*
X155775928Y-109439767D01*
X155778231Y-109274773D01*
X155750173Y-109133069D01*
X155695126Y-108999514D01*
X155615186Y-108879195D01*
X155549600Y-108813150D01*
X155549600Y-103613820D01*
X157385620Y-101777800D01*
X158052494Y-101777800D01*
X158100806Y-101827828D01*
X158219425Y-101910270D01*
X158351798Y-101968103D01*
X158492883Y-101999122D01*
X158637306Y-102002148D01*
X158779566Y-101977063D01*
X158914244Y-101924825D01*
X159036211Y-101847422D01*
X159140821Y-101747803D01*
X159224090Y-101629763D01*
X159282845Y-101497797D01*
X159314849Y-101356932D01*
X159316785Y-101218235D01*
X159900221Y-100634800D01*
X160683917Y-100634800D01*
X160730621Y-100630221D01*
X160777365Y-100626131D01*
X160779931Y-100625386D01*
X160782588Y-100625125D01*
X160827473Y-100611573D01*
X160872572Y-100598471D01*
X160874946Y-100597240D01*
X160877501Y-100596469D01*
X160918894Y-100574460D01*
X160960594Y-100552845D01*
X160962683Y-100551177D01*
X160965040Y-100549924D01*
X161001426Y-100520248D01*
X161038076Y-100490990D01*
X161041791Y-100487327D01*
X161041871Y-100487262D01*
X161041932Y-100487188D01*
X161043127Y-100486010D01*
X163765875Y-97763262D01*
X163840656Y-97764829D01*
X163982916Y-97739744D01*
X164117594Y-97687506D01*
X164239561Y-97610103D01*
X164344171Y-97510484D01*
X164427440Y-97392444D01*
X164486195Y-97260478D01*
X164518199Y-97119613D01*
X164520502Y-96954619D01*
X164492444Y-96812915D01*
X164437397Y-96679360D01*
X164357457Y-96559041D01*
X164255669Y-96456540D01*
X164220265Y-96432659D01*
X178112909Y-96432659D01*
X178236549Y-97106321D01*
X178488683Y-97743139D01*
X178859707Y-98318855D01*
X179335489Y-98811542D01*
X179897906Y-99202432D01*
X180525536Y-99476637D01*
X181194473Y-99623712D01*
X181879238Y-99638056D01*
X182553747Y-99519122D01*
X183192309Y-99271440D01*
X183770602Y-98904444D01*
X184266598Y-98432114D01*
X184661405Y-97872439D01*
X184939985Y-97246738D01*
X185091726Y-96578844D01*
X185102650Y-95796543D01*
X184969616Y-95124672D01*
X184708615Y-94491437D01*
X184329589Y-93920957D01*
X183846975Y-93434962D01*
X183279155Y-93051962D01*
X182647758Y-92786547D01*
X181976832Y-92648826D01*
X181291934Y-92644044D01*
X180619151Y-92772384D01*
X179984109Y-93028958D01*
X179410997Y-93403992D01*
X178921644Y-93883202D01*
X178534690Y-94448334D01*
X178264874Y-95077863D01*
X178122472Y-95747811D01*
X178112909Y-96432659D01*
X164220265Y-96432659D01*
X164135911Y-96375762D01*
X164002743Y-96319783D01*
X163861239Y-96290737D01*
X163716788Y-96289728D01*
X163652200Y-96302049D01*
X163652200Y-95325031D01*
X163729900Y-95251038D01*
X163813169Y-95132998D01*
X163871924Y-95001032D01*
X163903928Y-94860167D01*
X163906231Y-94695173D01*
X163878173Y-94553469D01*
X163823126Y-94419914D01*
X163743186Y-94299595D01*
X163641398Y-94197094D01*
X163521640Y-94116316D01*
X163388472Y-94060337D01*
X163246968Y-94031291D01*
X163102517Y-94030282D01*
X162960621Y-94057350D01*
X162826685Y-94111464D01*
X162705810Y-94190562D01*
X162602601Y-94291632D01*
X162520989Y-94410823D01*
X162464083Y-94543597D01*
X162434049Y-94684895D01*
X162432032Y-94829335D01*
X162458109Y-94971417D01*
X162511286Y-95105727D01*
X162589538Y-95227151D01*
X162687000Y-95328076D01*
X162687000Y-96549056D01*
X160909000Y-98327056D01*
X160909000Y-98169631D01*
X160904649Y-98125259D01*
X160900764Y-98080856D01*
X160900057Y-98078422D01*
X160899809Y-98075894D01*
X160886916Y-98033189D01*
X160874487Y-97990408D01*
X160873320Y-97988156D01*
X160872586Y-97985726D01*
X160851642Y-97946336D01*
X160831142Y-97906788D01*
X160829561Y-97904807D01*
X160828368Y-97902564D01*
X160800183Y-97868006D01*
X160772381Y-97833179D01*
X160768895Y-97829643D01*
X160768839Y-97829575D01*
X160768776Y-97829523D01*
X160767650Y-97828381D01*
X159562800Y-96623531D01*
X159562800Y-96443800D01*
X159558449Y-96399428D01*
X159554564Y-96355025D01*
X159553857Y-96352591D01*
X159553609Y-96350063D01*
X159540716Y-96307358D01*
X159528287Y-96264577D01*
X159527120Y-96262325D01*
X159526386Y-96259895D01*
X159505442Y-96220505D01*
X159484942Y-96180957D01*
X159483361Y-96178976D01*
X159482168Y-96176733D01*
X159453983Y-96142175D01*
X159426181Y-96107348D01*
X159422698Y-96103817D01*
X159422639Y-96103744D01*
X159422572Y-96103688D01*
X159421449Y-96102550D01*
X158938850Y-95619950D01*
X158904403Y-95591655D01*
X158870253Y-95563000D01*
X158868030Y-95561778D01*
X158866069Y-95560167D01*
X158826752Y-95539085D01*
X158787716Y-95517625D01*
X158785300Y-95516859D01*
X158783061Y-95515658D01*
X158740398Y-95502615D01*
X158697938Y-95489146D01*
X158695417Y-95488863D01*
X158692989Y-95488121D01*
X158648634Y-95483616D01*
X158604338Y-95478647D01*
X158599378Y-95478612D01*
X158599285Y-95478603D01*
X158599199Y-95478611D01*
X158597600Y-95478600D01*
X156271824Y-95478600D01*
X156227498Y-95482946D01*
X156183049Y-95486835D01*
X156180610Y-95487544D01*
X156178087Y-95487791D01*
X156135424Y-95500672D01*
X156092601Y-95513113D01*
X156090349Y-95514280D01*
X156087919Y-95515014D01*
X156048529Y-95535958D01*
X156008981Y-95556458D01*
X156007000Y-95558039D01*
X156004757Y-95559232D01*
X155970199Y-95587417D01*
X155935372Y-95615219D01*
X155931836Y-95618705D01*
X155931768Y-95618761D01*
X155931716Y-95618824D01*
X155930574Y-95619950D01*
X155131798Y-96418726D01*
X155010941Y-96417882D01*
X154869045Y-96444950D01*
X154735109Y-96499064D01*
X154614234Y-96578162D01*
X154511025Y-96679232D01*
X154429413Y-96798423D01*
X154372507Y-96931197D01*
X154342473Y-97072495D01*
X154340456Y-97216935D01*
X154366533Y-97359017D01*
X154419710Y-97493327D01*
X154497962Y-97614751D01*
X154598309Y-97718663D01*
X154716928Y-97801105D01*
X154849301Y-97858938D01*
X154990386Y-97889957D01*
X155031634Y-97890821D01*
X153352962Y-99569493D01*
X144933807Y-99569493D01*
X144889481Y-99573839D01*
X144845032Y-99577728D01*
X144842593Y-99578437D01*
X144840070Y-99578684D01*
X144797394Y-99591569D01*
X144754585Y-99604006D01*
X144752334Y-99605173D01*
X144749902Y-99605907D01*
X144710494Y-99626861D01*
X144670964Y-99647351D01*
X144668983Y-99648932D01*
X144666740Y-99650125D01*
X144632182Y-99678310D01*
X144600104Y-99703918D01*
X144478630Y-99703069D01*
X144336734Y-99730137D01*
X144202798Y-99784251D01*
X144081923Y-99863349D01*
X143978714Y-99964419D01*
X143897102Y-100083610D01*
X143840196Y-100216384D01*
X143810162Y-100357682D01*
X143808145Y-100502122D01*
X143834222Y-100644204D01*
X143887399Y-100778514D01*
X143965651Y-100899938D01*
X144065998Y-101003850D01*
X144184617Y-101086292D01*
X144316990Y-101144125D01*
X144458075Y-101175144D01*
X144602498Y-101178170D01*
X144744758Y-101153085D01*
X144879436Y-101100847D01*
X144928941Y-101069430D01*
X144995201Y-101172245D01*
X145015892Y-101193671D01*
X144970179Y-101239384D01*
X144849322Y-101238540D01*
X144707426Y-101265608D01*
X144573490Y-101319722D01*
X144452615Y-101398820D01*
X144349406Y-101499890D01*
X144267794Y-101619081D01*
X144210888Y-101751855D01*
X144180854Y-101893153D01*
X144180630Y-101909218D01*
X144050846Y-101933975D01*
X143916910Y-101988089D01*
X143796035Y-102067187D01*
X143692826Y-102168257D01*
X143611214Y-102287448D01*
X143554308Y-102420222D01*
X143524274Y-102561520D01*
X143522257Y-102705960D01*
X120497600Y-102705960D01*
X120497600Y-100809300D01*
X121184558Y-100122342D01*
X121197362Y-100125157D01*
X121341785Y-100128183D01*
X121484045Y-100103098D01*
X121618723Y-100050860D01*
X121740690Y-99973457D01*
X121845300Y-99873838D01*
X121928569Y-99755798D01*
X121987324Y-99623832D01*
X122019328Y-99482967D01*
X122021631Y-99317973D01*
X121993573Y-99176269D01*
X121938526Y-99042714D01*
X121858586Y-98922395D01*
X121756798Y-98819894D01*
X121637040Y-98739116D01*
X121503872Y-98683137D01*
X121362368Y-98654091D01*
X121217917Y-98653082D01*
X121076021Y-98680150D01*
X120942085Y-98734264D01*
X120821210Y-98813362D01*
X120718001Y-98914432D01*
X120636389Y-99033623D01*
X120579483Y-99166397D01*
X120549449Y-99307695D01*
X120548249Y-99393651D01*
X120157806Y-99784094D01*
X120183924Y-99725432D01*
X120215928Y-99584567D01*
X120218231Y-99419573D01*
X120190173Y-99277869D01*
X120135126Y-99144314D01*
X120055186Y-99023995D01*
X119953398Y-98921494D01*
X119833640Y-98840716D01*
X119700472Y-98784737D01*
X119558968Y-98755691D01*
X119414517Y-98754682D01*
X119272621Y-98781750D01*
X119138685Y-98835864D01*
X119017810Y-98914962D01*
X118914601Y-99016032D01*
X118832989Y-99135223D01*
X118776083Y-99267997D01*
X118746049Y-99409295D01*
X118744032Y-99553735D01*
X118770109Y-99695817D01*
X118823286Y-99830127D01*
X118901538Y-99951551D01*
X118999000Y-100052476D01*
X118999000Y-106657900D01*
X115736750Y-109920150D01*
X115708455Y-109954597D01*
X115679800Y-109988747D01*
X115678578Y-109990970D01*
X115676967Y-109992931D01*
X115655885Y-110032248D01*
X115634425Y-110071284D01*
X115633659Y-110073700D01*
X115632458Y-110075939D01*
X115619415Y-110118602D01*
X115605946Y-110161062D01*
X115605663Y-110163583D01*
X115604921Y-110166011D01*
X115600416Y-110210366D01*
X115595447Y-110254662D01*
X115595412Y-110259622D01*
X115595403Y-110259715D01*
X115595411Y-110259801D01*
X115595400Y-110261400D01*
X115595400Y-117246400D01*
X115599744Y-117290706D01*
X115603635Y-117335175D01*
X115604344Y-117337614D01*
X115604591Y-117340137D01*
X115617472Y-117382800D01*
X115629913Y-117425623D01*
X115631080Y-117427875D01*
X115631814Y-117430305D01*
X115652758Y-117469695D01*
X115673258Y-117509243D01*
X115674839Y-117511224D01*
X115676032Y-117513467D01*
X115704217Y-117548025D01*
X115732019Y-117582852D01*
X115735505Y-117586388D01*
X115735561Y-117586456D01*
X115735624Y-117586508D01*
X115736750Y-117587650D01*
X116792500Y-118643400D01*
X116268500Y-118643400D01*
X116224174Y-118647746D01*
X116179725Y-118651635D01*
X116177286Y-118652344D01*
X116174763Y-118652591D01*
X116132087Y-118665476D01*
X116089278Y-118677913D01*
X116087027Y-118679080D01*
X116084595Y-118679814D01*
X116045187Y-118700768D01*
X116005657Y-118721258D01*
X116003676Y-118722839D01*
X116001433Y-118724032D01*
X115966875Y-118752217D01*
X115932048Y-118780019D01*
X115928512Y-118783505D01*
X115928444Y-118783561D01*
X115928392Y-118783624D01*
X115927250Y-118784750D01*
X114046000Y-120666000D01*
X114046000Y-118745000D01*
X114016998Y-118599198D01*
X113934408Y-118475592D01*
X113810802Y-118393002D01*
X113665000Y-118364000D01*
X108839000Y-118364000D01*
X108693198Y-118393002D01*
X108569592Y-118475592D01*
X108487002Y-118599198D01*
X108458000Y-118745000D01*
X108458000Y-121158000D01*
X105035236Y-121158000D01*
X105004348Y-121154958D01*
X104980631Y-121147763D01*
X104958784Y-121136086D01*
X104939632Y-121120368D01*
X104923914Y-121101216D01*
X104912237Y-121079369D01*
X104905042Y-121055652D01*
X104902000Y-121024764D01*
X104902000Y-107681735D01*
X110006432Y-107681735D01*
X110032509Y-107823817D01*
X110085686Y-107958127D01*
X110163938Y-108079551D01*
X110261400Y-108180476D01*
X110261400Y-108991782D01*
X110177001Y-109074432D01*
X110095389Y-109193623D01*
X110038483Y-109326397D01*
X110008449Y-109467695D01*
X110006432Y-109612135D01*
X110032509Y-109754217D01*
X110085686Y-109888527D01*
X110163938Y-110009951D01*
X110264285Y-110113863D01*
X110382904Y-110196305D01*
X110515277Y-110254138D01*
X110656362Y-110285157D01*
X110800785Y-110288183D01*
X110943045Y-110263098D01*
X111077723Y-110210860D01*
X111199690Y-110133457D01*
X111304300Y-110033838D01*
X111387569Y-109915798D01*
X111446324Y-109783832D01*
X111478328Y-109642967D01*
X111480631Y-109477973D01*
X111452573Y-109336269D01*
X111397526Y-109202714D01*
X111317586Y-109082395D01*
X111226600Y-108990772D01*
X111226600Y-108177431D01*
X111304300Y-108103438D01*
X111387569Y-107985398D01*
X111446324Y-107853432D01*
X111478328Y-107712567D01*
X111480631Y-107547573D01*
X111452573Y-107405869D01*
X111397526Y-107272314D01*
X111317586Y-107151995D01*
X111215798Y-107049494D01*
X111096040Y-106968716D01*
X110962872Y-106912737D01*
X110821368Y-106883691D01*
X110676917Y-106882682D01*
X110535021Y-106909750D01*
X110401085Y-106963864D01*
X110280210Y-107042962D01*
X110177001Y-107144032D01*
X110095389Y-107263223D01*
X110038483Y-107395997D01*
X110008449Y-107537295D01*
X110006432Y-107681735D01*
X104902000Y-107681735D01*
X104902000Y-96432659D01*
X108262909Y-96432659D01*
X108386549Y-97106321D01*
X108638683Y-97743139D01*
X109009707Y-98318855D01*
X109485489Y-98811542D01*
X110047906Y-99202432D01*
X110675536Y-99476637D01*
X111344473Y-99623712D01*
X112029238Y-99638056D01*
X112703747Y-99519122D01*
X113342309Y-99271440D01*
X113920602Y-98904444D01*
X114231915Y-98607985D01*
X136142331Y-98607985D01*
X136187291Y-98852953D01*
X136278976Y-99084523D01*
X136413894Y-99293875D01*
X136586905Y-99473033D01*
X136791420Y-99615175D01*
X137019650Y-99714886D01*
X137262899Y-99768368D01*
X137511905Y-99773584D01*
X137757181Y-99730335D01*
X137989385Y-99640269D01*
X138199673Y-99506816D01*
X138380035Y-99335059D01*
X138523602Y-99131541D01*
X138624903Y-98904014D01*
X138680082Y-98661143D01*
X138684054Y-98376670D01*
X138635678Y-98132354D01*
X138540769Y-97902086D01*
X138402942Y-97694639D01*
X138227445Y-97517913D01*
X138020965Y-97378641D01*
X137791366Y-97282126D01*
X137547393Y-97232046D01*
X137511211Y-97231793D01*
X137738078Y-97195510D01*
X137972653Y-97108569D01*
X138057631Y-97063146D01*
X138154373Y-96881178D01*
X137414000Y-96140805D01*
X136673627Y-96881178D01*
X136770369Y-97063146D01*
X136997716Y-97167539D01*
X137241059Y-97225573D01*
X137381779Y-97230890D01*
X137298340Y-97230307D01*
X137053691Y-97276976D01*
X136822767Y-97370276D01*
X136614363Y-97506652D01*
X136436416Y-97680910D01*
X136295706Y-97886412D01*
X136197590Y-98115332D01*
X136145808Y-98358949D01*
X136142331Y-98607985D01*
X114231915Y-98607985D01*
X114416598Y-98432114D01*
X114811405Y-97872439D01*
X115089985Y-97246738D01*
X115241726Y-96578844D01*
X115249274Y-96038249D01*
X136140182Y-96038249D01*
X136179690Y-96285278D01*
X136266631Y-96519853D01*
X136312054Y-96604831D01*
X136494022Y-96701573D01*
X137234395Y-95961200D01*
X137593605Y-95961200D01*
X138333978Y-96701573D01*
X138515946Y-96604831D01*
X138620339Y-96377484D01*
X138678373Y-96134141D01*
X138687818Y-95884151D01*
X138648310Y-95637122D01*
X138561369Y-95402547D01*
X138515946Y-95317569D01*
X138333978Y-95220827D01*
X137593605Y-95961200D01*
X137234395Y-95961200D01*
X136494022Y-95220827D01*
X136312054Y-95317569D01*
X136207661Y-95544916D01*
X136149627Y-95788259D01*
X136140182Y-96038249D01*
X115249274Y-96038249D01*
X115252650Y-95796543D01*
X115119616Y-95124672D01*
X115085221Y-95041222D01*
X136673627Y-95041222D01*
X137414000Y-95781595D01*
X138154373Y-95041222D01*
X138057631Y-94859254D01*
X137830284Y-94754861D01*
X137586941Y-94696827D01*
X137336951Y-94687382D01*
X137089922Y-94726890D01*
X136855347Y-94813831D01*
X136770369Y-94859254D01*
X136673627Y-95041222D01*
X115085221Y-95041222D01*
X114858615Y-94491437D01*
X114806605Y-94413155D01*
X139587652Y-94413155D01*
X139613729Y-94555237D01*
X139666906Y-94689547D01*
X139745158Y-94810971D01*
X139845505Y-94914883D01*
X139964124Y-94997325D01*
X140096497Y-95055158D01*
X140237582Y-95086177D01*
X140382005Y-95089203D01*
X140524265Y-95064118D01*
X140658943Y-95011880D01*
X140780910Y-94934477D01*
X140793256Y-94922720D01*
X141307696Y-94922720D01*
X142088592Y-95703616D01*
X142112709Y-95835017D01*
X142165886Y-95969327D01*
X142244138Y-96090751D01*
X142344485Y-96194663D01*
X142463104Y-96277105D01*
X142595477Y-96334938D01*
X142736562Y-96365957D01*
X142880985Y-96368983D01*
X143023245Y-96343898D01*
X143157923Y-96291660D01*
X143279890Y-96214257D01*
X143384500Y-96114638D01*
X143467769Y-95996598D01*
X143526524Y-95864632D01*
X143558528Y-95723767D01*
X143560831Y-95558773D01*
X143532773Y-95417069D01*
X143477726Y-95283514D01*
X143397786Y-95163195D01*
X143295998Y-95060694D01*
X143176240Y-94979916D01*
X143043072Y-94923937D01*
X142901568Y-94894891D01*
X142896277Y-94894854D01*
X141948532Y-93947108D01*
X141907707Y-93913574D01*
X141867299Y-93879668D01*
X141864667Y-93878221D01*
X141862343Y-93876312D01*
X141815790Y-93851351D01*
X141769558Y-93825934D01*
X141766695Y-93825026D01*
X141764045Y-93823605D01*
X141713583Y-93808178D01*
X141663242Y-93792209D01*
X141660252Y-93791874D01*
X141657381Y-93790996D01*
X141604903Y-93785665D01*
X141552399Y-93779776D01*
X141546521Y-93779735D01*
X141546415Y-93779724D01*
X141546317Y-93779733D01*
X141544420Y-93779720D01*
X140795248Y-93779720D01*
X140677260Y-93700136D01*
X140544092Y-93644157D01*
X140402588Y-93615111D01*
X140258137Y-93614102D01*
X140116241Y-93641170D01*
X139982305Y-93695284D01*
X139861430Y-93774382D01*
X139758221Y-93875452D01*
X139676609Y-93994643D01*
X139619703Y-94127417D01*
X139589669Y-94268715D01*
X139587652Y-94413155D01*
X114806605Y-94413155D01*
X114479589Y-93920957D01*
X113996975Y-93434962D01*
X113429155Y-93051962D01*
X112797758Y-92786547D01*
X112126832Y-92648826D01*
X111441934Y-92644044D01*
X110769151Y-92772384D01*
X110134109Y-93028958D01*
X109560997Y-93403992D01*
X109071644Y-93883202D01*
X108684690Y-94448334D01*
X108414874Y-95077863D01*
X108272472Y-95747811D01*
X108262909Y-96432659D01*
X104902000Y-96432659D01*
X104902000Y-88377735D01*
X139241832Y-88377735D01*
X139267909Y-88519817D01*
X139321086Y-88654127D01*
X139399338Y-88775551D01*
X139499685Y-88879463D01*
X139618304Y-88961905D01*
X139750677Y-89019738D01*
X139891762Y-89050757D01*
X140036185Y-89053783D01*
X140178445Y-89028698D01*
X140313123Y-88976460D01*
X140435090Y-88899057D01*
X140500164Y-88837088D01*
X140541085Y-88879463D01*
X140659704Y-88961905D01*
X140792077Y-89019738D01*
X140933162Y-89050757D01*
X140980645Y-89051752D01*
X140971049Y-89096895D01*
X140969032Y-89241335D01*
X140995109Y-89383417D01*
X141048286Y-89517727D01*
X141126538Y-89639151D01*
X141130564Y-89643320D01*
X141117649Y-89655968D01*
X141036037Y-89775159D01*
X140979131Y-89907933D01*
X140949097Y-90049231D01*
X140947080Y-90193671D01*
X140973157Y-90335753D01*
X141026334Y-90470063D01*
X141104586Y-90591487D01*
X141204933Y-90695399D01*
X141323552Y-90777841D01*
X141455925Y-90835674D01*
X141597010Y-90866693D01*
X141741433Y-90869719D01*
X141883693Y-90844634D01*
X142018371Y-90792396D01*
X142140338Y-90714993D01*
X142244948Y-90615374D01*
X142328217Y-90497334D01*
X142386972Y-90365368D01*
X142411198Y-90258737D01*
X144040439Y-90258737D01*
X144115849Y-90375751D01*
X144216196Y-90479663D01*
X144334815Y-90562105D01*
X144467188Y-90619938D01*
X144608273Y-90650957D01*
X144752696Y-90653983D01*
X144894956Y-90628898D01*
X145029634Y-90576660D01*
X145151601Y-90499257D01*
X145256211Y-90399638D01*
X145339480Y-90281598D01*
X145398235Y-90149632D01*
X145430239Y-90008767D01*
X145432542Y-89843773D01*
X145411638Y-89738198D01*
X145598250Y-89738198D01*
X145642576Y-89733852D01*
X145687025Y-89729963D01*
X145689464Y-89729254D01*
X145691987Y-89729007D01*
X145734650Y-89716126D01*
X145777473Y-89703685D01*
X145779725Y-89702518D01*
X145782155Y-89701784D01*
X145821545Y-89680840D01*
X145861093Y-89660340D01*
X145863074Y-89658759D01*
X145865317Y-89657566D01*
X145899875Y-89629381D01*
X145934702Y-89601579D01*
X145938238Y-89598093D01*
X145938306Y-89598037D01*
X145938358Y-89597974D01*
X145939500Y-89596848D01*
X145979494Y-89556854D01*
X146041678Y-89600073D01*
X146174051Y-89657906D01*
X146315136Y-89688925D01*
X146459559Y-89691951D01*
X146601819Y-89666866D01*
X146736497Y-89614628D01*
X146858464Y-89537225D01*
X146938256Y-89461240D01*
X146938256Y-90124394D01*
X146853857Y-90207044D01*
X146772245Y-90326235D01*
X146715339Y-90459009D01*
X146685305Y-90600307D01*
X146683288Y-90744747D01*
X146709365Y-90886829D01*
X146762542Y-91021139D01*
X146840794Y-91142563D01*
X146941141Y-91246475D01*
X147059760Y-91328917D01*
X147192133Y-91386750D01*
X147333218Y-91417769D01*
X147477641Y-91420795D01*
X147619901Y-91395710D01*
X147754579Y-91343472D01*
X147876546Y-91266069D01*
X147981156Y-91166450D01*
X148064425Y-91048410D01*
X148123180Y-90916444D01*
X148155184Y-90775579D01*
X148157487Y-90610585D01*
X148129429Y-90468881D01*
X148074382Y-90335326D01*
X147994442Y-90215007D01*
X147903456Y-90123384D01*
X147903456Y-88922361D01*
X147899110Y-88878035D01*
X147895221Y-88833586D01*
X147894512Y-88831147D01*
X147894265Y-88828624D01*
X147881380Y-88785948D01*
X147868943Y-88743139D01*
X147867776Y-88740888D01*
X147867042Y-88738456D01*
X147846088Y-88699048D01*
X147825598Y-88659518D01*
X147824017Y-88657537D01*
X147822824Y-88655294D01*
X147794639Y-88620736D01*
X147766837Y-88585909D01*
X147763351Y-88582373D01*
X147763295Y-88582305D01*
X147763232Y-88582253D01*
X147762106Y-88581111D01*
X147449174Y-88268179D01*
X150202115Y-88268179D01*
X150156251Y-88335161D01*
X150099345Y-88467935D01*
X150069311Y-88609233D01*
X150067294Y-88753673D01*
X150093371Y-88895755D01*
X150146548Y-89030065D01*
X150224800Y-89151489D01*
X150322262Y-89252414D01*
X150322262Y-89585595D01*
X148765962Y-91141895D01*
X148645105Y-91141051D01*
X148503209Y-91168119D01*
X148369273Y-91222233D01*
X148248398Y-91301331D01*
X148145189Y-91402401D01*
X148063577Y-91521592D01*
X148006671Y-91654366D01*
X147976637Y-91795664D01*
X147974620Y-91940104D01*
X148000697Y-92082186D01*
X148053874Y-92216496D01*
X148123936Y-92325212D01*
X147047491Y-92325212D01*
X147017654Y-92295166D01*
X146897896Y-92214388D01*
X146764728Y-92158409D01*
X146623224Y-92129363D01*
X146478773Y-92128354D01*
X146336877Y-92155422D01*
X146202941Y-92209536D01*
X146082066Y-92288634D01*
X145978857Y-92389704D01*
X145897245Y-92508895D01*
X145840339Y-92641669D01*
X145810305Y-92782967D01*
X145808288Y-92927407D01*
X145834365Y-93069489D01*
X145887542Y-93203799D01*
X145965794Y-93325223D01*
X146066141Y-93429135D01*
X146119487Y-93466211D01*
X146093318Y-93527269D01*
X146063284Y-93668567D01*
X146061267Y-93813007D01*
X146087344Y-93955089D01*
X146140521Y-94089399D01*
X146199330Y-94180653D01*
X146129473Y-94265095D01*
X146058740Y-94395913D01*
X146014764Y-94537979D01*
X145999219Y-94685880D01*
X146012697Y-94833985D01*
X146054686Y-94976650D01*
X146123586Y-95108443D01*
X146216772Y-95224343D01*
X146330695Y-95319936D01*
X146461016Y-95391581D01*
X146602771Y-95436548D01*
X146750561Y-95453126D01*
X146761200Y-95453200D01*
X150367996Y-95453200D01*
X150438110Y-95446325D01*
X150508166Y-95440196D01*
X150512009Y-95439080D01*
X150516003Y-95438688D01*
X150583456Y-95418323D01*
X150650978Y-95398706D01*
X150654534Y-95396863D01*
X150658372Y-95395704D01*
X150720549Y-95362644D01*
X150783010Y-95330267D01*
X150786140Y-95327768D01*
X150789680Y-95325886D01*
X150844227Y-95281399D01*
X150899236Y-95237486D01*
X150904811Y-95231988D01*
X150904927Y-95231893D01*
X150905016Y-95231785D01*
X150906811Y-95230015D01*
X152202215Y-93934611D01*
X152296611Y-93819693D01*
X152366886Y-93688629D01*
X152410366Y-93546411D01*
X152425395Y-93398456D01*
X152411400Y-93250399D01*
X152368914Y-93107881D01*
X152299554Y-92976330D01*
X152205964Y-92860756D01*
X152091707Y-92765560D01*
X151961137Y-92694371D01*
X151819226Y-92649899D01*
X151671380Y-92633838D01*
X151523230Y-92646799D01*
X151380418Y-92688290D01*
X151248386Y-92756729D01*
X151132160Y-92849510D01*
X151124585Y-92856981D01*
X151021178Y-92960388D01*
X151012727Y-92939885D01*
X150932787Y-92819566D01*
X150830999Y-92717065D01*
X150711241Y-92636287D01*
X150578073Y-92580308D01*
X150436569Y-92551262D01*
X150292118Y-92550253D01*
X150272745Y-92553949D01*
X150234157Y-92460326D01*
X150154217Y-92340007D01*
X150052429Y-92237506D01*
X149932671Y-92156728D01*
X149799503Y-92100749D01*
X149657999Y-92071703D01*
X149513548Y-92070694D01*
X149419788Y-92088580D01*
X149446516Y-91970936D01*
X149448563Y-91824294D01*
X151146112Y-90126745D01*
X151174407Y-90092298D01*
X151203062Y-90058148D01*
X151204284Y-90055925D01*
X151205895Y-90053964D01*
X151226977Y-90014647D01*
X151248437Y-89975611D01*
X151249203Y-89973195D01*
X151250404Y-89970956D01*
X151263447Y-89928293D01*
X151276916Y-89885833D01*
X151277199Y-89883312D01*
X151277941Y-89880884D01*
X151282446Y-89836529D01*
X151287415Y-89792233D01*
X151287450Y-89787273D01*
X151287459Y-89787180D01*
X151287451Y-89787094D01*
X151287462Y-89785495D01*
X151287462Y-89249369D01*
X151365162Y-89175376D01*
X151448431Y-89057336D01*
X151507186Y-88925370D01*
X151539190Y-88784505D01*
X151541493Y-88619511D01*
X151522309Y-88522627D01*
X151659265Y-88498477D01*
X151793943Y-88446239D01*
X151915910Y-88368836D01*
X152020520Y-88269217D01*
X152103789Y-88151177D01*
X152160867Y-88022977D01*
X152226002Y-88037297D01*
X152370425Y-88040323D01*
X152512685Y-88015238D01*
X152647363Y-87963000D01*
X152769330Y-87885597D01*
X152873940Y-87785978D01*
X152957209Y-87667938D01*
X153015964Y-87535972D01*
X153047968Y-87395107D01*
X153050271Y-87230113D01*
X153022213Y-87088409D01*
X152967166Y-86954854D01*
X152887226Y-86834535D01*
X152785438Y-86732034D01*
X152665680Y-86651256D01*
X152532512Y-86595277D01*
X152391008Y-86566231D01*
X152250608Y-86565250D01*
X152230694Y-86548541D01*
X152228471Y-86547319D01*
X152226510Y-86545708D01*
X152187193Y-86524626D01*
X152148157Y-86503166D01*
X152145741Y-86502400D01*
X152143502Y-86501199D01*
X152100839Y-86488156D01*
X152058379Y-86474687D01*
X152055858Y-86474404D01*
X152053430Y-86473662D01*
X152009075Y-86469157D01*
X151964779Y-86464188D01*
X151959819Y-86464153D01*
X151959726Y-86464144D01*
X151959640Y-86464152D01*
X151958041Y-86464141D01*
X151315839Y-86464141D01*
X151271513Y-86468487D01*
X151227064Y-86472376D01*
X151224625Y-86473085D01*
X151222102Y-86473332D01*
X151179426Y-86486217D01*
X151136617Y-86498654D01*
X151134366Y-86499821D01*
X151131934Y-86500555D01*
X151092526Y-86521509D01*
X151052996Y-86541999D01*
X151051015Y-86543580D01*
X151048772Y-86544773D01*
X151014214Y-86572958D01*
X150979387Y-86600760D01*
X150975851Y-86604246D01*
X150975783Y-86604302D01*
X150975731Y-86604365D01*
X150974589Y-86605491D01*
X150740020Y-86840060D01*
X140972540Y-86840060D01*
X140928214Y-86844406D01*
X140883765Y-86848295D01*
X140881326Y-86849004D01*
X140878803Y-86849251D01*
X140836140Y-86862132D01*
X140793317Y-86874573D01*
X140791065Y-86875740D01*
X140788635Y-86876474D01*
X140749245Y-86897418D01*
X140709697Y-86917918D01*
X140707716Y-86919499D01*
X140705473Y-86920692D01*
X140670915Y-86948877D01*
X140636088Y-86976679D01*
X140632552Y-86980165D01*
X140632484Y-86980221D01*
X140632432Y-86980284D01*
X140631290Y-86981410D01*
X140033174Y-87579526D01*
X139912317Y-87578682D01*
X139770421Y-87605750D01*
X139636485Y-87659864D01*
X139515610Y-87738962D01*
X139412401Y-87840032D01*
X139330789Y-87959223D01*
X139273883Y-88091997D01*
X139243849Y-88233295D01*
X139241832Y-88377735D01*
X104902000Y-88377735D01*
X104902000Y-87255236D01*
X104905042Y-87224348D01*
X104912237Y-87200631D01*
X104923914Y-87178784D01*
X104939632Y-87159632D01*
X104958784Y-87143914D01*
X104980631Y-87132237D01*
X105004348Y-87125042D01*
X105035236Y-87122000D01*
X139471400Y-87122000D01*
X139483849Y-87121388D01*
X139533402Y-87116507D01*
X139557819Y-87111651D01*
X139605468Y-87097197D01*
X139628469Y-87087669D01*
X139672382Y-87064197D01*
X139693083Y-87050365D01*
X139731573Y-87018777D01*
X139749177Y-87001173D01*
X139780765Y-86962683D01*
X139794597Y-86941982D01*
X139818069Y-86898069D01*
X139827597Y-86875068D01*
X139842051Y-86827419D01*
X139846907Y-86803002D01*
X139851788Y-86753449D01*
X139852400Y-86741000D01*
X139852400Y-85900525D01*
X154549630Y-85900525D01*
X154575707Y-86042607D01*
X154628884Y-86176917D01*
X154707136Y-86298341D01*
X154804598Y-86399266D01*
X154804598Y-87100992D01*
X154720199Y-87183642D01*
X154638587Y-87302833D01*
X154581681Y-87435607D01*
X154551647Y-87576905D01*
X154549630Y-87721345D01*
X154575707Y-87863427D01*
X154628884Y-87997737D01*
X154707136Y-88119161D01*
X154807483Y-88223073D01*
X154926102Y-88305515D01*
X155058475Y-88363348D01*
X155199560Y-88394367D01*
X155343983Y-88397393D01*
X155486243Y-88372308D01*
X155620921Y-88320070D01*
X155742888Y-88242667D01*
X155847498Y-88143048D01*
X155930767Y-88025008D01*
X155989522Y-87893042D01*
X156021526Y-87752177D01*
X156023829Y-87587183D01*
X155995771Y-87445479D01*
X155940724Y-87311924D01*
X155860784Y-87191605D01*
X155769798Y-87099982D01*
X155769798Y-86396221D01*
X155847498Y-86322228D01*
X155930767Y-86204188D01*
X155989522Y-86072222D01*
X156021526Y-85931357D01*
X156023829Y-85766363D01*
X155995771Y-85624659D01*
X155940724Y-85491104D01*
X155860784Y-85370785D01*
X155758996Y-85268284D01*
X155639238Y-85187506D01*
X155506070Y-85131527D01*
X155364566Y-85102481D01*
X155220115Y-85101472D01*
X155078219Y-85128540D01*
X154944283Y-85182654D01*
X154823408Y-85261752D01*
X154720199Y-85362822D01*
X154638587Y-85482013D01*
X154581681Y-85614787D01*
X154551647Y-85756085D01*
X154549630Y-85900525D01*
X139852400Y-85900525D01*
X139852400Y-85050335D01*
X157352032Y-85050335D01*
X157378109Y-85192417D01*
X157431286Y-85326727D01*
X157509538Y-85448151D01*
X157609885Y-85552063D01*
X157728504Y-85634505D01*
X157860877Y-85692338D01*
X158001962Y-85723357D01*
X158146385Y-85726383D01*
X158288645Y-85701298D01*
X158423323Y-85649060D01*
X158545290Y-85571657D01*
X158649900Y-85472038D01*
X158650632Y-85471000D01*
X158903203Y-85471000D01*
X158981485Y-85552063D01*
X159100104Y-85634505D01*
X159232477Y-85692338D01*
X159373562Y-85723357D01*
X159517985Y-85726383D01*
X159660245Y-85701298D01*
X159794923Y-85649060D01*
X159916890Y-85571657D01*
X160021500Y-85472038D01*
X160104769Y-85353998D01*
X160163524Y-85222032D01*
X160195528Y-85081167D01*
X160197831Y-84916173D01*
X160169773Y-84774469D01*
X160114726Y-84640914D01*
X160034786Y-84520595D01*
X159932998Y-84418094D01*
X159813240Y-84337316D01*
X159680072Y-84281337D01*
X159538568Y-84252291D01*
X159394117Y-84251282D01*
X159252221Y-84278350D01*
X159118285Y-84332464D01*
X158997410Y-84411562D01*
X158901178Y-84505800D01*
X158648494Y-84505800D01*
X158561398Y-84418094D01*
X158441640Y-84337316D01*
X158308472Y-84281337D01*
X158166968Y-84252291D01*
X158022517Y-84251282D01*
X157880621Y-84278350D01*
X157746685Y-84332464D01*
X157625810Y-84411562D01*
X157522601Y-84512632D01*
X157440989Y-84631823D01*
X157384083Y-84764597D01*
X157354049Y-84905895D01*
X157352032Y-85050335D01*
X139852400Y-85050335D01*
X139852400Y-80905236D01*
X139855442Y-80874348D01*
X139862637Y-80850631D01*
X139874314Y-80828784D01*
X139890032Y-80809632D01*
X139909184Y-80793914D01*
X139931031Y-80782237D01*
X139954748Y-80775042D01*
X139985636Y-80772000D01*
X185393735Y-80772000D01*
X185425029Y-80774590D01*
X185425029Y-80774590D01*
G37*
X185425029Y-80774590D02*
X186118775Y-80890214D01*
X186141728Y-80895826D01*
X186163613Y-80904797D01*
X186591764Y-81118873D01*
X186613558Y-81132058D01*
X186632951Y-81148557D01*
X186821443Y-81337049D01*
X186837942Y-81356442D01*
X186851127Y-81378236D01*
X187065203Y-81806387D01*
X187074174Y-81828272D01*
X187079786Y-81851225D01*
X187195410Y-82544971D01*
X187198000Y-82576265D01*
X187198000Y-121024764D01*
X187194958Y-121055652D01*
X187187763Y-121079369D01*
X187176086Y-121101216D01*
X187160368Y-121120368D01*
X187141216Y-121136086D01*
X187119369Y-121147763D01*
X187095652Y-121154958D01*
X187064764Y-121158000D01*
X178658370Y-121158000D01*
X178722989Y-121066398D01*
X178781744Y-120934432D01*
X178813748Y-120793567D01*
X178816051Y-120628573D01*
X178787993Y-120486869D01*
X178732946Y-120353314D01*
X178653006Y-120232995D01*
X178551218Y-120130494D01*
X178431460Y-120049716D01*
X178298292Y-119993737D01*
X178156788Y-119964691D01*
X178012337Y-119963682D01*
X177870441Y-119990750D01*
X177736505Y-120044864D01*
X177615630Y-120123962D01*
X177519398Y-120218200D01*
X176885698Y-120218200D01*
X176798598Y-120130490D01*
X176678840Y-120049712D01*
X176545672Y-119993733D01*
X176404168Y-119964687D01*
X176293732Y-119963916D01*
X176324528Y-119828367D01*
X176326831Y-119663373D01*
X176298773Y-119521669D01*
X176243726Y-119388114D01*
X176163786Y-119267795D01*
X176061998Y-119165294D01*
X175942240Y-119084516D01*
X175870116Y-119054198D01*
X175883587Y-119047215D01*
X175885568Y-119045634D01*
X175887811Y-119044441D01*
X175922369Y-119016256D01*
X175957196Y-118988454D01*
X175960732Y-118984968D01*
X175960800Y-118984912D01*
X175960852Y-118984849D01*
X175961994Y-118983723D01*
X176705401Y-118240316D01*
X176728298Y-118240796D01*
X176708849Y-118332295D01*
X176706832Y-118476735D01*
X176732909Y-118618817D01*
X176786086Y-118753127D01*
X176864338Y-118874551D01*
X176964685Y-118978463D01*
X177083304Y-119060905D01*
X177215677Y-119118738D01*
X177356762Y-119149757D01*
X177501185Y-119152783D01*
X177643445Y-119127698D01*
X177778123Y-119075460D01*
X177900090Y-118998057D01*
X178004700Y-118898438D01*
X178087969Y-118780398D01*
X178146724Y-118648432D01*
X178178728Y-118507567D01*
X178181031Y-118342573D01*
X178152973Y-118200869D01*
X178097926Y-118067314D01*
X178017986Y-117946995D01*
X177927000Y-117855372D01*
X177927000Y-117213063D01*
X177922654Y-117168737D01*
X177918765Y-117124288D01*
X177918056Y-117121849D01*
X177917809Y-117119326D01*
X177904928Y-117076663D01*
X177892487Y-117033840D01*
X177891320Y-117031588D01*
X177890586Y-117029158D01*
X177869642Y-116989768D01*
X177849142Y-116950220D01*
X177847561Y-116948239D01*
X177846368Y-116945996D01*
X177818183Y-116911438D01*
X177790381Y-116876611D01*
X177786895Y-116873075D01*
X177786839Y-116873007D01*
X177786776Y-116872955D01*
X177785650Y-116871813D01*
X177416823Y-116502986D01*
X177382376Y-116474691D01*
X177348226Y-116446036D01*
X177346003Y-116444814D01*
X177344042Y-116443203D01*
X177304725Y-116422121D01*
X177265689Y-116400661D01*
X177263273Y-116399895D01*
X177261034Y-116398694D01*
X177218371Y-116385651D01*
X177175911Y-116372182D01*
X177173390Y-116371899D01*
X177170962Y-116371157D01*
X177126607Y-116366652D01*
X177082311Y-116361683D01*
X177077351Y-116361648D01*
X177077258Y-116361639D01*
X177077172Y-116361647D01*
X177075573Y-116361636D01*
X176441587Y-116361636D01*
X176397261Y-116365982D01*
X176352812Y-116369871D01*
X176350373Y-116370580D01*
X176347850Y-116370827D01*
X176305187Y-116383708D01*
X176262364Y-116396149D01*
X176260112Y-116397316D01*
X176257682Y-116398050D01*
X176218292Y-116418994D01*
X176178744Y-116439494D01*
X176176763Y-116441075D01*
X176174520Y-116442268D01*
X176139962Y-116470453D01*
X176105135Y-116498255D01*
X176101599Y-116501741D01*
X176101531Y-116501797D01*
X176101479Y-116501860D01*
X176100337Y-116502986D01*
X175756929Y-116846394D01*
X175728634Y-116880841D01*
X175699979Y-116914991D01*
X175698757Y-116917214D01*
X175697146Y-116919175D01*
X175676064Y-116958492D01*
X175654604Y-116997528D01*
X175653838Y-116999944D01*
X175652637Y-117002183D01*
X175639594Y-117044846D01*
X175626125Y-117087306D01*
X175625842Y-117089827D01*
X175625100Y-117092255D01*
X175620595Y-117136610D01*
X175615626Y-117180906D01*
X175615591Y-117185866D01*
X175615582Y-117185959D01*
X175615590Y-117186045D01*
X175615579Y-117187644D01*
X175615579Y-117374394D01*
X175236511Y-117753462D01*
X174318451Y-117753462D01*
X174343328Y-117643967D01*
X174345631Y-117478973D01*
X174317573Y-117337269D01*
X174262526Y-117203714D01*
X174182586Y-117083395D01*
X174117000Y-117017350D01*
X174117000Y-115722650D01*
X174164913Y-115677023D01*
X174248182Y-115558983D01*
X174306937Y-115427017D01*
X174338941Y-115286152D01*
X174341244Y-115121158D01*
X174313186Y-114979454D01*
X174258139Y-114845899D01*
X174178199Y-114725580D01*
X174076411Y-114623079D01*
X173956653Y-114542301D01*
X173823485Y-114486322D01*
X173681981Y-114457276D01*
X173537530Y-114456267D01*
X173395634Y-114483335D01*
X173261698Y-114537449D01*
X173140823Y-114616547D01*
X173037614Y-114717617D01*
X172956002Y-114836808D01*
X172899096Y-114969582D01*
X172869062Y-115110880D01*
X172867045Y-115255320D01*
X172893122Y-115397402D01*
X172946299Y-115531712D01*
X173024551Y-115653136D01*
X173101000Y-115732301D01*
X173101000Y-117017656D01*
X173042001Y-117075432D01*
X172960389Y-117194623D01*
X172903483Y-117327397D01*
X172873449Y-117468695D01*
X172871432Y-117613135D01*
X172897187Y-117753462D01*
X168806655Y-117753462D01*
X168831528Y-117643986D01*
X168833831Y-117478992D01*
X168805773Y-117337288D01*
X168750726Y-117203733D01*
X168670786Y-117083414D01*
X168605200Y-117017369D01*
X168605200Y-115519243D01*
X168657500Y-115469438D01*
X168740769Y-115351398D01*
X168799524Y-115219432D01*
X168831528Y-115078567D01*
X168833831Y-114913573D01*
X168805773Y-114771869D01*
X168750726Y-114638314D01*
X168670786Y-114517995D01*
X168568998Y-114415494D01*
X168449240Y-114334716D01*
X168316072Y-114278737D01*
X168174568Y-114249691D01*
X168030117Y-114248682D01*
X167888221Y-114275750D01*
X167754285Y-114329864D01*
X167633410Y-114408962D01*
X167530201Y-114510032D01*
X167448589Y-114629223D01*
X167391683Y-114761997D01*
X167361649Y-114903295D01*
X167359632Y-115047735D01*
X167385709Y-115189817D01*
X167438886Y-115324127D01*
X167517138Y-115445551D01*
X167589200Y-115520173D01*
X167589200Y-117017675D01*
X167530201Y-117075451D01*
X167448589Y-117194642D01*
X167391683Y-117327416D01*
X167361649Y-117468714D01*
X167359632Y-117613154D01*
X167385383Y-117753462D01*
X167049780Y-117753462D01*
X166903400Y-117607082D01*
X166903400Y-117339732D01*
X166899054Y-117295406D01*
X166895165Y-117250957D01*
X166894456Y-117248518D01*
X166894209Y-117245995D01*
X166881324Y-117203319D01*
X166868887Y-117160510D01*
X166867720Y-117158259D01*
X166866986Y-117155827D01*
X166846032Y-117116419D01*
X166825542Y-117076889D01*
X166823961Y-117074908D01*
X166822768Y-117072665D01*
X166794583Y-117038107D01*
X166766781Y-117003280D01*
X166763295Y-116999744D01*
X166763239Y-116999676D01*
X166763176Y-116999624D01*
X166762050Y-116998482D01*
X166313118Y-116549550D01*
X166278671Y-116521255D01*
X166244521Y-116492600D01*
X166242298Y-116491378D01*
X166240337Y-116489767D01*
X166201020Y-116468685D01*
X166161984Y-116447225D01*
X166159568Y-116446459D01*
X166157329Y-116445258D01*
X166114666Y-116432215D01*
X166072206Y-116418746D01*
X166069685Y-116418463D01*
X166067257Y-116417721D01*
X166022902Y-116413216D01*
X165978606Y-116408247D01*
X165973646Y-116408212D01*
X165973553Y-116408203D01*
X165973467Y-116408211D01*
X165971868Y-116408200D01*
X164592000Y-116408200D01*
X164547674Y-116412546D01*
X164503225Y-116416435D01*
X164500786Y-116417144D01*
X164498263Y-116417391D01*
X164455600Y-116430272D01*
X164412777Y-116442713D01*
X164410525Y-116443880D01*
X164408095Y-116444614D01*
X164368705Y-116465558D01*
X164329157Y-116486058D01*
X164327176Y-116487639D01*
X164324933Y-116488832D01*
X164290375Y-116517017D01*
X164255548Y-116544819D01*
X164252012Y-116548305D01*
X164251944Y-116548361D01*
X164251892Y-116548424D01*
X164250750Y-116549550D01*
X161819070Y-118981230D01*
X150942004Y-118981230D01*
X151334470Y-118588764D01*
X151362765Y-118554317D01*
X151391420Y-118520167D01*
X151392642Y-118517944D01*
X151394253Y-118515983D01*
X151415335Y-118476666D01*
X151436795Y-118437630D01*
X151437561Y-118435214D01*
X151438762Y-118432975D01*
X151451805Y-118390312D01*
X151465274Y-118347852D01*
X151465557Y-118345331D01*
X151466299Y-118342903D01*
X151469851Y-118307935D01*
X151553520Y-118228258D01*
X151636789Y-118110218D01*
X151695544Y-117978252D01*
X151727548Y-117837387D01*
X151729851Y-117672393D01*
X151701793Y-117530689D01*
X151646746Y-117397134D01*
X151566806Y-117276815D01*
X151465018Y-117174314D01*
X151345260Y-117093536D01*
X151212092Y-117037557D01*
X151070588Y-117008511D01*
X150926137Y-117007502D01*
X150784241Y-117034570D01*
X150650305Y-117088684D01*
X150529430Y-117167782D01*
X150426221Y-117268852D01*
X150344609Y-117388043D01*
X150287703Y-117520817D01*
X150257669Y-117662115D01*
X150255652Y-117806555D01*
X150281729Y-117948637D01*
X150334906Y-118082947D01*
X150389921Y-118168313D01*
X149983414Y-118574820D01*
X146714720Y-118574820D01*
X145436152Y-117296252D01*
X145437891Y-117171633D01*
X145409833Y-117029929D01*
X145354786Y-116896374D01*
X145274846Y-116776055D01*
X145173058Y-116673554D01*
X145053300Y-116592776D01*
X144920132Y-116536797D01*
X144778628Y-116507751D01*
X144634177Y-116506742D01*
X144492281Y-116533810D01*
X144358345Y-116587924D01*
X144237470Y-116667022D01*
X144134261Y-116768092D01*
X144052649Y-116887283D01*
X143995743Y-117020057D01*
X143965709Y-117161355D01*
X143963692Y-117305795D01*
X143989769Y-117447877D01*
X144042946Y-117582187D01*
X144121198Y-117703611D01*
X144221545Y-117807523D01*
X144340164Y-117889965D01*
X144472537Y-117947798D01*
X144542827Y-117963252D01*
X141818765Y-117963252D01*
X141800869Y-117957575D01*
X141798348Y-117957292D01*
X141795920Y-117956550D01*
X141751565Y-117952045D01*
X141707269Y-117947076D01*
X141702309Y-117947041D01*
X141702216Y-117947032D01*
X141702130Y-117947040D01*
X141700531Y-117947029D01*
X137754971Y-117947029D01*
X137710645Y-117951375D01*
X137666196Y-117955264D01*
X137663757Y-117955973D01*
X137661234Y-117956220D01*
X137618571Y-117969101D01*
X137575748Y-117981542D01*
X137573496Y-117982709D01*
X137571066Y-117983443D01*
X137531676Y-118004387D01*
X137492128Y-118024887D01*
X137490147Y-118026468D01*
X137487904Y-118027661D01*
X137453346Y-118055846D01*
X137418519Y-118083648D01*
X137414983Y-118087134D01*
X137414915Y-118087190D01*
X137414863Y-118087253D01*
X137413721Y-118088379D01*
X136935497Y-118566603D01*
X136089613Y-118566603D01*
X136109724Y-118521432D01*
X136141728Y-118380567D01*
X136144031Y-118215573D01*
X136115973Y-118073869D01*
X136060926Y-117940314D01*
X135980986Y-117819995D01*
X135879198Y-117717494D01*
X135759440Y-117636716D01*
X135626272Y-117580737D01*
X135484768Y-117551691D01*
X135340317Y-117550682D01*
X135198421Y-117577750D01*
X135064485Y-117631864D01*
X134943610Y-117710962D01*
X134847378Y-117805200D01*
X134388100Y-117805200D01*
X133818249Y-117235349D01*
X133783802Y-117207054D01*
X133749652Y-117178399D01*
X133747429Y-117177177D01*
X133745468Y-117175566D01*
X133706151Y-117154484D01*
X133667115Y-117133024D01*
X133664699Y-117132258D01*
X133662460Y-117131057D01*
X133619797Y-117118014D01*
X133577337Y-117104545D01*
X133574816Y-117104262D01*
X133572388Y-117103520D01*
X133528033Y-117099015D01*
X133483737Y-117094046D01*
X133478777Y-117094011D01*
X133478684Y-117094002D01*
X133478598Y-117094010D01*
X133476999Y-117093999D01*
X132194807Y-117093999D01*
X132150435Y-117098350D01*
X132106032Y-117102235D01*
X132103598Y-117102942D01*
X132101070Y-117103190D01*
X132058365Y-117116083D01*
X132015584Y-117128512D01*
X132013332Y-117129679D01*
X132010902Y-117130413D01*
X131971512Y-117151357D01*
X131931964Y-117171857D01*
X131929983Y-117173438D01*
X131927740Y-117174631D01*
X131893182Y-117202816D01*
X131858355Y-117230618D01*
X131854824Y-117234101D01*
X131854751Y-117234160D01*
X131854695Y-117234227D01*
X131853557Y-117235350D01*
X131335123Y-117753783D01*
X127808883Y-117753783D01*
X127711706Y-117656606D01*
X127711706Y-116967506D01*
X127707360Y-116923180D01*
X127703471Y-116878731D01*
X127702762Y-116876292D01*
X127702515Y-116873769D01*
X127689634Y-116831106D01*
X127677193Y-116788283D01*
X127676026Y-116786031D01*
X127675292Y-116783601D01*
X127654348Y-116744211D01*
X127633848Y-116704663D01*
X127632267Y-116702682D01*
X127631074Y-116700439D01*
X127602889Y-116665881D01*
X127575087Y-116631054D01*
X127571601Y-116627518D01*
X127571545Y-116627450D01*
X127571482Y-116627398D01*
X127570356Y-116626256D01*
X127239650Y-116295550D01*
X127205203Y-116267255D01*
X127171053Y-116238600D01*
X127168830Y-116237378D01*
X127166869Y-116235767D01*
X127155192Y-116229506D01*
X126460846Y-115535160D01*
X126426399Y-115506865D01*
X126392249Y-115478210D01*
X126390026Y-115476988D01*
X126388065Y-115475377D01*
X126348748Y-115454295D01*
X126309712Y-115432835D01*
X126307296Y-115432069D01*
X126305057Y-115430868D01*
X126262394Y-115417825D01*
X126219934Y-115404356D01*
X126217413Y-115404073D01*
X126214985Y-115403331D01*
X126170630Y-115398826D01*
X126126334Y-115393857D01*
X126121374Y-115393822D01*
X126121281Y-115393813D01*
X126121195Y-115393821D01*
X126119596Y-115393810D01*
X124660259Y-115393811D01*
X124615887Y-115398162D01*
X124571484Y-115402047D01*
X124569050Y-115402754D01*
X124566522Y-115403002D01*
X124523817Y-115415895D01*
X124481036Y-115428324D01*
X124478784Y-115429491D01*
X124476354Y-115430225D01*
X124436964Y-115451169D01*
X124397416Y-115471669D01*
X124395435Y-115473250D01*
X124393192Y-115474443D01*
X124358634Y-115502628D01*
X124323807Y-115530430D01*
X124320276Y-115533913D01*
X124320203Y-115533972D01*
X124320147Y-115534039D01*
X124319009Y-115535162D01*
X123661550Y-116192620D01*
X123633255Y-116227067D01*
X123604600Y-116261217D01*
X123603378Y-116263440D01*
X123601767Y-116265401D01*
X123580685Y-116304718D01*
X123559225Y-116343754D01*
X123558459Y-116346170D01*
X123557258Y-116348409D01*
X123544215Y-116391072D01*
X123530746Y-116433532D01*
X123530463Y-116436053D01*
X123529721Y-116438481D01*
X123525216Y-116482836D01*
X123520247Y-116527132D01*
X123520212Y-116532092D01*
X123520203Y-116532185D01*
X123520211Y-116532271D01*
X123520200Y-116533870D01*
X123520200Y-116916190D01*
X122809010Y-116916190D01*
X122764684Y-116920536D01*
X122720235Y-116924425D01*
X122717796Y-116925134D01*
X122715273Y-116925381D01*
X122672597Y-116938266D01*
X122629788Y-116950703D01*
X122627537Y-116951870D01*
X122625105Y-116952604D01*
X122585697Y-116973558D01*
X122546167Y-116994048D01*
X122544186Y-116995629D01*
X122541943Y-116996822D01*
X122507385Y-117025007D01*
X122472558Y-117052809D01*
X122469022Y-117056295D01*
X122468954Y-117056351D01*
X122468902Y-117056414D01*
X122467760Y-117057540D01*
X121694720Y-117830580D01*
X117928880Y-117830580D01*
X117017810Y-116919510D01*
X117017810Y-110588290D01*
X120356250Y-107249850D01*
X120384545Y-107215403D01*
X120413200Y-107181253D01*
X120414422Y-107179030D01*
X120416033Y-107177069D01*
X120437096Y-107137787D01*
X120458575Y-107098716D01*
X120459343Y-107096296D01*
X120460541Y-107094061D01*
X120472933Y-107053529D01*
X148443426Y-107053529D01*
X148469503Y-107195611D01*
X148522680Y-107329921D01*
X148600932Y-107451345D01*
X148698394Y-107552270D01*
X148698394Y-107982194D01*
X148702740Y-108026520D01*
X148706629Y-108070969D01*
X148707338Y-108073408D01*
X148707585Y-108075931D01*
X148720466Y-108118594D01*
X148732907Y-108161417D01*
X148734074Y-108163669D01*
X148734808Y-108166099D01*
X148755752Y-108205489D01*
X148776252Y-108245037D01*
X148777833Y-108247018D01*
X148779026Y-108249261D01*
X148807211Y-108283819D01*
X148835013Y-108318646D01*
X148838499Y-108322182D01*
X148838555Y-108322250D01*
X148838618Y-108322302D01*
X148839744Y-108323444D01*
X149200243Y-108683942D01*
X149198632Y-108799335D01*
X149224709Y-108941417D01*
X149277886Y-109075727D01*
X149356138Y-109197151D01*
X149456485Y-109301063D01*
X149575104Y-109383505D01*
X149707477Y-109441338D01*
X149848562Y-109472357D01*
X149992985Y-109475383D01*
X150135245Y-109450298D01*
X150269923Y-109398060D01*
X150391890Y-109320657D01*
X150496500Y-109221038D01*
X150579769Y-109102998D01*
X150638524Y-108971032D01*
X150670528Y-108830167D01*
X150672831Y-108665173D01*
X150644773Y-108523469D01*
X150589726Y-108389914D01*
X150509786Y-108269595D01*
X150407998Y-108167094D01*
X150288240Y-108086316D01*
X150155072Y-108030337D01*
X150013568Y-108001291D01*
X149881669Y-108000370D01*
X149663594Y-107782294D01*
X149663594Y-107549225D01*
X149741294Y-107475232D01*
X149824563Y-107357192D01*
X149883318Y-107225226D01*
X149915322Y-107084361D01*
X149917625Y-106919367D01*
X149889567Y-106777663D01*
X149834520Y-106644108D01*
X149754580Y-106523789D01*
X149652792Y-106421288D01*
X149533034Y-106340510D01*
X149399866Y-106284531D01*
X149258362Y-106255485D01*
X149113911Y-106254476D01*
X148972015Y-106281544D01*
X148838079Y-106335658D01*
X148717204Y-106414756D01*
X148613995Y-106515826D01*
X148532383Y-106635017D01*
X148475477Y-106767791D01*
X148445443Y-106909089D01*
X148443426Y-107053529D01*
X120472933Y-107053529D01*
X120473575Y-107051431D01*
X120487054Y-107008938D01*
X120487337Y-107006418D01*
X120488079Y-107003990D01*
X120492585Y-106959629D01*
X120497553Y-106915338D01*
X120497588Y-106910378D01*
X120497597Y-106910285D01*
X120497589Y-106910199D01*
X120497600Y-106908600D01*
X120497600Y-102705960D01*
X143522257Y-102705960D01*
X143548334Y-102848042D01*
X143601511Y-102982352D01*
X143679763Y-103103776D01*
X143780110Y-103207688D01*
X143898729Y-103290130D01*
X144031102Y-103347963D01*
X144172187Y-103378982D01*
X144316610Y-103382008D01*
X144458870Y-103356923D01*
X144593548Y-103304685D01*
X144715515Y-103227282D01*
X144820125Y-103127663D01*
X144820857Y-103126625D01*
X145275517Y-103126625D01*
X145223506Y-103202585D01*
X145166600Y-103335359D01*
X145136566Y-103476657D01*
X145134549Y-103621097D01*
X145160626Y-103763179D01*
X145213803Y-103897489D01*
X145238539Y-103935871D01*
X145152801Y-104019832D01*
X145071189Y-104139023D01*
X145014283Y-104271797D01*
X144984249Y-104413095D01*
X144982232Y-104557535D01*
X145008309Y-104699617D01*
X145061486Y-104833927D01*
X145139738Y-104955351D01*
X145240085Y-105059263D01*
X145358704Y-105141705D01*
X145491077Y-105199538D01*
X145632162Y-105230557D01*
X145776585Y-105233583D01*
X145918845Y-105208498D01*
X146053523Y-105156260D01*
X146175490Y-105078857D01*
X146280100Y-104979238D01*
X146280832Y-104978200D01*
X148901834Y-104978200D01*
X148990904Y-105040105D01*
X149123277Y-105097938D01*
X149264362Y-105128957D01*
X149408785Y-105131983D01*
X149551045Y-105106898D01*
X149685723Y-105054660D01*
X149807690Y-104977257D01*
X149912300Y-104877638D01*
X149995569Y-104759598D01*
X150054324Y-104627632D01*
X150086328Y-104486767D01*
X150088631Y-104321773D01*
X150060573Y-104180069D01*
X150005526Y-104046514D01*
X149925586Y-103926195D01*
X149823798Y-103823694D01*
X149706518Y-103744588D01*
X150225506Y-103225600D01*
X153448972Y-103225600D01*
X153446416Y-103250766D01*
X153441447Y-103295062D01*
X153441412Y-103300022D01*
X153441403Y-103300115D01*
X153441411Y-103300201D01*
X153441400Y-103301800D01*
X153441400Y-111610901D01*
X152479174Y-112573126D01*
X152358317Y-112572282D01*
X152216421Y-112599350D01*
X152082485Y-112653464D01*
X151961610Y-112732562D01*
X151858401Y-112833632D01*
X151776789Y-112952823D01*
X151719883Y-113085597D01*
X151689849Y-113226895D01*
X151687832Y-113371335D01*
X151713909Y-113513417D01*
X151767086Y-113647727D01*
X151845338Y-113769151D01*
X151945685Y-113873063D01*
X152064304Y-113955505D01*
X152196677Y-114013338D01*
X152337762Y-114044357D01*
X152482185Y-114047383D01*
X152624445Y-114022298D01*
X152759123Y-113970060D01*
X152881090Y-113892657D01*
X152985400Y-113793324D01*
X153037885Y-113847673D01*
X153156504Y-113930115D01*
X153288877Y-113987948D01*
X153429962Y-114018967D01*
X153574385Y-114021993D01*
X153716645Y-113996908D01*
X153851323Y-113944670D01*
X153973290Y-113867267D01*
X154077900Y-113767648D01*
X154161169Y-113649608D01*
X154219924Y-113517642D01*
X154235849Y-113447546D01*
X167359632Y-113447546D01*
X167385709Y-113589628D01*
X167438886Y-113723938D01*
X167517138Y-113845362D01*
X167617485Y-113949274D01*
X167736104Y-114031716D01*
X167868477Y-114089549D01*
X168009562Y-114120568D01*
X168153985Y-114123594D01*
X168296245Y-114098509D01*
X168430923Y-114046271D01*
X168552890Y-113968868D01*
X168657500Y-113869249D01*
X168740769Y-113751209D01*
X168799524Y-113619243D01*
X168831528Y-113478378D01*
X168833831Y-113313384D01*
X168805773Y-113171680D01*
X168750726Y-113038125D01*
X168670786Y-112917806D01*
X168615647Y-112862281D01*
X168615647Y-112594174D01*
X168667947Y-112544369D01*
X168751216Y-112426329D01*
X168809971Y-112294363D01*
X168841975Y-112153498D01*
X168842461Y-112118611D01*
X172859778Y-112118611D01*
X172885855Y-112260693D01*
X172939032Y-112395003D01*
X173017284Y-112516427D01*
X173089346Y-112591049D01*
X173089346Y-112854666D01*
X173033001Y-112909843D01*
X172951389Y-113029034D01*
X172894483Y-113161808D01*
X172864449Y-113303106D01*
X172862432Y-113447546D01*
X172888509Y-113589628D01*
X172941686Y-113723938D01*
X173019938Y-113845362D01*
X173120285Y-113949274D01*
X173238904Y-114031716D01*
X173371277Y-114089549D01*
X173512362Y-114120568D01*
X173656785Y-114123594D01*
X173799045Y-114098509D01*
X173933723Y-114046271D01*
X174055690Y-113968868D01*
X174160300Y-113869249D01*
X174243569Y-113751209D01*
X174302324Y-113619243D01*
X174334328Y-113478378D01*
X174336631Y-113313384D01*
X174308573Y-113171680D01*
X174253526Y-113038125D01*
X174173586Y-112917806D01*
X174105346Y-112849088D01*
X174105346Y-112590119D01*
X174157646Y-112540314D01*
X174240915Y-112422274D01*
X174299670Y-112290308D01*
X174331674Y-112149443D01*
X174333977Y-111984449D01*
X174305919Y-111842745D01*
X174250872Y-111709190D01*
X174170932Y-111588871D01*
X174069144Y-111486370D01*
X173949386Y-111405592D01*
X173816218Y-111349613D01*
X173674714Y-111320567D01*
X173530263Y-111319558D01*
X173388367Y-111346626D01*
X173254431Y-111400740D01*
X173133556Y-111479838D01*
X173030347Y-111580908D01*
X172948735Y-111700099D01*
X172891829Y-111832873D01*
X172861795Y-111974171D01*
X172859778Y-112118611D01*
X168842461Y-112118611D01*
X168844278Y-111988504D01*
X168816220Y-111846800D01*
X168761173Y-111713245D01*
X168681233Y-111592926D01*
X168579445Y-111490425D01*
X168459687Y-111409647D01*
X168326519Y-111353668D01*
X168185015Y-111324622D01*
X168040564Y-111323613D01*
X167898668Y-111350681D01*
X167764732Y-111404795D01*
X167643857Y-111483893D01*
X167540648Y-111584963D01*
X167459036Y-111704154D01*
X167402130Y-111836928D01*
X167372096Y-111978226D01*
X167370079Y-112122666D01*
X167396156Y-112264748D01*
X167449333Y-112399058D01*
X167527585Y-112520482D01*
X167599647Y-112595104D01*
X167599647Y-112841836D01*
X167530201Y-112909843D01*
X167448589Y-113029034D01*
X167391683Y-113161808D01*
X167361649Y-113303106D01*
X167359632Y-113447546D01*
X154235849Y-113447546D01*
X154251928Y-113376777D01*
X154254231Y-113211783D01*
X154226173Y-113070079D01*
X154171126Y-112936524D01*
X154169310Y-112933790D01*
X154661578Y-112441521D01*
X157326632Y-112441521D01*
X157352709Y-112583603D01*
X157405886Y-112717913D01*
X157484138Y-112839337D01*
X157584485Y-112943249D01*
X157703104Y-113025691D01*
X157835477Y-113083524D01*
X157976562Y-113114543D01*
X158120985Y-113117569D01*
X158263245Y-113092484D01*
X158397923Y-113040246D01*
X158519890Y-112962843D01*
X158624500Y-112863224D01*
X158707769Y-112745184D01*
X158766524Y-112613218D01*
X158785269Y-112530712D01*
X164534488Y-112530712D01*
X164612770Y-112611775D01*
X164731389Y-112694217D01*
X164863762Y-112752050D01*
X165004847Y-112783069D01*
X165149270Y-112786095D01*
X165291530Y-112761010D01*
X165426208Y-112708772D01*
X165548175Y-112631369D01*
X165652785Y-112531750D01*
X165736054Y-112413710D01*
X165794809Y-112281744D01*
X165826813Y-112140879D01*
X165829116Y-111975885D01*
X165801058Y-111834181D01*
X165746011Y-111700626D01*
X165666071Y-111580307D01*
X165564283Y-111477806D01*
X165444525Y-111397028D01*
X165311357Y-111341049D01*
X165169853Y-111312003D01*
X165025402Y-111310994D01*
X164883506Y-111338062D01*
X164749570Y-111392176D01*
X164628695Y-111471274D01*
X164532463Y-111565512D01*
X158395674Y-111565512D01*
X158351348Y-111569858D01*
X158306899Y-111573747D01*
X158304460Y-111574456D01*
X158301937Y-111574703D01*
X158259274Y-111587584D01*
X158216451Y-111600025D01*
X158214199Y-111601192D01*
X158211769Y-111601926D01*
X158172379Y-111622870D01*
X158132831Y-111643370D01*
X158132774Y-111643416D01*
X157997117Y-111642468D01*
X157855221Y-111669536D01*
X157721285Y-111723650D01*
X157600410Y-111802748D01*
X157497201Y-111903818D01*
X157415589Y-112023009D01*
X157358683Y-112155783D01*
X157328649Y-112297081D01*
X157326632Y-112441521D01*
X154661578Y-112441521D01*
X154697048Y-112406051D01*
X154725319Y-112371634D01*
X154753999Y-112337454D01*
X154755221Y-112335231D01*
X154756832Y-112333270D01*
X154777895Y-112293988D01*
X154799374Y-112254917D01*
X154800142Y-112252497D01*
X154801340Y-112250262D01*
X154814374Y-112207632D01*
X154827853Y-112165139D01*
X154828136Y-112162619D01*
X154828878Y-112160191D01*
X154833384Y-112115830D01*
X154838352Y-112071539D01*
X154838387Y-112066579D01*
X154838396Y-112066486D01*
X154838388Y-112066400D01*
X154838399Y-112064801D01*
X154838399Y-110056549D01*
X154953962Y-110081957D01*
X155098385Y-110084983D01*
X155240645Y-110059898D01*
X155375323Y-110007660D01*
X155497290Y-109930257D01*
X155601900Y-109830638D01*
X155685169Y-109712598D01*
X155743924Y-109580632D01*
X155775928Y-109439767D01*
X155778231Y-109274773D01*
X155750173Y-109133069D01*
X155695126Y-108999514D01*
X155615186Y-108879195D01*
X155549600Y-108813150D01*
X155549600Y-103613820D01*
X157385620Y-101777800D01*
X158052494Y-101777800D01*
X158100806Y-101827828D01*
X158219425Y-101910270D01*
X158351798Y-101968103D01*
X158492883Y-101999122D01*
X158637306Y-102002148D01*
X158779566Y-101977063D01*
X158914244Y-101924825D01*
X159036211Y-101847422D01*
X159140821Y-101747803D01*
X159224090Y-101629763D01*
X159282845Y-101497797D01*
X159314849Y-101356932D01*
X159316785Y-101218235D01*
X159900221Y-100634800D01*
X160683917Y-100634800D01*
X160730621Y-100630221D01*
X160777365Y-100626131D01*
X160779931Y-100625386D01*
X160782588Y-100625125D01*
X160827473Y-100611573D01*
X160872572Y-100598471D01*
X160874946Y-100597240D01*
X160877501Y-100596469D01*
X160918894Y-100574460D01*
X160960594Y-100552845D01*
X160962683Y-100551177D01*
X160965040Y-100549924D01*
X161001426Y-100520248D01*
X161038076Y-100490990D01*
X161041791Y-100487327D01*
X161041871Y-100487262D01*
X161041932Y-100487188D01*
X161043127Y-100486010D01*
X163765875Y-97763262D01*
X163840656Y-97764829D01*
X163982916Y-97739744D01*
X164117594Y-97687506D01*
X164239561Y-97610103D01*
X164344171Y-97510484D01*
X164427440Y-97392444D01*
X164486195Y-97260478D01*
X164518199Y-97119613D01*
X164520502Y-96954619D01*
X164492444Y-96812915D01*
X164437397Y-96679360D01*
X164357457Y-96559041D01*
X164255669Y-96456540D01*
X164220265Y-96432659D01*
X178112909Y-96432659D01*
X178236549Y-97106321D01*
X178488683Y-97743139D01*
X178859707Y-98318855D01*
X179335489Y-98811542D01*
X179897906Y-99202432D01*
X180525536Y-99476637D01*
X181194473Y-99623712D01*
X181879238Y-99638056D01*
X182553747Y-99519122D01*
X183192309Y-99271440D01*
X183770602Y-98904444D01*
X184266598Y-98432114D01*
X184661405Y-97872439D01*
X184939985Y-97246738D01*
X185091726Y-96578844D01*
X185102650Y-95796543D01*
X184969616Y-95124672D01*
X184708615Y-94491437D01*
X184329589Y-93920957D01*
X183846975Y-93434962D01*
X183279155Y-93051962D01*
X182647758Y-92786547D01*
X181976832Y-92648826D01*
X181291934Y-92644044D01*
X180619151Y-92772384D01*
X179984109Y-93028958D01*
X179410997Y-93403992D01*
X178921644Y-93883202D01*
X178534690Y-94448334D01*
X178264874Y-95077863D01*
X178122472Y-95747811D01*
X178112909Y-96432659D01*
X164220265Y-96432659D01*
X164135911Y-96375762D01*
X164002743Y-96319783D01*
X163861239Y-96290737D01*
X163716788Y-96289728D01*
X163652200Y-96302049D01*
X163652200Y-95325031D01*
X163729900Y-95251038D01*
X163813169Y-95132998D01*
X163871924Y-95001032D01*
X163903928Y-94860167D01*
X163906231Y-94695173D01*
X163878173Y-94553469D01*
X163823126Y-94419914D01*
X163743186Y-94299595D01*
X163641398Y-94197094D01*
X163521640Y-94116316D01*
X163388472Y-94060337D01*
X163246968Y-94031291D01*
X163102517Y-94030282D01*
X162960621Y-94057350D01*
X162826685Y-94111464D01*
X162705810Y-94190562D01*
X162602601Y-94291632D01*
X162520989Y-94410823D01*
X162464083Y-94543597D01*
X162434049Y-94684895D01*
X162432032Y-94829335D01*
X162458109Y-94971417D01*
X162511286Y-95105727D01*
X162589538Y-95227151D01*
X162687000Y-95328076D01*
X162687000Y-96549056D01*
X160909000Y-98327056D01*
X160909000Y-98169631D01*
X160904649Y-98125259D01*
X160900764Y-98080856D01*
X160900057Y-98078422D01*
X160899809Y-98075894D01*
X160886916Y-98033189D01*
X160874487Y-97990408D01*
X160873320Y-97988156D01*
X160872586Y-97985726D01*
X160851642Y-97946336D01*
X160831142Y-97906788D01*
X160829561Y-97904807D01*
X160828368Y-97902564D01*
X160800183Y-97868006D01*
X160772381Y-97833179D01*
X160768895Y-97829643D01*
X160768839Y-97829575D01*
X160768776Y-97829523D01*
X160767650Y-97828381D01*
X159562800Y-96623531D01*
X159562800Y-96443800D01*
X159558449Y-96399428D01*
X159554564Y-96355025D01*
X159553857Y-96352591D01*
X159553609Y-96350063D01*
X159540716Y-96307358D01*
X159528287Y-96264577D01*
X159527120Y-96262325D01*
X159526386Y-96259895D01*
X159505442Y-96220505D01*
X159484942Y-96180957D01*
X159483361Y-96178976D01*
X159482168Y-96176733D01*
X159453983Y-96142175D01*
X159426181Y-96107348D01*
X159422698Y-96103817D01*
X159422639Y-96103744D01*
X159422572Y-96103688D01*
X159421449Y-96102550D01*
X158938850Y-95619950D01*
X158904403Y-95591655D01*
X158870253Y-95563000D01*
X158868030Y-95561778D01*
X158866069Y-95560167D01*
X158826752Y-95539085D01*
X158787716Y-95517625D01*
X158785300Y-95516859D01*
X158783061Y-95515658D01*
X158740398Y-95502615D01*
X158697938Y-95489146D01*
X158695417Y-95488863D01*
X158692989Y-95488121D01*
X158648634Y-95483616D01*
X158604338Y-95478647D01*
X158599378Y-95478612D01*
X158599285Y-95478603D01*
X158599199Y-95478611D01*
X158597600Y-95478600D01*
X156271824Y-95478600D01*
X156227498Y-95482946D01*
X156183049Y-95486835D01*
X156180610Y-95487544D01*
X156178087Y-95487791D01*
X156135424Y-95500672D01*
X156092601Y-95513113D01*
X156090349Y-95514280D01*
X156087919Y-95515014D01*
X156048529Y-95535958D01*
X156008981Y-95556458D01*
X156007000Y-95558039D01*
X156004757Y-95559232D01*
X155970199Y-95587417D01*
X155935372Y-95615219D01*
X155931836Y-95618705D01*
X155931768Y-95618761D01*
X155931716Y-95618824D01*
X155930574Y-95619950D01*
X155131798Y-96418726D01*
X155010941Y-96417882D01*
X154869045Y-96444950D01*
X154735109Y-96499064D01*
X154614234Y-96578162D01*
X154511025Y-96679232D01*
X154429413Y-96798423D01*
X154372507Y-96931197D01*
X154342473Y-97072495D01*
X154340456Y-97216935D01*
X154366533Y-97359017D01*
X154419710Y-97493327D01*
X154497962Y-97614751D01*
X154598309Y-97718663D01*
X154716928Y-97801105D01*
X154849301Y-97858938D01*
X154990386Y-97889957D01*
X155031634Y-97890821D01*
X153352962Y-99569493D01*
X144933807Y-99569493D01*
X144889481Y-99573839D01*
X144845032Y-99577728D01*
X144842593Y-99578437D01*
X144840070Y-99578684D01*
X144797394Y-99591569D01*
X144754585Y-99604006D01*
X144752334Y-99605173D01*
X144749902Y-99605907D01*
X144710494Y-99626861D01*
X144670964Y-99647351D01*
X144668983Y-99648932D01*
X144666740Y-99650125D01*
X144632182Y-99678310D01*
X144600104Y-99703918D01*
X144478630Y-99703069D01*
X144336734Y-99730137D01*
X144202798Y-99784251D01*
X144081923Y-99863349D01*
X143978714Y-99964419D01*
X143897102Y-100083610D01*
X143840196Y-100216384D01*
X143810162Y-100357682D01*
X143808145Y-100502122D01*
X143834222Y-100644204D01*
X143887399Y-100778514D01*
X143965651Y-100899938D01*
X144065998Y-101003850D01*
X144184617Y-101086292D01*
X144316990Y-101144125D01*
X144458075Y-101175144D01*
X144602498Y-101178170D01*
X144744758Y-101153085D01*
X144879436Y-101100847D01*
X144928941Y-101069430D01*
X144995201Y-101172245D01*
X145015892Y-101193671D01*
X144970179Y-101239384D01*
X144849322Y-101238540D01*
X144707426Y-101265608D01*
X144573490Y-101319722D01*
X144452615Y-101398820D01*
X144349406Y-101499890D01*
X144267794Y-101619081D01*
X144210888Y-101751855D01*
X144180854Y-101893153D01*
X144180630Y-101909218D01*
X144050846Y-101933975D01*
X143916910Y-101988089D01*
X143796035Y-102067187D01*
X143692826Y-102168257D01*
X143611214Y-102287448D01*
X143554308Y-102420222D01*
X143524274Y-102561520D01*
X143522257Y-102705960D01*
X120497600Y-102705960D01*
X120497600Y-100809300D01*
X121184558Y-100122342D01*
X121197362Y-100125157D01*
X121341785Y-100128183D01*
X121484045Y-100103098D01*
X121618723Y-100050860D01*
X121740690Y-99973457D01*
X121845300Y-99873838D01*
X121928569Y-99755798D01*
X121987324Y-99623832D01*
X122019328Y-99482967D01*
X122021631Y-99317973D01*
X121993573Y-99176269D01*
X121938526Y-99042714D01*
X121858586Y-98922395D01*
X121756798Y-98819894D01*
X121637040Y-98739116D01*
X121503872Y-98683137D01*
X121362368Y-98654091D01*
X121217917Y-98653082D01*
X121076021Y-98680150D01*
X120942085Y-98734264D01*
X120821210Y-98813362D01*
X120718001Y-98914432D01*
X120636389Y-99033623D01*
X120579483Y-99166397D01*
X120549449Y-99307695D01*
X120548249Y-99393651D01*
X120157806Y-99784094D01*
X120183924Y-99725432D01*
X120215928Y-99584567D01*
X120218231Y-99419573D01*
X120190173Y-99277869D01*
X120135126Y-99144314D01*
X120055186Y-99023995D01*
X119953398Y-98921494D01*
X119833640Y-98840716D01*
X119700472Y-98784737D01*
X119558968Y-98755691D01*
X119414517Y-98754682D01*
X119272621Y-98781750D01*
X119138685Y-98835864D01*
X119017810Y-98914962D01*
X118914601Y-99016032D01*
X118832989Y-99135223D01*
X118776083Y-99267997D01*
X118746049Y-99409295D01*
X118744032Y-99553735D01*
X118770109Y-99695817D01*
X118823286Y-99830127D01*
X118901538Y-99951551D01*
X118999000Y-100052476D01*
X118999000Y-106657900D01*
X115736750Y-109920150D01*
X115708455Y-109954597D01*
X115679800Y-109988747D01*
X115678578Y-109990970D01*
X115676967Y-109992931D01*
X115655885Y-110032248D01*
X115634425Y-110071284D01*
X115633659Y-110073700D01*
X115632458Y-110075939D01*
X115619415Y-110118602D01*
X115605946Y-110161062D01*
X115605663Y-110163583D01*
X115604921Y-110166011D01*
X115600416Y-110210366D01*
X115595447Y-110254662D01*
X115595412Y-110259622D01*
X115595403Y-110259715D01*
X115595411Y-110259801D01*
X115595400Y-110261400D01*
X115595400Y-117246400D01*
X115599744Y-117290706D01*
X115603635Y-117335175D01*
X115604344Y-117337614D01*
X115604591Y-117340137D01*
X115617472Y-117382800D01*
X115629913Y-117425623D01*
X115631080Y-117427875D01*
X115631814Y-117430305D01*
X115652758Y-117469695D01*
X115673258Y-117509243D01*
X115674839Y-117511224D01*
X115676032Y-117513467D01*
X115704217Y-117548025D01*
X115732019Y-117582852D01*
X115735505Y-117586388D01*
X115735561Y-117586456D01*
X115735624Y-117586508D01*
X115736750Y-117587650D01*
X116792500Y-118643400D01*
X116268500Y-118643400D01*
X116224174Y-118647746D01*
X116179725Y-118651635D01*
X116177286Y-118652344D01*
X116174763Y-118652591D01*
X116132087Y-118665476D01*
X116089278Y-118677913D01*
X116087027Y-118679080D01*
X116084595Y-118679814D01*
X116045187Y-118700768D01*
X116005657Y-118721258D01*
X116003676Y-118722839D01*
X116001433Y-118724032D01*
X115966875Y-118752217D01*
X115932048Y-118780019D01*
X115928512Y-118783505D01*
X115928444Y-118783561D01*
X115928392Y-118783624D01*
X115927250Y-118784750D01*
X114046000Y-120666000D01*
X114046000Y-118745000D01*
X114016998Y-118599198D01*
X113934408Y-118475592D01*
X113810802Y-118393002D01*
X113665000Y-118364000D01*
X108839000Y-118364000D01*
X108693198Y-118393002D01*
X108569592Y-118475592D01*
X108487002Y-118599198D01*
X108458000Y-118745000D01*
X108458000Y-121158000D01*
X105035236Y-121158000D01*
X105004348Y-121154958D01*
X104980631Y-121147763D01*
X104958784Y-121136086D01*
X104939632Y-121120368D01*
X104923914Y-121101216D01*
X104912237Y-121079369D01*
X104905042Y-121055652D01*
X104902000Y-121024764D01*
X104902000Y-107681735D01*
X110006432Y-107681735D01*
X110032509Y-107823817D01*
X110085686Y-107958127D01*
X110163938Y-108079551D01*
X110261400Y-108180476D01*
X110261400Y-108991782D01*
X110177001Y-109074432D01*
X110095389Y-109193623D01*
X110038483Y-109326397D01*
X110008449Y-109467695D01*
X110006432Y-109612135D01*
X110032509Y-109754217D01*
X110085686Y-109888527D01*
X110163938Y-110009951D01*
X110264285Y-110113863D01*
X110382904Y-110196305D01*
X110515277Y-110254138D01*
X110656362Y-110285157D01*
X110800785Y-110288183D01*
X110943045Y-110263098D01*
X111077723Y-110210860D01*
X111199690Y-110133457D01*
X111304300Y-110033838D01*
X111387569Y-109915798D01*
X111446324Y-109783832D01*
X111478328Y-109642967D01*
X111480631Y-109477973D01*
X111452573Y-109336269D01*
X111397526Y-109202714D01*
X111317586Y-109082395D01*
X111226600Y-108990772D01*
X111226600Y-108177431D01*
X111304300Y-108103438D01*
X111387569Y-107985398D01*
X111446324Y-107853432D01*
X111478328Y-107712567D01*
X111480631Y-107547573D01*
X111452573Y-107405869D01*
X111397526Y-107272314D01*
X111317586Y-107151995D01*
X111215798Y-107049494D01*
X111096040Y-106968716D01*
X110962872Y-106912737D01*
X110821368Y-106883691D01*
X110676917Y-106882682D01*
X110535021Y-106909750D01*
X110401085Y-106963864D01*
X110280210Y-107042962D01*
X110177001Y-107144032D01*
X110095389Y-107263223D01*
X110038483Y-107395997D01*
X110008449Y-107537295D01*
X110006432Y-107681735D01*
X104902000Y-107681735D01*
X104902000Y-96432659D01*
X108262909Y-96432659D01*
X108386549Y-97106321D01*
X108638683Y-97743139D01*
X109009707Y-98318855D01*
X109485489Y-98811542D01*
X110047906Y-99202432D01*
X110675536Y-99476637D01*
X111344473Y-99623712D01*
X112029238Y-99638056D01*
X112703747Y-99519122D01*
X113342309Y-99271440D01*
X113920602Y-98904444D01*
X114231915Y-98607985D01*
X136142331Y-98607985D01*
X136187291Y-98852953D01*
X136278976Y-99084523D01*
X136413894Y-99293875D01*
X136586905Y-99473033D01*
X136791420Y-99615175D01*
X137019650Y-99714886D01*
X137262899Y-99768368D01*
X137511905Y-99773584D01*
X137757181Y-99730335D01*
X137989385Y-99640269D01*
X138199673Y-99506816D01*
X138380035Y-99335059D01*
X138523602Y-99131541D01*
X138624903Y-98904014D01*
X138680082Y-98661143D01*
X138684054Y-98376670D01*
X138635678Y-98132354D01*
X138540769Y-97902086D01*
X138402942Y-97694639D01*
X138227445Y-97517913D01*
X138020965Y-97378641D01*
X137791366Y-97282126D01*
X137547393Y-97232046D01*
X137511211Y-97231793D01*
X137738078Y-97195510D01*
X137972653Y-97108569D01*
X138057631Y-97063146D01*
X138154373Y-96881178D01*
X137414000Y-96140805D01*
X136673627Y-96881178D01*
X136770369Y-97063146D01*
X136997716Y-97167539D01*
X137241059Y-97225573D01*
X137381779Y-97230890D01*
X137298340Y-97230307D01*
X137053691Y-97276976D01*
X136822767Y-97370276D01*
X136614363Y-97506652D01*
X136436416Y-97680910D01*
X136295706Y-97886412D01*
X136197590Y-98115332D01*
X136145808Y-98358949D01*
X136142331Y-98607985D01*
X114231915Y-98607985D01*
X114416598Y-98432114D01*
X114811405Y-97872439D01*
X115089985Y-97246738D01*
X115241726Y-96578844D01*
X115249274Y-96038249D01*
X136140182Y-96038249D01*
X136179690Y-96285278D01*
X136266631Y-96519853D01*
X136312054Y-96604831D01*
X136494022Y-96701573D01*
X137234395Y-95961200D01*
X137593605Y-95961200D01*
X138333978Y-96701573D01*
X138515946Y-96604831D01*
X138620339Y-96377484D01*
X138678373Y-96134141D01*
X138687818Y-95884151D01*
X138648310Y-95637122D01*
X138561369Y-95402547D01*
X138515946Y-95317569D01*
X138333978Y-95220827D01*
X137593605Y-95961200D01*
X137234395Y-95961200D01*
X136494022Y-95220827D01*
X136312054Y-95317569D01*
X136207661Y-95544916D01*
X136149627Y-95788259D01*
X136140182Y-96038249D01*
X115249274Y-96038249D01*
X115252650Y-95796543D01*
X115119616Y-95124672D01*
X115085221Y-95041222D01*
X136673627Y-95041222D01*
X137414000Y-95781595D01*
X138154373Y-95041222D01*
X138057631Y-94859254D01*
X137830284Y-94754861D01*
X137586941Y-94696827D01*
X137336951Y-94687382D01*
X137089922Y-94726890D01*
X136855347Y-94813831D01*
X136770369Y-94859254D01*
X136673627Y-95041222D01*
X115085221Y-95041222D01*
X114858615Y-94491437D01*
X114806605Y-94413155D01*
X139587652Y-94413155D01*
X139613729Y-94555237D01*
X139666906Y-94689547D01*
X139745158Y-94810971D01*
X139845505Y-94914883D01*
X139964124Y-94997325D01*
X140096497Y-95055158D01*
X140237582Y-95086177D01*
X140382005Y-95089203D01*
X140524265Y-95064118D01*
X140658943Y-95011880D01*
X140780910Y-94934477D01*
X140793256Y-94922720D01*
X141307696Y-94922720D01*
X142088592Y-95703616D01*
X142112709Y-95835017D01*
X142165886Y-95969327D01*
X142244138Y-96090751D01*
X142344485Y-96194663D01*
X142463104Y-96277105D01*
X142595477Y-96334938D01*
X142736562Y-96365957D01*
X142880985Y-96368983D01*
X143023245Y-96343898D01*
X143157923Y-96291660D01*
X143279890Y-96214257D01*
X143384500Y-96114638D01*
X143467769Y-95996598D01*
X143526524Y-95864632D01*
X143558528Y-95723767D01*
X143560831Y-95558773D01*
X143532773Y-95417069D01*
X143477726Y-95283514D01*
X143397786Y-95163195D01*
X143295998Y-95060694D01*
X143176240Y-94979916D01*
X143043072Y-94923937D01*
X142901568Y-94894891D01*
X142896277Y-94894854D01*
X141948532Y-93947108D01*
X141907707Y-93913574D01*
X141867299Y-93879668D01*
X141864667Y-93878221D01*
X141862343Y-93876312D01*
X141815790Y-93851351D01*
X141769558Y-93825934D01*
X141766695Y-93825026D01*
X141764045Y-93823605D01*
X141713583Y-93808178D01*
X141663242Y-93792209D01*
X141660252Y-93791874D01*
X141657381Y-93790996D01*
X141604903Y-93785665D01*
X141552399Y-93779776D01*
X141546521Y-93779735D01*
X141546415Y-93779724D01*
X141546317Y-93779733D01*
X141544420Y-93779720D01*
X140795248Y-93779720D01*
X140677260Y-93700136D01*
X140544092Y-93644157D01*
X140402588Y-93615111D01*
X140258137Y-93614102D01*
X140116241Y-93641170D01*
X139982305Y-93695284D01*
X139861430Y-93774382D01*
X139758221Y-93875452D01*
X139676609Y-93994643D01*
X139619703Y-94127417D01*
X139589669Y-94268715D01*
X139587652Y-94413155D01*
X114806605Y-94413155D01*
X114479589Y-93920957D01*
X113996975Y-93434962D01*
X113429155Y-93051962D01*
X112797758Y-92786547D01*
X112126832Y-92648826D01*
X111441934Y-92644044D01*
X110769151Y-92772384D01*
X110134109Y-93028958D01*
X109560997Y-93403992D01*
X109071644Y-93883202D01*
X108684690Y-94448334D01*
X108414874Y-95077863D01*
X108272472Y-95747811D01*
X108262909Y-96432659D01*
X104902000Y-96432659D01*
X104902000Y-88377735D01*
X139241832Y-88377735D01*
X139267909Y-88519817D01*
X139321086Y-88654127D01*
X139399338Y-88775551D01*
X139499685Y-88879463D01*
X139618304Y-88961905D01*
X139750677Y-89019738D01*
X139891762Y-89050757D01*
X140036185Y-89053783D01*
X140178445Y-89028698D01*
X140313123Y-88976460D01*
X140435090Y-88899057D01*
X140500164Y-88837088D01*
X140541085Y-88879463D01*
X140659704Y-88961905D01*
X140792077Y-89019738D01*
X140933162Y-89050757D01*
X140980645Y-89051752D01*
X140971049Y-89096895D01*
X140969032Y-89241335D01*
X140995109Y-89383417D01*
X141048286Y-89517727D01*
X141126538Y-89639151D01*
X141130564Y-89643320D01*
X141117649Y-89655968D01*
X141036037Y-89775159D01*
X140979131Y-89907933D01*
X140949097Y-90049231D01*
X140947080Y-90193671D01*
X140973157Y-90335753D01*
X141026334Y-90470063D01*
X141104586Y-90591487D01*
X141204933Y-90695399D01*
X141323552Y-90777841D01*
X141455925Y-90835674D01*
X141597010Y-90866693D01*
X141741433Y-90869719D01*
X141883693Y-90844634D01*
X142018371Y-90792396D01*
X142140338Y-90714993D01*
X142244948Y-90615374D01*
X142328217Y-90497334D01*
X142386972Y-90365368D01*
X142411198Y-90258737D01*
X144040439Y-90258737D01*
X144115849Y-90375751D01*
X144216196Y-90479663D01*
X144334815Y-90562105D01*
X144467188Y-90619938D01*
X144608273Y-90650957D01*
X144752696Y-90653983D01*
X144894956Y-90628898D01*
X145029634Y-90576660D01*
X145151601Y-90499257D01*
X145256211Y-90399638D01*
X145339480Y-90281598D01*
X145398235Y-90149632D01*
X145430239Y-90008767D01*
X145432542Y-89843773D01*
X145411638Y-89738198D01*
X145598250Y-89738198D01*
X145642576Y-89733852D01*
X145687025Y-89729963D01*
X145689464Y-89729254D01*
X145691987Y-89729007D01*
X145734650Y-89716126D01*
X145777473Y-89703685D01*
X145779725Y-89702518D01*
X145782155Y-89701784D01*
X145821545Y-89680840D01*
X145861093Y-89660340D01*
X145863074Y-89658759D01*
X145865317Y-89657566D01*
X145899875Y-89629381D01*
X145934702Y-89601579D01*
X145938238Y-89598093D01*
X145938306Y-89598037D01*
X145938358Y-89597974D01*
X145939500Y-89596848D01*
X145979494Y-89556854D01*
X146041678Y-89600073D01*
X146174051Y-89657906D01*
X146315136Y-89688925D01*
X146459559Y-89691951D01*
X146601819Y-89666866D01*
X146736497Y-89614628D01*
X146858464Y-89537225D01*
X146938256Y-89461240D01*
X146938256Y-90124394D01*
X146853857Y-90207044D01*
X146772245Y-90326235D01*
X146715339Y-90459009D01*
X146685305Y-90600307D01*
X146683288Y-90744747D01*
X146709365Y-90886829D01*
X146762542Y-91021139D01*
X146840794Y-91142563D01*
X146941141Y-91246475D01*
X147059760Y-91328917D01*
X147192133Y-91386750D01*
X147333218Y-91417769D01*
X147477641Y-91420795D01*
X147619901Y-91395710D01*
X147754579Y-91343472D01*
X147876546Y-91266069D01*
X147981156Y-91166450D01*
X148064425Y-91048410D01*
X148123180Y-90916444D01*
X148155184Y-90775579D01*
X148157487Y-90610585D01*
X148129429Y-90468881D01*
X148074382Y-90335326D01*
X147994442Y-90215007D01*
X147903456Y-90123384D01*
X147903456Y-88922361D01*
X147899110Y-88878035D01*
X147895221Y-88833586D01*
X147894512Y-88831147D01*
X147894265Y-88828624D01*
X147881380Y-88785948D01*
X147868943Y-88743139D01*
X147867776Y-88740888D01*
X147867042Y-88738456D01*
X147846088Y-88699048D01*
X147825598Y-88659518D01*
X147824017Y-88657537D01*
X147822824Y-88655294D01*
X147794639Y-88620736D01*
X147766837Y-88585909D01*
X147763351Y-88582373D01*
X147763295Y-88582305D01*
X147763232Y-88582253D01*
X147762106Y-88581111D01*
X147449174Y-88268179D01*
X150202115Y-88268179D01*
X150156251Y-88335161D01*
X150099345Y-88467935D01*
X150069311Y-88609233D01*
X150067294Y-88753673D01*
X150093371Y-88895755D01*
X150146548Y-89030065D01*
X150224800Y-89151489D01*
X150322262Y-89252414D01*
X150322262Y-89585595D01*
X148765962Y-91141895D01*
X148645105Y-91141051D01*
X148503209Y-91168119D01*
X148369273Y-91222233D01*
X148248398Y-91301331D01*
X148145189Y-91402401D01*
X148063577Y-91521592D01*
X148006671Y-91654366D01*
X147976637Y-91795664D01*
X147974620Y-91940104D01*
X148000697Y-92082186D01*
X148053874Y-92216496D01*
X148123936Y-92325212D01*
X147047491Y-92325212D01*
X147017654Y-92295166D01*
X146897896Y-92214388D01*
X146764728Y-92158409D01*
X146623224Y-92129363D01*
X146478773Y-92128354D01*
X146336877Y-92155422D01*
X146202941Y-92209536D01*
X146082066Y-92288634D01*
X145978857Y-92389704D01*
X145897245Y-92508895D01*
X145840339Y-92641669D01*
X145810305Y-92782967D01*
X145808288Y-92927407D01*
X145834365Y-93069489D01*
X145887542Y-93203799D01*
X145965794Y-93325223D01*
X146066141Y-93429135D01*
X146119487Y-93466211D01*
X146093318Y-93527269D01*
X146063284Y-93668567D01*
X146061267Y-93813007D01*
X146087344Y-93955089D01*
X146140521Y-94089399D01*
X146199330Y-94180653D01*
X146129473Y-94265095D01*
X146058740Y-94395913D01*
X146014764Y-94537979D01*
X145999219Y-94685880D01*
X146012697Y-94833985D01*
X146054686Y-94976650D01*
X146123586Y-95108443D01*
X146216772Y-95224343D01*
X146330695Y-95319936D01*
X146461016Y-95391581D01*
X146602771Y-95436548D01*
X146750561Y-95453126D01*
X146761200Y-95453200D01*
X150367996Y-95453200D01*
X150438110Y-95446325D01*
X150508166Y-95440196D01*
X150512009Y-95439080D01*
X150516003Y-95438688D01*
X150583456Y-95418323D01*
X150650978Y-95398706D01*
X150654534Y-95396863D01*
X150658372Y-95395704D01*
X150720549Y-95362644D01*
X150783010Y-95330267D01*
X150786140Y-95327768D01*
X150789680Y-95325886D01*
X150844227Y-95281399D01*
X150899236Y-95237486D01*
X150904811Y-95231988D01*
X150904927Y-95231893D01*
X150905016Y-95231785D01*
X150906811Y-95230015D01*
X152202215Y-93934611D01*
X152296611Y-93819693D01*
X152366886Y-93688629D01*
X152410366Y-93546411D01*
X152425395Y-93398456D01*
X152411400Y-93250399D01*
X152368914Y-93107881D01*
X152299554Y-92976330D01*
X152205964Y-92860756D01*
X152091707Y-92765560D01*
X151961137Y-92694371D01*
X151819226Y-92649899D01*
X151671380Y-92633838D01*
X151523230Y-92646799D01*
X151380418Y-92688290D01*
X151248386Y-92756729D01*
X151132160Y-92849510D01*
X151124585Y-92856981D01*
X151021178Y-92960388D01*
X151012727Y-92939885D01*
X150932787Y-92819566D01*
X150830999Y-92717065D01*
X150711241Y-92636287D01*
X150578073Y-92580308D01*
X150436569Y-92551262D01*
X150292118Y-92550253D01*
X150272745Y-92553949D01*
X150234157Y-92460326D01*
X150154217Y-92340007D01*
X150052429Y-92237506D01*
X149932671Y-92156728D01*
X149799503Y-92100749D01*
X149657999Y-92071703D01*
X149513548Y-92070694D01*
X149419788Y-92088580D01*
X149446516Y-91970936D01*
X149448563Y-91824294D01*
X151146112Y-90126745D01*
X151174407Y-90092298D01*
X151203062Y-90058148D01*
X151204284Y-90055925D01*
X151205895Y-90053964D01*
X151226977Y-90014647D01*
X151248437Y-89975611D01*
X151249203Y-89973195D01*
X151250404Y-89970956D01*
X151263447Y-89928293D01*
X151276916Y-89885833D01*
X151277199Y-89883312D01*
X151277941Y-89880884D01*
X151282446Y-89836529D01*
X151287415Y-89792233D01*
X151287450Y-89787273D01*
X151287459Y-89787180D01*
X151287451Y-89787094D01*
X151287462Y-89785495D01*
X151287462Y-89249369D01*
X151365162Y-89175376D01*
X151448431Y-89057336D01*
X151507186Y-88925370D01*
X151539190Y-88784505D01*
X151541493Y-88619511D01*
X151522309Y-88522627D01*
X151659265Y-88498477D01*
X151793943Y-88446239D01*
X151915910Y-88368836D01*
X152020520Y-88269217D01*
X152103789Y-88151177D01*
X152160867Y-88022977D01*
X152226002Y-88037297D01*
X152370425Y-88040323D01*
X152512685Y-88015238D01*
X152647363Y-87963000D01*
X152769330Y-87885597D01*
X152873940Y-87785978D01*
X152957209Y-87667938D01*
X153015964Y-87535972D01*
X153047968Y-87395107D01*
X153050271Y-87230113D01*
X153022213Y-87088409D01*
X152967166Y-86954854D01*
X152887226Y-86834535D01*
X152785438Y-86732034D01*
X152665680Y-86651256D01*
X152532512Y-86595277D01*
X152391008Y-86566231D01*
X152250608Y-86565250D01*
X152230694Y-86548541D01*
X152228471Y-86547319D01*
X152226510Y-86545708D01*
X152187193Y-86524626D01*
X152148157Y-86503166D01*
X152145741Y-86502400D01*
X152143502Y-86501199D01*
X152100839Y-86488156D01*
X152058379Y-86474687D01*
X152055858Y-86474404D01*
X152053430Y-86473662D01*
X152009075Y-86469157D01*
X151964779Y-86464188D01*
X151959819Y-86464153D01*
X151959726Y-86464144D01*
X151959640Y-86464152D01*
X151958041Y-86464141D01*
X151315839Y-86464141D01*
X151271513Y-86468487D01*
X151227064Y-86472376D01*
X151224625Y-86473085D01*
X151222102Y-86473332D01*
X151179426Y-86486217D01*
X151136617Y-86498654D01*
X151134366Y-86499821D01*
X151131934Y-86500555D01*
X151092526Y-86521509D01*
X151052996Y-86541999D01*
X151051015Y-86543580D01*
X151048772Y-86544773D01*
X151014214Y-86572958D01*
X150979387Y-86600760D01*
X150975851Y-86604246D01*
X150975783Y-86604302D01*
X150975731Y-86604365D01*
X150974589Y-86605491D01*
X150740020Y-86840060D01*
X140972540Y-86840060D01*
X140928214Y-86844406D01*
X140883765Y-86848295D01*
X140881326Y-86849004D01*
X140878803Y-86849251D01*
X140836140Y-86862132D01*
X140793317Y-86874573D01*
X140791065Y-86875740D01*
X140788635Y-86876474D01*
X140749245Y-86897418D01*
X140709697Y-86917918D01*
X140707716Y-86919499D01*
X140705473Y-86920692D01*
X140670915Y-86948877D01*
X140636088Y-86976679D01*
X140632552Y-86980165D01*
X140632484Y-86980221D01*
X140632432Y-86980284D01*
X140631290Y-86981410D01*
X140033174Y-87579526D01*
X139912317Y-87578682D01*
X139770421Y-87605750D01*
X139636485Y-87659864D01*
X139515610Y-87738962D01*
X139412401Y-87840032D01*
X139330789Y-87959223D01*
X139273883Y-88091997D01*
X139243849Y-88233295D01*
X139241832Y-88377735D01*
X104902000Y-88377735D01*
X104902000Y-87255236D01*
X104905042Y-87224348D01*
X104912237Y-87200631D01*
X104923914Y-87178784D01*
X104939632Y-87159632D01*
X104958784Y-87143914D01*
X104980631Y-87132237D01*
X105004348Y-87125042D01*
X105035236Y-87122000D01*
X139471400Y-87122000D01*
X139483849Y-87121388D01*
X139533402Y-87116507D01*
X139557819Y-87111651D01*
X139605468Y-87097197D01*
X139628469Y-87087669D01*
X139672382Y-87064197D01*
X139693083Y-87050365D01*
X139731573Y-87018777D01*
X139749177Y-87001173D01*
X139780765Y-86962683D01*
X139794597Y-86941982D01*
X139818069Y-86898069D01*
X139827597Y-86875068D01*
X139842051Y-86827419D01*
X139846907Y-86803002D01*
X139851788Y-86753449D01*
X139852400Y-86741000D01*
X139852400Y-85900525D01*
X154549630Y-85900525D01*
X154575707Y-86042607D01*
X154628884Y-86176917D01*
X154707136Y-86298341D01*
X154804598Y-86399266D01*
X154804598Y-87100992D01*
X154720199Y-87183642D01*
X154638587Y-87302833D01*
X154581681Y-87435607D01*
X154551647Y-87576905D01*
X154549630Y-87721345D01*
X154575707Y-87863427D01*
X154628884Y-87997737D01*
X154707136Y-88119161D01*
X154807483Y-88223073D01*
X154926102Y-88305515D01*
X155058475Y-88363348D01*
X155199560Y-88394367D01*
X155343983Y-88397393D01*
X155486243Y-88372308D01*
X155620921Y-88320070D01*
X155742888Y-88242667D01*
X155847498Y-88143048D01*
X155930767Y-88025008D01*
X155989522Y-87893042D01*
X156021526Y-87752177D01*
X156023829Y-87587183D01*
X155995771Y-87445479D01*
X155940724Y-87311924D01*
X155860784Y-87191605D01*
X155769798Y-87099982D01*
X155769798Y-86396221D01*
X155847498Y-86322228D01*
X155930767Y-86204188D01*
X155989522Y-86072222D01*
X156021526Y-85931357D01*
X156023829Y-85766363D01*
X155995771Y-85624659D01*
X155940724Y-85491104D01*
X155860784Y-85370785D01*
X155758996Y-85268284D01*
X155639238Y-85187506D01*
X155506070Y-85131527D01*
X155364566Y-85102481D01*
X155220115Y-85101472D01*
X155078219Y-85128540D01*
X154944283Y-85182654D01*
X154823408Y-85261752D01*
X154720199Y-85362822D01*
X154638587Y-85482013D01*
X154581681Y-85614787D01*
X154551647Y-85756085D01*
X154549630Y-85900525D01*
X139852400Y-85900525D01*
X139852400Y-85050335D01*
X157352032Y-85050335D01*
X157378109Y-85192417D01*
X157431286Y-85326727D01*
X157509538Y-85448151D01*
X157609885Y-85552063D01*
X157728504Y-85634505D01*
X157860877Y-85692338D01*
X158001962Y-85723357D01*
X158146385Y-85726383D01*
X158288645Y-85701298D01*
X158423323Y-85649060D01*
X158545290Y-85571657D01*
X158649900Y-85472038D01*
X158650632Y-85471000D01*
X158903203Y-85471000D01*
X158981485Y-85552063D01*
X159100104Y-85634505D01*
X159232477Y-85692338D01*
X159373562Y-85723357D01*
X159517985Y-85726383D01*
X159660245Y-85701298D01*
X159794923Y-85649060D01*
X159916890Y-85571657D01*
X160021500Y-85472038D01*
X160104769Y-85353998D01*
X160163524Y-85222032D01*
X160195528Y-85081167D01*
X160197831Y-84916173D01*
X160169773Y-84774469D01*
X160114726Y-84640914D01*
X160034786Y-84520595D01*
X159932998Y-84418094D01*
X159813240Y-84337316D01*
X159680072Y-84281337D01*
X159538568Y-84252291D01*
X159394117Y-84251282D01*
X159252221Y-84278350D01*
X159118285Y-84332464D01*
X158997410Y-84411562D01*
X158901178Y-84505800D01*
X158648494Y-84505800D01*
X158561398Y-84418094D01*
X158441640Y-84337316D01*
X158308472Y-84281337D01*
X158166968Y-84252291D01*
X158022517Y-84251282D01*
X157880621Y-84278350D01*
X157746685Y-84332464D01*
X157625810Y-84411562D01*
X157522601Y-84512632D01*
X157440989Y-84631823D01*
X157384083Y-84764597D01*
X157354049Y-84905895D01*
X157352032Y-85050335D01*
X139852400Y-85050335D01*
X139852400Y-80905236D01*
X139855442Y-80874348D01*
X139862637Y-80850631D01*
X139874314Y-80828784D01*
X139890032Y-80809632D01*
X139909184Y-80793914D01*
X139931031Y-80782237D01*
X139954748Y-80775042D01*
X139985636Y-80772000D01*
X185393735Y-80772000D01*
X185425029Y-80774590D01*
G36*
X159284449Y-120059495D02*
X159282432Y-120203935D01*
X159308509Y-120346017D01*
X159328300Y-120396004D01*
X157835596Y-120396004D01*
X157791270Y-120400350D01*
X157746821Y-120404239D01*
X157744382Y-120404948D01*
X157741859Y-120405195D01*
X157699196Y-120418076D01*
X157656373Y-120430517D01*
X157654121Y-120431684D01*
X157651691Y-120432418D01*
X157612301Y-120453362D01*
X157572753Y-120473862D01*
X157570772Y-120475443D01*
X157568529Y-120476636D01*
X157533971Y-120504821D01*
X157499144Y-120532623D01*
X157495608Y-120536109D01*
X157495540Y-120536165D01*
X157495488Y-120536228D01*
X157494346Y-120537354D01*
X156873700Y-121158000D01*
X147723906Y-121158000D01*
X147723161Y-121157067D01*
X147721968Y-121154824D01*
X147693783Y-121120266D01*
X147665981Y-121085439D01*
X147662495Y-121081903D01*
X147662439Y-121081835D01*
X147662376Y-121081783D01*
X147661250Y-121080641D01*
X146775021Y-120194412D01*
X146776760Y-120069793D01*
X146752334Y-119946430D01*
X159308482Y-119946430D01*
X159284449Y-120059495D01*
X159284449Y-120059495D01*
G37*
X159284449Y-120059495D02*
X159282432Y-120203935D01*
X159308509Y-120346017D01*
X159328300Y-120396004D01*
X157835596Y-120396004D01*
X157791270Y-120400350D01*
X157746821Y-120404239D01*
X157744382Y-120404948D01*
X157741859Y-120405195D01*
X157699196Y-120418076D01*
X157656373Y-120430517D01*
X157654121Y-120431684D01*
X157651691Y-120432418D01*
X157612301Y-120453362D01*
X157572753Y-120473862D01*
X157570772Y-120475443D01*
X157568529Y-120476636D01*
X157533971Y-120504821D01*
X157499144Y-120532623D01*
X157495608Y-120536109D01*
X157495540Y-120536165D01*
X157495488Y-120536228D01*
X157494346Y-120537354D01*
X156873700Y-121158000D01*
X147723906Y-121158000D01*
X147723161Y-121157067D01*
X147721968Y-121154824D01*
X147693783Y-121120266D01*
X147665981Y-121085439D01*
X147662495Y-121081903D01*
X147662439Y-121081835D01*
X147662376Y-121081783D01*
X147661250Y-121080641D01*
X146775021Y-120194412D01*
X146776760Y-120069793D01*
X146752334Y-119946430D01*
X159308482Y-119946430D01*
X159284449Y-120059495D01*
G36*
X113538000Y-121158000D02*
X108966000Y-121158000D01*
X108966000Y-118872000D01*
X113538000Y-118872000D01*
X113538000Y-121158000D01*
X113538000Y-121158000D01*
G37*
X113538000Y-121158000D02*
X108966000Y-121158000D01*
X108966000Y-118872000D01*
X113538000Y-118872000D01*
X113538000Y-121158000D01*
M02*
