M48
; DRILL file {KiCad 5.1.10} date Sun Oct 31 11:36:25 2021
; FORMAT={-:-/ absolute / inch / decimal}
; #@! TF.CreationDate,2021-10-31T11:36:25+01:00
; #@! TF.GenerationSoftware,Kicad,Pcbnew,5.1.10
; #@! TF.FileFunction,Plated,1,2,PTH
FMAT,2
INCH
T1C0.0120
T2C0.0394
%
G90
G05
T1
X4.15Y-3.9
X4.15Y-3.95
X4.15Y-4.0
X4.15Y-4.05
X4.15Y-4.1
X4.15Y-4.15
X4.15Y-4.2
X4.15Y-4.25
X4.15Y-4.3
X4.15Y-4.35
X4.15Y-4.4
X4.15Y-4.45
X4.15Y-4.5
X4.15Y-4.55
X4.15Y-4.6
X4.15Y-4.65
X4.15Y-4.7
X4.15Y-4.75
X4.3Y-4.7
X4.3Y-4.75
X4.35Y-4.7
X4.35Y-4.75
X4.36Y-4.237
X4.36Y-4.313
X4.4Y-4.7
X4.4Y-4.75
X4.45Y-4.7
X4.45Y-4.75
X4.525Y-3.495
X4.625Y-4.361
X4.704Y-3.917
X4.7234Y-4.4137
X4.724Y-4.632
X4.7303Y-4.7613
X4.7693Y-4.717
X4.775Y-3.913
X4.7825Y-4.4141
X4.783Y-4.632
X4.8109Y-4.756
X4.811Y-4.793
X4.82Y-4.205
X4.855Y-4.595
X4.9006Y-4.4141
X4.9272Y-4.6041
X4.94Y-4.716
X4.9508Y-4.6312
X4.976Y-4.717
X4.999Y-4.4141
X5.0124Y-4.713
X5.034Y-4.743
X5.036Y-4.628
X5.118Y-4.628
X5.1236Y-4.4284
X5.157Y-4.73
X5.177Y-4.619
X5.199Y-4.378
X5.201Y-4.762
X5.217Y-4.655
X5.327Y-4.508
X5.331Y-4.657
X5.335Y-4.071
X5.388Y-4.788
X5.413Y-4.638
X5.4427Y-4.788
X5.511Y-3.477
X5.5246Y-3.7146
X5.552Y-3.477
X5.56Y-3.23
X5.5663Y-4.6886
X5.569Y-4.4564
X5.5727Y-4.724
X5.5781Y-3.5485
X5.579Y-3.511
X5.621Y-4.696
X5.623Y-3.765
X5.63Y-4.735
X5.639Y-3.487
X5.639Y-3.563
X5.6456Y-3.3049
X5.674Y-4.701
X5.6795Y-4.0411
X5.6908Y-3.9543
X5.6967Y-3.54
X5.6969Y-4.6159
X5.7054Y-4.0148
X5.7313Y-3.9651
X5.737Y-4.114
X5.743Y-4.0771
X5.7496Y-4.73
X5.7639Y-3.5021
X5.7695Y-3.6561
X5.7724Y-4.6177
X5.778Y-3.728
X5.7795Y-3.691
X5.8002Y-4.4562
X5.804Y-3.5702
X5.843Y-4.0317
X5.843Y-4.068
X5.8548Y-3.6173
X5.8733Y-4.2123
X5.88Y-4.11
X5.8827Y-4.4655
X5.889Y-3.6539
X5.9Y-3.775
X5.9Y-3.825
X5.903Y-4.281
X5.9197Y-3.6727
X5.9372Y-3.4918
X5.9446Y-4.6356
X5.95Y-3.775
X5.95Y-3.825
X5.95Y-3.875
X5.95Y-4.1
X5.95Y-4.15
X5.961Y-3.21
X5.963Y-3.4561
X5.971Y-3.677
X5.9966Y-3.4371
X6.0Y-3.21
X6.0Y-4.1
X6.0Y-4.15
X6.001Y-4.461
X6.035Y-3.21
X6.044Y-4.46
X6.06Y-4.745
X6.085Y-4.48
X6.085Y-4.53
X6.085Y-4.58
X6.085Y-4.63
X6.104Y-4.305
X6.1054Y-3.825
X6.11Y-4.745
X6.1137Y-3.3795
X6.1137Y-3.4512
X6.135Y-3.255
X6.15Y-4.1
X6.15Y-4.15
X6.16Y-4.745
X6.18Y-3.255
X6.2Y-4.15
X6.2054Y-3.8253
X6.2145Y-3.9348
X6.223Y-4.4244
X6.224Y-3.346
X6.23Y-3.255
X6.2311Y-3.8508
X6.237Y-3.808
X6.2433Y-3.9868
X6.267Y-3.8544
X6.278Y-3.346
X6.28Y-3.255
X6.2893Y-3.8826
X6.3Y-4.73
X6.33Y-3.255
X6.355Y-4.475
X6.37Y-3.28
X6.4Y-3.31
X6.42Y-3.235
X6.424Y-3.731
X6.425Y-3.35
X6.425Y-3.4
X6.425Y-3.45
X6.425Y-3.5
X6.425Y-3.55
X6.435Y-3.595
X6.4482Y-3.82
X6.4496Y-4.2474
X6.455Y-3.27
X6.456Y-3.8551
X6.47Y-3.63
X6.48Y-3.68
X6.485Y-3.325
X6.485Y-3.385
X6.485Y-3.445
X6.485Y-3.505
X6.49Y-4.747
X6.4997Y-4.4113
X6.5Y-3.55
X6.51Y-4.7132
X6.51Y-3.19
X6.5231Y-4.6286
X6.54Y-3.59
X6.559Y-4.412
X6.565Y-3.205
X6.567Y-4.73
X6.574Y-4.775
X6.581Y-4.6286
X6.603Y-4.097
X6.618Y-4.464
X6.618Y-4.527
X6.618Y-4.628
X6.6184Y-4.4118
X6.62Y-3.215
X6.62Y-3.265
X6.62Y-3.315
X6.625Y-3.4
X6.625Y-3.7
X6.63Y-3.76
X6.63Y-3.81
X6.637Y-4.757
X6.67Y-3.315
X6.675Y-3.4
X6.675Y-3.45
X6.675Y-3.5
X6.675Y-3.55
X6.675Y-3.6
X6.675Y-3.65
X6.675Y-3.7
X6.6755Y-4.7853
X6.677Y-4.628
X6.6771Y-4.4117
X6.68Y-3.76
X6.7105Y-4.746
X6.7184Y-4.7811
X6.72Y-3.315
X6.73Y-3.76
X6.7517Y-3.5422
X6.761Y-4.7945
X6.765Y-3.34
X6.775Y-3.725
X6.7755Y-4.4117
X6.7814Y-4.628
X6.7931Y-4.73
X6.8345Y-4.4117
X6.8346Y-4.464
X6.8348Y-4.5352
X6.835Y-4.628
X6.854Y-4.713
X6.8937Y-4.4116
X6.9Y-4.6234
X6.913Y-4.714
X6.942Y-4.752
X6.959Y-4.6262
X6.986Y-4.662
X7.011Y-4.752
X7.05Y-4.451
X7.26Y-4.597
X7.265Y-4.68
X7.305Y-4.68
X7.345Y-4.72
X7.345Y-4.68
X7.345Y-4.76
T2
X5.4105Y-3.778
X5.4105Y-3.878
T0
M30
