G04 #@! TF.GenerationSoftware,KiCad,Pcbnew,5.1.10*
G04 #@! TF.CreationDate,2021-10-31T11:36:16+01:00*
G04 #@! TF.ProjectId,mega-wifi,6d656761-2d77-4696-9669-2e6b69636164,A1*
G04 #@! TF.SameCoordinates,Original*
G04 #@! TF.FileFunction,Copper,L2,Bot*
G04 #@! TF.FilePolarity,Positive*
%FSLAX46Y46*%
G04 Gerber Fmt 4.6, Leading zero omitted, Abs format (unit mm)*
G04 Created by KiCad (PCBNEW 5.1.10) date 2021-10-31 11:36:16*
%MOMM*%
%LPD*%
G01*
G04 APERTURE LIST*
G04 #@! TA.AperFunction,ComponentPad*
%ADD10O,1.700000X1.700000*%
G04 #@! TD*
G04 #@! TA.AperFunction,ComponentPad*
%ADD11C,1.700000*%
G04 #@! TD*
G04 #@! TA.AperFunction,SMDPad,CuDef*
%ADD12R,1.778000X6.985000*%
G04 #@! TD*
G04 #@! TA.AperFunction,ViaPad*
%ADD13C,0.711200*%
G04 #@! TD*
G04 #@! TA.AperFunction,Conductor*
%ADD14C,0.762000*%
G04 #@! TD*
G04 #@! TA.AperFunction,Conductor*
%ADD15C,0.254000*%
G04 #@! TD*
G04 #@! TA.AperFunction,Conductor*
%ADD16C,0.381000*%
G04 #@! TD*
G04 #@! TA.AperFunction,Conductor*
%ADD17C,0.203200*%
G04 #@! TD*
G04 #@! TA.AperFunction,Conductor*
%ADD18C,0.100000*%
G04 #@! TD*
G04 APERTURE END LIST*
D10*
X137426700Y-95961200D03*
D11*
X137426700Y-98501200D03*
D12*
X106680000Y-126238000D03*
X111760000Y-126238000D03*
X114300000Y-126238000D03*
X109220000Y-126238000D03*
X116840000Y-126238000D03*
X180340000Y-126238000D03*
X177800000Y-126238000D03*
X182880000Y-126238000D03*
X175260000Y-126238000D03*
X185420000Y-126238000D03*
X119380000Y-126238000D03*
X121920000Y-126238000D03*
X124460000Y-126238000D03*
X127000000Y-126238000D03*
X129540000Y-126238000D03*
X132080000Y-126238000D03*
X134620000Y-126238000D03*
X137160000Y-126238000D03*
X139700000Y-126238000D03*
X142240000Y-126238000D03*
X144780000Y-126238000D03*
X147320000Y-126238000D03*
X149860000Y-126238000D03*
X152400000Y-126238000D03*
X154940000Y-126238000D03*
X157480000Y-126238000D03*
X160020000Y-126238000D03*
X162560000Y-126238000D03*
X165100000Y-126238000D03*
X167640000Y-126238000D03*
X170180000Y-126238000D03*
X172720000Y-126238000D03*
D13*
X109220000Y-119380000D03*
X110490000Y-119380000D03*
X111760000Y-119380000D03*
X113030000Y-119380000D03*
X113030000Y-120650000D03*
X111760000Y-120650000D03*
X110490000Y-120650000D03*
X109220000Y-120650000D03*
X149420294Y-113424832D03*
X117475000Y-110769400D03*
X154559000Y-113792000D03*
X154559000Y-115062000D03*
X154559000Y-116332000D03*
X154559000Y-117602000D03*
X153924000Y-120523000D03*
X155194000Y-120523000D03*
X156464000Y-120523000D03*
X131495800Y-117322600D03*
X129997200Y-117551200D03*
X127914400Y-117551200D03*
X123317000Y-116713000D03*
X137490200Y-117805200D03*
X114935000Y-88773000D03*
X122428000Y-106807000D03*
X168148000Y-81661002D03*
X168148000Y-82931000D03*
X168148000Y-84201000D03*
X169418000Y-84201000D03*
X170688000Y-84201000D03*
X168402000Y-96774000D03*
X168402000Y-95504000D03*
X169672000Y-95504000D03*
X170942000Y-95504000D03*
X172085000Y-94615000D03*
X166751000Y-81407000D03*
X165354000Y-81026000D03*
X171831000Y-84836000D03*
X168275000Y-93980000D03*
X169545000Y-93980000D03*
X168275000Y-86360000D03*
X169545000Y-86360000D03*
X161416994Y-113665000D03*
X184531000Y-118872000D03*
X172248018Y-117551145D03*
X163982919Y-97919330D03*
X151409400Y-81534000D03*
X164338000Y-92202000D03*
X163449000Y-91313000D03*
X164592000Y-93472000D03*
X162560000Y-84074000D03*
X161798000Y-83312000D03*
X160782000Y-82677000D03*
X159512000Y-82677000D03*
X158242000Y-82677000D03*
X143230600Y-90500200D03*
X121476485Y-112117381D03*
X121488200Y-117652769D03*
X119989512Y-117652769D03*
X119973484Y-112108971D03*
X124474249Y-112119203D03*
X126975324Y-112118329D03*
X130140401Y-112481560D03*
X132054600Y-111201200D03*
X141224000Y-82042000D03*
X143398448Y-83945134D03*
X167157400Y-117566188D03*
X152400000Y-81534000D03*
X153289004Y-81534000D03*
X156972000Y-82677000D03*
X155829000Y-82677000D03*
X166116000Y-91186000D03*
X163068000Y-82169000D03*
X163957000Y-83058000D03*
X164719000Y-84455000D03*
X164719000Y-85979000D03*
X164719000Y-87503000D03*
X164719000Y-89027000D03*
X165100000Y-90170000D03*
X163195000Y-85090000D03*
X163195000Y-86360000D03*
X163195000Y-87630000D03*
X163195000Y-88900000D03*
X163195000Y-90170000D03*
X169545000Y-92710000D03*
X169545000Y-91440000D03*
X169545000Y-87630000D03*
X169545000Y-88900000D03*
X169545000Y-90170000D03*
X157480000Y-105410000D03*
X156210000Y-105410000D03*
X156210000Y-104140000D03*
X152400000Y-104140000D03*
X152400000Y-105410000D03*
X151130000Y-105410000D03*
X151130000Y-104140000D03*
X151130000Y-98425000D03*
X149860000Y-97155000D03*
X151130000Y-97155000D03*
X151130000Y-95885000D03*
X149860000Y-95885000D03*
X163819840Y-107883696D03*
X135509000Y-103403400D03*
X167716200Y-104063800D03*
X169595800Y-117551253D03*
X175260420Y-117434659D03*
X146619782Y-117290059D03*
X105410000Y-99060000D03*
X105410000Y-100330000D03*
X105410000Y-101600000D03*
X105410000Y-102870000D03*
X105410000Y-104140000D03*
X105410000Y-105410000D03*
X105410000Y-106680000D03*
X105410000Y-107950000D03*
X105410000Y-109220000D03*
X105410000Y-110490000D03*
X105410000Y-111760000D03*
X105410000Y-113030000D03*
X105410000Y-114300000D03*
X105410000Y-115570000D03*
X105410000Y-116840000D03*
X105410000Y-118110000D03*
X105410000Y-119380000D03*
X105410000Y-120650000D03*
X184404000Y-116763800D03*
X179070000Y-113055400D03*
X175099459Y-112054930D03*
X172097234Y-112056768D03*
X169598249Y-112055932D03*
X166598600Y-112064800D03*
X171492956Y-89970763D03*
X135305800Y-114503200D03*
X147324392Y-113186351D03*
X141453604Y-113191678D03*
X185547000Y-118872000D03*
X186563000Y-118872000D03*
X186563000Y-120904000D03*
X186562997Y-119887997D03*
X142824200Y-95631000D03*
X140325220Y-94351220D03*
X155041600Y-109347000D03*
X158580521Y-101264165D03*
X146761200Y-94691200D03*
X163783871Y-97026846D03*
X151663400Y-93395796D03*
X168097200Y-117551219D03*
X168097200Y-114985800D03*
X173604613Y-115193385D03*
X168097200Y-113385611D03*
X168107647Y-112060731D03*
X173600000Y-113385611D03*
X173597346Y-112056676D03*
X173609000Y-117551200D03*
X122197046Y-120802392D03*
X126390048Y-119811790D03*
X122199398Y-121742200D03*
X125476000Y-119786400D03*
X158064200Y-112379586D03*
X150993220Y-117744620D03*
X144701260Y-117243860D03*
X165092485Y-112048112D03*
X125150727Y-116943221D03*
X177444400Y-118414800D03*
X125751133Y-117632903D03*
X121140410Y-119811800D03*
X127314985Y-119709604D03*
X170445879Y-120548420D03*
X170646448Y-121440565D03*
X171729277Y-121780279D03*
X120150476Y-120937878D03*
X127863600Y-120472200D03*
X141383538Y-119090030D03*
X130987800Y-120142000D03*
X141547795Y-119989568D03*
X132105400Y-120954780D03*
X142773398Y-119278401D03*
X136855200Y-121615220D03*
X143002000Y-120269000D03*
X138245318Y-121615220D03*
X144119590Y-119405400D03*
X146040129Y-120142020D03*
X175590200Y-119735600D03*
X165353670Y-119715337D03*
X164846020Y-120573781D03*
X174091600Y-119710220D03*
X166801816Y-120142020D03*
X166979580Y-121285000D03*
X172545387Y-120141854D03*
X168579800Y-120827800D03*
X169558284Y-121546797D03*
X141020800Y-88315800D03*
X151460220Y-87785579D03*
X139979400Y-88315800D03*
X152313640Y-87302340D03*
X146545856Y-92865472D03*
X149580631Y-92807812D03*
X144695911Y-89916000D03*
X141684648Y-90131736D03*
X141706600Y-89179400D03*
X146402774Y-88953968D03*
X146798835Y-93751072D03*
X150359201Y-93287371D03*
X160020000Y-120142000D03*
X165685824Y-117566188D03*
X176758580Y-117504637D03*
X110744000Y-107619800D03*
X110744000Y-109550200D03*
X135407400Y-118287800D03*
X121285000Y-99390200D03*
X119481600Y-99491800D03*
X132511800Y-118237000D03*
X176326800Y-120700796D03*
X178079420Y-120700800D03*
X155287198Y-87659410D03*
X155287198Y-85838590D03*
X153517600Y-113284010D03*
X163169600Y-94767400D03*
X152425400Y-113309400D03*
X157848834Y-99943343D03*
X159461200Y-84988400D03*
X158089600Y-84988400D03*
X159180591Y-97901216D03*
X148412169Y-102404186D03*
X147420856Y-90682812D03*
X144259825Y-102644025D03*
X143230600Y-88569800D03*
X157618078Y-97162963D03*
X145575263Y-100712494D03*
X158419796Y-96723200D03*
X144545713Y-100440187D03*
X158270770Y-97809700D03*
X144916405Y-101975658D03*
X150804862Y-88691738D03*
X148712188Y-91878169D03*
X155078024Y-97155000D03*
X145872117Y-103559162D03*
X149352000Y-104394000D03*
X145719800Y-104495600D03*
X149936200Y-108737400D03*
X149180994Y-106991594D03*
X159748566Y-98617843D03*
X148412169Y-103327169D03*
D14*
X111760000Y-119380000D02*
X110490000Y-119380000D01*
X113030000Y-120650000D02*
X113030000Y-119380000D01*
X110490000Y-120650000D02*
X111760000Y-120650000D01*
X109220000Y-120878600D02*
X109220000Y-120650000D01*
X109220000Y-126238000D02*
X109220000Y-120878600D01*
D15*
X154559000Y-115062000D02*
X154559000Y-113792000D01*
X154559000Y-117602000D02*
X154559000Y-116332000D01*
X155448000Y-120523000D02*
X155194000Y-120523000D01*
X156464000Y-120523000D02*
X155448000Y-120523000D01*
D14*
X168148000Y-82931000D02*
X168148000Y-81661002D01*
X168650894Y-84201000D02*
X168148000Y-84201000D01*
X168910000Y-84201000D02*
X168650894Y-84201000D01*
X169164000Y-83947000D02*
X168910000Y-84201000D01*
X169418000Y-84201000D02*
X168148000Y-84201000D01*
X171043599Y-84556599D02*
X170688000Y-84201000D01*
X171323000Y-84836000D02*
X171043599Y-84556599D01*
X171831000Y-84836000D02*
X171323000Y-84836000D01*
X169672000Y-95504000D02*
X168402000Y-95504000D01*
X172085000Y-94615000D02*
X171831000Y-94615000D01*
X171831000Y-94615000D02*
X170942000Y-95504000D01*
X166248106Y-81407000D02*
X166751000Y-81407000D01*
X165735000Y-81407000D02*
X166248106Y-81407000D01*
X165354000Y-81026000D02*
X165735000Y-81407000D01*
X169545000Y-93980000D02*
X168275000Y-93980000D01*
X169545000Y-86360000D02*
X168275000Y-86360000D01*
X184531000Y-118872000D02*
X185547000Y-118872000D01*
X184531000Y-118872000D02*
X185420000Y-119761000D01*
X185420000Y-119761000D02*
X185420000Y-126238000D01*
X163449000Y-91313000D02*
X163449000Y-92329000D01*
X163449000Y-92329000D02*
X164592000Y-93472000D01*
X163449000Y-91313000D02*
X163195000Y-91059000D01*
X163195000Y-91059000D02*
X163195000Y-90170000D01*
X159512000Y-82677000D02*
X160782000Y-82677000D01*
X158242000Y-82677000D02*
X159512000Y-82677000D01*
X163068000Y-82169000D02*
X162560000Y-81661000D01*
X162560000Y-81661000D02*
X155829000Y-81661000D01*
X163957000Y-83058000D02*
X163068000Y-82169000D01*
X164719000Y-85979000D02*
X164719000Y-84455000D01*
X164719000Y-89027000D02*
X164719000Y-87503000D01*
X163195000Y-86360000D02*
X163195000Y-85090000D01*
X163195000Y-88900000D02*
X163195000Y-87630000D01*
X169545000Y-90170000D02*
X163195000Y-90170000D01*
X169545000Y-90170000D02*
X169545000Y-91440000D01*
X169545000Y-90170000D02*
X169545000Y-88900000D01*
X156210000Y-104140000D02*
X156210000Y-105410000D01*
X152400000Y-105410000D02*
X152400000Y-104140000D01*
X151130000Y-104140000D02*
X151130000Y-105410000D01*
X149860000Y-97155000D02*
X151130000Y-98425000D01*
X151130000Y-95885000D02*
X151130000Y-97155000D01*
X149860000Y-120573800D02*
X151053800Y-120573800D01*
X151053800Y-120573800D02*
X151130000Y-120650000D01*
X105410000Y-100330000D02*
X105410000Y-99060000D01*
X105410000Y-102870000D02*
X105410000Y-101600000D01*
X105410000Y-105410000D02*
X105410000Y-104140000D01*
X105410000Y-107950000D02*
X105410000Y-106680000D01*
X105410000Y-110490000D02*
X105410000Y-109220000D01*
X105410000Y-113030000D02*
X105410000Y-111760000D01*
X105410000Y-115570000D02*
X105410000Y-114300000D01*
X105410000Y-118110000D02*
X105410000Y-116840000D01*
X105410000Y-119380000D02*
X105410000Y-118110000D01*
X106680000Y-120904000D02*
X105664000Y-120904000D01*
X105664000Y-120904000D02*
X105410000Y-120650000D01*
X106680000Y-121983500D02*
X106680000Y-120904000D01*
X106680000Y-126238000D02*
X106680000Y-121983500D01*
X149860000Y-126238000D02*
X149860000Y-120573800D01*
X149860000Y-120573800D02*
X149910800Y-120523000D01*
X186562997Y-118872003D02*
X186563000Y-118872000D01*
X186562997Y-119887997D02*
X186562997Y-118872003D01*
X186563000Y-119887994D02*
X186563000Y-118872000D01*
D16*
X140325220Y-94351220D02*
X141544420Y-94351220D01*
X141544420Y-94351220D02*
X142824200Y-95631000D01*
D15*
X155041600Y-109169200D02*
X155041600Y-108153200D01*
X155041600Y-108153200D02*
X155041600Y-103403400D01*
X155041600Y-109347000D02*
X155041600Y-108153200D01*
X155041600Y-103403400D02*
X157175200Y-101269800D01*
X157175200Y-101269800D02*
X158580521Y-101269800D01*
X158580521Y-101269800D02*
X158580521Y-101264165D01*
X163783871Y-97026846D02*
X160683917Y-100126800D01*
X160683917Y-100126800D02*
X159689800Y-100126800D01*
X159689800Y-100126800D02*
X158580521Y-101236079D01*
X158580521Y-101236079D02*
X158580521Y-101264165D01*
D14*
X150367996Y-94691200D02*
X147264094Y-94691200D01*
X147264094Y-94691200D02*
X146761200Y-94691200D01*
X151663400Y-93395796D02*
X150367996Y-94691200D01*
D15*
X168097200Y-114985800D02*
X168097200Y-117551219D01*
X173609000Y-115197772D02*
X173604613Y-115193385D01*
X173609000Y-117551200D02*
X173609000Y-115197772D01*
X168107647Y-112060731D02*
X168107647Y-113375164D01*
X168107647Y-113375164D02*
X168097200Y-113385611D01*
X173597346Y-112056676D02*
X173597346Y-113382957D01*
X173597346Y-113382957D02*
X173600000Y-113385611D01*
D17*
X122552645Y-120446793D02*
X122197046Y-120802392D01*
X126390048Y-119811790D02*
X126238000Y-119405398D01*
X126238000Y-119405398D02*
X125958601Y-119125999D01*
X123873439Y-119125999D02*
X122552645Y-120446793D01*
X125958601Y-119125999D02*
X123873439Y-119125999D01*
X126238000Y-119837200D02*
X126364638Y-119837200D01*
X126364638Y-119837200D02*
X126390048Y-119811790D01*
X125476000Y-119786400D02*
X124155198Y-119786400D01*
X124155198Y-119786400D02*
X122554997Y-121386601D01*
X122554997Y-121386601D02*
X122199398Y-121742200D01*
X158395674Y-112048112D02*
X158064200Y-112379586D01*
X165092485Y-112048112D02*
X158395674Y-112048112D01*
X149783800Y-119057420D02*
X146514820Y-119057420D01*
X150993220Y-117744620D02*
X150993220Y-118247514D01*
X150993220Y-118247514D02*
X150183314Y-119057420D01*
X150183314Y-119057420D02*
X149783800Y-119057420D01*
X146514820Y-119057420D02*
X145056859Y-117599459D01*
X145056859Y-117599459D02*
X144701260Y-117243860D01*
X165100000Y-112039400D02*
X165100000Y-112040597D01*
X165100000Y-112040597D02*
X165092485Y-112048112D01*
X126036907Y-116943221D02*
X125653621Y-116943221D01*
X125653621Y-116943221D02*
X125150727Y-116943221D01*
X145328502Y-118445852D02*
X141716754Y-118445852D01*
X137135397Y-119049203D02*
X127229334Y-119049203D01*
X141716754Y-118445852D02*
X141700531Y-118429629D01*
X141700531Y-118429629D02*
X137754971Y-118429629D01*
X137754971Y-118429629D02*
X137135397Y-119049203D01*
X127229334Y-119049203D02*
X126416286Y-118236155D01*
X126416286Y-118236155D02*
X126416286Y-117322600D01*
X126416286Y-117322600D02*
X126036907Y-116943221D01*
X177075573Y-116844236D02*
X176441587Y-116844236D01*
X177444400Y-118414800D02*
X177444400Y-117213063D01*
X177444400Y-117213063D02*
X177075573Y-116844236D01*
X164592000Y-116890800D02*
X162018970Y-119463830D01*
X176441587Y-116844236D02*
X176098179Y-117187644D01*
X162018970Y-119463830D02*
X146346480Y-119463830D01*
X146346480Y-119463830D02*
X145328502Y-118445852D01*
X176098179Y-117574294D02*
X175436411Y-118236062D01*
X176098179Y-117187644D02*
X176098179Y-117574294D01*
X175436411Y-118236062D02*
X166849880Y-118236062D01*
X166849880Y-118236062D02*
X166420800Y-117806982D01*
X166420800Y-117806982D02*
X166420800Y-117339732D01*
X166420800Y-117339732D02*
X165971868Y-116890800D01*
X165971868Y-116890800D02*
X164592000Y-116890800D01*
X125751133Y-117632903D02*
X125070857Y-118313179D01*
X125070857Y-118313179D02*
X123063021Y-118313179D01*
X111760000Y-122542300D02*
X111760000Y-126238000D01*
X123063021Y-118313179D02*
X122250200Y-119126000D01*
X122250200Y-119126000D02*
X116268500Y-119126000D01*
X116268500Y-119126000D02*
X113347500Y-122047000D01*
X113347500Y-122047000D02*
X112255300Y-122047000D01*
X112255300Y-122047000D02*
X111760000Y-122542300D01*
X114300000Y-126238000D02*
X114300000Y-122402600D01*
X114300000Y-122402600D02*
X116890800Y-119811800D01*
X116890800Y-119811800D02*
X118821200Y-119811800D01*
X118821200Y-119811800D02*
X121140410Y-119811800D01*
X126959386Y-119354005D02*
X127314985Y-119709604D01*
X120665104Y-120475112D02*
X121547219Y-120475112D01*
X126324970Y-118719589D02*
X126959386Y-119354005D01*
X121547219Y-120475112D02*
X123302742Y-118719589D01*
X116840000Y-126238000D02*
X116840000Y-122542300D01*
X116840000Y-122542300D02*
X119104823Y-120277477D01*
X119104823Y-120277477D02*
X120467469Y-120277477D01*
X120467469Y-120277477D02*
X120665104Y-120475112D01*
X123302742Y-118719589D02*
X126324970Y-118719589D01*
X127279400Y-119634000D02*
X127279400Y-119674019D01*
X127279400Y-119674019D02*
X127314985Y-119709604D01*
X180340000Y-126238000D02*
X180340000Y-122605800D01*
X180340000Y-122605800D02*
X179705000Y-121970800D01*
X172303553Y-120802410D02*
X172214610Y-120713467D01*
X179705000Y-121970800D02*
X175844200Y-121970800D01*
X175844200Y-121970800D02*
X174675810Y-120802410D01*
X174675810Y-120802410D02*
X172303553Y-120802410D01*
X172214610Y-120713467D02*
X171113820Y-120713467D01*
X171113820Y-120713467D02*
X170948773Y-120548420D01*
X170948773Y-120548420D02*
X170445879Y-120548420D01*
X177800000Y-122605800D02*
X177596800Y-122402600D01*
X177800000Y-126238000D02*
X177800000Y-122605800D01*
X177596800Y-122402600D02*
X175606151Y-122402600D01*
X175606151Y-122402600D02*
X174412372Y-121208821D01*
X174412372Y-121208821D02*
X172135213Y-121208821D01*
X172135213Y-121208821D02*
X172046270Y-121119878D01*
X172046270Y-121119878D02*
X170967135Y-121119878D01*
X170967135Y-121119878D02*
X170646448Y-121440565D01*
X171729277Y-121780279D02*
X173405779Y-121780279D01*
X173405779Y-121780279D02*
X174053500Y-122428000D01*
X174053500Y-122428000D02*
X174980600Y-122428000D01*
X174980600Y-122428000D02*
X175260000Y-122707400D01*
X175260000Y-122707400D02*
X175260000Y-126238000D01*
X119380000Y-126238000D02*
X119380000Y-121708354D01*
X119380000Y-121708354D02*
X119794877Y-121293477D01*
X119794877Y-121293477D02*
X120150476Y-120937878D01*
X127863600Y-120472200D02*
X125018800Y-120472200D01*
X125018800Y-120472200D02*
X123088399Y-122402601D01*
X123088399Y-122402601D02*
X122059699Y-122402601D01*
X122059699Y-122402601D02*
X121920000Y-122542300D01*
X121920000Y-122542300D02*
X121920000Y-126238000D01*
X124460000Y-126238000D02*
X124460000Y-122555000D01*
X137669321Y-119090030D02*
X140880644Y-119090030D01*
X124460000Y-122555000D02*
X125882399Y-121132601D01*
X140880644Y-119090030D02*
X141383538Y-119090030D01*
X125882399Y-121132601D02*
X128152449Y-121132601D01*
X128152449Y-121132601D02*
X129828850Y-119456200D01*
X129828850Y-119456200D02*
X137303151Y-119456200D01*
X137303151Y-119456200D02*
X137669321Y-119090030D01*
X127000000Y-126238000D02*
X127000000Y-122402600D01*
X127000000Y-122402600D02*
X127330200Y-122072400D01*
X127330200Y-122072400D02*
X129082800Y-122072400D01*
X129082800Y-122072400D02*
X130987800Y-120167400D01*
X130987800Y-120167400D02*
X130987800Y-120142000D01*
X141044901Y-119989568D02*
X141547795Y-119989568D01*
X140790909Y-119735576D02*
X141044901Y-119989568D01*
X137344534Y-119989568D02*
X137598526Y-119735576D01*
X137598526Y-119735576D02*
X140790909Y-119735576D01*
X132092732Y-119989568D02*
X137344534Y-119989568D01*
X129540000Y-126238000D02*
X129540000Y-122542300D01*
X129540000Y-122542300D02*
X132092732Y-119989568D01*
X132080000Y-120980180D02*
X132105400Y-120954780D01*
X132080000Y-126238000D02*
X132080000Y-120980180D01*
X142341598Y-119710201D02*
X142417799Y-119634000D01*
X136766302Y-120395998D02*
X137512855Y-120395998D01*
X142341598Y-120147075D02*
X142341598Y-119710201D01*
X134620000Y-122542300D02*
X136766302Y-120395998D01*
X140538187Y-120141987D02*
X141046188Y-120649988D01*
X141046188Y-120649988D02*
X141838685Y-120649988D01*
X134620000Y-126238000D02*
X134620000Y-122542300D01*
X137512855Y-120395998D02*
X137766866Y-120141987D01*
X142417799Y-119634000D02*
X142773398Y-119278401D01*
X141838685Y-120649988D02*
X142341598Y-120147075D01*
X137766866Y-120141987D02*
X140538187Y-120141987D01*
X137160000Y-126238000D02*
X137160000Y-121920020D01*
X137160000Y-121920020D02*
X136855200Y-121615220D01*
X143002000Y-120269000D02*
X142201394Y-121069606D01*
X139090402Y-121069606D02*
X138873996Y-120853200D01*
X142201394Y-121069606D02*
X139090402Y-121069606D01*
X137584916Y-121932214D02*
X137928324Y-122275622D01*
X138873996Y-120853200D02*
X138029942Y-120853200D01*
X138029942Y-120853200D02*
X137584916Y-121298226D01*
X137584916Y-121298226D02*
X137584916Y-121932214D01*
X137928324Y-122275622D02*
X139420622Y-122275622D01*
X139420622Y-122275622D02*
X139700000Y-122555000D01*
X139700000Y-122555000D02*
X139700000Y-126238000D01*
X142240000Y-126238000D02*
X142240000Y-122555000D01*
X142240000Y-122555000D02*
X141300220Y-121615220D01*
X141300220Y-121615220D02*
X138748212Y-121615220D01*
X138748212Y-121615220D02*
X138245318Y-121615220D01*
X144780000Y-126238000D02*
X144780000Y-120065810D01*
X144780000Y-120065810D02*
X144475189Y-119760999D01*
X144475189Y-119760999D02*
X144119590Y-119405400D01*
X146395728Y-120497619D02*
X146040129Y-120142020D01*
X147320000Y-126238000D02*
X147320000Y-121421891D01*
X147320000Y-121421891D02*
X146395728Y-120497619D01*
X152400000Y-126238000D02*
X152400000Y-122555000D01*
X152400000Y-122555000D02*
X153263600Y-121691400D01*
X153263600Y-121691400D02*
X157022800Y-121691400D01*
X157022800Y-121691400D02*
X157835596Y-120878604D01*
X157835596Y-120878604D02*
X161823396Y-120878604D01*
X161823396Y-120878604D02*
X163652200Y-119049800D01*
X163652200Y-119049800D02*
X166341853Y-119049800D01*
X166341853Y-119049800D02*
X166342769Y-119048884D01*
X166342769Y-119048884D02*
X174903484Y-119048884D01*
X174903484Y-119048884D02*
X175234601Y-119380001D01*
X175234601Y-119380001D02*
X175590200Y-119735600D01*
X154940000Y-126238000D02*
X154940000Y-122555000D01*
X154940000Y-122555000D02*
X155397189Y-122097811D01*
X155397189Y-122097811D02*
X157191140Y-122097811D01*
X157191140Y-122097811D02*
X158003936Y-121285015D01*
X158003936Y-121285015D02*
X162077385Y-121285015D01*
X162077385Y-121285015D02*
X163647063Y-119715337D01*
X163647063Y-119715337D02*
X164850776Y-119715337D01*
X164850776Y-119715337D02*
X165353670Y-119715337D01*
X157480000Y-126238000D02*
X157480000Y-122402600D01*
X157480000Y-122402600D02*
X158165800Y-121716800D01*
X163372819Y-120573781D02*
X164343126Y-120573781D01*
X158165800Y-121716800D02*
X162229800Y-121716800D01*
X162229800Y-121716800D02*
X163372819Y-120573781D01*
X164343126Y-120573781D02*
X164846020Y-120573781D01*
X166141396Y-120227651D02*
X166141396Y-119825006D01*
X172862380Y-119481453D02*
X172862516Y-119481589D01*
X160020000Y-126238000D02*
X160020000Y-122605800D01*
X160020000Y-122605800D02*
X160502589Y-122123211D01*
X173588706Y-119710220D02*
X174091600Y-119710220D01*
X160502589Y-122123211D02*
X162398140Y-122123211D01*
X168373855Y-119481600D02*
X168373866Y-119481589D01*
X173138616Y-119710220D02*
X173588706Y-119710220D01*
X162398140Y-122123211D02*
X163287148Y-121234202D01*
X163287148Y-121234202D02*
X165134845Y-121234202D01*
X166484802Y-119481600D02*
X168373855Y-119481600D01*
X165134845Y-121234202D02*
X166141396Y-120227651D01*
X166141396Y-119825006D02*
X166484802Y-119481600D01*
X168373866Y-119481589D02*
X172228258Y-119481589D01*
X172228258Y-119481589D02*
X172228394Y-119481453D01*
X172862516Y-119481589D02*
X172909985Y-119481589D01*
X172228394Y-119481453D02*
X172862380Y-119481453D01*
X172909985Y-119481589D02*
X173138616Y-119710220D01*
X162560000Y-126238000D02*
X162560000Y-122580400D01*
X162560000Y-122580400D02*
X163474387Y-121666013D01*
X163474387Y-121666013D02*
X165277823Y-121666013D01*
X165277823Y-121666013D02*
X166446217Y-120497619D01*
X166446217Y-120497619D02*
X166801816Y-120142020D01*
X165100000Y-126238000D02*
X165100000Y-122631200D01*
X165100000Y-122631200D02*
X166446200Y-121285000D01*
X166446200Y-121285000D02*
X166979580Y-121285000D01*
X172042493Y-120141854D02*
X172545387Y-120141854D01*
X167640000Y-126238000D02*
X167640000Y-120790206D01*
X167640000Y-120790206D02*
X168542206Y-119888000D01*
X171788639Y-119888000D02*
X172042493Y-120141854D01*
X168542206Y-119888000D02*
X171788639Y-119888000D01*
X168579800Y-120827800D02*
X168579800Y-121564400D01*
X168579800Y-121564400D02*
X169240200Y-122224800D01*
X169240200Y-122224800D02*
X169773600Y-122224800D01*
X169773600Y-122224800D02*
X170180000Y-122631200D01*
X170180000Y-122631200D02*
X170180000Y-126238000D01*
X172720000Y-126238000D02*
X172720000Y-122605800D01*
X171002960Y-122123200D02*
X170246750Y-122123200D01*
X172720000Y-122605800D02*
X172567600Y-122453400D01*
X172567600Y-122453400D02*
X171333160Y-122453400D01*
X171333160Y-122453400D02*
X171002960Y-122123200D01*
X170246750Y-122123200D02*
X169670347Y-121546797D01*
X169670347Y-121546797D02*
X169558284Y-121546797D01*
X141020800Y-88315800D02*
X141551021Y-87785579D01*
X141551021Y-87785579D02*
X151460220Y-87785579D01*
X139979400Y-88315800D02*
X140972540Y-87322660D01*
X140972540Y-87322660D02*
X141681200Y-87322660D01*
X141495780Y-87322660D02*
X141681200Y-87322660D01*
X141681200Y-87322660D02*
X150939920Y-87322660D01*
X151958041Y-86946741D02*
X152313640Y-87302340D01*
X151315839Y-86946741D02*
X151958041Y-86946741D01*
X150939920Y-87322660D02*
X151315839Y-86946741D01*
X146603516Y-92807812D02*
X146545856Y-92865472D01*
X149580631Y-92807812D02*
X146603516Y-92807812D01*
X144556048Y-89776137D02*
X144695911Y-89916000D01*
X142040247Y-89776137D02*
X144556048Y-89776137D01*
X141684648Y-90131736D02*
X142040247Y-89776137D01*
X142285692Y-89255598D02*
X145598250Y-89255598D01*
X142209494Y-89179400D02*
X142285692Y-89255598D01*
X145598250Y-89255598D02*
X145899880Y-88953968D01*
X145899880Y-88953968D02*
X146402774Y-88953968D01*
X141706600Y-89179400D02*
X142209494Y-89179400D01*
X149895500Y-93751072D02*
X147301729Y-93751072D01*
X150359201Y-93287371D02*
X149895500Y-93751072D01*
X147301729Y-93751072D02*
X146798835Y-93751072D01*
X160522894Y-120142000D02*
X160020000Y-120142000D01*
X165685824Y-117566188D02*
X164491362Y-117566188D01*
X164491362Y-117566188D02*
X161915550Y-120142000D01*
X161915550Y-120142000D02*
X160522894Y-120142000D01*
X176758580Y-117504637D02*
X175620744Y-118642473D01*
X175620744Y-118642473D02*
X166259215Y-118642473D01*
X166259215Y-118642473D02*
X165685824Y-118069082D01*
X165685824Y-118069082D02*
X165685824Y-117566188D01*
X110744000Y-109550200D02*
X110744000Y-107619800D01*
X134137400Y-118237000D02*
X133476999Y-117576599D01*
X117728980Y-118313180D02*
X116535210Y-117119410D01*
X120015000Y-106908600D02*
X120015000Y-100609400D01*
X133476999Y-117576599D02*
X132194807Y-117576599D01*
X132194807Y-117576599D02*
X131535023Y-118236383D01*
X120015000Y-100609400D02*
X121234200Y-99390200D01*
X131535023Y-118236383D02*
X127608983Y-118236383D01*
X127608983Y-118236383D02*
X127229106Y-117856506D01*
X121894620Y-118313180D02*
X117728980Y-118313180D01*
X116535210Y-117119410D02*
X116535210Y-110388390D01*
X127229106Y-117856506D02*
X127229106Y-116967506D01*
X127229106Y-116967506D02*
X126898400Y-116636800D01*
X126898400Y-116636800D02*
X126879986Y-116636800D01*
X126879986Y-116636800D02*
X126119596Y-115876410D01*
X124660259Y-115876411D02*
X124002800Y-116533870D01*
X126119596Y-115876410D02*
X124660259Y-115876411D01*
X124002800Y-116533870D02*
X124002800Y-117170200D01*
X124002800Y-117170200D02*
X123774210Y-117398790D01*
X123774210Y-117398790D02*
X122809010Y-117398790D01*
X122809010Y-117398790D02*
X121894620Y-118313180D01*
X116535210Y-110388390D02*
X120015000Y-106908600D01*
X121234200Y-99390200D02*
X121285000Y-99390200D01*
X134137400Y-118237000D02*
X134213600Y-118313200D01*
X135407400Y-118287800D02*
X134188200Y-118287800D01*
X134188200Y-118287800D02*
X134137400Y-118237000D01*
X134213600Y-118313200D02*
X135305800Y-118313200D01*
X119481600Y-99491800D02*
X119481600Y-106857800D01*
X119481600Y-106857800D02*
X116078000Y-110261400D01*
X124434600Y-117373400D02*
X124434600Y-116676820D01*
X116078000Y-110261400D02*
X116078000Y-117246400D01*
X116078000Y-117246400D02*
X117551190Y-118719590D01*
X117551190Y-118719590D02*
X122081860Y-118719590D01*
X122081860Y-118719590D02*
X122996249Y-117805201D01*
X124434600Y-116676820D02*
X124828600Y-116282820D01*
X122996249Y-117805201D02*
X124002800Y-117805200D01*
X124002800Y-117805200D02*
X124434600Y-117373400D01*
X132511800Y-118237000D02*
X132106008Y-118642792D01*
X132106008Y-118642792D02*
X127405792Y-118642792D01*
X126822696Y-118059696D02*
X126822696Y-117154260D01*
X127405792Y-118642792D02*
X126822696Y-118059696D01*
X126822696Y-117154260D02*
X125951256Y-116282820D01*
X125951256Y-116282820D02*
X124828600Y-116282820D01*
X124828600Y-116282820D02*
X124815700Y-116295720D01*
X176326804Y-120700800D02*
X176326800Y-120700796D01*
X178079420Y-120700800D02*
X176326804Y-120700800D01*
X155287198Y-85838590D02*
X155287198Y-87659410D01*
X153517600Y-113284010D02*
X153517600Y-112903000D01*
X163169600Y-94767400D02*
X163169600Y-96748956D01*
X154355799Y-112064801D02*
X153517600Y-112903000D01*
X163169600Y-96748956D02*
X160233900Y-99684656D01*
X160233900Y-99684656D02*
X159064389Y-99684656D01*
X159064389Y-99684656D02*
X158013400Y-100735645D01*
X158013400Y-100735645D02*
X157074355Y-100735645D01*
X157074355Y-100735645D02*
X154355799Y-103454201D01*
X154355799Y-103454201D02*
X154355799Y-112064801D01*
X152780999Y-112953801D02*
X152425400Y-113309400D01*
X153924000Y-111810800D02*
X152780999Y-112953801D01*
X157282457Y-99943343D02*
X153924000Y-103301800D01*
X153924000Y-103301800D02*
X153924000Y-111810800D01*
X157848834Y-99943343D02*
X157282457Y-99943343D01*
X159461200Y-84988400D02*
X158089600Y-84988400D01*
X158824020Y-98256815D02*
X158824992Y-98256815D01*
X157000151Y-98470101D02*
X158610734Y-98470101D01*
X158824992Y-98256815D02*
X159180591Y-97901216D01*
X148987766Y-101828589D02*
X153641663Y-101828589D01*
X148412169Y-102404186D02*
X148987766Y-101828589D01*
X153641663Y-101828589D02*
X157000151Y-98470101D01*
X158610734Y-98470101D02*
X158824020Y-98256815D01*
X143230600Y-88569800D02*
X145745200Y-88569800D01*
X145745200Y-88569800D02*
X146024600Y-88290400D01*
X146024600Y-88290400D02*
X146788895Y-88290400D01*
X146788895Y-88290400D02*
X147420856Y-88922361D01*
X147420856Y-88922361D02*
X147420856Y-90179918D01*
X147420856Y-90179918D02*
X147420856Y-90682812D01*
X144259825Y-102644025D02*
X148172330Y-102644025D01*
X148172330Y-102644025D02*
X148412169Y-102404186D01*
X147447000Y-90678000D02*
X147425668Y-90678000D01*
X147425668Y-90678000D02*
X147420856Y-90682812D01*
X157262479Y-97518562D02*
X157618078Y-97162963D01*
X145575263Y-100712494D02*
X153608256Y-100712494D01*
X153608256Y-100712494D02*
X156802188Y-97518562D01*
X156802188Y-97518562D02*
X157262479Y-97518562D01*
X157237354Y-96367601D02*
X158064197Y-96367601D01*
X144545713Y-100440187D02*
X144933807Y-100052093D01*
X153552862Y-100052093D02*
X157237354Y-96367601D01*
X158064197Y-96367601D02*
X158419796Y-96723200D01*
X144933807Y-100052093D02*
X153552862Y-100052093D01*
X145469885Y-101422178D02*
X153473324Y-101422178D01*
X157767876Y-97809700D02*
X158270770Y-97809700D01*
X144916405Y-101975658D02*
X145469885Y-101422178D01*
X153473324Y-101422178D02*
X156876972Y-98018530D01*
X156876972Y-98018530D02*
X157559046Y-98018530D01*
X157559046Y-98018530D02*
X157767876Y-97809700D01*
X150804862Y-89194632D02*
X150804862Y-88691738D01*
X148712188Y-91878169D02*
X150804862Y-89785495D01*
X150804862Y-89785495D02*
X150804862Y-89194632D01*
X155078024Y-97155000D02*
X156271824Y-95961200D01*
X150025606Y-102743000D02*
X148704807Y-104063799D01*
X156271824Y-95961200D02*
X158597600Y-95961200D01*
X160065560Y-99278245D02*
X158929121Y-99278245D01*
X158597600Y-95961200D02*
X159080200Y-96443800D01*
X159080200Y-96443800D02*
X159080200Y-96823431D01*
X158924443Y-99282923D02*
X157336831Y-99282923D01*
X157336831Y-99282923D02*
X153876754Y-102743000D01*
X159080200Y-96823431D02*
X160426400Y-98169631D01*
X160426400Y-98169631D02*
X160426400Y-98917405D01*
X160426400Y-98917405D02*
X160065560Y-99278245D01*
X153876754Y-102743000D02*
X150025606Y-102743000D01*
X158929121Y-99278245D02*
X158924443Y-99282923D01*
X148704807Y-104063799D02*
X146376754Y-104063799D01*
X146376754Y-104063799D02*
X145872117Y-103559162D01*
X149352000Y-104394000D02*
X149250400Y-104495600D01*
X149250400Y-104495600D02*
X145719800Y-104495600D01*
X149580601Y-108381801D02*
X149936200Y-108737400D01*
X149180994Y-107982194D02*
X149580601Y-108381801D01*
X149180994Y-106991594D02*
X149180994Y-107982194D01*
X148412169Y-103327169D02*
X148767768Y-102971570D01*
X148767768Y-102971570D02*
X148920230Y-102971570D01*
X148920230Y-102971570D02*
X149656800Y-102235000D01*
X149656800Y-102235000D02*
X153810004Y-102235000D01*
X159245672Y-98617843D02*
X159748566Y-98617843D01*
X153810004Y-102235000D02*
X157168492Y-98876512D01*
X157168492Y-98876512D02*
X158779074Y-98876512D01*
X158779074Y-98876512D02*
X159037743Y-98617843D01*
X159037743Y-98617843D02*
X159245672Y-98617843D01*
D15*
X185425029Y-80774590D02*
X186114078Y-80889432D01*
X186167862Y-80906921D01*
X186587178Y-81116580D01*
X186636580Y-81152186D01*
X186817814Y-81333420D01*
X186853420Y-81382822D01*
X187063079Y-81802138D01*
X187080568Y-81855922D01*
X187195410Y-82544971D01*
X187198000Y-82576265D01*
X187198000Y-121018490D01*
X187186033Y-121078649D01*
X187159043Y-121119043D01*
X187118649Y-121146033D01*
X187058490Y-121158000D01*
X178659830Y-121158000D01*
X178732186Y-121049711D01*
X178787713Y-120915658D01*
X178816020Y-120773349D01*
X178816020Y-120628251D01*
X178787713Y-120485942D01*
X178732186Y-120351889D01*
X178651575Y-120231245D01*
X178548975Y-120128645D01*
X178428331Y-120048034D01*
X178294278Y-119992507D01*
X178151969Y-119964200D01*
X178006871Y-119964200D01*
X177864562Y-119992507D01*
X177730509Y-120048034D01*
X177609865Y-120128645D01*
X177520310Y-120218200D01*
X176885914Y-120218200D01*
X176796355Y-120128641D01*
X176675711Y-120048030D01*
X176541658Y-119992503D01*
X176399349Y-119964196D01*
X176292802Y-119964196D01*
X176298493Y-119950458D01*
X176326800Y-119808149D01*
X176326800Y-119663051D01*
X176298493Y-119520742D01*
X176242966Y-119386689D01*
X176162355Y-119266045D01*
X176059755Y-119163445D01*
X175939111Y-119082834D01*
X175872372Y-119055190D01*
X175890159Y-119045682D01*
X175963645Y-118985374D01*
X175978761Y-118966955D01*
X176704480Y-118241237D01*
X176727893Y-118241237D01*
X176707800Y-118342251D01*
X176707800Y-118487349D01*
X176736107Y-118629658D01*
X176791634Y-118763711D01*
X176872245Y-118884355D01*
X176974845Y-118986955D01*
X177095489Y-119067566D01*
X177229542Y-119123093D01*
X177371851Y-119151400D01*
X177516949Y-119151400D01*
X177659258Y-119123093D01*
X177793311Y-119067566D01*
X177913955Y-118986955D01*
X178016555Y-118884355D01*
X178097166Y-118763711D01*
X178152693Y-118629658D01*
X178181000Y-118487349D01*
X178181000Y-118342251D01*
X178152693Y-118199942D01*
X178097166Y-118065889D01*
X178016555Y-117945245D01*
X177927000Y-117855690D01*
X177927000Y-117236767D01*
X177929335Y-117213062D01*
X177926559Y-117184881D01*
X177920017Y-117118457D01*
X177892422Y-117027486D01*
X177847609Y-116943648D01*
X177812576Y-116900960D01*
X177802413Y-116888576D01*
X177802412Y-116888575D01*
X177787301Y-116870162D01*
X177768887Y-116855050D01*
X177433590Y-116519753D01*
X177418474Y-116501335D01*
X177344988Y-116441027D01*
X177261150Y-116396214D01*
X177170179Y-116368619D01*
X177099280Y-116361636D01*
X177099278Y-116361636D01*
X177075573Y-116359301D01*
X177051868Y-116361636D01*
X176465291Y-116361636D01*
X176441586Y-116359301D01*
X176417881Y-116361636D01*
X176417880Y-116361636D01*
X176346981Y-116368619D01*
X176256010Y-116396214D01*
X176172172Y-116441027D01*
X176098686Y-116501335D01*
X176083570Y-116519754D01*
X175773697Y-116829627D01*
X175755278Y-116844743D01*
X175694970Y-116918229D01*
X175650157Y-117002068D01*
X175622562Y-117093039D01*
X175615673Y-117162980D01*
X175613244Y-117187644D01*
X175615579Y-117211349D01*
X175615579Y-117374395D01*
X175236512Y-117753462D01*
X174319798Y-117753462D01*
X174345600Y-117623749D01*
X174345600Y-117478651D01*
X174317293Y-117336342D01*
X174261766Y-117202289D01*
X174181155Y-117081645D01*
X174117000Y-117017490D01*
X174117000Y-115722708D01*
X174176768Y-115662940D01*
X174257379Y-115542296D01*
X174312906Y-115408243D01*
X174341213Y-115265934D01*
X174341213Y-115120836D01*
X174312906Y-114978527D01*
X174257379Y-114844474D01*
X174176768Y-114723830D01*
X174074168Y-114621230D01*
X173953524Y-114540619D01*
X173819471Y-114485092D01*
X173677162Y-114456785D01*
X173532064Y-114456785D01*
X173389755Y-114485092D01*
X173255702Y-114540619D01*
X173135058Y-114621230D01*
X173032458Y-114723830D01*
X172951847Y-114844474D01*
X172896320Y-114978527D01*
X172868013Y-115120836D01*
X172868013Y-115265934D01*
X172896320Y-115408243D01*
X172951847Y-115542296D01*
X173032458Y-115662940D01*
X173101001Y-115731483D01*
X173101000Y-117017490D01*
X173036845Y-117081645D01*
X172956234Y-117202289D01*
X172900707Y-117336342D01*
X172872400Y-117478651D01*
X172872400Y-117623749D01*
X172898202Y-117753462D01*
X168808002Y-117753462D01*
X168833800Y-117623768D01*
X168833800Y-117478670D01*
X168805493Y-117336361D01*
X168749966Y-117202308D01*
X168669355Y-117081664D01*
X168605200Y-117017509D01*
X168605200Y-115519510D01*
X168669355Y-115455355D01*
X168749966Y-115334711D01*
X168805493Y-115200658D01*
X168833800Y-115058349D01*
X168833800Y-114913251D01*
X168805493Y-114770942D01*
X168749966Y-114636889D01*
X168669355Y-114516245D01*
X168566755Y-114413645D01*
X168446111Y-114333034D01*
X168312058Y-114277507D01*
X168169749Y-114249200D01*
X168024651Y-114249200D01*
X167882342Y-114277507D01*
X167748289Y-114333034D01*
X167627645Y-114413645D01*
X167525045Y-114516245D01*
X167444434Y-114636889D01*
X167388907Y-114770942D01*
X167360600Y-114913251D01*
X167360600Y-115058349D01*
X167388907Y-115200658D01*
X167444434Y-115334711D01*
X167525045Y-115455355D01*
X167589200Y-115519510D01*
X167589201Y-117017508D01*
X167525045Y-117081664D01*
X167444434Y-117202308D01*
X167388907Y-117336361D01*
X167360600Y-117478670D01*
X167360600Y-117623768D01*
X167386398Y-117753462D01*
X167049780Y-117753462D01*
X166903400Y-117607083D01*
X166903400Y-117363439D01*
X166905735Y-117339732D01*
X166896417Y-117245125D01*
X166868822Y-117154155D01*
X166865515Y-117147968D01*
X166824009Y-117070317D01*
X166790768Y-117029812D01*
X166778813Y-117015245D01*
X166778812Y-117015244D01*
X166763701Y-116996831D01*
X166745287Y-116981719D01*
X166329885Y-116566318D01*
X166314769Y-116547899D01*
X166241283Y-116487591D01*
X166157445Y-116442778D01*
X166066474Y-116415183D01*
X165995575Y-116408200D01*
X165995573Y-116408200D01*
X165971868Y-116405865D01*
X165948163Y-116408200D01*
X164615707Y-116408200D01*
X164592000Y-116405865D01*
X164497393Y-116415183D01*
X164418007Y-116439264D01*
X164406423Y-116442778D01*
X164322585Y-116487591D01*
X164249099Y-116547899D01*
X164233988Y-116566312D01*
X161819071Y-118981230D01*
X150942004Y-118981230D01*
X151317707Y-118605527D01*
X151336121Y-118590415D01*
X151352787Y-118570108D01*
X151390433Y-118524235D01*
X151396429Y-118516929D01*
X151441242Y-118433091D01*
X151468837Y-118342120D01*
X151472268Y-118307282D01*
X151565375Y-118214175D01*
X151645986Y-118093531D01*
X151701513Y-117959478D01*
X151729820Y-117817169D01*
X151729820Y-117672071D01*
X151701513Y-117529762D01*
X151645986Y-117395709D01*
X151565375Y-117275065D01*
X151462775Y-117172465D01*
X151342131Y-117091854D01*
X151208078Y-117036327D01*
X151065769Y-117008020D01*
X150920671Y-117008020D01*
X150778362Y-117036327D01*
X150644309Y-117091854D01*
X150523665Y-117172465D01*
X150421065Y-117275065D01*
X150340454Y-117395709D01*
X150284927Y-117529762D01*
X150256620Y-117672071D01*
X150256620Y-117817169D01*
X150284927Y-117959478D01*
X150340454Y-118093531D01*
X150390221Y-118168013D01*
X149983415Y-118574820D01*
X146714719Y-118574820D01*
X145437860Y-117297961D01*
X145437860Y-117171311D01*
X145409553Y-117029002D01*
X145354026Y-116894949D01*
X145273415Y-116774305D01*
X145170815Y-116671705D01*
X145050171Y-116591094D01*
X144916118Y-116535567D01*
X144773809Y-116507260D01*
X144628711Y-116507260D01*
X144486402Y-116535567D01*
X144352349Y-116591094D01*
X144231705Y-116671705D01*
X144129105Y-116774305D01*
X144048494Y-116894949D01*
X143992967Y-117029002D01*
X143964660Y-117171311D01*
X143964660Y-117316409D01*
X143992967Y-117458718D01*
X144048494Y-117592771D01*
X144129105Y-117713415D01*
X144231705Y-117816015D01*
X144352349Y-117896626D01*
X144486402Y-117952153D01*
X144542200Y-117963252D01*
X141825598Y-117963252D01*
X141795137Y-117954012D01*
X141724238Y-117947029D01*
X141724236Y-117947029D01*
X141700531Y-117944694D01*
X141676826Y-117947029D01*
X137778678Y-117947029D01*
X137754971Y-117944694D01*
X137660364Y-117954012D01*
X137592902Y-117974476D01*
X137569394Y-117981607D01*
X137485556Y-118026420D01*
X137465788Y-118042643D01*
X137437463Y-118065889D01*
X137412070Y-118086728D01*
X137396958Y-118105142D01*
X136935498Y-118566603D01*
X136089206Y-118566603D01*
X136115693Y-118502658D01*
X136144000Y-118360349D01*
X136144000Y-118215251D01*
X136115693Y-118072942D01*
X136060166Y-117938889D01*
X135979555Y-117818245D01*
X135876955Y-117715645D01*
X135756311Y-117635034D01*
X135622258Y-117579507D01*
X135479949Y-117551200D01*
X135334851Y-117551200D01*
X135192542Y-117579507D01*
X135058489Y-117635034D01*
X134937845Y-117715645D01*
X134848290Y-117805200D01*
X134388100Y-117805200D01*
X133835016Y-117252117D01*
X133819900Y-117233698D01*
X133746414Y-117173390D01*
X133662576Y-117128577D01*
X133571605Y-117100982D01*
X133500706Y-117093999D01*
X133500704Y-117093999D01*
X133476999Y-117091664D01*
X133453294Y-117093999D01*
X132218503Y-117093999D01*
X132194806Y-117091665D01*
X132171109Y-117093999D01*
X132171100Y-117093999D01*
X132100201Y-117100982D01*
X132009230Y-117128577D01*
X131925392Y-117173390D01*
X131851906Y-117233698D01*
X131836790Y-117252117D01*
X131335124Y-117753783D01*
X127808882Y-117753783D01*
X127711706Y-117656607D01*
X127711706Y-116991213D01*
X127714041Y-116967506D01*
X127704723Y-116872899D01*
X127677128Y-116781929D01*
X127668101Y-116765041D01*
X127632315Y-116698091D01*
X127572007Y-116624605D01*
X127553593Y-116609493D01*
X127256416Y-116312317D01*
X127241301Y-116293899D01*
X127167815Y-116233591D01*
X127149472Y-116223787D01*
X126477607Y-115551922D01*
X126462496Y-115533509D01*
X126389010Y-115473201D01*
X126305172Y-115428388D01*
X126214201Y-115400793D01*
X126143302Y-115393810D01*
X126143301Y-115393810D01*
X126119596Y-115391475D01*
X126095891Y-115393810D01*
X124683965Y-115393812D01*
X124660258Y-115391477D01*
X124565652Y-115400795D01*
X124474682Y-115428390D01*
X124390843Y-115473203D01*
X124335772Y-115518399D01*
X124317358Y-115533511D01*
X124302247Y-115551924D01*
X123678318Y-116175853D01*
X123659899Y-116190969D01*
X123599591Y-116264455D01*
X123554778Y-116348294D01*
X123527183Y-116439265D01*
X123520486Y-116507260D01*
X123517865Y-116533870D01*
X123520200Y-116557576D01*
X123520201Y-116916190D01*
X122832717Y-116916190D01*
X122809010Y-116913855D01*
X122714403Y-116923173D01*
X122648313Y-116943221D01*
X122623433Y-116950768D01*
X122539595Y-116995581D01*
X122511296Y-117018805D01*
X122489946Y-117036327D01*
X122466109Y-117055889D01*
X122450998Y-117074303D01*
X121694721Y-117830580D01*
X117928880Y-117830580D01*
X117017810Y-116919511D01*
X117017810Y-110588289D01*
X120339482Y-107266617D01*
X120357901Y-107251501D01*
X120418209Y-107178015D01*
X120463022Y-107094177D01*
X120490617Y-107003206D01*
X120497600Y-106932307D01*
X120497600Y-106932306D01*
X120498906Y-106919045D01*
X148444394Y-106919045D01*
X148444394Y-107064143D01*
X148472701Y-107206452D01*
X148528228Y-107340505D01*
X148608839Y-107461149D01*
X148698395Y-107550705D01*
X148698395Y-107958480D01*
X148696059Y-107982194D01*
X148705378Y-108076800D01*
X148732972Y-108167770D01*
X148777786Y-108251609D01*
X148806990Y-108287194D01*
X148838094Y-108325095D01*
X148856507Y-108340206D01*
X149199600Y-108683300D01*
X149199600Y-108809949D01*
X149227907Y-108952258D01*
X149283434Y-109086311D01*
X149364045Y-109206955D01*
X149466645Y-109309555D01*
X149587289Y-109390166D01*
X149721342Y-109445693D01*
X149863651Y-109474000D01*
X150008749Y-109474000D01*
X150151058Y-109445693D01*
X150285111Y-109390166D01*
X150405755Y-109309555D01*
X150508355Y-109206955D01*
X150588966Y-109086311D01*
X150644493Y-108952258D01*
X150672800Y-108809949D01*
X150672800Y-108664851D01*
X150644493Y-108522542D01*
X150588966Y-108388489D01*
X150508355Y-108267845D01*
X150405755Y-108165245D01*
X150285111Y-108084634D01*
X150151058Y-108029107D01*
X150008749Y-108000800D01*
X149882100Y-108000800D01*
X149663594Y-107782295D01*
X149663594Y-107550704D01*
X149753149Y-107461149D01*
X149833760Y-107340505D01*
X149889287Y-107206452D01*
X149917594Y-107064143D01*
X149917594Y-106919045D01*
X149889287Y-106776736D01*
X149833760Y-106642683D01*
X149753149Y-106522039D01*
X149650549Y-106419439D01*
X149529905Y-106338828D01*
X149395852Y-106283301D01*
X149253543Y-106254994D01*
X149108445Y-106254994D01*
X148966136Y-106283301D01*
X148832083Y-106338828D01*
X148711439Y-106419439D01*
X148608839Y-106522039D01*
X148528228Y-106642683D01*
X148472701Y-106776736D01*
X148444394Y-106919045D01*
X120498906Y-106919045D01*
X120499935Y-106908601D01*
X120497600Y-106884896D01*
X120497600Y-102571476D01*
X143523225Y-102571476D01*
X143523225Y-102716574D01*
X143551532Y-102858883D01*
X143607059Y-102992936D01*
X143687670Y-103113580D01*
X143790270Y-103216180D01*
X143910914Y-103296791D01*
X144044967Y-103352318D01*
X144187276Y-103380625D01*
X144332374Y-103380625D01*
X144474683Y-103352318D01*
X144608736Y-103296791D01*
X144729380Y-103216180D01*
X144818935Y-103126625D01*
X145275228Y-103126625D01*
X145219351Y-103210251D01*
X145163824Y-103344304D01*
X145135517Y-103486613D01*
X145135517Y-103631711D01*
X145163824Y-103774020D01*
X145219351Y-103908073D01*
X145237882Y-103935808D01*
X145147645Y-104026045D01*
X145067034Y-104146689D01*
X145011507Y-104280742D01*
X144983200Y-104423051D01*
X144983200Y-104568149D01*
X145011507Y-104710458D01*
X145067034Y-104844511D01*
X145147645Y-104965155D01*
X145250245Y-105067755D01*
X145370889Y-105148366D01*
X145504942Y-105203893D01*
X145647251Y-105232200D01*
X145792349Y-105232200D01*
X145934658Y-105203893D01*
X146068711Y-105148366D01*
X146189355Y-105067755D01*
X146278910Y-104978200D01*
X148900472Y-104978200D01*
X149003089Y-105046766D01*
X149137142Y-105102293D01*
X149279451Y-105130600D01*
X149424549Y-105130600D01*
X149566858Y-105102293D01*
X149700911Y-105046766D01*
X149821555Y-104966155D01*
X149924155Y-104863555D01*
X150004766Y-104742911D01*
X150060293Y-104608858D01*
X150088600Y-104466549D01*
X150088600Y-104321451D01*
X150060293Y-104179142D01*
X150004766Y-104045089D01*
X149924155Y-103924445D01*
X149821555Y-103821845D01*
X149706282Y-103744823D01*
X150225506Y-103225600D01*
X153446570Y-103225600D01*
X153445055Y-103240985D01*
X153439065Y-103301800D01*
X153441400Y-103325505D01*
X153441401Y-111610899D01*
X152479501Y-112572800D01*
X152352851Y-112572800D01*
X152210542Y-112601107D01*
X152076489Y-112656634D01*
X151955845Y-112737245D01*
X151853245Y-112839845D01*
X151772634Y-112960489D01*
X151717107Y-113094542D01*
X151688800Y-113236851D01*
X151688800Y-113381949D01*
X151717107Y-113524258D01*
X151772634Y-113658311D01*
X151853245Y-113778955D01*
X151955845Y-113881555D01*
X152076489Y-113962166D01*
X152210542Y-114017693D01*
X152352851Y-114046000D01*
X152497949Y-114046000D01*
X152640258Y-114017693D01*
X152774311Y-113962166D01*
X152894955Y-113881555D01*
X152984195Y-113792315D01*
X153048045Y-113856165D01*
X153168689Y-113936776D01*
X153302742Y-113992303D01*
X153445051Y-114020610D01*
X153590149Y-114020610D01*
X153732458Y-113992303D01*
X153866511Y-113936776D01*
X153987155Y-113856165D01*
X154089755Y-113753565D01*
X154170366Y-113632921D01*
X154225893Y-113498868D01*
X154254200Y-113356559D01*
X154254200Y-113313062D01*
X167360600Y-113313062D01*
X167360600Y-113458160D01*
X167388907Y-113600469D01*
X167444434Y-113734522D01*
X167525045Y-113855166D01*
X167627645Y-113957766D01*
X167748289Y-114038377D01*
X167882342Y-114093904D01*
X168024651Y-114122211D01*
X168169749Y-114122211D01*
X168312058Y-114093904D01*
X168446111Y-114038377D01*
X168566755Y-113957766D01*
X168669355Y-113855166D01*
X168749966Y-113734522D01*
X168805493Y-113600469D01*
X168833800Y-113458160D01*
X168833800Y-113313062D01*
X168805493Y-113170753D01*
X168749966Y-113036700D01*
X168669355Y-112916056D01*
X168615647Y-112862348D01*
X168615647Y-112594441D01*
X168679802Y-112530286D01*
X168760413Y-112409642D01*
X168815940Y-112275589D01*
X168844247Y-112133280D01*
X168844247Y-111988182D01*
X168843441Y-111984127D01*
X172860746Y-111984127D01*
X172860746Y-112129225D01*
X172889053Y-112271534D01*
X172944580Y-112405587D01*
X173025191Y-112526231D01*
X173089346Y-112590386D01*
X173089347Y-112854554D01*
X173027845Y-112916056D01*
X172947234Y-113036700D01*
X172891707Y-113170753D01*
X172863400Y-113313062D01*
X172863400Y-113458160D01*
X172891707Y-113600469D01*
X172947234Y-113734522D01*
X173027845Y-113855166D01*
X173130445Y-113957766D01*
X173251089Y-114038377D01*
X173385142Y-114093904D01*
X173527451Y-114122211D01*
X173672549Y-114122211D01*
X173814858Y-114093904D01*
X173948911Y-114038377D01*
X174069555Y-113957766D01*
X174172155Y-113855166D01*
X174252766Y-113734522D01*
X174308293Y-113600469D01*
X174336600Y-113458160D01*
X174336600Y-113313062D01*
X174308293Y-113170753D01*
X174252766Y-113036700D01*
X174172155Y-112916056D01*
X174105346Y-112849247D01*
X174105346Y-112590386D01*
X174169501Y-112526231D01*
X174250112Y-112405587D01*
X174305639Y-112271534D01*
X174333946Y-112129225D01*
X174333946Y-111984127D01*
X174305639Y-111841818D01*
X174250112Y-111707765D01*
X174169501Y-111587121D01*
X174066901Y-111484521D01*
X173946257Y-111403910D01*
X173812204Y-111348383D01*
X173669895Y-111320076D01*
X173524797Y-111320076D01*
X173382488Y-111348383D01*
X173248435Y-111403910D01*
X173127791Y-111484521D01*
X173025191Y-111587121D01*
X172944580Y-111707765D01*
X172889053Y-111841818D01*
X172860746Y-111984127D01*
X168843441Y-111984127D01*
X168815940Y-111845873D01*
X168760413Y-111711820D01*
X168679802Y-111591176D01*
X168577202Y-111488576D01*
X168456558Y-111407965D01*
X168322505Y-111352438D01*
X168180196Y-111324131D01*
X168035098Y-111324131D01*
X167892789Y-111352438D01*
X167758736Y-111407965D01*
X167638092Y-111488576D01*
X167535492Y-111591176D01*
X167454881Y-111711820D01*
X167399354Y-111845873D01*
X167371047Y-111988182D01*
X167371047Y-112133280D01*
X167399354Y-112275589D01*
X167454881Y-112409642D01*
X167535492Y-112530286D01*
X167599647Y-112594441D01*
X167599648Y-112841453D01*
X167525045Y-112916056D01*
X167444434Y-113036700D01*
X167388907Y-113170753D01*
X167360600Y-113313062D01*
X154254200Y-113313062D01*
X154254200Y-113211461D01*
X154225893Y-113069152D01*
X154170366Y-112935099D01*
X154169418Y-112933681D01*
X154680281Y-112422818D01*
X154698700Y-112407702D01*
X154759008Y-112334216D01*
X154773535Y-112307037D01*
X157327600Y-112307037D01*
X157327600Y-112452135D01*
X157355907Y-112594444D01*
X157411434Y-112728497D01*
X157492045Y-112849141D01*
X157594645Y-112951741D01*
X157715289Y-113032352D01*
X157849342Y-113087879D01*
X157991651Y-113116186D01*
X158136749Y-113116186D01*
X158279058Y-113087879D01*
X158413111Y-113032352D01*
X158533755Y-112951741D01*
X158636355Y-112849141D01*
X158716966Y-112728497D01*
X158772493Y-112594444D01*
X158785170Y-112530712D01*
X164533375Y-112530712D01*
X164622930Y-112620267D01*
X164743574Y-112700878D01*
X164877627Y-112756405D01*
X165019936Y-112784712D01*
X165165034Y-112784712D01*
X165307343Y-112756405D01*
X165441396Y-112700878D01*
X165562040Y-112620267D01*
X165664640Y-112517667D01*
X165745251Y-112397023D01*
X165800778Y-112262970D01*
X165829085Y-112120661D01*
X165829085Y-111975563D01*
X165800778Y-111833254D01*
X165745251Y-111699201D01*
X165664640Y-111578557D01*
X165562040Y-111475957D01*
X165441396Y-111395346D01*
X165307343Y-111339819D01*
X165165034Y-111311512D01*
X165019936Y-111311512D01*
X164877627Y-111339819D01*
X164743574Y-111395346D01*
X164622930Y-111475957D01*
X164533375Y-111565512D01*
X158419378Y-111565512D01*
X158395673Y-111563177D01*
X158371968Y-111565512D01*
X158371967Y-111565512D01*
X158301068Y-111572495D01*
X158210097Y-111600090D01*
X158129845Y-111642986D01*
X157991651Y-111642986D01*
X157849342Y-111671293D01*
X157715289Y-111726820D01*
X157594645Y-111807431D01*
X157492045Y-111910031D01*
X157411434Y-112030675D01*
X157355907Y-112164728D01*
X157327600Y-112307037D01*
X154773535Y-112307037D01*
X154803821Y-112250378D01*
X154831416Y-112159407D01*
X154838399Y-112088508D01*
X154838399Y-112088499D01*
X154840733Y-112064802D01*
X154838399Y-112041105D01*
X154838399Y-110057612D01*
X154969051Y-110083600D01*
X155114149Y-110083600D01*
X155256458Y-110055293D01*
X155390511Y-109999766D01*
X155511155Y-109919155D01*
X155613755Y-109816555D01*
X155694366Y-109695911D01*
X155749893Y-109561858D01*
X155778200Y-109419549D01*
X155778200Y-109274451D01*
X155749893Y-109132142D01*
X155694366Y-108998089D01*
X155613755Y-108877445D01*
X155549600Y-108813290D01*
X155549600Y-103613820D01*
X157385621Y-101777800D01*
X158052446Y-101777800D01*
X158110966Y-101836320D01*
X158231610Y-101916931D01*
X158365663Y-101972458D01*
X158507972Y-102000765D01*
X158653070Y-102000765D01*
X158795379Y-101972458D01*
X158929432Y-101916931D01*
X159050076Y-101836320D01*
X159152676Y-101733720D01*
X159233287Y-101613076D01*
X159288814Y-101479023D01*
X159317121Y-101336714D01*
X159317121Y-101217899D01*
X159900221Y-100634800D01*
X160658973Y-100634800D01*
X160683917Y-100637257D01*
X160708861Y-100634800D01*
X160708864Y-100634800D01*
X160783502Y-100627449D01*
X160879260Y-100598401D01*
X160967512Y-100551229D01*
X161044865Y-100487748D01*
X161060772Y-100468365D01*
X163765692Y-97763446D01*
X163856420Y-97763446D01*
X163998729Y-97735139D01*
X164132782Y-97679612D01*
X164253426Y-97599001D01*
X164356026Y-97496401D01*
X164436637Y-97375757D01*
X164492164Y-97241704D01*
X164520471Y-97099395D01*
X164520471Y-96954297D01*
X164492164Y-96811988D01*
X164436637Y-96677935D01*
X164356026Y-96557291D01*
X164253426Y-96454691D01*
X164132782Y-96374080D01*
X163998729Y-96318553D01*
X163856420Y-96290246D01*
X163711322Y-96290246D01*
X163652200Y-96302006D01*
X163652200Y-95795019D01*
X178117500Y-95795019D01*
X178117500Y-96482981D01*
X178251715Y-97157725D01*
X178514986Y-97793319D01*
X178897198Y-98365339D01*
X179383661Y-98851802D01*
X179955681Y-99234014D01*
X180591275Y-99497285D01*
X181266019Y-99631500D01*
X181953981Y-99631500D01*
X182628725Y-99497285D01*
X183264319Y-99234014D01*
X183836339Y-98851802D01*
X184322802Y-98365339D01*
X184705014Y-97793319D01*
X184968285Y-97157725D01*
X185102500Y-96482981D01*
X185102500Y-95795019D01*
X184968285Y-95120275D01*
X184705014Y-94484681D01*
X184322802Y-93912661D01*
X183836339Y-93426198D01*
X183264319Y-93043986D01*
X182628725Y-92780715D01*
X181953981Y-92646500D01*
X181266019Y-92646500D01*
X180591275Y-92780715D01*
X179955681Y-93043986D01*
X179383661Y-93426198D01*
X178897198Y-93912661D01*
X178514986Y-94484681D01*
X178251715Y-95120275D01*
X178117500Y-95795019D01*
X163652200Y-95795019D01*
X163652200Y-95326510D01*
X163741755Y-95236955D01*
X163822366Y-95116311D01*
X163877893Y-94982258D01*
X163906200Y-94839949D01*
X163906200Y-94694851D01*
X163877893Y-94552542D01*
X163822366Y-94418489D01*
X163741755Y-94297845D01*
X163639155Y-94195245D01*
X163518511Y-94114634D01*
X163384458Y-94059107D01*
X163242149Y-94030800D01*
X163097051Y-94030800D01*
X162954742Y-94059107D01*
X162820689Y-94114634D01*
X162700045Y-94195245D01*
X162597445Y-94297845D01*
X162516834Y-94418489D01*
X162461307Y-94552542D01*
X162433000Y-94694851D01*
X162433000Y-94839949D01*
X162461307Y-94982258D01*
X162516834Y-95116311D01*
X162597445Y-95236955D01*
X162687000Y-95326510D01*
X162687001Y-96549055D01*
X160909000Y-98327057D01*
X160909000Y-98193335D01*
X160911335Y-98169630D01*
X160909000Y-98145924D01*
X160902017Y-98075025D01*
X160874422Y-97984054D01*
X160829609Y-97900216D01*
X160769301Y-97826730D01*
X160750882Y-97811614D01*
X159562800Y-96623532D01*
X159562800Y-96467496D01*
X159565134Y-96443799D01*
X159562800Y-96420102D01*
X159562800Y-96420093D01*
X159555817Y-96349194D01*
X159528222Y-96258223D01*
X159483409Y-96174385D01*
X159423101Y-96100899D01*
X159404682Y-96085783D01*
X158955617Y-95636718D01*
X158940501Y-95618299D01*
X158867015Y-95557991D01*
X158783177Y-95513178D01*
X158692206Y-95485583D01*
X158621307Y-95478600D01*
X158621305Y-95478600D01*
X158597600Y-95476265D01*
X158573895Y-95478600D01*
X156295528Y-95478600D01*
X156271823Y-95476265D01*
X156248118Y-95478600D01*
X156248117Y-95478600D01*
X156177218Y-95485583D01*
X156086247Y-95513178D01*
X156002409Y-95557991D01*
X155928923Y-95618299D01*
X155913812Y-95636712D01*
X155132125Y-96418400D01*
X155005475Y-96418400D01*
X154863166Y-96446707D01*
X154729113Y-96502234D01*
X154608469Y-96582845D01*
X154505869Y-96685445D01*
X154425258Y-96806089D01*
X154369731Y-96940142D01*
X154341424Y-97082451D01*
X154341424Y-97227549D01*
X154369731Y-97369858D01*
X154425258Y-97503911D01*
X154505869Y-97624555D01*
X154608469Y-97727155D01*
X154729113Y-97807766D01*
X154863166Y-97863293D01*
X155005475Y-97891600D01*
X155030856Y-97891600D01*
X153352963Y-99569493D01*
X144957514Y-99569493D01*
X144933807Y-99567158D01*
X144839200Y-99576476D01*
X144748230Y-99604071D01*
X144664392Y-99648884D01*
X144597736Y-99703587D01*
X144473164Y-99703587D01*
X144330855Y-99731894D01*
X144196802Y-99787421D01*
X144076158Y-99868032D01*
X143973558Y-99970632D01*
X143892947Y-100091276D01*
X143837420Y-100225329D01*
X143809113Y-100367638D01*
X143809113Y-100512736D01*
X143837420Y-100655045D01*
X143892947Y-100789098D01*
X143973558Y-100909742D01*
X144076158Y-101012342D01*
X144196802Y-101092953D01*
X144330855Y-101148480D01*
X144473164Y-101176787D01*
X144618262Y-101176787D01*
X144760571Y-101148480D01*
X144894624Y-101092953D01*
X144928467Y-101070340D01*
X145003108Y-101182049D01*
X145015311Y-101194252D01*
X144970505Y-101239058D01*
X144843856Y-101239058D01*
X144701547Y-101267365D01*
X144567494Y-101322892D01*
X144446850Y-101403503D01*
X144344250Y-101506103D01*
X144263639Y-101626747D01*
X144208112Y-101760800D01*
X144179805Y-101903109D01*
X144179805Y-101908911D01*
X144044967Y-101935732D01*
X143910914Y-101991259D01*
X143790270Y-102071870D01*
X143687670Y-102174470D01*
X143607059Y-102295114D01*
X143551532Y-102429167D01*
X143523225Y-102571476D01*
X120497600Y-102571476D01*
X120497600Y-100809299D01*
X121185467Y-100121432D01*
X121212451Y-100126800D01*
X121357549Y-100126800D01*
X121499858Y-100098493D01*
X121633911Y-100042966D01*
X121754555Y-99962355D01*
X121857155Y-99859755D01*
X121937766Y-99739111D01*
X121993293Y-99605058D01*
X122021600Y-99462749D01*
X122021600Y-99317651D01*
X121993293Y-99175342D01*
X121937766Y-99041289D01*
X121857155Y-98920645D01*
X121754555Y-98818045D01*
X121633911Y-98737434D01*
X121499858Y-98681907D01*
X121357549Y-98653600D01*
X121212451Y-98653600D01*
X121070142Y-98681907D01*
X120936089Y-98737434D01*
X120815445Y-98818045D01*
X120712845Y-98920645D01*
X120632234Y-99041289D01*
X120576707Y-99175342D01*
X120548400Y-99317651D01*
X120548400Y-99393501D01*
X120157825Y-99784076D01*
X120189893Y-99706658D01*
X120218200Y-99564349D01*
X120218200Y-99419251D01*
X120189893Y-99276942D01*
X120134366Y-99142889D01*
X120053755Y-99022245D01*
X119951155Y-98919645D01*
X119830511Y-98839034D01*
X119696458Y-98783507D01*
X119554149Y-98755200D01*
X119409051Y-98755200D01*
X119266742Y-98783507D01*
X119132689Y-98839034D01*
X119012045Y-98919645D01*
X118909445Y-99022245D01*
X118828834Y-99142889D01*
X118773307Y-99276942D01*
X118745000Y-99419251D01*
X118745000Y-99564349D01*
X118773307Y-99706658D01*
X118828834Y-99840711D01*
X118909445Y-99961355D01*
X118999000Y-100050910D01*
X118999001Y-106657900D01*
X115753518Y-109903383D01*
X115735099Y-109918499D01*
X115674791Y-109991985D01*
X115629978Y-110075824D01*
X115602383Y-110166795D01*
X115595400Y-110237693D01*
X115593065Y-110261400D01*
X115595400Y-110285105D01*
X115595401Y-117222685D01*
X115593065Y-117246400D01*
X115602384Y-117341006D01*
X115629978Y-117431976D01*
X115674792Y-117515815D01*
X115717153Y-117567432D01*
X115735100Y-117589301D01*
X115753513Y-117604412D01*
X116792501Y-118643400D01*
X116292207Y-118643400D01*
X116268500Y-118641065D01*
X116173893Y-118650383D01*
X116105294Y-118671192D01*
X116082923Y-118677978D01*
X115999085Y-118722791D01*
X115996738Y-118724717D01*
X115949224Y-118763711D01*
X115925599Y-118783099D01*
X115910488Y-118801512D01*
X114046000Y-120666001D01*
X114046000Y-118745000D01*
X114038679Y-118670671D01*
X114016998Y-118599198D01*
X113981790Y-118533328D01*
X113934408Y-118475592D01*
X113876672Y-118428210D01*
X113810802Y-118393002D01*
X113739329Y-118371321D01*
X113665000Y-118364000D01*
X108839000Y-118364000D01*
X108764671Y-118371321D01*
X108693198Y-118393002D01*
X108627328Y-118428210D01*
X108569592Y-118475592D01*
X108522210Y-118533328D01*
X108487002Y-118599198D01*
X108465321Y-118670671D01*
X108458000Y-118745000D01*
X108458000Y-121158000D01*
X105041510Y-121158000D01*
X104981351Y-121146033D01*
X104940957Y-121119043D01*
X104913967Y-121078649D01*
X104902000Y-121018490D01*
X104902000Y-107547251D01*
X110007400Y-107547251D01*
X110007400Y-107692349D01*
X110035707Y-107834658D01*
X110091234Y-107968711D01*
X110171845Y-108089355D01*
X110261401Y-108178911D01*
X110261400Y-108991090D01*
X110171845Y-109080645D01*
X110091234Y-109201289D01*
X110035707Y-109335342D01*
X110007400Y-109477651D01*
X110007400Y-109622749D01*
X110035707Y-109765058D01*
X110091234Y-109899111D01*
X110171845Y-110019755D01*
X110274445Y-110122355D01*
X110395089Y-110202966D01*
X110529142Y-110258493D01*
X110671451Y-110286800D01*
X110816549Y-110286800D01*
X110958858Y-110258493D01*
X111092911Y-110202966D01*
X111213555Y-110122355D01*
X111316155Y-110019755D01*
X111396766Y-109899111D01*
X111452293Y-109765058D01*
X111480600Y-109622749D01*
X111480600Y-109477651D01*
X111452293Y-109335342D01*
X111396766Y-109201289D01*
X111316155Y-109080645D01*
X111226600Y-108991090D01*
X111226600Y-108178910D01*
X111316155Y-108089355D01*
X111396766Y-107968711D01*
X111452293Y-107834658D01*
X111480600Y-107692349D01*
X111480600Y-107547251D01*
X111452293Y-107404942D01*
X111396766Y-107270889D01*
X111316155Y-107150245D01*
X111213555Y-107047645D01*
X111092911Y-106967034D01*
X110958858Y-106911507D01*
X110816549Y-106883200D01*
X110671451Y-106883200D01*
X110529142Y-106911507D01*
X110395089Y-106967034D01*
X110274445Y-107047645D01*
X110171845Y-107150245D01*
X110091234Y-107270889D01*
X110035707Y-107404942D01*
X110007400Y-107547251D01*
X104902000Y-107547251D01*
X104902000Y-95795019D01*
X108267500Y-95795019D01*
X108267500Y-96482981D01*
X108401715Y-97157725D01*
X108664986Y-97793319D01*
X109047198Y-98365339D01*
X109533661Y-98851802D01*
X110105681Y-99234014D01*
X110741275Y-99497285D01*
X111416019Y-99631500D01*
X112103981Y-99631500D01*
X112778725Y-99497285D01*
X113414319Y-99234014D01*
X113986339Y-98851802D01*
X114458184Y-98379957D01*
X136195700Y-98379957D01*
X136195700Y-98622443D01*
X136243007Y-98860269D01*
X136335802Y-99084297D01*
X136470520Y-99285917D01*
X136641983Y-99457380D01*
X136843603Y-99592098D01*
X137067631Y-99684893D01*
X137305457Y-99732200D01*
X137547943Y-99732200D01*
X137785769Y-99684893D01*
X138009797Y-99592098D01*
X138211417Y-99457380D01*
X138382880Y-99285917D01*
X138517598Y-99084297D01*
X138610393Y-98860269D01*
X138657700Y-98622443D01*
X138657700Y-98379957D01*
X138610393Y-98142131D01*
X138517598Y-97918103D01*
X138382880Y-97716483D01*
X138211417Y-97545020D01*
X138009797Y-97410302D01*
X137785769Y-97317507D01*
X137547943Y-97270200D01*
X137305457Y-97270200D01*
X137067631Y-97317507D01*
X136843603Y-97410302D01*
X136641983Y-97545020D01*
X136470520Y-97716483D01*
X136335802Y-97918103D01*
X136243007Y-98142131D01*
X136195700Y-98379957D01*
X114458184Y-98379957D01*
X114472802Y-98365339D01*
X114855014Y-97793319D01*
X115118285Y-97157725D01*
X115252500Y-96482981D01*
X115252500Y-96278180D01*
X136237211Y-96278180D01*
X136261566Y-96358488D01*
X136361461Y-96578161D01*
X136502292Y-96774124D01*
X136678648Y-96938847D01*
X136883751Y-97065999D01*
X137109719Y-97150695D01*
X137299700Y-97090387D01*
X137299700Y-96088200D01*
X137553700Y-96088200D01*
X137553700Y-97090387D01*
X137743681Y-97150695D01*
X137969649Y-97065999D01*
X138174752Y-96938847D01*
X138351108Y-96774124D01*
X138491939Y-96578161D01*
X138591834Y-96358488D01*
X138616189Y-96278180D01*
X138555327Y-96088200D01*
X137553700Y-96088200D01*
X137299700Y-96088200D01*
X136298073Y-96088200D01*
X136237211Y-96278180D01*
X115252500Y-96278180D01*
X115252500Y-95795019D01*
X115222505Y-95644220D01*
X136237211Y-95644220D01*
X136298073Y-95834200D01*
X137299700Y-95834200D01*
X137299700Y-94832013D01*
X137553700Y-94832013D01*
X137553700Y-95834200D01*
X138555327Y-95834200D01*
X138616189Y-95644220D01*
X138591834Y-95563912D01*
X138491939Y-95344239D01*
X138351108Y-95148276D01*
X138174752Y-94983553D01*
X137969649Y-94856401D01*
X137743681Y-94771705D01*
X137553700Y-94832013D01*
X137299700Y-94832013D01*
X137109719Y-94771705D01*
X136883751Y-94856401D01*
X136678648Y-94983553D01*
X136502292Y-95148276D01*
X136361461Y-95344239D01*
X136261566Y-95563912D01*
X136237211Y-95644220D01*
X115222505Y-95644220D01*
X115118285Y-95120275D01*
X114855014Y-94484681D01*
X114717363Y-94278671D01*
X139588620Y-94278671D01*
X139588620Y-94423769D01*
X139616927Y-94566078D01*
X139672454Y-94700131D01*
X139753065Y-94820775D01*
X139855665Y-94923375D01*
X139976309Y-95003986D01*
X140110362Y-95059513D01*
X140252671Y-95087820D01*
X140397769Y-95087820D01*
X140540078Y-95059513D01*
X140674131Y-95003986D01*
X140794775Y-94923375D01*
X140795430Y-94922720D01*
X141307698Y-94922720D01*
X142087600Y-95702623D01*
X142087600Y-95703549D01*
X142115907Y-95845858D01*
X142171434Y-95979911D01*
X142252045Y-96100555D01*
X142354645Y-96203155D01*
X142475289Y-96283766D01*
X142609342Y-96339293D01*
X142751651Y-96367600D01*
X142896749Y-96367600D01*
X143039058Y-96339293D01*
X143173111Y-96283766D01*
X143293755Y-96203155D01*
X143396355Y-96100555D01*
X143476966Y-95979911D01*
X143532493Y-95845858D01*
X143560800Y-95703549D01*
X143560800Y-95558451D01*
X143532493Y-95416142D01*
X143476966Y-95282089D01*
X143396355Y-95161445D01*
X143293755Y-95058845D01*
X143173111Y-94978234D01*
X143039058Y-94922707D01*
X142896749Y-94894400D01*
X142895823Y-94894400D01*
X141968390Y-93966968D01*
X141950487Y-93945153D01*
X141863465Y-93873736D01*
X141764182Y-93820668D01*
X141656454Y-93787989D01*
X141572494Y-93779720D01*
X141544420Y-93776955D01*
X141516346Y-93779720D01*
X140795430Y-93779720D01*
X140794775Y-93779065D01*
X140674131Y-93698454D01*
X140540078Y-93642927D01*
X140397769Y-93614620D01*
X140252671Y-93614620D01*
X140110362Y-93642927D01*
X139976309Y-93698454D01*
X139855665Y-93779065D01*
X139753065Y-93881665D01*
X139672454Y-94002309D01*
X139616927Y-94136362D01*
X139588620Y-94278671D01*
X114717363Y-94278671D01*
X114472802Y-93912661D01*
X113986339Y-93426198D01*
X113414319Y-93043986D01*
X112778725Y-92780715D01*
X112103981Y-92646500D01*
X111416019Y-92646500D01*
X110741275Y-92780715D01*
X110105681Y-93043986D01*
X109533661Y-93426198D01*
X109047198Y-93912661D01*
X108664986Y-94484681D01*
X108401715Y-95120275D01*
X108267500Y-95795019D01*
X104902000Y-95795019D01*
X104902000Y-88793611D01*
X104903599Y-88768982D01*
X104966885Y-88283795D01*
X104982842Y-88243251D01*
X139242800Y-88243251D01*
X139242800Y-88388349D01*
X139271107Y-88530658D01*
X139326634Y-88664711D01*
X139407245Y-88785355D01*
X139509845Y-88887955D01*
X139630489Y-88968566D01*
X139764542Y-89024093D01*
X139906851Y-89052400D01*
X140051949Y-89052400D01*
X140194258Y-89024093D01*
X140328311Y-88968566D01*
X140448955Y-88887955D01*
X140500100Y-88836810D01*
X140551245Y-88887955D01*
X140671889Y-88968566D01*
X140805942Y-89024093D01*
X140948251Y-89052400D01*
X140980831Y-89052400D01*
X140970000Y-89106851D01*
X140970000Y-89251949D01*
X140998307Y-89394258D01*
X141053834Y-89528311D01*
X141130950Y-89643724D01*
X141112493Y-89662181D01*
X141031882Y-89782825D01*
X140976355Y-89916878D01*
X140948048Y-90059187D01*
X140948048Y-90204285D01*
X140976355Y-90346594D01*
X141031882Y-90480647D01*
X141112493Y-90601291D01*
X141215093Y-90703891D01*
X141335737Y-90784502D01*
X141469790Y-90840029D01*
X141612099Y-90868336D01*
X141757197Y-90868336D01*
X141899506Y-90840029D01*
X142033559Y-90784502D01*
X142154203Y-90703891D01*
X142256803Y-90601291D01*
X142337414Y-90480647D01*
X142392941Y-90346594D01*
X142410417Y-90258737D01*
X144040588Y-90258737D01*
X144043145Y-90264911D01*
X144123756Y-90385555D01*
X144226356Y-90488155D01*
X144347000Y-90568766D01*
X144481053Y-90624293D01*
X144623362Y-90652600D01*
X144768460Y-90652600D01*
X144910769Y-90624293D01*
X145044822Y-90568766D01*
X145165466Y-90488155D01*
X145268066Y-90385555D01*
X145348677Y-90264911D01*
X145404204Y-90130858D01*
X145432511Y-89988549D01*
X145432511Y-89843451D01*
X145411575Y-89738198D01*
X145574545Y-89738198D01*
X145598250Y-89740533D01*
X145621955Y-89738198D01*
X145621957Y-89738198D01*
X145692856Y-89731215D01*
X145783827Y-89703620D01*
X145867665Y-89658807D01*
X145941151Y-89598499D01*
X145956267Y-89580080D01*
X145979380Y-89556967D01*
X146053863Y-89606734D01*
X146187916Y-89662261D01*
X146330225Y-89690568D01*
X146475323Y-89690568D01*
X146617632Y-89662261D01*
X146751685Y-89606734D01*
X146872329Y-89526123D01*
X146938256Y-89460196D01*
X146938257Y-90123701D01*
X146848701Y-90213257D01*
X146768090Y-90333901D01*
X146712563Y-90467954D01*
X146684256Y-90610263D01*
X146684256Y-90755361D01*
X146712563Y-90897670D01*
X146768090Y-91031723D01*
X146848701Y-91152367D01*
X146951301Y-91254967D01*
X147071945Y-91335578D01*
X147205998Y-91391105D01*
X147348307Y-91419412D01*
X147493405Y-91419412D01*
X147635714Y-91391105D01*
X147769767Y-91335578D01*
X147890411Y-91254967D01*
X147993011Y-91152367D01*
X148073622Y-91031723D01*
X148129149Y-90897670D01*
X148157456Y-90755361D01*
X148157456Y-90610263D01*
X148129149Y-90467954D01*
X148073622Y-90333901D01*
X147993011Y-90213257D01*
X147903456Y-90123702D01*
X147903456Y-88946068D01*
X147905791Y-88922361D01*
X147896473Y-88827754D01*
X147868878Y-88736784D01*
X147859376Y-88719008D01*
X147824065Y-88652946D01*
X147763757Y-88579460D01*
X147745343Y-88564348D01*
X147449174Y-88268179D01*
X150201974Y-88268179D01*
X150152096Y-88342827D01*
X150096569Y-88476880D01*
X150068262Y-88619189D01*
X150068262Y-88764287D01*
X150096569Y-88906596D01*
X150152096Y-89040649D01*
X150232707Y-89161293D01*
X150322263Y-89250849D01*
X150322262Y-89585595D01*
X148766289Y-91141569D01*
X148639639Y-91141569D01*
X148497330Y-91169876D01*
X148363277Y-91225403D01*
X148242633Y-91306014D01*
X148140033Y-91408614D01*
X148059422Y-91529258D01*
X148003895Y-91663311D01*
X147975588Y-91805620D01*
X147975588Y-91950718D01*
X148003895Y-92093027D01*
X148059422Y-92227080D01*
X148124991Y-92325212D01*
X147047306Y-92325212D01*
X147015411Y-92293317D01*
X146894767Y-92212706D01*
X146760714Y-92157179D01*
X146618405Y-92128872D01*
X146473307Y-92128872D01*
X146330998Y-92157179D01*
X146196945Y-92212706D01*
X146076301Y-92293317D01*
X145973701Y-92395917D01*
X145893090Y-92516561D01*
X145837563Y-92650614D01*
X145809256Y-92792923D01*
X145809256Y-92938021D01*
X145837563Y-93080330D01*
X145893090Y-93214383D01*
X145973701Y-93335027D01*
X146076301Y-93437627D01*
X146119439Y-93466451D01*
X146090542Y-93536214D01*
X146062235Y-93678523D01*
X146062235Y-93823621D01*
X146090542Y-93965930D01*
X146146069Y-94099983D01*
X146197488Y-94176938D01*
X146124555Y-94265808D01*
X146053798Y-94398185D01*
X146010226Y-94541822D01*
X145995514Y-94691200D01*
X146010226Y-94840578D01*
X146053798Y-94984215D01*
X146124555Y-95116592D01*
X146219778Y-95232622D01*
X146335808Y-95327845D01*
X146468185Y-95398602D01*
X146611822Y-95442174D01*
X146723774Y-95453200D01*
X150330573Y-95453200D01*
X150367996Y-95456886D01*
X150405419Y-95453200D01*
X150405422Y-95453200D01*
X150517374Y-95442174D01*
X150661011Y-95398602D01*
X150793388Y-95327845D01*
X150909418Y-95232622D01*
X150933280Y-95203546D01*
X152228679Y-93908148D01*
X152300045Y-93821189D01*
X152370801Y-93688812D01*
X152414373Y-93545175D01*
X152429086Y-93395796D01*
X152414373Y-93246418D01*
X152370801Y-93102781D01*
X152300045Y-92970404D01*
X152204821Y-92854375D01*
X152088792Y-92759151D01*
X151956415Y-92688395D01*
X151812778Y-92644823D01*
X151663400Y-92630110D01*
X151514021Y-92644823D01*
X151370384Y-92688395D01*
X151238007Y-92759151D01*
X151151048Y-92830517D01*
X151021087Y-92960478D01*
X151011967Y-92938460D01*
X150931356Y-92817816D01*
X150828756Y-92715216D01*
X150708112Y-92634605D01*
X150574059Y-92579078D01*
X150431750Y-92550771D01*
X150286652Y-92550771D01*
X150272608Y-92553564D01*
X150233397Y-92458901D01*
X150152786Y-92338257D01*
X150050186Y-92235657D01*
X149929542Y-92155046D01*
X149795489Y-92099519D01*
X149653180Y-92071212D01*
X149508082Y-92071212D01*
X149421390Y-92088456D01*
X149448788Y-91950718D01*
X149448788Y-91824068D01*
X151129350Y-90143507D01*
X151147763Y-90128396D01*
X151169774Y-90101576D01*
X151208070Y-90054911D01*
X151217575Y-90037130D01*
X151252884Y-89971072D01*
X151269323Y-89916878D01*
X151280479Y-89880102D01*
X151289797Y-89785495D01*
X151287462Y-89761788D01*
X151287462Y-89250848D01*
X151377017Y-89161293D01*
X151457628Y-89040649D01*
X151513155Y-88906596D01*
X151541462Y-88764287D01*
X151541462Y-88619189D01*
X151522166Y-88522179D01*
X151532769Y-88522179D01*
X151675078Y-88493872D01*
X151809131Y-88438345D01*
X151929775Y-88357734D01*
X152032375Y-88255134D01*
X152112986Y-88134490D01*
X152159303Y-88022671D01*
X152241091Y-88038940D01*
X152386189Y-88038940D01*
X152528498Y-88010633D01*
X152662551Y-87955106D01*
X152783195Y-87874495D01*
X152885795Y-87771895D01*
X152966406Y-87651251D01*
X153021933Y-87517198D01*
X153050240Y-87374889D01*
X153050240Y-87229791D01*
X153021933Y-87087482D01*
X152966406Y-86953429D01*
X152885795Y-86832785D01*
X152783195Y-86730185D01*
X152662551Y-86649574D01*
X152528498Y-86594047D01*
X152386189Y-86565740D01*
X152254517Y-86565740D01*
X152227456Y-86543532D01*
X152143618Y-86498719D01*
X152052647Y-86471124D01*
X151981748Y-86464141D01*
X151981746Y-86464141D01*
X151958041Y-86461806D01*
X151934336Y-86464141D01*
X151339546Y-86464141D01*
X151315839Y-86461806D01*
X151221232Y-86471124D01*
X151152603Y-86491942D01*
X151130262Y-86498719D01*
X151046424Y-86543532D01*
X151037776Y-86550629D01*
X150999463Y-86582072D01*
X150972938Y-86603840D01*
X150957826Y-86622254D01*
X150740021Y-86840060D01*
X140996244Y-86840060D01*
X140972539Y-86837725D01*
X140948834Y-86840060D01*
X140948833Y-86840060D01*
X140877934Y-86847043D01*
X140786963Y-86874638D01*
X140703125Y-86919451D01*
X140690572Y-86929753D01*
X140655556Y-86958490D01*
X140629639Y-86979759D01*
X140614528Y-86998173D01*
X140033501Y-87579200D01*
X139906851Y-87579200D01*
X139764542Y-87607507D01*
X139630489Y-87663034D01*
X139509845Y-87743645D01*
X139407245Y-87846245D01*
X139326634Y-87966889D01*
X139271107Y-88100942D01*
X139242800Y-88243251D01*
X104982842Y-88243251D01*
X105000598Y-88198141D01*
X105197302Y-87922756D01*
X105211882Y-87904767D01*
X105455173Y-87639358D01*
X105485704Y-87612486D01*
X105865946Y-87344079D01*
X105895955Y-87326756D01*
X106157692Y-87205955D01*
X106210491Y-87190362D01*
X106675639Y-87123913D01*
X106702553Y-87122000D01*
X139139865Y-87122000D01*
X139165400Y-87119406D01*
X139265455Y-87098869D01*
X139289948Y-87091194D01*
X139564628Y-86973474D01*
X139580473Y-86965324D01*
X139641260Y-86928446D01*
X139655808Y-86918158D01*
X139892427Y-86724561D01*
X139899670Y-86718159D01*
X139927624Y-86691491D01*
X139934358Y-86684559D01*
X140119753Y-86478565D01*
X140133181Y-86460706D01*
X140180217Y-86385122D01*
X140190308Y-86365189D01*
X140307750Y-86071584D01*
X140314541Y-86048434D01*
X140332708Y-85954101D01*
X140335000Y-85930084D01*
X140335000Y-85766041D01*
X154550598Y-85766041D01*
X154550598Y-85911139D01*
X154578905Y-86053448D01*
X154634432Y-86187501D01*
X154715043Y-86308145D01*
X154804598Y-86397700D01*
X154804599Y-87100299D01*
X154715043Y-87189855D01*
X154634432Y-87310499D01*
X154578905Y-87444552D01*
X154550598Y-87586861D01*
X154550598Y-87731959D01*
X154578905Y-87874268D01*
X154634432Y-88008321D01*
X154715043Y-88128965D01*
X154817643Y-88231565D01*
X154938287Y-88312176D01*
X155072340Y-88367703D01*
X155214649Y-88396010D01*
X155359747Y-88396010D01*
X155502056Y-88367703D01*
X155636109Y-88312176D01*
X155756753Y-88231565D01*
X155859353Y-88128965D01*
X155939964Y-88008321D01*
X155995491Y-87874268D01*
X156023798Y-87731959D01*
X156023798Y-87586861D01*
X155995491Y-87444552D01*
X155939964Y-87310499D01*
X155859353Y-87189855D01*
X155769798Y-87100300D01*
X155769798Y-86397700D01*
X155859353Y-86308145D01*
X155939964Y-86187501D01*
X155995491Y-86053448D01*
X156023798Y-85911139D01*
X156023798Y-85766041D01*
X155995491Y-85623732D01*
X155939964Y-85489679D01*
X155859353Y-85369035D01*
X155756753Y-85266435D01*
X155636109Y-85185824D01*
X155502056Y-85130297D01*
X155359747Y-85101990D01*
X155214649Y-85101990D01*
X155072340Y-85130297D01*
X154938287Y-85185824D01*
X154817643Y-85266435D01*
X154715043Y-85369035D01*
X154634432Y-85489679D01*
X154578905Y-85623732D01*
X154550598Y-85766041D01*
X140335000Y-85766041D01*
X140335000Y-84915851D01*
X157353000Y-84915851D01*
X157353000Y-85060949D01*
X157381307Y-85203258D01*
X157436834Y-85337311D01*
X157517445Y-85457955D01*
X157620045Y-85560555D01*
X157740689Y-85641166D01*
X157874742Y-85696693D01*
X158017051Y-85725000D01*
X158162149Y-85725000D01*
X158304458Y-85696693D01*
X158438511Y-85641166D01*
X158559155Y-85560555D01*
X158648710Y-85471000D01*
X158902090Y-85471000D01*
X158991645Y-85560555D01*
X159112289Y-85641166D01*
X159246342Y-85696693D01*
X159388651Y-85725000D01*
X159533749Y-85725000D01*
X159676058Y-85696693D01*
X159810111Y-85641166D01*
X159930755Y-85560555D01*
X160033355Y-85457955D01*
X160113966Y-85337311D01*
X160169493Y-85203258D01*
X160197800Y-85060949D01*
X160197800Y-84915851D01*
X160169493Y-84773542D01*
X160113966Y-84639489D01*
X160033355Y-84518845D01*
X159930755Y-84416245D01*
X159810111Y-84335634D01*
X159676058Y-84280107D01*
X159533749Y-84251800D01*
X159388651Y-84251800D01*
X159246342Y-84280107D01*
X159112289Y-84335634D01*
X158991645Y-84416245D01*
X158902090Y-84505800D01*
X158648710Y-84505800D01*
X158559155Y-84416245D01*
X158438511Y-84335634D01*
X158304458Y-84280107D01*
X158162149Y-84251800D01*
X158017051Y-84251800D01*
X157874742Y-84280107D01*
X157740689Y-84335634D01*
X157620045Y-84416245D01*
X157517445Y-84518845D01*
X157436834Y-84639489D01*
X157381307Y-84773542D01*
X157353000Y-84915851D01*
X140335000Y-84915851D01*
X140335000Y-81192810D01*
X140335783Y-81175538D01*
X140353320Y-80982644D01*
X140379572Y-80902223D01*
X140381858Y-80898413D01*
X140439306Y-80838164D01*
X140465575Y-80820652D01*
X140553540Y-80789602D01*
X140738538Y-80772783D01*
X140755810Y-80772000D01*
X185393735Y-80772000D01*
X185425029Y-80774590D01*
G04 #@! TA.AperFunction,Conductor*
D18*
G36*
X185425029Y-80774590D02*
G01*
X186114078Y-80889432D01*
X186167862Y-80906921D01*
X186587178Y-81116580D01*
X186636580Y-81152186D01*
X186817814Y-81333420D01*
X186853420Y-81382822D01*
X187063079Y-81802138D01*
X187080568Y-81855922D01*
X187195410Y-82544971D01*
X187198000Y-82576265D01*
X187198000Y-121018490D01*
X187186033Y-121078649D01*
X187159043Y-121119043D01*
X187118649Y-121146033D01*
X187058490Y-121158000D01*
X178659830Y-121158000D01*
X178732186Y-121049711D01*
X178787713Y-120915658D01*
X178816020Y-120773349D01*
X178816020Y-120628251D01*
X178787713Y-120485942D01*
X178732186Y-120351889D01*
X178651575Y-120231245D01*
X178548975Y-120128645D01*
X178428331Y-120048034D01*
X178294278Y-119992507D01*
X178151969Y-119964200D01*
X178006871Y-119964200D01*
X177864562Y-119992507D01*
X177730509Y-120048034D01*
X177609865Y-120128645D01*
X177520310Y-120218200D01*
X176885914Y-120218200D01*
X176796355Y-120128641D01*
X176675711Y-120048030D01*
X176541658Y-119992503D01*
X176399349Y-119964196D01*
X176292802Y-119964196D01*
X176298493Y-119950458D01*
X176326800Y-119808149D01*
X176326800Y-119663051D01*
X176298493Y-119520742D01*
X176242966Y-119386689D01*
X176162355Y-119266045D01*
X176059755Y-119163445D01*
X175939111Y-119082834D01*
X175872372Y-119055190D01*
X175890159Y-119045682D01*
X175963645Y-118985374D01*
X175978761Y-118966955D01*
X176704480Y-118241237D01*
X176727893Y-118241237D01*
X176707800Y-118342251D01*
X176707800Y-118487349D01*
X176736107Y-118629658D01*
X176791634Y-118763711D01*
X176872245Y-118884355D01*
X176974845Y-118986955D01*
X177095489Y-119067566D01*
X177229542Y-119123093D01*
X177371851Y-119151400D01*
X177516949Y-119151400D01*
X177659258Y-119123093D01*
X177793311Y-119067566D01*
X177913955Y-118986955D01*
X178016555Y-118884355D01*
X178097166Y-118763711D01*
X178152693Y-118629658D01*
X178181000Y-118487349D01*
X178181000Y-118342251D01*
X178152693Y-118199942D01*
X178097166Y-118065889D01*
X178016555Y-117945245D01*
X177927000Y-117855690D01*
X177927000Y-117236767D01*
X177929335Y-117213062D01*
X177926559Y-117184881D01*
X177920017Y-117118457D01*
X177892422Y-117027486D01*
X177847609Y-116943648D01*
X177812576Y-116900960D01*
X177802413Y-116888576D01*
X177802412Y-116888575D01*
X177787301Y-116870162D01*
X177768887Y-116855050D01*
X177433590Y-116519753D01*
X177418474Y-116501335D01*
X177344988Y-116441027D01*
X177261150Y-116396214D01*
X177170179Y-116368619D01*
X177099280Y-116361636D01*
X177099278Y-116361636D01*
X177075573Y-116359301D01*
X177051868Y-116361636D01*
X176465291Y-116361636D01*
X176441586Y-116359301D01*
X176417881Y-116361636D01*
X176417880Y-116361636D01*
X176346981Y-116368619D01*
X176256010Y-116396214D01*
X176172172Y-116441027D01*
X176098686Y-116501335D01*
X176083570Y-116519754D01*
X175773697Y-116829627D01*
X175755278Y-116844743D01*
X175694970Y-116918229D01*
X175650157Y-117002068D01*
X175622562Y-117093039D01*
X175615673Y-117162980D01*
X175613244Y-117187644D01*
X175615579Y-117211349D01*
X175615579Y-117374395D01*
X175236512Y-117753462D01*
X174319798Y-117753462D01*
X174345600Y-117623749D01*
X174345600Y-117478651D01*
X174317293Y-117336342D01*
X174261766Y-117202289D01*
X174181155Y-117081645D01*
X174117000Y-117017490D01*
X174117000Y-115722708D01*
X174176768Y-115662940D01*
X174257379Y-115542296D01*
X174312906Y-115408243D01*
X174341213Y-115265934D01*
X174341213Y-115120836D01*
X174312906Y-114978527D01*
X174257379Y-114844474D01*
X174176768Y-114723830D01*
X174074168Y-114621230D01*
X173953524Y-114540619D01*
X173819471Y-114485092D01*
X173677162Y-114456785D01*
X173532064Y-114456785D01*
X173389755Y-114485092D01*
X173255702Y-114540619D01*
X173135058Y-114621230D01*
X173032458Y-114723830D01*
X172951847Y-114844474D01*
X172896320Y-114978527D01*
X172868013Y-115120836D01*
X172868013Y-115265934D01*
X172896320Y-115408243D01*
X172951847Y-115542296D01*
X173032458Y-115662940D01*
X173101001Y-115731483D01*
X173101000Y-117017490D01*
X173036845Y-117081645D01*
X172956234Y-117202289D01*
X172900707Y-117336342D01*
X172872400Y-117478651D01*
X172872400Y-117623749D01*
X172898202Y-117753462D01*
X168808002Y-117753462D01*
X168833800Y-117623768D01*
X168833800Y-117478670D01*
X168805493Y-117336361D01*
X168749966Y-117202308D01*
X168669355Y-117081664D01*
X168605200Y-117017509D01*
X168605200Y-115519510D01*
X168669355Y-115455355D01*
X168749966Y-115334711D01*
X168805493Y-115200658D01*
X168833800Y-115058349D01*
X168833800Y-114913251D01*
X168805493Y-114770942D01*
X168749966Y-114636889D01*
X168669355Y-114516245D01*
X168566755Y-114413645D01*
X168446111Y-114333034D01*
X168312058Y-114277507D01*
X168169749Y-114249200D01*
X168024651Y-114249200D01*
X167882342Y-114277507D01*
X167748289Y-114333034D01*
X167627645Y-114413645D01*
X167525045Y-114516245D01*
X167444434Y-114636889D01*
X167388907Y-114770942D01*
X167360600Y-114913251D01*
X167360600Y-115058349D01*
X167388907Y-115200658D01*
X167444434Y-115334711D01*
X167525045Y-115455355D01*
X167589200Y-115519510D01*
X167589201Y-117017508D01*
X167525045Y-117081664D01*
X167444434Y-117202308D01*
X167388907Y-117336361D01*
X167360600Y-117478670D01*
X167360600Y-117623768D01*
X167386398Y-117753462D01*
X167049780Y-117753462D01*
X166903400Y-117607083D01*
X166903400Y-117363439D01*
X166905735Y-117339732D01*
X166896417Y-117245125D01*
X166868822Y-117154155D01*
X166865515Y-117147968D01*
X166824009Y-117070317D01*
X166790768Y-117029812D01*
X166778813Y-117015245D01*
X166778812Y-117015244D01*
X166763701Y-116996831D01*
X166745287Y-116981719D01*
X166329885Y-116566318D01*
X166314769Y-116547899D01*
X166241283Y-116487591D01*
X166157445Y-116442778D01*
X166066474Y-116415183D01*
X165995575Y-116408200D01*
X165995573Y-116408200D01*
X165971868Y-116405865D01*
X165948163Y-116408200D01*
X164615707Y-116408200D01*
X164592000Y-116405865D01*
X164497393Y-116415183D01*
X164418007Y-116439264D01*
X164406423Y-116442778D01*
X164322585Y-116487591D01*
X164249099Y-116547899D01*
X164233988Y-116566312D01*
X161819071Y-118981230D01*
X150942004Y-118981230D01*
X151317707Y-118605527D01*
X151336121Y-118590415D01*
X151352787Y-118570108D01*
X151390433Y-118524235D01*
X151396429Y-118516929D01*
X151441242Y-118433091D01*
X151468837Y-118342120D01*
X151472268Y-118307282D01*
X151565375Y-118214175D01*
X151645986Y-118093531D01*
X151701513Y-117959478D01*
X151729820Y-117817169D01*
X151729820Y-117672071D01*
X151701513Y-117529762D01*
X151645986Y-117395709D01*
X151565375Y-117275065D01*
X151462775Y-117172465D01*
X151342131Y-117091854D01*
X151208078Y-117036327D01*
X151065769Y-117008020D01*
X150920671Y-117008020D01*
X150778362Y-117036327D01*
X150644309Y-117091854D01*
X150523665Y-117172465D01*
X150421065Y-117275065D01*
X150340454Y-117395709D01*
X150284927Y-117529762D01*
X150256620Y-117672071D01*
X150256620Y-117817169D01*
X150284927Y-117959478D01*
X150340454Y-118093531D01*
X150390221Y-118168013D01*
X149983415Y-118574820D01*
X146714719Y-118574820D01*
X145437860Y-117297961D01*
X145437860Y-117171311D01*
X145409553Y-117029002D01*
X145354026Y-116894949D01*
X145273415Y-116774305D01*
X145170815Y-116671705D01*
X145050171Y-116591094D01*
X144916118Y-116535567D01*
X144773809Y-116507260D01*
X144628711Y-116507260D01*
X144486402Y-116535567D01*
X144352349Y-116591094D01*
X144231705Y-116671705D01*
X144129105Y-116774305D01*
X144048494Y-116894949D01*
X143992967Y-117029002D01*
X143964660Y-117171311D01*
X143964660Y-117316409D01*
X143992967Y-117458718D01*
X144048494Y-117592771D01*
X144129105Y-117713415D01*
X144231705Y-117816015D01*
X144352349Y-117896626D01*
X144486402Y-117952153D01*
X144542200Y-117963252D01*
X141825598Y-117963252D01*
X141795137Y-117954012D01*
X141724238Y-117947029D01*
X141724236Y-117947029D01*
X141700531Y-117944694D01*
X141676826Y-117947029D01*
X137778678Y-117947029D01*
X137754971Y-117944694D01*
X137660364Y-117954012D01*
X137592902Y-117974476D01*
X137569394Y-117981607D01*
X137485556Y-118026420D01*
X137465788Y-118042643D01*
X137437463Y-118065889D01*
X137412070Y-118086728D01*
X137396958Y-118105142D01*
X136935498Y-118566603D01*
X136089206Y-118566603D01*
X136115693Y-118502658D01*
X136144000Y-118360349D01*
X136144000Y-118215251D01*
X136115693Y-118072942D01*
X136060166Y-117938889D01*
X135979555Y-117818245D01*
X135876955Y-117715645D01*
X135756311Y-117635034D01*
X135622258Y-117579507D01*
X135479949Y-117551200D01*
X135334851Y-117551200D01*
X135192542Y-117579507D01*
X135058489Y-117635034D01*
X134937845Y-117715645D01*
X134848290Y-117805200D01*
X134388100Y-117805200D01*
X133835016Y-117252117D01*
X133819900Y-117233698D01*
X133746414Y-117173390D01*
X133662576Y-117128577D01*
X133571605Y-117100982D01*
X133500706Y-117093999D01*
X133500704Y-117093999D01*
X133476999Y-117091664D01*
X133453294Y-117093999D01*
X132218503Y-117093999D01*
X132194806Y-117091665D01*
X132171109Y-117093999D01*
X132171100Y-117093999D01*
X132100201Y-117100982D01*
X132009230Y-117128577D01*
X131925392Y-117173390D01*
X131851906Y-117233698D01*
X131836790Y-117252117D01*
X131335124Y-117753783D01*
X127808882Y-117753783D01*
X127711706Y-117656607D01*
X127711706Y-116991213D01*
X127714041Y-116967506D01*
X127704723Y-116872899D01*
X127677128Y-116781929D01*
X127668101Y-116765041D01*
X127632315Y-116698091D01*
X127572007Y-116624605D01*
X127553593Y-116609493D01*
X127256416Y-116312317D01*
X127241301Y-116293899D01*
X127167815Y-116233591D01*
X127149472Y-116223787D01*
X126477607Y-115551922D01*
X126462496Y-115533509D01*
X126389010Y-115473201D01*
X126305172Y-115428388D01*
X126214201Y-115400793D01*
X126143302Y-115393810D01*
X126143301Y-115393810D01*
X126119596Y-115391475D01*
X126095891Y-115393810D01*
X124683965Y-115393812D01*
X124660258Y-115391477D01*
X124565652Y-115400795D01*
X124474682Y-115428390D01*
X124390843Y-115473203D01*
X124335772Y-115518399D01*
X124317358Y-115533511D01*
X124302247Y-115551924D01*
X123678318Y-116175853D01*
X123659899Y-116190969D01*
X123599591Y-116264455D01*
X123554778Y-116348294D01*
X123527183Y-116439265D01*
X123520486Y-116507260D01*
X123517865Y-116533870D01*
X123520200Y-116557576D01*
X123520201Y-116916190D01*
X122832717Y-116916190D01*
X122809010Y-116913855D01*
X122714403Y-116923173D01*
X122648313Y-116943221D01*
X122623433Y-116950768D01*
X122539595Y-116995581D01*
X122511296Y-117018805D01*
X122489946Y-117036327D01*
X122466109Y-117055889D01*
X122450998Y-117074303D01*
X121694721Y-117830580D01*
X117928880Y-117830580D01*
X117017810Y-116919511D01*
X117017810Y-110588289D01*
X120339482Y-107266617D01*
X120357901Y-107251501D01*
X120418209Y-107178015D01*
X120463022Y-107094177D01*
X120490617Y-107003206D01*
X120497600Y-106932307D01*
X120497600Y-106932306D01*
X120498906Y-106919045D01*
X148444394Y-106919045D01*
X148444394Y-107064143D01*
X148472701Y-107206452D01*
X148528228Y-107340505D01*
X148608839Y-107461149D01*
X148698395Y-107550705D01*
X148698395Y-107958480D01*
X148696059Y-107982194D01*
X148705378Y-108076800D01*
X148732972Y-108167770D01*
X148777786Y-108251609D01*
X148806990Y-108287194D01*
X148838094Y-108325095D01*
X148856507Y-108340206D01*
X149199600Y-108683300D01*
X149199600Y-108809949D01*
X149227907Y-108952258D01*
X149283434Y-109086311D01*
X149364045Y-109206955D01*
X149466645Y-109309555D01*
X149587289Y-109390166D01*
X149721342Y-109445693D01*
X149863651Y-109474000D01*
X150008749Y-109474000D01*
X150151058Y-109445693D01*
X150285111Y-109390166D01*
X150405755Y-109309555D01*
X150508355Y-109206955D01*
X150588966Y-109086311D01*
X150644493Y-108952258D01*
X150672800Y-108809949D01*
X150672800Y-108664851D01*
X150644493Y-108522542D01*
X150588966Y-108388489D01*
X150508355Y-108267845D01*
X150405755Y-108165245D01*
X150285111Y-108084634D01*
X150151058Y-108029107D01*
X150008749Y-108000800D01*
X149882100Y-108000800D01*
X149663594Y-107782295D01*
X149663594Y-107550704D01*
X149753149Y-107461149D01*
X149833760Y-107340505D01*
X149889287Y-107206452D01*
X149917594Y-107064143D01*
X149917594Y-106919045D01*
X149889287Y-106776736D01*
X149833760Y-106642683D01*
X149753149Y-106522039D01*
X149650549Y-106419439D01*
X149529905Y-106338828D01*
X149395852Y-106283301D01*
X149253543Y-106254994D01*
X149108445Y-106254994D01*
X148966136Y-106283301D01*
X148832083Y-106338828D01*
X148711439Y-106419439D01*
X148608839Y-106522039D01*
X148528228Y-106642683D01*
X148472701Y-106776736D01*
X148444394Y-106919045D01*
X120498906Y-106919045D01*
X120499935Y-106908601D01*
X120497600Y-106884896D01*
X120497600Y-102571476D01*
X143523225Y-102571476D01*
X143523225Y-102716574D01*
X143551532Y-102858883D01*
X143607059Y-102992936D01*
X143687670Y-103113580D01*
X143790270Y-103216180D01*
X143910914Y-103296791D01*
X144044967Y-103352318D01*
X144187276Y-103380625D01*
X144332374Y-103380625D01*
X144474683Y-103352318D01*
X144608736Y-103296791D01*
X144729380Y-103216180D01*
X144818935Y-103126625D01*
X145275228Y-103126625D01*
X145219351Y-103210251D01*
X145163824Y-103344304D01*
X145135517Y-103486613D01*
X145135517Y-103631711D01*
X145163824Y-103774020D01*
X145219351Y-103908073D01*
X145237882Y-103935808D01*
X145147645Y-104026045D01*
X145067034Y-104146689D01*
X145011507Y-104280742D01*
X144983200Y-104423051D01*
X144983200Y-104568149D01*
X145011507Y-104710458D01*
X145067034Y-104844511D01*
X145147645Y-104965155D01*
X145250245Y-105067755D01*
X145370889Y-105148366D01*
X145504942Y-105203893D01*
X145647251Y-105232200D01*
X145792349Y-105232200D01*
X145934658Y-105203893D01*
X146068711Y-105148366D01*
X146189355Y-105067755D01*
X146278910Y-104978200D01*
X148900472Y-104978200D01*
X149003089Y-105046766D01*
X149137142Y-105102293D01*
X149279451Y-105130600D01*
X149424549Y-105130600D01*
X149566858Y-105102293D01*
X149700911Y-105046766D01*
X149821555Y-104966155D01*
X149924155Y-104863555D01*
X150004766Y-104742911D01*
X150060293Y-104608858D01*
X150088600Y-104466549D01*
X150088600Y-104321451D01*
X150060293Y-104179142D01*
X150004766Y-104045089D01*
X149924155Y-103924445D01*
X149821555Y-103821845D01*
X149706282Y-103744823D01*
X150225506Y-103225600D01*
X153446570Y-103225600D01*
X153445055Y-103240985D01*
X153439065Y-103301800D01*
X153441400Y-103325505D01*
X153441401Y-111610899D01*
X152479501Y-112572800D01*
X152352851Y-112572800D01*
X152210542Y-112601107D01*
X152076489Y-112656634D01*
X151955845Y-112737245D01*
X151853245Y-112839845D01*
X151772634Y-112960489D01*
X151717107Y-113094542D01*
X151688800Y-113236851D01*
X151688800Y-113381949D01*
X151717107Y-113524258D01*
X151772634Y-113658311D01*
X151853245Y-113778955D01*
X151955845Y-113881555D01*
X152076489Y-113962166D01*
X152210542Y-114017693D01*
X152352851Y-114046000D01*
X152497949Y-114046000D01*
X152640258Y-114017693D01*
X152774311Y-113962166D01*
X152894955Y-113881555D01*
X152984195Y-113792315D01*
X153048045Y-113856165D01*
X153168689Y-113936776D01*
X153302742Y-113992303D01*
X153445051Y-114020610D01*
X153590149Y-114020610D01*
X153732458Y-113992303D01*
X153866511Y-113936776D01*
X153987155Y-113856165D01*
X154089755Y-113753565D01*
X154170366Y-113632921D01*
X154225893Y-113498868D01*
X154254200Y-113356559D01*
X154254200Y-113313062D01*
X167360600Y-113313062D01*
X167360600Y-113458160D01*
X167388907Y-113600469D01*
X167444434Y-113734522D01*
X167525045Y-113855166D01*
X167627645Y-113957766D01*
X167748289Y-114038377D01*
X167882342Y-114093904D01*
X168024651Y-114122211D01*
X168169749Y-114122211D01*
X168312058Y-114093904D01*
X168446111Y-114038377D01*
X168566755Y-113957766D01*
X168669355Y-113855166D01*
X168749966Y-113734522D01*
X168805493Y-113600469D01*
X168833800Y-113458160D01*
X168833800Y-113313062D01*
X168805493Y-113170753D01*
X168749966Y-113036700D01*
X168669355Y-112916056D01*
X168615647Y-112862348D01*
X168615647Y-112594441D01*
X168679802Y-112530286D01*
X168760413Y-112409642D01*
X168815940Y-112275589D01*
X168844247Y-112133280D01*
X168844247Y-111988182D01*
X168843441Y-111984127D01*
X172860746Y-111984127D01*
X172860746Y-112129225D01*
X172889053Y-112271534D01*
X172944580Y-112405587D01*
X173025191Y-112526231D01*
X173089346Y-112590386D01*
X173089347Y-112854554D01*
X173027845Y-112916056D01*
X172947234Y-113036700D01*
X172891707Y-113170753D01*
X172863400Y-113313062D01*
X172863400Y-113458160D01*
X172891707Y-113600469D01*
X172947234Y-113734522D01*
X173027845Y-113855166D01*
X173130445Y-113957766D01*
X173251089Y-114038377D01*
X173385142Y-114093904D01*
X173527451Y-114122211D01*
X173672549Y-114122211D01*
X173814858Y-114093904D01*
X173948911Y-114038377D01*
X174069555Y-113957766D01*
X174172155Y-113855166D01*
X174252766Y-113734522D01*
X174308293Y-113600469D01*
X174336600Y-113458160D01*
X174336600Y-113313062D01*
X174308293Y-113170753D01*
X174252766Y-113036700D01*
X174172155Y-112916056D01*
X174105346Y-112849247D01*
X174105346Y-112590386D01*
X174169501Y-112526231D01*
X174250112Y-112405587D01*
X174305639Y-112271534D01*
X174333946Y-112129225D01*
X174333946Y-111984127D01*
X174305639Y-111841818D01*
X174250112Y-111707765D01*
X174169501Y-111587121D01*
X174066901Y-111484521D01*
X173946257Y-111403910D01*
X173812204Y-111348383D01*
X173669895Y-111320076D01*
X173524797Y-111320076D01*
X173382488Y-111348383D01*
X173248435Y-111403910D01*
X173127791Y-111484521D01*
X173025191Y-111587121D01*
X172944580Y-111707765D01*
X172889053Y-111841818D01*
X172860746Y-111984127D01*
X168843441Y-111984127D01*
X168815940Y-111845873D01*
X168760413Y-111711820D01*
X168679802Y-111591176D01*
X168577202Y-111488576D01*
X168456558Y-111407965D01*
X168322505Y-111352438D01*
X168180196Y-111324131D01*
X168035098Y-111324131D01*
X167892789Y-111352438D01*
X167758736Y-111407965D01*
X167638092Y-111488576D01*
X167535492Y-111591176D01*
X167454881Y-111711820D01*
X167399354Y-111845873D01*
X167371047Y-111988182D01*
X167371047Y-112133280D01*
X167399354Y-112275589D01*
X167454881Y-112409642D01*
X167535492Y-112530286D01*
X167599647Y-112594441D01*
X167599648Y-112841453D01*
X167525045Y-112916056D01*
X167444434Y-113036700D01*
X167388907Y-113170753D01*
X167360600Y-113313062D01*
X154254200Y-113313062D01*
X154254200Y-113211461D01*
X154225893Y-113069152D01*
X154170366Y-112935099D01*
X154169418Y-112933681D01*
X154680281Y-112422818D01*
X154698700Y-112407702D01*
X154759008Y-112334216D01*
X154773535Y-112307037D01*
X157327600Y-112307037D01*
X157327600Y-112452135D01*
X157355907Y-112594444D01*
X157411434Y-112728497D01*
X157492045Y-112849141D01*
X157594645Y-112951741D01*
X157715289Y-113032352D01*
X157849342Y-113087879D01*
X157991651Y-113116186D01*
X158136749Y-113116186D01*
X158279058Y-113087879D01*
X158413111Y-113032352D01*
X158533755Y-112951741D01*
X158636355Y-112849141D01*
X158716966Y-112728497D01*
X158772493Y-112594444D01*
X158785170Y-112530712D01*
X164533375Y-112530712D01*
X164622930Y-112620267D01*
X164743574Y-112700878D01*
X164877627Y-112756405D01*
X165019936Y-112784712D01*
X165165034Y-112784712D01*
X165307343Y-112756405D01*
X165441396Y-112700878D01*
X165562040Y-112620267D01*
X165664640Y-112517667D01*
X165745251Y-112397023D01*
X165800778Y-112262970D01*
X165829085Y-112120661D01*
X165829085Y-111975563D01*
X165800778Y-111833254D01*
X165745251Y-111699201D01*
X165664640Y-111578557D01*
X165562040Y-111475957D01*
X165441396Y-111395346D01*
X165307343Y-111339819D01*
X165165034Y-111311512D01*
X165019936Y-111311512D01*
X164877627Y-111339819D01*
X164743574Y-111395346D01*
X164622930Y-111475957D01*
X164533375Y-111565512D01*
X158419378Y-111565512D01*
X158395673Y-111563177D01*
X158371968Y-111565512D01*
X158371967Y-111565512D01*
X158301068Y-111572495D01*
X158210097Y-111600090D01*
X158129845Y-111642986D01*
X157991651Y-111642986D01*
X157849342Y-111671293D01*
X157715289Y-111726820D01*
X157594645Y-111807431D01*
X157492045Y-111910031D01*
X157411434Y-112030675D01*
X157355907Y-112164728D01*
X157327600Y-112307037D01*
X154773535Y-112307037D01*
X154803821Y-112250378D01*
X154831416Y-112159407D01*
X154838399Y-112088508D01*
X154838399Y-112088499D01*
X154840733Y-112064802D01*
X154838399Y-112041105D01*
X154838399Y-110057612D01*
X154969051Y-110083600D01*
X155114149Y-110083600D01*
X155256458Y-110055293D01*
X155390511Y-109999766D01*
X155511155Y-109919155D01*
X155613755Y-109816555D01*
X155694366Y-109695911D01*
X155749893Y-109561858D01*
X155778200Y-109419549D01*
X155778200Y-109274451D01*
X155749893Y-109132142D01*
X155694366Y-108998089D01*
X155613755Y-108877445D01*
X155549600Y-108813290D01*
X155549600Y-103613820D01*
X157385621Y-101777800D01*
X158052446Y-101777800D01*
X158110966Y-101836320D01*
X158231610Y-101916931D01*
X158365663Y-101972458D01*
X158507972Y-102000765D01*
X158653070Y-102000765D01*
X158795379Y-101972458D01*
X158929432Y-101916931D01*
X159050076Y-101836320D01*
X159152676Y-101733720D01*
X159233287Y-101613076D01*
X159288814Y-101479023D01*
X159317121Y-101336714D01*
X159317121Y-101217899D01*
X159900221Y-100634800D01*
X160658973Y-100634800D01*
X160683917Y-100637257D01*
X160708861Y-100634800D01*
X160708864Y-100634800D01*
X160783502Y-100627449D01*
X160879260Y-100598401D01*
X160967512Y-100551229D01*
X161044865Y-100487748D01*
X161060772Y-100468365D01*
X163765692Y-97763446D01*
X163856420Y-97763446D01*
X163998729Y-97735139D01*
X164132782Y-97679612D01*
X164253426Y-97599001D01*
X164356026Y-97496401D01*
X164436637Y-97375757D01*
X164492164Y-97241704D01*
X164520471Y-97099395D01*
X164520471Y-96954297D01*
X164492164Y-96811988D01*
X164436637Y-96677935D01*
X164356026Y-96557291D01*
X164253426Y-96454691D01*
X164132782Y-96374080D01*
X163998729Y-96318553D01*
X163856420Y-96290246D01*
X163711322Y-96290246D01*
X163652200Y-96302006D01*
X163652200Y-95795019D01*
X178117500Y-95795019D01*
X178117500Y-96482981D01*
X178251715Y-97157725D01*
X178514986Y-97793319D01*
X178897198Y-98365339D01*
X179383661Y-98851802D01*
X179955681Y-99234014D01*
X180591275Y-99497285D01*
X181266019Y-99631500D01*
X181953981Y-99631500D01*
X182628725Y-99497285D01*
X183264319Y-99234014D01*
X183836339Y-98851802D01*
X184322802Y-98365339D01*
X184705014Y-97793319D01*
X184968285Y-97157725D01*
X185102500Y-96482981D01*
X185102500Y-95795019D01*
X184968285Y-95120275D01*
X184705014Y-94484681D01*
X184322802Y-93912661D01*
X183836339Y-93426198D01*
X183264319Y-93043986D01*
X182628725Y-92780715D01*
X181953981Y-92646500D01*
X181266019Y-92646500D01*
X180591275Y-92780715D01*
X179955681Y-93043986D01*
X179383661Y-93426198D01*
X178897198Y-93912661D01*
X178514986Y-94484681D01*
X178251715Y-95120275D01*
X178117500Y-95795019D01*
X163652200Y-95795019D01*
X163652200Y-95326510D01*
X163741755Y-95236955D01*
X163822366Y-95116311D01*
X163877893Y-94982258D01*
X163906200Y-94839949D01*
X163906200Y-94694851D01*
X163877893Y-94552542D01*
X163822366Y-94418489D01*
X163741755Y-94297845D01*
X163639155Y-94195245D01*
X163518511Y-94114634D01*
X163384458Y-94059107D01*
X163242149Y-94030800D01*
X163097051Y-94030800D01*
X162954742Y-94059107D01*
X162820689Y-94114634D01*
X162700045Y-94195245D01*
X162597445Y-94297845D01*
X162516834Y-94418489D01*
X162461307Y-94552542D01*
X162433000Y-94694851D01*
X162433000Y-94839949D01*
X162461307Y-94982258D01*
X162516834Y-95116311D01*
X162597445Y-95236955D01*
X162687000Y-95326510D01*
X162687001Y-96549055D01*
X160909000Y-98327057D01*
X160909000Y-98193335D01*
X160911335Y-98169630D01*
X160909000Y-98145924D01*
X160902017Y-98075025D01*
X160874422Y-97984054D01*
X160829609Y-97900216D01*
X160769301Y-97826730D01*
X160750882Y-97811614D01*
X159562800Y-96623532D01*
X159562800Y-96467496D01*
X159565134Y-96443799D01*
X159562800Y-96420102D01*
X159562800Y-96420093D01*
X159555817Y-96349194D01*
X159528222Y-96258223D01*
X159483409Y-96174385D01*
X159423101Y-96100899D01*
X159404682Y-96085783D01*
X158955617Y-95636718D01*
X158940501Y-95618299D01*
X158867015Y-95557991D01*
X158783177Y-95513178D01*
X158692206Y-95485583D01*
X158621307Y-95478600D01*
X158621305Y-95478600D01*
X158597600Y-95476265D01*
X158573895Y-95478600D01*
X156295528Y-95478600D01*
X156271823Y-95476265D01*
X156248118Y-95478600D01*
X156248117Y-95478600D01*
X156177218Y-95485583D01*
X156086247Y-95513178D01*
X156002409Y-95557991D01*
X155928923Y-95618299D01*
X155913812Y-95636712D01*
X155132125Y-96418400D01*
X155005475Y-96418400D01*
X154863166Y-96446707D01*
X154729113Y-96502234D01*
X154608469Y-96582845D01*
X154505869Y-96685445D01*
X154425258Y-96806089D01*
X154369731Y-96940142D01*
X154341424Y-97082451D01*
X154341424Y-97227549D01*
X154369731Y-97369858D01*
X154425258Y-97503911D01*
X154505869Y-97624555D01*
X154608469Y-97727155D01*
X154729113Y-97807766D01*
X154863166Y-97863293D01*
X155005475Y-97891600D01*
X155030856Y-97891600D01*
X153352963Y-99569493D01*
X144957514Y-99569493D01*
X144933807Y-99567158D01*
X144839200Y-99576476D01*
X144748230Y-99604071D01*
X144664392Y-99648884D01*
X144597736Y-99703587D01*
X144473164Y-99703587D01*
X144330855Y-99731894D01*
X144196802Y-99787421D01*
X144076158Y-99868032D01*
X143973558Y-99970632D01*
X143892947Y-100091276D01*
X143837420Y-100225329D01*
X143809113Y-100367638D01*
X143809113Y-100512736D01*
X143837420Y-100655045D01*
X143892947Y-100789098D01*
X143973558Y-100909742D01*
X144076158Y-101012342D01*
X144196802Y-101092953D01*
X144330855Y-101148480D01*
X144473164Y-101176787D01*
X144618262Y-101176787D01*
X144760571Y-101148480D01*
X144894624Y-101092953D01*
X144928467Y-101070340D01*
X145003108Y-101182049D01*
X145015311Y-101194252D01*
X144970505Y-101239058D01*
X144843856Y-101239058D01*
X144701547Y-101267365D01*
X144567494Y-101322892D01*
X144446850Y-101403503D01*
X144344250Y-101506103D01*
X144263639Y-101626747D01*
X144208112Y-101760800D01*
X144179805Y-101903109D01*
X144179805Y-101908911D01*
X144044967Y-101935732D01*
X143910914Y-101991259D01*
X143790270Y-102071870D01*
X143687670Y-102174470D01*
X143607059Y-102295114D01*
X143551532Y-102429167D01*
X143523225Y-102571476D01*
X120497600Y-102571476D01*
X120497600Y-100809299D01*
X121185467Y-100121432D01*
X121212451Y-100126800D01*
X121357549Y-100126800D01*
X121499858Y-100098493D01*
X121633911Y-100042966D01*
X121754555Y-99962355D01*
X121857155Y-99859755D01*
X121937766Y-99739111D01*
X121993293Y-99605058D01*
X122021600Y-99462749D01*
X122021600Y-99317651D01*
X121993293Y-99175342D01*
X121937766Y-99041289D01*
X121857155Y-98920645D01*
X121754555Y-98818045D01*
X121633911Y-98737434D01*
X121499858Y-98681907D01*
X121357549Y-98653600D01*
X121212451Y-98653600D01*
X121070142Y-98681907D01*
X120936089Y-98737434D01*
X120815445Y-98818045D01*
X120712845Y-98920645D01*
X120632234Y-99041289D01*
X120576707Y-99175342D01*
X120548400Y-99317651D01*
X120548400Y-99393501D01*
X120157825Y-99784076D01*
X120189893Y-99706658D01*
X120218200Y-99564349D01*
X120218200Y-99419251D01*
X120189893Y-99276942D01*
X120134366Y-99142889D01*
X120053755Y-99022245D01*
X119951155Y-98919645D01*
X119830511Y-98839034D01*
X119696458Y-98783507D01*
X119554149Y-98755200D01*
X119409051Y-98755200D01*
X119266742Y-98783507D01*
X119132689Y-98839034D01*
X119012045Y-98919645D01*
X118909445Y-99022245D01*
X118828834Y-99142889D01*
X118773307Y-99276942D01*
X118745000Y-99419251D01*
X118745000Y-99564349D01*
X118773307Y-99706658D01*
X118828834Y-99840711D01*
X118909445Y-99961355D01*
X118999000Y-100050910D01*
X118999001Y-106657900D01*
X115753518Y-109903383D01*
X115735099Y-109918499D01*
X115674791Y-109991985D01*
X115629978Y-110075824D01*
X115602383Y-110166795D01*
X115595400Y-110237693D01*
X115593065Y-110261400D01*
X115595400Y-110285105D01*
X115595401Y-117222685D01*
X115593065Y-117246400D01*
X115602384Y-117341006D01*
X115629978Y-117431976D01*
X115674792Y-117515815D01*
X115717153Y-117567432D01*
X115735100Y-117589301D01*
X115753513Y-117604412D01*
X116792501Y-118643400D01*
X116292207Y-118643400D01*
X116268500Y-118641065D01*
X116173893Y-118650383D01*
X116105294Y-118671192D01*
X116082923Y-118677978D01*
X115999085Y-118722791D01*
X115996738Y-118724717D01*
X115949224Y-118763711D01*
X115925599Y-118783099D01*
X115910488Y-118801512D01*
X114046000Y-120666001D01*
X114046000Y-118745000D01*
X114038679Y-118670671D01*
X114016998Y-118599198D01*
X113981790Y-118533328D01*
X113934408Y-118475592D01*
X113876672Y-118428210D01*
X113810802Y-118393002D01*
X113739329Y-118371321D01*
X113665000Y-118364000D01*
X108839000Y-118364000D01*
X108764671Y-118371321D01*
X108693198Y-118393002D01*
X108627328Y-118428210D01*
X108569592Y-118475592D01*
X108522210Y-118533328D01*
X108487002Y-118599198D01*
X108465321Y-118670671D01*
X108458000Y-118745000D01*
X108458000Y-121158000D01*
X105041510Y-121158000D01*
X104981351Y-121146033D01*
X104940957Y-121119043D01*
X104913967Y-121078649D01*
X104902000Y-121018490D01*
X104902000Y-107547251D01*
X110007400Y-107547251D01*
X110007400Y-107692349D01*
X110035707Y-107834658D01*
X110091234Y-107968711D01*
X110171845Y-108089355D01*
X110261401Y-108178911D01*
X110261400Y-108991090D01*
X110171845Y-109080645D01*
X110091234Y-109201289D01*
X110035707Y-109335342D01*
X110007400Y-109477651D01*
X110007400Y-109622749D01*
X110035707Y-109765058D01*
X110091234Y-109899111D01*
X110171845Y-110019755D01*
X110274445Y-110122355D01*
X110395089Y-110202966D01*
X110529142Y-110258493D01*
X110671451Y-110286800D01*
X110816549Y-110286800D01*
X110958858Y-110258493D01*
X111092911Y-110202966D01*
X111213555Y-110122355D01*
X111316155Y-110019755D01*
X111396766Y-109899111D01*
X111452293Y-109765058D01*
X111480600Y-109622749D01*
X111480600Y-109477651D01*
X111452293Y-109335342D01*
X111396766Y-109201289D01*
X111316155Y-109080645D01*
X111226600Y-108991090D01*
X111226600Y-108178910D01*
X111316155Y-108089355D01*
X111396766Y-107968711D01*
X111452293Y-107834658D01*
X111480600Y-107692349D01*
X111480600Y-107547251D01*
X111452293Y-107404942D01*
X111396766Y-107270889D01*
X111316155Y-107150245D01*
X111213555Y-107047645D01*
X111092911Y-106967034D01*
X110958858Y-106911507D01*
X110816549Y-106883200D01*
X110671451Y-106883200D01*
X110529142Y-106911507D01*
X110395089Y-106967034D01*
X110274445Y-107047645D01*
X110171845Y-107150245D01*
X110091234Y-107270889D01*
X110035707Y-107404942D01*
X110007400Y-107547251D01*
X104902000Y-107547251D01*
X104902000Y-95795019D01*
X108267500Y-95795019D01*
X108267500Y-96482981D01*
X108401715Y-97157725D01*
X108664986Y-97793319D01*
X109047198Y-98365339D01*
X109533661Y-98851802D01*
X110105681Y-99234014D01*
X110741275Y-99497285D01*
X111416019Y-99631500D01*
X112103981Y-99631500D01*
X112778725Y-99497285D01*
X113414319Y-99234014D01*
X113986339Y-98851802D01*
X114458184Y-98379957D01*
X136195700Y-98379957D01*
X136195700Y-98622443D01*
X136243007Y-98860269D01*
X136335802Y-99084297D01*
X136470520Y-99285917D01*
X136641983Y-99457380D01*
X136843603Y-99592098D01*
X137067631Y-99684893D01*
X137305457Y-99732200D01*
X137547943Y-99732200D01*
X137785769Y-99684893D01*
X138009797Y-99592098D01*
X138211417Y-99457380D01*
X138382880Y-99285917D01*
X138517598Y-99084297D01*
X138610393Y-98860269D01*
X138657700Y-98622443D01*
X138657700Y-98379957D01*
X138610393Y-98142131D01*
X138517598Y-97918103D01*
X138382880Y-97716483D01*
X138211417Y-97545020D01*
X138009797Y-97410302D01*
X137785769Y-97317507D01*
X137547943Y-97270200D01*
X137305457Y-97270200D01*
X137067631Y-97317507D01*
X136843603Y-97410302D01*
X136641983Y-97545020D01*
X136470520Y-97716483D01*
X136335802Y-97918103D01*
X136243007Y-98142131D01*
X136195700Y-98379957D01*
X114458184Y-98379957D01*
X114472802Y-98365339D01*
X114855014Y-97793319D01*
X115118285Y-97157725D01*
X115252500Y-96482981D01*
X115252500Y-96278180D01*
X136237211Y-96278180D01*
X136261566Y-96358488D01*
X136361461Y-96578161D01*
X136502292Y-96774124D01*
X136678648Y-96938847D01*
X136883751Y-97065999D01*
X137109719Y-97150695D01*
X137299700Y-97090387D01*
X137299700Y-96088200D01*
X137553700Y-96088200D01*
X137553700Y-97090387D01*
X137743681Y-97150695D01*
X137969649Y-97065999D01*
X138174752Y-96938847D01*
X138351108Y-96774124D01*
X138491939Y-96578161D01*
X138591834Y-96358488D01*
X138616189Y-96278180D01*
X138555327Y-96088200D01*
X137553700Y-96088200D01*
X137299700Y-96088200D01*
X136298073Y-96088200D01*
X136237211Y-96278180D01*
X115252500Y-96278180D01*
X115252500Y-95795019D01*
X115222505Y-95644220D01*
X136237211Y-95644220D01*
X136298073Y-95834200D01*
X137299700Y-95834200D01*
X137299700Y-94832013D01*
X137553700Y-94832013D01*
X137553700Y-95834200D01*
X138555327Y-95834200D01*
X138616189Y-95644220D01*
X138591834Y-95563912D01*
X138491939Y-95344239D01*
X138351108Y-95148276D01*
X138174752Y-94983553D01*
X137969649Y-94856401D01*
X137743681Y-94771705D01*
X137553700Y-94832013D01*
X137299700Y-94832013D01*
X137109719Y-94771705D01*
X136883751Y-94856401D01*
X136678648Y-94983553D01*
X136502292Y-95148276D01*
X136361461Y-95344239D01*
X136261566Y-95563912D01*
X136237211Y-95644220D01*
X115222505Y-95644220D01*
X115118285Y-95120275D01*
X114855014Y-94484681D01*
X114717363Y-94278671D01*
X139588620Y-94278671D01*
X139588620Y-94423769D01*
X139616927Y-94566078D01*
X139672454Y-94700131D01*
X139753065Y-94820775D01*
X139855665Y-94923375D01*
X139976309Y-95003986D01*
X140110362Y-95059513D01*
X140252671Y-95087820D01*
X140397769Y-95087820D01*
X140540078Y-95059513D01*
X140674131Y-95003986D01*
X140794775Y-94923375D01*
X140795430Y-94922720D01*
X141307698Y-94922720D01*
X142087600Y-95702623D01*
X142087600Y-95703549D01*
X142115907Y-95845858D01*
X142171434Y-95979911D01*
X142252045Y-96100555D01*
X142354645Y-96203155D01*
X142475289Y-96283766D01*
X142609342Y-96339293D01*
X142751651Y-96367600D01*
X142896749Y-96367600D01*
X143039058Y-96339293D01*
X143173111Y-96283766D01*
X143293755Y-96203155D01*
X143396355Y-96100555D01*
X143476966Y-95979911D01*
X143532493Y-95845858D01*
X143560800Y-95703549D01*
X143560800Y-95558451D01*
X143532493Y-95416142D01*
X143476966Y-95282089D01*
X143396355Y-95161445D01*
X143293755Y-95058845D01*
X143173111Y-94978234D01*
X143039058Y-94922707D01*
X142896749Y-94894400D01*
X142895823Y-94894400D01*
X141968390Y-93966968D01*
X141950487Y-93945153D01*
X141863465Y-93873736D01*
X141764182Y-93820668D01*
X141656454Y-93787989D01*
X141572494Y-93779720D01*
X141544420Y-93776955D01*
X141516346Y-93779720D01*
X140795430Y-93779720D01*
X140794775Y-93779065D01*
X140674131Y-93698454D01*
X140540078Y-93642927D01*
X140397769Y-93614620D01*
X140252671Y-93614620D01*
X140110362Y-93642927D01*
X139976309Y-93698454D01*
X139855665Y-93779065D01*
X139753065Y-93881665D01*
X139672454Y-94002309D01*
X139616927Y-94136362D01*
X139588620Y-94278671D01*
X114717363Y-94278671D01*
X114472802Y-93912661D01*
X113986339Y-93426198D01*
X113414319Y-93043986D01*
X112778725Y-92780715D01*
X112103981Y-92646500D01*
X111416019Y-92646500D01*
X110741275Y-92780715D01*
X110105681Y-93043986D01*
X109533661Y-93426198D01*
X109047198Y-93912661D01*
X108664986Y-94484681D01*
X108401715Y-95120275D01*
X108267500Y-95795019D01*
X104902000Y-95795019D01*
X104902000Y-88793611D01*
X104903599Y-88768982D01*
X104966885Y-88283795D01*
X104982842Y-88243251D01*
X139242800Y-88243251D01*
X139242800Y-88388349D01*
X139271107Y-88530658D01*
X139326634Y-88664711D01*
X139407245Y-88785355D01*
X139509845Y-88887955D01*
X139630489Y-88968566D01*
X139764542Y-89024093D01*
X139906851Y-89052400D01*
X140051949Y-89052400D01*
X140194258Y-89024093D01*
X140328311Y-88968566D01*
X140448955Y-88887955D01*
X140500100Y-88836810D01*
X140551245Y-88887955D01*
X140671889Y-88968566D01*
X140805942Y-89024093D01*
X140948251Y-89052400D01*
X140980831Y-89052400D01*
X140970000Y-89106851D01*
X140970000Y-89251949D01*
X140998307Y-89394258D01*
X141053834Y-89528311D01*
X141130950Y-89643724D01*
X141112493Y-89662181D01*
X141031882Y-89782825D01*
X140976355Y-89916878D01*
X140948048Y-90059187D01*
X140948048Y-90204285D01*
X140976355Y-90346594D01*
X141031882Y-90480647D01*
X141112493Y-90601291D01*
X141215093Y-90703891D01*
X141335737Y-90784502D01*
X141469790Y-90840029D01*
X141612099Y-90868336D01*
X141757197Y-90868336D01*
X141899506Y-90840029D01*
X142033559Y-90784502D01*
X142154203Y-90703891D01*
X142256803Y-90601291D01*
X142337414Y-90480647D01*
X142392941Y-90346594D01*
X142410417Y-90258737D01*
X144040588Y-90258737D01*
X144043145Y-90264911D01*
X144123756Y-90385555D01*
X144226356Y-90488155D01*
X144347000Y-90568766D01*
X144481053Y-90624293D01*
X144623362Y-90652600D01*
X144768460Y-90652600D01*
X144910769Y-90624293D01*
X145044822Y-90568766D01*
X145165466Y-90488155D01*
X145268066Y-90385555D01*
X145348677Y-90264911D01*
X145404204Y-90130858D01*
X145432511Y-89988549D01*
X145432511Y-89843451D01*
X145411575Y-89738198D01*
X145574545Y-89738198D01*
X145598250Y-89740533D01*
X145621955Y-89738198D01*
X145621957Y-89738198D01*
X145692856Y-89731215D01*
X145783827Y-89703620D01*
X145867665Y-89658807D01*
X145941151Y-89598499D01*
X145956267Y-89580080D01*
X145979380Y-89556967D01*
X146053863Y-89606734D01*
X146187916Y-89662261D01*
X146330225Y-89690568D01*
X146475323Y-89690568D01*
X146617632Y-89662261D01*
X146751685Y-89606734D01*
X146872329Y-89526123D01*
X146938256Y-89460196D01*
X146938257Y-90123701D01*
X146848701Y-90213257D01*
X146768090Y-90333901D01*
X146712563Y-90467954D01*
X146684256Y-90610263D01*
X146684256Y-90755361D01*
X146712563Y-90897670D01*
X146768090Y-91031723D01*
X146848701Y-91152367D01*
X146951301Y-91254967D01*
X147071945Y-91335578D01*
X147205998Y-91391105D01*
X147348307Y-91419412D01*
X147493405Y-91419412D01*
X147635714Y-91391105D01*
X147769767Y-91335578D01*
X147890411Y-91254967D01*
X147993011Y-91152367D01*
X148073622Y-91031723D01*
X148129149Y-90897670D01*
X148157456Y-90755361D01*
X148157456Y-90610263D01*
X148129149Y-90467954D01*
X148073622Y-90333901D01*
X147993011Y-90213257D01*
X147903456Y-90123702D01*
X147903456Y-88946068D01*
X147905791Y-88922361D01*
X147896473Y-88827754D01*
X147868878Y-88736784D01*
X147859376Y-88719008D01*
X147824065Y-88652946D01*
X147763757Y-88579460D01*
X147745343Y-88564348D01*
X147449174Y-88268179D01*
X150201974Y-88268179D01*
X150152096Y-88342827D01*
X150096569Y-88476880D01*
X150068262Y-88619189D01*
X150068262Y-88764287D01*
X150096569Y-88906596D01*
X150152096Y-89040649D01*
X150232707Y-89161293D01*
X150322263Y-89250849D01*
X150322262Y-89585595D01*
X148766289Y-91141569D01*
X148639639Y-91141569D01*
X148497330Y-91169876D01*
X148363277Y-91225403D01*
X148242633Y-91306014D01*
X148140033Y-91408614D01*
X148059422Y-91529258D01*
X148003895Y-91663311D01*
X147975588Y-91805620D01*
X147975588Y-91950718D01*
X148003895Y-92093027D01*
X148059422Y-92227080D01*
X148124991Y-92325212D01*
X147047306Y-92325212D01*
X147015411Y-92293317D01*
X146894767Y-92212706D01*
X146760714Y-92157179D01*
X146618405Y-92128872D01*
X146473307Y-92128872D01*
X146330998Y-92157179D01*
X146196945Y-92212706D01*
X146076301Y-92293317D01*
X145973701Y-92395917D01*
X145893090Y-92516561D01*
X145837563Y-92650614D01*
X145809256Y-92792923D01*
X145809256Y-92938021D01*
X145837563Y-93080330D01*
X145893090Y-93214383D01*
X145973701Y-93335027D01*
X146076301Y-93437627D01*
X146119439Y-93466451D01*
X146090542Y-93536214D01*
X146062235Y-93678523D01*
X146062235Y-93823621D01*
X146090542Y-93965930D01*
X146146069Y-94099983D01*
X146197488Y-94176938D01*
X146124555Y-94265808D01*
X146053798Y-94398185D01*
X146010226Y-94541822D01*
X145995514Y-94691200D01*
X146010226Y-94840578D01*
X146053798Y-94984215D01*
X146124555Y-95116592D01*
X146219778Y-95232622D01*
X146335808Y-95327845D01*
X146468185Y-95398602D01*
X146611822Y-95442174D01*
X146723774Y-95453200D01*
X150330573Y-95453200D01*
X150367996Y-95456886D01*
X150405419Y-95453200D01*
X150405422Y-95453200D01*
X150517374Y-95442174D01*
X150661011Y-95398602D01*
X150793388Y-95327845D01*
X150909418Y-95232622D01*
X150933280Y-95203546D01*
X152228679Y-93908148D01*
X152300045Y-93821189D01*
X152370801Y-93688812D01*
X152414373Y-93545175D01*
X152429086Y-93395796D01*
X152414373Y-93246418D01*
X152370801Y-93102781D01*
X152300045Y-92970404D01*
X152204821Y-92854375D01*
X152088792Y-92759151D01*
X151956415Y-92688395D01*
X151812778Y-92644823D01*
X151663400Y-92630110D01*
X151514021Y-92644823D01*
X151370384Y-92688395D01*
X151238007Y-92759151D01*
X151151048Y-92830517D01*
X151021087Y-92960478D01*
X151011967Y-92938460D01*
X150931356Y-92817816D01*
X150828756Y-92715216D01*
X150708112Y-92634605D01*
X150574059Y-92579078D01*
X150431750Y-92550771D01*
X150286652Y-92550771D01*
X150272608Y-92553564D01*
X150233397Y-92458901D01*
X150152786Y-92338257D01*
X150050186Y-92235657D01*
X149929542Y-92155046D01*
X149795489Y-92099519D01*
X149653180Y-92071212D01*
X149508082Y-92071212D01*
X149421390Y-92088456D01*
X149448788Y-91950718D01*
X149448788Y-91824068D01*
X151129350Y-90143507D01*
X151147763Y-90128396D01*
X151169774Y-90101576D01*
X151208070Y-90054911D01*
X151217575Y-90037130D01*
X151252884Y-89971072D01*
X151269323Y-89916878D01*
X151280479Y-89880102D01*
X151289797Y-89785495D01*
X151287462Y-89761788D01*
X151287462Y-89250848D01*
X151377017Y-89161293D01*
X151457628Y-89040649D01*
X151513155Y-88906596D01*
X151541462Y-88764287D01*
X151541462Y-88619189D01*
X151522166Y-88522179D01*
X151532769Y-88522179D01*
X151675078Y-88493872D01*
X151809131Y-88438345D01*
X151929775Y-88357734D01*
X152032375Y-88255134D01*
X152112986Y-88134490D01*
X152159303Y-88022671D01*
X152241091Y-88038940D01*
X152386189Y-88038940D01*
X152528498Y-88010633D01*
X152662551Y-87955106D01*
X152783195Y-87874495D01*
X152885795Y-87771895D01*
X152966406Y-87651251D01*
X153021933Y-87517198D01*
X153050240Y-87374889D01*
X153050240Y-87229791D01*
X153021933Y-87087482D01*
X152966406Y-86953429D01*
X152885795Y-86832785D01*
X152783195Y-86730185D01*
X152662551Y-86649574D01*
X152528498Y-86594047D01*
X152386189Y-86565740D01*
X152254517Y-86565740D01*
X152227456Y-86543532D01*
X152143618Y-86498719D01*
X152052647Y-86471124D01*
X151981748Y-86464141D01*
X151981746Y-86464141D01*
X151958041Y-86461806D01*
X151934336Y-86464141D01*
X151339546Y-86464141D01*
X151315839Y-86461806D01*
X151221232Y-86471124D01*
X151152603Y-86491942D01*
X151130262Y-86498719D01*
X151046424Y-86543532D01*
X151037776Y-86550629D01*
X150999463Y-86582072D01*
X150972938Y-86603840D01*
X150957826Y-86622254D01*
X150740021Y-86840060D01*
X140996244Y-86840060D01*
X140972539Y-86837725D01*
X140948834Y-86840060D01*
X140948833Y-86840060D01*
X140877934Y-86847043D01*
X140786963Y-86874638D01*
X140703125Y-86919451D01*
X140690572Y-86929753D01*
X140655556Y-86958490D01*
X140629639Y-86979759D01*
X140614528Y-86998173D01*
X140033501Y-87579200D01*
X139906851Y-87579200D01*
X139764542Y-87607507D01*
X139630489Y-87663034D01*
X139509845Y-87743645D01*
X139407245Y-87846245D01*
X139326634Y-87966889D01*
X139271107Y-88100942D01*
X139242800Y-88243251D01*
X104982842Y-88243251D01*
X105000598Y-88198141D01*
X105197302Y-87922756D01*
X105211882Y-87904767D01*
X105455173Y-87639358D01*
X105485704Y-87612486D01*
X105865946Y-87344079D01*
X105895955Y-87326756D01*
X106157692Y-87205955D01*
X106210491Y-87190362D01*
X106675639Y-87123913D01*
X106702553Y-87122000D01*
X139139865Y-87122000D01*
X139165400Y-87119406D01*
X139265455Y-87098869D01*
X139289948Y-87091194D01*
X139564628Y-86973474D01*
X139580473Y-86965324D01*
X139641260Y-86928446D01*
X139655808Y-86918158D01*
X139892427Y-86724561D01*
X139899670Y-86718159D01*
X139927624Y-86691491D01*
X139934358Y-86684559D01*
X140119753Y-86478565D01*
X140133181Y-86460706D01*
X140180217Y-86385122D01*
X140190308Y-86365189D01*
X140307750Y-86071584D01*
X140314541Y-86048434D01*
X140332708Y-85954101D01*
X140335000Y-85930084D01*
X140335000Y-85766041D01*
X154550598Y-85766041D01*
X154550598Y-85911139D01*
X154578905Y-86053448D01*
X154634432Y-86187501D01*
X154715043Y-86308145D01*
X154804598Y-86397700D01*
X154804599Y-87100299D01*
X154715043Y-87189855D01*
X154634432Y-87310499D01*
X154578905Y-87444552D01*
X154550598Y-87586861D01*
X154550598Y-87731959D01*
X154578905Y-87874268D01*
X154634432Y-88008321D01*
X154715043Y-88128965D01*
X154817643Y-88231565D01*
X154938287Y-88312176D01*
X155072340Y-88367703D01*
X155214649Y-88396010D01*
X155359747Y-88396010D01*
X155502056Y-88367703D01*
X155636109Y-88312176D01*
X155756753Y-88231565D01*
X155859353Y-88128965D01*
X155939964Y-88008321D01*
X155995491Y-87874268D01*
X156023798Y-87731959D01*
X156023798Y-87586861D01*
X155995491Y-87444552D01*
X155939964Y-87310499D01*
X155859353Y-87189855D01*
X155769798Y-87100300D01*
X155769798Y-86397700D01*
X155859353Y-86308145D01*
X155939964Y-86187501D01*
X155995491Y-86053448D01*
X156023798Y-85911139D01*
X156023798Y-85766041D01*
X155995491Y-85623732D01*
X155939964Y-85489679D01*
X155859353Y-85369035D01*
X155756753Y-85266435D01*
X155636109Y-85185824D01*
X155502056Y-85130297D01*
X155359747Y-85101990D01*
X155214649Y-85101990D01*
X155072340Y-85130297D01*
X154938287Y-85185824D01*
X154817643Y-85266435D01*
X154715043Y-85369035D01*
X154634432Y-85489679D01*
X154578905Y-85623732D01*
X154550598Y-85766041D01*
X140335000Y-85766041D01*
X140335000Y-84915851D01*
X157353000Y-84915851D01*
X157353000Y-85060949D01*
X157381307Y-85203258D01*
X157436834Y-85337311D01*
X157517445Y-85457955D01*
X157620045Y-85560555D01*
X157740689Y-85641166D01*
X157874742Y-85696693D01*
X158017051Y-85725000D01*
X158162149Y-85725000D01*
X158304458Y-85696693D01*
X158438511Y-85641166D01*
X158559155Y-85560555D01*
X158648710Y-85471000D01*
X158902090Y-85471000D01*
X158991645Y-85560555D01*
X159112289Y-85641166D01*
X159246342Y-85696693D01*
X159388651Y-85725000D01*
X159533749Y-85725000D01*
X159676058Y-85696693D01*
X159810111Y-85641166D01*
X159930755Y-85560555D01*
X160033355Y-85457955D01*
X160113966Y-85337311D01*
X160169493Y-85203258D01*
X160197800Y-85060949D01*
X160197800Y-84915851D01*
X160169493Y-84773542D01*
X160113966Y-84639489D01*
X160033355Y-84518845D01*
X159930755Y-84416245D01*
X159810111Y-84335634D01*
X159676058Y-84280107D01*
X159533749Y-84251800D01*
X159388651Y-84251800D01*
X159246342Y-84280107D01*
X159112289Y-84335634D01*
X158991645Y-84416245D01*
X158902090Y-84505800D01*
X158648710Y-84505800D01*
X158559155Y-84416245D01*
X158438511Y-84335634D01*
X158304458Y-84280107D01*
X158162149Y-84251800D01*
X158017051Y-84251800D01*
X157874742Y-84280107D01*
X157740689Y-84335634D01*
X157620045Y-84416245D01*
X157517445Y-84518845D01*
X157436834Y-84639489D01*
X157381307Y-84773542D01*
X157353000Y-84915851D01*
X140335000Y-84915851D01*
X140335000Y-81192810D01*
X140335783Y-81175538D01*
X140353320Y-80982644D01*
X140379572Y-80902223D01*
X140381858Y-80898413D01*
X140439306Y-80838164D01*
X140465575Y-80820652D01*
X140553540Y-80789602D01*
X140738538Y-80772783D01*
X140755810Y-80772000D01*
X185393735Y-80772000D01*
X185425029Y-80774590D01*
G37*
G04 #@! TD.AperFunction*
D15*
X159283400Y-120069451D02*
X159283400Y-120214549D01*
X159311707Y-120356858D01*
X159327922Y-120396004D01*
X157859300Y-120396004D01*
X157835595Y-120393669D01*
X157811890Y-120396004D01*
X157811889Y-120396004D01*
X157740990Y-120402987D01*
X157650019Y-120430582D01*
X157566181Y-120475395D01*
X157492695Y-120535703D01*
X157477583Y-120554117D01*
X156873701Y-121158000D01*
X147726162Y-121158000D01*
X147723209Y-121152476D01*
X147690524Y-121112649D01*
X147678013Y-121097404D01*
X147678012Y-121097403D01*
X147662901Y-121078990D01*
X147644487Y-121063879D01*
X146776729Y-120196121D01*
X146776729Y-120069471D01*
X146752255Y-119946430D01*
X159307870Y-119946430D01*
X159283400Y-120069451D01*
G04 #@! TA.AperFunction,Conductor*
D18*
G36*
X159283400Y-120069451D02*
G01*
X159283400Y-120214549D01*
X159311707Y-120356858D01*
X159327922Y-120396004D01*
X157859300Y-120396004D01*
X157835595Y-120393669D01*
X157811890Y-120396004D01*
X157811889Y-120396004D01*
X157740990Y-120402987D01*
X157650019Y-120430582D01*
X157566181Y-120475395D01*
X157492695Y-120535703D01*
X157477583Y-120554117D01*
X156873701Y-121158000D01*
X147726162Y-121158000D01*
X147723209Y-121152476D01*
X147690524Y-121112649D01*
X147678013Y-121097404D01*
X147678012Y-121097403D01*
X147662901Y-121078990D01*
X147644487Y-121063879D01*
X146776729Y-120196121D01*
X146776729Y-120069471D01*
X146752255Y-119946430D01*
X159307870Y-119946430D01*
X159283400Y-120069451D01*
G37*
G04 #@! TD.AperFunction*
D15*
X113538000Y-121158000D02*
X108966000Y-121158000D01*
X108966000Y-118872000D01*
X113538000Y-118872000D01*
X113538000Y-121158000D01*
G04 #@! TA.AperFunction,Conductor*
D18*
G36*
X113538000Y-121158000D02*
G01*
X108966000Y-121158000D01*
X108966000Y-118872000D01*
X113538000Y-118872000D01*
X113538000Y-121158000D01*
G37*
G04 #@! TD.AperFunction*
M02*
