G04 #@! TF.GenerationSoftware,KiCad,Pcbnew,5.1.10*
G04 #@! TF.CreationDate,2021-10-31T11:36:16+01:00*
G04 #@! TF.ProjectId,mega-wifi,6d656761-2d77-4696-9669-2e6b69636164,A1*
G04 #@! TF.SameCoordinates,Original*
G04 #@! TF.FileFunction,Paste,Top*
G04 #@! TF.FilePolarity,Positive*
%FSLAX46Y46*%
G04 Gerber Fmt 4.6, Leading zero omitted, Abs format (unit mm)*
G04 Created by KiCad (PCBNEW 5.1.10) date 2021-10-31 11:36:16*
%MOMM*%
%LPD*%
G01*
G04 APERTURE LIST*
%ADD10O,1.100000X2.400000*%
%ADD11R,2.400000X1.100000*%
%ADD12O,2.400000X1.100000*%
%ADD13R,1.300000X0.700000*%
%ADD14R,1.250000X1.000000*%
%ADD15R,1.270000X0.279400*%
%ADD16R,1.000000X1.250000*%
%ADD17R,0.285000X1.000000*%
%ADD18R,0.400000X1.000000*%
%ADD19R,0.797560X0.797560*%
%ADD20R,1.000760X0.599440*%
%ADD21R,2.032000X3.657600*%
%ADD22R,2.032000X1.016000*%
%ADD23R,1.300000X0.250000*%
%ADD24R,0.250000X1.300000*%
%ADD25R,2.100580X5.600700*%
%ADD26R,2.600960X1.600200*%
%ADD27R,1.060000X0.650000*%
%ADD28R,1.250000X1.380000*%
G04 APERTURE END LIST*
D10*
X121150800Y-104256800D03*
X123150800Y-104256800D03*
X125150800Y-104256800D03*
X127150800Y-104256800D03*
X129150800Y-104256800D03*
X131150800Y-104256800D03*
D11*
X118160800Y-88506800D03*
D12*
X118160800Y-90506800D03*
X118160800Y-92506800D03*
X118160800Y-94506800D03*
X118160800Y-96506800D03*
X118160800Y-98506800D03*
X118160800Y-100506800D03*
X118160800Y-102506800D03*
X134160800Y-102506800D03*
X134160800Y-100506800D03*
X134160800Y-98506800D03*
X134160800Y-96506800D03*
X134160800Y-94506800D03*
X134160800Y-92506800D03*
X134160800Y-90506800D03*
X134160800Y-88506800D03*
D13*
X112776000Y-89855000D03*
X112776000Y-91755000D03*
X114935000Y-89855000D03*
X114935000Y-91755000D03*
X138303000Y-91518700D03*
X138303000Y-93418700D03*
D14*
X162560000Y-115681000D03*
X162560000Y-113681000D03*
D15*
X143105041Y-96988897D03*
X143105041Y-97488897D03*
X143105041Y-97988897D03*
X143105041Y-98488897D03*
X143105041Y-98988897D03*
X143105041Y-99488897D03*
X143105041Y-99988897D03*
X143105041Y-100488897D03*
X143105041Y-100988897D03*
X143105041Y-101488897D03*
X143105041Y-101988897D03*
X143105041Y-102488897D03*
X143105041Y-102988897D03*
X143105041Y-103488897D03*
X143105041Y-103988897D03*
X143105041Y-104488897D03*
X162536041Y-104488897D03*
X162536041Y-103988897D03*
X162536041Y-103488897D03*
X162536041Y-102988897D03*
X162536041Y-102488897D03*
X162536041Y-101988897D03*
X162536041Y-101488897D03*
X162536041Y-100988897D03*
X162536041Y-100488897D03*
X162536041Y-99988897D03*
X162536041Y-99488897D03*
X162536041Y-98988897D03*
X162536041Y-98488897D03*
X162536041Y-97988897D03*
X162536041Y-97488897D03*
X162536041Y-96988897D03*
X143105041Y-104988897D03*
X143105041Y-105488897D03*
X143105041Y-105988897D03*
X143105041Y-106488897D03*
X143105041Y-106988897D03*
X143105041Y-107488897D03*
X143105041Y-107988897D03*
X143105041Y-108488897D03*
X162536041Y-108488897D03*
X162536041Y-107988897D03*
X162536041Y-107488897D03*
X162536041Y-106988897D03*
X162536041Y-106488897D03*
X162536041Y-105988897D03*
X162536041Y-105488897D03*
X162536041Y-104988897D03*
D16*
X165725600Y-102946200D03*
X167725600Y-102946200D03*
D17*
X119980000Y-118685000D03*
X120480000Y-118685000D03*
X120980000Y-118685000D03*
X121480000Y-118685000D03*
X121980000Y-118685000D03*
X122480000Y-118685000D03*
X122980000Y-118685000D03*
X123480000Y-118685000D03*
X123980000Y-118685000D03*
X124480000Y-118685000D03*
X124980000Y-118685000D03*
X125480000Y-118685000D03*
X125980000Y-118685000D03*
X126480000Y-118685000D03*
X126980000Y-118685000D03*
X127480000Y-118685000D03*
X127980000Y-118685000D03*
X128480000Y-118685000D03*
X128980000Y-118685000D03*
X129480000Y-118685000D03*
X129980000Y-118685000D03*
X130480000Y-118685000D03*
X130980000Y-118685000D03*
X131480000Y-118685000D03*
X131480000Y-111185000D03*
X130980000Y-111185000D03*
X130480000Y-111185000D03*
X129980000Y-111185000D03*
X129480000Y-111185000D03*
X128980000Y-111185000D03*
X128480000Y-111185000D03*
X127980000Y-111185000D03*
X127480000Y-111185000D03*
X126980000Y-111185000D03*
X126480000Y-111185000D03*
X125980000Y-111185000D03*
X125480000Y-111185000D03*
X124980000Y-111185000D03*
X124480000Y-111185000D03*
X123980000Y-111185000D03*
X123480000Y-111185000D03*
X122980000Y-111185000D03*
X122480000Y-111185000D03*
X121980000Y-111185000D03*
X121480000Y-111185000D03*
X120980000Y-111185000D03*
X120480000Y-111185000D03*
X119980000Y-111185000D03*
D18*
X147312166Y-112372334D03*
X146662166Y-112372334D03*
X146012166Y-112372334D03*
X145362166Y-112372334D03*
X144712166Y-112372334D03*
X144062166Y-112372334D03*
X143412166Y-112372334D03*
X142762166Y-112372334D03*
X142112166Y-112372334D03*
X141462166Y-112372334D03*
X141462166Y-118172334D03*
X142112166Y-118172334D03*
X142762166Y-118172334D03*
X143412166Y-118172334D03*
X144062166Y-118172334D03*
X144712166Y-118172334D03*
X145362166Y-118172334D03*
X146012166Y-118172334D03*
X146662166Y-118172334D03*
X147312166Y-118172334D03*
D16*
X109585000Y-113665000D03*
X107585000Y-113665000D03*
D14*
X133959600Y-116493800D03*
X133959600Y-114493800D03*
X117475000Y-113935000D03*
X117475000Y-111935000D03*
X149440900Y-116624100D03*
X149440900Y-114624100D03*
X179070000Y-115935000D03*
X179070000Y-113935000D03*
D16*
X151647400Y-94437200D03*
X149647400Y-94437200D03*
D14*
X171492956Y-91408816D03*
X171492956Y-93408816D03*
X171492956Y-88328816D03*
X171492956Y-86328816D03*
D16*
X119253000Y-106807000D03*
X121253000Y-106807000D03*
D19*
X136525000Y-93268800D03*
X136525000Y-91770200D03*
D20*
X143230302Y-87837048D03*
X145343582Y-88789548D03*
X143230302Y-89742048D03*
D13*
X184413345Y-116012813D03*
X184413345Y-114112813D03*
X140589000Y-91506000D03*
X140589000Y-93406000D03*
X181974945Y-114112813D03*
X181974945Y-116012813D03*
X141224000Y-82997000D03*
X141224000Y-84897000D03*
X143398448Y-82969734D03*
X143398448Y-84869734D03*
X145338800Y-94371200D03*
X145338800Y-92471200D03*
X136525000Y-102804000D03*
X136525000Y-100904000D03*
D21*
X114554000Y-108585000D03*
D22*
X107950000Y-108585000D03*
X107950000Y-110871000D03*
X107950000Y-106299000D03*
D17*
X176600000Y-111125000D03*
X176100000Y-111125000D03*
X175600000Y-111125000D03*
X175100000Y-111125000D03*
X174600000Y-111125000D03*
X174100000Y-111125000D03*
X173600000Y-111125000D03*
X173100000Y-111125000D03*
X172600000Y-111125000D03*
X172100000Y-111125000D03*
X171600000Y-111125000D03*
X171100000Y-111125000D03*
X170600000Y-111125000D03*
X170100000Y-111125000D03*
X169600000Y-111125000D03*
X169100000Y-111125000D03*
X168600000Y-111125000D03*
X168100000Y-111125000D03*
X167600000Y-111125000D03*
X167100000Y-111125000D03*
X166600000Y-111125000D03*
X166100000Y-111125000D03*
X165600000Y-111125000D03*
X165100000Y-111125000D03*
X165100000Y-118625000D03*
X165600000Y-118625000D03*
X166100000Y-118625000D03*
X166600000Y-118625000D03*
X167100000Y-118625000D03*
X167600000Y-118625000D03*
X168100000Y-118625000D03*
X168600000Y-118625000D03*
X169100000Y-118625000D03*
X169600000Y-118625000D03*
X170100000Y-118625000D03*
X170600000Y-118625000D03*
X171100000Y-118625000D03*
X171600000Y-118625000D03*
X172100000Y-118625000D03*
X172600000Y-118625000D03*
X173100000Y-118625000D03*
X173600000Y-118625000D03*
X174100000Y-118625000D03*
X174600000Y-118625000D03*
X175100000Y-118625000D03*
X175600000Y-118625000D03*
X176100000Y-118625000D03*
X176600000Y-118625000D03*
D23*
X156496000Y-89999000D03*
X156496000Y-89499000D03*
X156496000Y-88999000D03*
X156496000Y-88499000D03*
X156496000Y-87999000D03*
X156496000Y-87499000D03*
X156496000Y-86999000D03*
X156496000Y-86499000D03*
X156496000Y-85999000D03*
X156496000Y-85499000D03*
X156496000Y-84999000D03*
X156496000Y-84499000D03*
D24*
X154896000Y-82899000D03*
X154396000Y-82899000D03*
X153896000Y-82899000D03*
X153396000Y-82899000D03*
X152896000Y-82899000D03*
X152396000Y-82899000D03*
X151896000Y-82899000D03*
X151396000Y-82899000D03*
X150896000Y-82899000D03*
X150396000Y-82899000D03*
X149896000Y-82899000D03*
X149396000Y-82899000D03*
D23*
X147796000Y-84499000D03*
X147796000Y-84999000D03*
X147796000Y-85499000D03*
X147796000Y-85999000D03*
X147796000Y-86499000D03*
X147796000Y-86999000D03*
X147796000Y-87499000D03*
X147796000Y-87999000D03*
X147796000Y-88499000D03*
X147796000Y-88999000D03*
X147796000Y-89499000D03*
X147796000Y-89999000D03*
D24*
X149396000Y-91599000D03*
X149896000Y-91599000D03*
X150396000Y-91599000D03*
X150896000Y-91599000D03*
X151396000Y-91599000D03*
X151896000Y-91599000D03*
X152396000Y-91599000D03*
X152896000Y-91599000D03*
X153396000Y-91599000D03*
X153896000Y-91599000D03*
X154396000Y-91599000D03*
X154896000Y-91599000D03*
D25*
X166412956Y-94717676D03*
X166412956Y-85019956D03*
D26*
X111655860Y-117475000D03*
X108054140Y-117475000D03*
X111655860Y-102235000D03*
X108054140Y-102235000D03*
D27*
X155829000Y-115661400D03*
X155829000Y-116611400D03*
X155829000Y-117561400D03*
X158029000Y-117561400D03*
X158029000Y-115661400D03*
D28*
X153162000Y-117523000D03*
X153162000Y-115903000D03*
X145557448Y-82982734D03*
X145557448Y-84602734D03*
D16*
X158099000Y-113563400D03*
X156099000Y-113563400D03*
D28*
X160020000Y-115928400D03*
X160020000Y-117548400D03*
D14*
X106045000Y-94250000D03*
X106045000Y-96250000D03*
D13*
X136753600Y-118780600D03*
X136753600Y-116880600D03*
X139039600Y-116880600D03*
X139039600Y-118780600D03*
X106045000Y-92705000D03*
X106045000Y-90805000D03*
D28*
X114681000Y-116665000D03*
X114681000Y-118285000D03*
X116713000Y-116665000D03*
X116713000Y-118285000D03*
M02*
